{
  "header": {
    "PPQ": 384,
    "timeSignature": [
      4,
      4
    ],
    "bpm": 140.00014000014,
    "name": "Choir"
  },
  "startTime": 0,
  "duration": 273.42383371875053,
  "tracks": [
    {
      "startTime": 0,
      "duration": 0,
      "length": 0,
      "notes": [],
      "controlChanges": {},
      "id": 0
    },
    {
      "startTime": 1.7142840000000001,
      "duration": 267.3211612499997,
      "length": 340,
      "notes": [
        {
          "name": "G4",
          "midi": 67,
          "time": 1.7142840000000001,
          "velocity": 0.8661417322834646,
          "duration": 0.35714250000000014
        },
        {
          "name": "B4",
          "midi": 71,
          "time": 1.7142840000000001,
          "velocity": 0.8661417322834646,
          "duration": 0.35714250000000014
        },
        {
          "name": "G4",
          "midi": 67,
          "time": 2.1428550000000004,
          "velocity": 0.8661417322834646,
          "duration": 2.8928542499999996
        },
        {
          "name": "B4",
          "midi": 71,
          "time": 2.1428550000000004,
          "velocity": 0.8661417322834646,
          "duration": 2.8928542499999996
        },
        {
          "name": "A4",
          "midi": 69,
          "time": 5.142852,
          "velocity": 0.8661417322834646,
          "duration": 0.35714250000000014
        },
        {
          "name": "B4",
          "midi": 71,
          "time": 5.142852,
          "velocity": 0.8661417322834646,
          "duration": 0.35714250000000014
        },
        {
          "name": "F#4",
          "midi": 66,
          "time": 5.571423,
          "velocity": 0.8661417322834646,
          "duration": 2.89285425
        },
        {
          "name": "B4",
          "midi": 71,
          "time": 5.571423,
          "velocity": 0.8661417322834646,
          "duration": 2.89285425
        },
        {
          "name": "E4",
          "midi": 64,
          "time": 8.999991,
          "velocity": 0.8661417322834646,
          "duration": 0.35714250000000014
        },
        {
          "name": "B4",
          "midi": 71,
          "time": 8.999991,
          "velocity": 0.8661417322834646,
          "duration": 0.35714250000000014
        },
        {
          "name": "E5",
          "midi": 76,
          "time": 8.999991,
          "velocity": 0.8661417322834646,
          "duration": 0.35714250000000014
        },
        {
          "name": "E4",
          "midi": 64,
          "time": 9.428562,
          "velocity": 0.8661417322834646,
          "duration": 2.892854249999999
        },
        {
          "name": "B4",
          "midi": 71,
          "time": 9.428562,
          "velocity": 0.8661417322834646,
          "duration": 2.892854249999999
        },
        {
          "name": "E5",
          "midi": 76,
          "time": 9.428562,
          "velocity": 0.8661417322834646,
          "duration": 2.892854249999999
        },
        {
          "name": "F#4",
          "midi": 66,
          "time": 12.428558999999998,
          "velocity": 0.8661417322834646,
          "duration": 0.35714250000000014
        },
        {
          "name": "A4",
          "midi": 69,
          "time": 12.428558999999998,
          "velocity": 0.8661417322834646,
          "duration": 0.35714250000000014
        },
        {
          "name": "F#5",
          "midi": 78,
          "time": 12.428558999999998,
          "velocity": 0.8661417322834646,
          "duration": 0.35714250000000014
        },
        {
          "name": "C5",
          "midi": 72,
          "time": 12.857129999999998,
          "velocity": 0.8661417322834646,
          "duration": 0.35714250000000014
        },
        {
          "name": "D#5",
          "midi": 75,
          "time": 12.857129999999998,
          "velocity": 0.8661417322834646,
          "duration": 0.35714250000000014
        },
        {
          "name": "C5",
          "midi": 72,
          "time": 13.285700999999998,
          "velocity": 0.8661417322834646,
          "duration": 0.35714250000000014
        },
        {
          "name": "D#5",
          "midi": 75,
          "time": 13.285700999999998,
          "velocity": 0.8661417322834646,
          "duration": 0.35714250000000014
        },
        {
          "name": "G4",
          "midi": 67,
          "time": 70.714215,
          "velocity": 0.8661417322834646,
          "duration": 0.20982121874999393
        },
        {
          "name": "B4",
          "midi": 71,
          "time": 70.714215,
          "velocity": 0.8661417322834646,
          "duration": 0.20982121874999393
        },
        {
          "name": "G4",
          "midi": 67,
          "time": 70.92850049999998,
          "velocity": 0.8661417322834646,
          "duration": 3.1071397500000018
        },
        {
          "name": "B4",
          "midi": 71,
          "time": 70.92850049999998,
          "velocity": 0.8661417322834646,
          "duration": 3.1071397500000018
        },
        {
          "name": "G4",
          "midi": 67,
          "time": 74.14278299999998,
          "velocity": 0.8661417322834646,
          "duration": 0.3169639687500023
        },
        {
          "name": "B4",
          "midi": 71,
          "time": 74.14278299999998,
          "velocity": 0.8661417322834646,
          "duration": 0.3169639687500023
        },
        {
          "name": "F#4",
          "midi": 66,
          "time": 74.46421124999998,
          "velocity": 0.8661417322834646,
          "duration": 0.2633925937499981
        },
        {
          "name": "A4",
          "midi": 69,
          "time": 74.46421124999998,
          "velocity": 0.8661417322834646,
          "duration": 0.2633925937499981
        },
        {
          "name": "F#4",
          "midi": 66,
          "time": 74.73206812499997,
          "velocity": 0.8661417322834646,
          "duration": 2.732140125000001
        },
        {
          "name": "A4",
          "midi": 69,
          "time": 74.73206812499997,
          "velocity": 0.8661417322834646,
          "duration": 2.732140125000001
        },
        {
          "name": "G4",
          "midi": 67,
          "time": 77.57135099999996,
          "velocity": 0.8661417322834646,
          "duration": 0.20982121874999393
        },
        {
          "name": "B4",
          "midi": 71,
          "time": 77.57135099999996,
          "velocity": 0.8661417322834646,
          "duration": 0.20982121874999393
        },
        {
          "name": "G4",
          "midi": 67,
          "time": 77.78563649999995,
          "velocity": 0.8661417322834646,
          "duration": 3.1071397500000018
        },
        {
          "name": "B4",
          "midi": 71,
          "time": 77.78563649999995,
          "velocity": 0.8661417322834646,
          "duration": 3.1071397500000018
        },
        {
          "name": "G4",
          "midi": 67,
          "time": 80.99991899999995,
          "velocity": 0.8661417322834646,
          "duration": 0.3571424999999948
        },
        {
          "name": "B4",
          "midi": 71,
          "time": 80.99991899999995,
          "velocity": 0.8661417322834646,
          "duration": 0.3571424999999948
        },
        {
          "name": "F#4",
          "midi": 66,
          "time": 81.42848999999994,
          "velocity": 0.8661417322834646,
          "duration": 2.892854249999999
        },
        {
          "name": "A4",
          "midi": 69,
          "time": 81.42848999999994,
          "velocity": 0.8661417322834646,
          "duration": 2.892854249999999
        },
        {
          "name": "E4",
          "midi": 64,
          "time": 91.28562299999994,
          "velocity": 0.8661417322834646,
          "duration": 0.20982121874999393
        },
        {
          "name": "B4",
          "midi": 71,
          "time": 91.28562299999994,
          "velocity": 0.8661417322834646,
          "duration": 0.20982121874999393
        },
        {
          "name": "E5",
          "midi": 76,
          "time": 91.28562299999994,
          "velocity": 0.8661417322834646,
          "duration": 0.20982121874999393
        },
        {
          "name": "E4",
          "midi": 64,
          "time": 91.49990849999993,
          "velocity": 0.8661417322834646,
          "duration": 2.6785687499999966
        },
        {
          "name": "B4",
          "midi": 71,
          "time": 91.49990849999993,
          "velocity": 0.8661417322834646,
          "duration": 2.6785687499999966
        },
        {
          "name": "E5",
          "midi": 76,
          "time": 91.49990849999993,
          "velocity": 0.8661417322834646,
          "duration": 2.6785687499999966
        },
        {
          "name": "F#4",
          "midi": 66,
          "time": 94.71419099999993,
          "velocity": 0.8661417322834646,
          "duration": 0.3571424999999948
        },
        {
          "name": "C5",
          "midi": 72,
          "time": 94.71419099999993,
          "velocity": 0.8661417322834646,
          "duration": 0.3571424999999948
        },
        {
          "name": "F#5",
          "midi": 78,
          "time": 94.71419099999993,
          "velocity": 0.8661417322834646,
          "duration": 0.3571424999999948
        },
        {
          "name": "C5",
          "midi": 72,
          "time": 95.14276199999992,
          "velocity": 0.8661417322834646,
          "duration": 2.464283249999994
        },
        {
          "name": "D#5",
          "midi": 75,
          "time": 95.14276199999992,
          "velocity": 0.8661417322834646,
          "duration": 2.464283249999994
        },
        {
          "name": "E4",
          "midi": 64,
          "time": 98.14275899999991,
          "velocity": 0.8661417322834646,
          "duration": 0.3169639687500023
        },
        {
          "name": "B4",
          "midi": 71,
          "time": 98.14275899999991,
          "velocity": 0.8661417322834646,
          "duration": 0.3169639687500023
        },
        {
          "name": "E5",
          "midi": 76,
          "time": 98.14275899999991,
          "velocity": 0.8661417322834646,
          "duration": 0.3169639687500023
        },
        {
          "name": "E4",
          "midi": 64,
          "time": 98.46418724999991,
          "velocity": 0.8661417322834646,
          "duration": 0.2633925937499981
        },
        {
          "name": "B4",
          "midi": 71,
          "time": 98.46418724999991,
          "velocity": 0.8661417322834646,
          "duration": 0.2633925937499981
        },
        {
          "name": "E5",
          "midi": 76,
          "time": 98.46418724999991,
          "velocity": 0.8661417322834646,
          "duration": 0.2633925937499981
        },
        {
          "name": "E4",
          "midi": 64,
          "time": 98.7320441249999,
          "velocity": 0.8661417322834646,
          "duration": 2.3035691249999957
        },
        {
          "name": "B4",
          "midi": 71,
          "time": 98.7320441249999,
          "velocity": 0.8661417322834646,
          "duration": 2.3035691249999957
        },
        {
          "name": "E5",
          "midi": 76,
          "time": 98.7320441249999,
          "velocity": 0.8661417322834646,
          "duration": 2.3035691249999957
        },
        {
          "name": "F#4",
          "midi": 66,
          "time": 101.5713269999999,
          "velocity": 0.8661417322834646,
          "duration": 0.3571424999999948
        },
        {
          "name": "C5",
          "midi": 72,
          "time": 101.5713269999999,
          "velocity": 0.8661417322834646,
          "duration": 0.3571424999999948
        },
        {
          "name": "F#5",
          "midi": 78,
          "time": 101.5713269999999,
          "velocity": 0.8661417322834646,
          "duration": 0.3571424999999948
        },
        {
          "name": "C5",
          "midi": 72,
          "time": 101.99989799999989,
          "velocity": 0.8661417322834646,
          "duration": 2.464283249999994
        },
        {
          "name": "D#5",
          "midi": 75,
          "time": 101.99989799999989,
          "velocity": 0.8661417322834646,
          "duration": 2.464283249999994
        },
        {
          "name": "E4",
          "midi": 64,
          "time": 104.99989499999988,
          "velocity": 0.8661417322834646,
          "duration": 0.20982121874999393
        },
        {
          "name": "G4",
          "midi": 67,
          "time": 104.99989499999988,
          "velocity": 0.8661417322834646,
          "duration": 0.20982121874999393
        },
        {
          "name": "B4",
          "midi": 71,
          "time": 104.99989499999988,
          "velocity": 0.8661417322834646,
          "duration": 0.20982121874999393
        },
        {
          "name": "E5",
          "midi": 76,
          "time": 104.99989499999988,
          "velocity": 0.8661417322834646,
          "duration": 0.20982121874999393
        },
        {
          "name": "G5",
          "midi": 79,
          "time": 104.99989499999988,
          "velocity": 0.8661417322834646,
          "duration": 0.20982121874999393
        },
        {
          "name": "E4",
          "midi": 64,
          "time": 105.21418049999987,
          "velocity": 0.8661417322834646,
          "duration": 2.6785687499999966
        },
        {
          "name": "G4",
          "midi": 67,
          "time": 105.21418049999987,
          "velocity": 0.8661417322834646,
          "duration": 2.6785687499999966
        },
        {
          "name": "B4",
          "midi": 71,
          "time": 105.21418049999987,
          "velocity": 0.8661417322834646,
          "duration": 2.6785687499999966
        },
        {
          "name": "E5",
          "midi": 76,
          "time": 105.21418049999987,
          "velocity": 0.8661417322834646,
          "duration": 2.6785687499999966
        },
        {
          "name": "G5",
          "midi": 79,
          "time": 105.21418049999987,
          "velocity": 0.8661417322834646,
          "duration": 2.6785687499999966
        },
        {
          "name": "E4",
          "midi": 64,
          "time": 108.42846299999987,
          "velocity": 0.8661417322834646,
          "duration": 0.20982121874999393
        },
        {
          "name": "G4",
          "midi": 67,
          "time": 108.42846299999987,
          "velocity": 0.8661417322834646,
          "duration": 0.20982121874999393
        },
        {
          "name": "C5",
          "midi": 72,
          "time": 108.42846299999987,
          "velocity": 0.8661417322834646,
          "duration": 0.20982121874999393
        },
        {
          "name": "E5",
          "midi": 76,
          "time": 108.42846299999987,
          "velocity": 0.8661417322834646,
          "duration": 0.20982121874999393
        },
        {
          "name": "G5",
          "midi": 79,
          "time": 108.42846299999987,
          "velocity": 0.8661417322834646,
          "duration": 0.20982121874999393
        },
        {
          "name": "E4",
          "midi": 64,
          "time": 108.64274849999985,
          "velocity": 0.8661417322834646,
          "duration": 2.6785687499999966
        },
        {
          "name": "G4",
          "midi": 67,
          "time": 108.64274849999985,
          "velocity": 0.8661417322834646,
          "duration": 2.6785687499999966
        },
        {
          "name": "B4",
          "midi": 71,
          "time": 108.64274849999985,
          "velocity": 0.8661417322834646,
          "duration": 2.6785687499999966
        },
        {
          "name": "E5",
          "midi": 76,
          "time": 108.64274849999985,
          "velocity": 0.8661417322834646,
          "duration": 2.6785687499999966
        },
        {
          "name": "G5",
          "midi": 79,
          "time": 108.64274849999985,
          "velocity": 0.8661417322834646,
          "duration": 2.6785687499999966
        },
        {
          "name": "E4",
          "midi": 64,
          "time": 111.85703099999985,
          "velocity": 0.8661417322834646,
          "duration": 0.20982121874999393
        },
        {
          "name": "A4",
          "midi": 69,
          "time": 111.85703099999985,
          "velocity": 0.8661417322834646,
          "duration": 0.20982121874999393
        },
        {
          "name": "C5",
          "midi": 72,
          "time": 111.85703099999985,
          "velocity": 0.8661417322834646,
          "duration": 0.20982121874999393
        },
        {
          "name": "E5",
          "midi": 76,
          "time": 111.85703099999985,
          "velocity": 0.8661417322834646,
          "duration": 0.20982121874999393
        },
        {
          "name": "A5",
          "midi": 81,
          "time": 111.85703099999985,
          "velocity": 0.8661417322834646,
          "duration": 0.20982121874999393
        },
        {
          "name": "E4",
          "midi": 64,
          "time": 112.07131649999984,
          "velocity": 0.8661417322834646,
          "duration": 1.3928557499999954
        },
        {
          "name": "F#4",
          "midi": 66,
          "time": 112.07131649999984,
          "velocity": 0.8661417322834646,
          "duration": 1.3928557499999954
        },
        {
          "name": "A4",
          "midi": 69,
          "time": 112.07131649999984,
          "velocity": 0.8661417322834646,
          "duration": 1.3928557499999954
        },
        {
          "name": "E5",
          "midi": 76,
          "time": 112.07131649999984,
          "velocity": 0.8661417322834646,
          "duration": 1.3928557499999954
        },
        {
          "name": "F#5",
          "midi": 78,
          "time": 112.07131649999984,
          "velocity": 0.8661417322834646,
          "duration": 1.3928557499999954
        },
        {
          "name": "G4",
          "midi": 67,
          "time": 113.57131499999983,
          "velocity": 0.8661417322834646,
          "duration": 0.20982121874999393
        },
        {
          "name": "B4",
          "midi": 71,
          "time": 113.57131499999983,
          "velocity": 0.8661417322834646,
          "duration": 0.20982121874999393
        },
        {
          "name": "G4",
          "midi": 67,
          "time": 113.78560049999982,
          "velocity": 0.8661417322834646,
          "duration": 0.20982121874999393
        },
        {
          "name": "B4",
          "midi": 71,
          "time": 113.78560049999982,
          "velocity": 0.8661417322834646,
          "duration": 0.20982121874999393
        },
        {
          "name": "G4",
          "midi": 67,
          "time": 114.42845699999981,
          "velocity": 0.8661417322834646,
          "duration": 0.20982121874999393
        },
        {
          "name": "B4",
          "midi": 71,
          "time": 114.42845699999981,
          "velocity": 0.8661417322834646,
          "duration": 0.20982121874999393
        },
        {
          "name": "G4",
          "midi": 67,
          "time": 114.6427424999998,
          "velocity": 0.8661417322834646,
          "duration": 0.20982121874999393
        },
        {
          "name": "B4",
          "midi": 71,
          "time": 114.6427424999998,
          "velocity": 0.8661417322834646,
          "duration": 0.20982121874999393
        },
        {
          "name": "G4",
          "midi": 67,
          "time": 115.28559899999979,
          "velocity": 0.8661417322834646,
          "duration": 0.20982121874999393
        },
        {
          "name": "B4",
          "midi": 71,
          "time": 115.28559899999979,
          "velocity": 0.8661417322834646,
          "duration": 0.20982121874999393
        },
        {
          "name": "G4",
          "midi": 67,
          "time": 115.49988449999978,
          "velocity": 0.8661417322834646,
          "duration": 0.20982121874999393
        },
        {
          "name": "B4",
          "midi": 71,
          "time": 115.49988449999978,
          "velocity": 0.8661417322834646,
          "duration": 0.20982121874999393
        },
        {
          "name": "A4",
          "midi": 69,
          "time": 116.14274099999977,
          "velocity": 0.8661417322834646,
          "duration": 0.20982121874999393
        },
        {
          "name": "B4",
          "midi": 71,
          "time": 116.14274099999977,
          "velocity": 0.8661417322834646,
          "duration": 0.20982121874999393
        },
        {
          "name": "F#4",
          "midi": 66,
          "time": 116.35702649999976,
          "velocity": 0.8661417322834646,
          "duration": 0.20982121874999393
        },
        {
          "name": "B4",
          "midi": 71,
          "time": 116.35702649999976,
          "velocity": 0.8661417322834646,
          "duration": 0.20982121874999393
        },
        {
          "name": "G4",
          "midi": 67,
          "time": 116.99988299999976,
          "velocity": 0.8661417322834646,
          "duration": 0.20982121874999393
        },
        {
          "name": "B4",
          "midi": 71,
          "time": 116.99988299999976,
          "velocity": 0.8661417322834646,
          "duration": 0.20982121874999393
        },
        {
          "name": "E5",
          "midi": 76,
          "time": 116.99988299999976,
          "velocity": 0.8661417322834646,
          "duration": 0.20982121874999393
        },
        {
          "name": "G4",
          "midi": 67,
          "time": 117.21416849999974,
          "velocity": 0.8661417322834646,
          "duration": 0.20982121874999393
        },
        {
          "name": "B4",
          "midi": 71,
          "time": 117.21416849999974,
          "velocity": 0.8661417322834646,
          "duration": 0.20982121874999393
        },
        {
          "name": "E5",
          "midi": 76,
          "time": 117.21416849999974,
          "velocity": 0.8661417322834646,
          "duration": 0.20982121874999393
        },
        {
          "name": "G4",
          "midi": 67,
          "time": 117.85702499999974,
          "velocity": 0.8661417322834646,
          "duration": 0.20982121874999393
        },
        {
          "name": "B4",
          "midi": 71,
          "time": 117.85702499999974,
          "velocity": 0.8661417322834646,
          "duration": 0.20982121874999393
        },
        {
          "name": "E5",
          "midi": 76,
          "time": 117.85702499999974,
          "velocity": 0.8661417322834646,
          "duration": 0.20982121874999393
        },
        {
          "name": "G4",
          "midi": 67,
          "time": 118.07131049999973,
          "velocity": 0.8661417322834646,
          "duration": 0.20982121874999393
        },
        {
          "name": "B4",
          "midi": 71,
          "time": 118.07131049999973,
          "velocity": 0.8661417322834646,
          "duration": 0.20982121874999393
        },
        {
          "name": "E5",
          "midi": 76,
          "time": 118.07131049999973,
          "velocity": 0.8661417322834646,
          "duration": 0.20982121874999393
        },
        {
          "name": "G4",
          "midi": 67,
          "time": 118.71416699999972,
          "velocity": 0.8661417322834646,
          "duration": 0.20982121874999393
        },
        {
          "name": "B4",
          "midi": 71,
          "time": 118.71416699999972,
          "velocity": 0.8661417322834646,
          "duration": 0.20982121874999393
        },
        {
          "name": "E5",
          "midi": 76,
          "time": 118.71416699999972,
          "velocity": 0.8661417322834646,
          "duration": 0.20982121874999393
        },
        {
          "name": "G4",
          "midi": 67,
          "time": 118.92845249999971,
          "velocity": 0.8661417322834646,
          "duration": 0.20982121874999393
        },
        {
          "name": "B4",
          "midi": 71,
          "time": 118.92845249999971,
          "velocity": 0.8661417322834646,
          "duration": 0.20982121874999393
        },
        {
          "name": "E5",
          "midi": 76,
          "time": 118.92845249999971,
          "velocity": 0.8661417322834646,
          "duration": 0.20982121874999393
        },
        {
          "name": "A4",
          "midi": 69,
          "time": 119.5713089999997,
          "velocity": 0.8661417322834646,
          "duration": 0.20982121874999393
        },
        {
          "name": "B4",
          "midi": 71,
          "time": 119.5713089999997,
          "velocity": 0.8661417322834646,
          "duration": 0.20982121874999393
        },
        {
          "name": "E5",
          "midi": 76,
          "time": 119.5713089999997,
          "velocity": 0.8661417322834646,
          "duration": 0.20982121874999393
        },
        {
          "name": "F#4",
          "midi": 66,
          "time": 119.78559449999969,
          "velocity": 0.8661417322834646,
          "duration": 0.20982121874999393
        },
        {
          "name": "B4",
          "midi": 71,
          "time": 119.78559449999969,
          "velocity": 0.8661417322834646,
          "duration": 0.20982121874999393
        },
        {
          "name": "E5",
          "midi": 76,
          "time": 119.78559449999969,
          "velocity": 0.8661417322834646,
          "duration": 0.20982121874999393
        },
        {
          "name": "A#4",
          "midi": 70,
          "time": 120.42845099999968,
          "velocity": 0.8661417322834646,
          "duration": 0.20982121874999393
        },
        {
          "name": "D5",
          "midi": 74,
          "time": 120.42845099999968,
          "velocity": 0.8661417322834646,
          "duration": 0.20982121874999393
        },
        {
          "name": "A#4",
          "midi": 70,
          "time": 120.64273649999967,
          "velocity": 0.8661417322834646,
          "duration": 2.6785687499999966
        },
        {
          "name": "D5",
          "midi": 74,
          "time": 120.64273649999967,
          "velocity": 0.8661417322834646,
          "duration": 2.6785687499999966
        },
        {
          "name": "C5",
          "midi": 72,
          "time": 123.85701899999967,
          "velocity": 0.8661417322834646,
          "duration": 0.20982121874999393
        },
        {
          "name": "D5",
          "midi": 74,
          "time": 123.85701899999967,
          "velocity": 0.8661417322834646,
          "duration": 0.20982121874999393
        },
        {
          "name": "A4",
          "midi": 69,
          "time": 124.07130449999966,
          "velocity": 0.8661417322834646,
          "duration": 2.6785687499999966
        },
        {
          "name": "D5",
          "midi": 74,
          "time": 124.07130449999966,
          "velocity": 0.8661417322834646,
          "duration": 2.6785687499999966
        },
        {
          "name": "G4",
          "midi": 67,
          "time": 127.28558699999965,
          "velocity": 0.8661417322834646,
          "duration": 0.3169639687500023
        },
        {
          "name": "D5",
          "midi": 74,
          "time": 127.28558699999965,
          "velocity": 0.8661417322834646,
          "duration": 0.3169639687500023
        },
        {
          "name": "G5",
          "midi": 79,
          "time": 127.28558699999965,
          "velocity": 0.8661417322834646,
          "duration": 0.3169639687500023
        },
        {
          "name": "G4",
          "midi": 67,
          "time": 127.60701524999965,
          "velocity": 0.8661417322834646,
          "duration": 2.5714260000000024
        },
        {
          "name": "D5",
          "midi": 74,
          "time": 127.60701524999965,
          "velocity": 0.8661417322834646,
          "duration": 2.5714260000000024
        },
        {
          "name": "G5",
          "midi": 79,
          "time": 127.60701524999965,
          "velocity": 0.8661417322834646,
          "duration": 2.5714260000000024
        },
        {
          "name": "F4",
          "midi": 65,
          "time": 130.71415499999966,
          "velocity": 0.8661417322834646,
          "duration": 0.3169639687500023
        },
        {
          "name": "G4",
          "midi": 67,
          "time": 130.71415499999966,
          "velocity": 0.8661417322834646,
          "duration": 0.3169639687500023
        },
        {
          "name": "F5",
          "midi": 77,
          "time": 130.71415499999966,
          "velocity": 0.8661417322834646,
          "duration": 0.3169639687500023
        },
        {
          "name": "G5",
          "midi": 79,
          "time": 130.71415499999966,
          "velocity": 0.8661417322834646,
          "duration": 0.3169639687500023
        },
        {
          "name": "G4",
          "midi": 67,
          "time": 131.03558324999966,
          "velocity": 0.8661417322834646,
          "duration": 0.26339259375001234
        },
        {
          "name": "D#5",
          "midi": 75,
          "time": 131.03558324999966,
          "velocity": 0.8661417322834646,
          "duration": 0.26339259375001234
        },
        {
          "name": "G5",
          "midi": 79,
          "time": 131.03558324999966,
          "velocity": 0.8661417322834646,
          "duration": 0.26339259375001234
        },
        {
          "name": "G4",
          "midi": 67,
          "time": 131.30344012499967,
          "velocity": 0.8661417322834646,
          "duration": 2.732140125000001
        },
        {
          "name": "D#5",
          "midi": 75,
          "time": 131.30344012499967,
          "velocity": 0.8661417322834646,
          "duration": 2.732140125000001
        },
        {
          "name": "G5",
          "midi": 79,
          "time": 131.30344012499967,
          "velocity": 0.8661417322834646,
          "duration": 2.732140125000001
        },
        {
          "name": "G4",
          "midi": 67,
          "time": 185.57124299999967,
          "velocity": 0.8661417322834646,
          "duration": 0.20982121874999393
        },
        {
          "name": "D5",
          "midi": 74,
          "time": 185.57124299999967,
          "velocity": 0.8661417322834646,
          "duration": 0.20982121874999393
        },
        {
          "name": "G4",
          "midi": 67,
          "time": 185.78552849999966,
          "velocity": 0.8661417322834646,
          "duration": 2.678568750000011
        },
        {
          "name": "D5",
          "midi": 74,
          "time": 185.78552849999966,
          "velocity": 0.8661417322834646,
          "duration": 2.678568750000011
        },
        {
          "name": "G4",
          "midi": 67,
          "time": 188.99981099999968,
          "velocity": 0.8661417322834646,
          "duration": 0.3169639687500023
        },
        {
          "name": "D#5",
          "midi": 75,
          "time": 188.99981099999968,
          "velocity": 0.8661417322834646,
          "duration": 0.3169639687500023
        },
        {
          "name": "G4",
          "midi": 67,
          "time": 189.32123924999968,
          "velocity": 0.8661417322834646,
          "duration": 2.5714260000000024
        },
        {
          "name": "C5",
          "midi": 72,
          "time": 189.32123924999968,
          "velocity": 0.8661417322834646,
          "duration": 2.5714260000000024
        },
        {
          "name": "G4",
          "midi": 67,
          "time": 192.4283789999997,
          "velocity": 0.8661417322834646,
          "duration": 0.20982121874999393
        },
        {
          "name": "D5",
          "midi": 74,
          "time": 192.4283789999997,
          "velocity": 0.8661417322834646,
          "duration": 0.20982121874999393
        },
        {
          "name": "G5",
          "midi": 79,
          "time": 192.4283789999997,
          "velocity": 0.8661417322834646,
          "duration": 0.20982121874999393
        },
        {
          "name": "G4",
          "midi": 67,
          "time": 192.64266449999968,
          "velocity": 0.8661417322834646,
          "duration": 2.678568750000011
        },
        {
          "name": "D5",
          "midi": 74,
          "time": 192.64266449999968,
          "velocity": 0.8661417322834646,
          "duration": 2.678568750000011
        },
        {
          "name": "G5",
          "midi": 79,
          "time": 192.64266449999968,
          "velocity": 0.8661417322834646,
          "duration": 2.678568750000011
        },
        {
          "name": "A4",
          "midi": 69,
          "time": 195.8569469999997,
          "velocity": 0.8661417322834646,
          "duration": 0.3169639687500023
        },
        {
          "name": "C5",
          "midi": 72,
          "time": 195.8569469999997,
          "velocity": 0.8661417322834646,
          "duration": 0.3169639687500023
        },
        {
          "name": "A5",
          "midi": 81,
          "time": 195.8569469999997,
          "velocity": 0.8661417322834646,
          "duration": 0.3169639687500023
        },
        {
          "name": "F#4",
          "midi": 66,
          "time": 196.1783752499997,
          "velocity": 0.8661417322834646,
          "duration": 0.26339259375001234
        },
        {
          "name": "D#5",
          "midi": 75,
          "time": 196.1783752499997,
          "velocity": 0.8661417322834646,
          "duration": 0.26339259375001234
        },
        {
          "name": "F#5",
          "midi": 78,
          "time": 196.1783752499997,
          "velocity": 0.8661417322834646,
          "duration": 0.26339259375001234
        },
        {
          "name": "F#4",
          "midi": 66,
          "time": 196.4462321249997,
          "velocity": 0.8661417322834646,
          "duration": 2.3035691249999957
        },
        {
          "name": "D#5",
          "midi": 75,
          "time": 196.4462321249997,
          "velocity": 0.8661417322834646,
          "duration": 2.3035691249999957
        },
        {
          "name": "F#5",
          "midi": 78,
          "time": 196.4462321249997,
          "velocity": 0.8661417322834646,
          "duration": 2.3035691249999957
        },
        {
          "name": "G4",
          "midi": 67,
          "time": 199.28551499999972,
          "velocity": 0.8661417322834646,
          "duration": 0.20982121874999393
        },
        {
          "name": "D5",
          "midi": 74,
          "time": 199.28551499999972,
          "velocity": 0.8661417322834646,
          "duration": 0.20982121874999393
        },
        {
          "name": "G5",
          "midi": 79,
          "time": 199.28551499999972,
          "velocity": 0.8661417322834646,
          "duration": 0.20982121874999393
        },
        {
          "name": "G4",
          "midi": 67,
          "time": 199.4998004999997,
          "velocity": 0.8661417322834646,
          "duration": 0.20982121874999393
        },
        {
          "name": "D5",
          "midi": 74,
          "time": 199.4998004999997,
          "velocity": 0.8661417322834646,
          "duration": 0.20982121874999393
        },
        {
          "name": "G5",
          "midi": 79,
          "time": 199.4998004999997,
          "velocity": 0.8661417322834646,
          "duration": 0.20982121874999393
        },
        {
          "name": "G4",
          "midi": 67,
          "time": 200.1426569999997,
          "velocity": 0.8661417322834646,
          "duration": 0.20982121874999393
        },
        {
          "name": "D5",
          "midi": 74,
          "time": 200.1426569999997,
          "velocity": 0.8661417322834646,
          "duration": 0.20982121874999393
        },
        {
          "name": "G5",
          "midi": 79,
          "time": 200.1426569999997,
          "velocity": 0.8661417322834646,
          "duration": 0.20982121874999393
        },
        {
          "name": "G4",
          "midi": 67,
          "time": 200.3569424999997,
          "velocity": 0.8661417322834646,
          "duration": 0.20982121874999393
        },
        {
          "name": "D5",
          "midi": 74,
          "time": 200.3569424999997,
          "velocity": 0.8661417322834646,
          "duration": 0.20982121874999393
        },
        {
          "name": "G5",
          "midi": 79,
          "time": 200.3569424999997,
          "velocity": 0.8661417322834646,
          "duration": 0.20982121874999393
        },
        {
          "name": "G4",
          "midi": 67,
          "time": 200.99979899999968,
          "velocity": 0.8661417322834646,
          "duration": 0.20982121874999393
        },
        {
          "name": "D5",
          "midi": 74,
          "time": 200.99979899999968,
          "velocity": 0.8661417322834646,
          "duration": 0.20982121874999393
        },
        {
          "name": "G5",
          "midi": 79,
          "time": 200.99979899999968,
          "velocity": 0.8661417322834646,
          "duration": 0.20982121874999393
        },
        {
          "name": "G4",
          "midi": 67,
          "time": 201.21408449999967,
          "velocity": 0.8661417322834646,
          "duration": 0.20982121874999393
        },
        {
          "name": "D5",
          "midi": 74,
          "time": 201.21408449999967,
          "velocity": 0.8661417322834646,
          "duration": 0.20982121874999393
        },
        {
          "name": "G5",
          "midi": 79,
          "time": 201.21408449999967,
          "velocity": 0.8661417322834646,
          "duration": 0.20982121874999393
        },
        {
          "name": "A4",
          "midi": 69,
          "time": 201.85694099999967,
          "velocity": 0.8661417322834646,
          "duration": 0.20982121874999393
        },
        {
          "name": "D5",
          "midi": 74,
          "time": 201.85694099999967,
          "velocity": 0.8661417322834646,
          "duration": 0.20982121874999393
        },
        {
          "name": "A5",
          "midi": 81,
          "time": 201.85694099999967,
          "velocity": 0.8661417322834646,
          "duration": 0.20982121874999393
        },
        {
          "name": "F#4",
          "midi": 66,
          "time": 202.07122649999965,
          "velocity": 0.8661417322834646,
          "duration": 0.20982121874999393
        },
        {
          "name": "D5",
          "midi": 74,
          "time": 202.07122649999965,
          "velocity": 0.8661417322834646,
          "duration": 0.20982121874999393
        },
        {
          "name": "F#5",
          "midi": 78,
          "time": 202.07122649999965,
          "velocity": 0.8661417322834646,
          "duration": 0.20982121874999393
        },
        {
          "name": "G4",
          "midi": 67,
          "time": 202.71408299999965,
          "velocity": 0.8661417322834646,
          "duration": 0.20982121874999393
        },
        {
          "name": "D5",
          "midi": 74,
          "time": 202.71408299999965,
          "velocity": 0.8661417322834646,
          "duration": 0.20982121874999393
        },
        {
          "name": "G5",
          "midi": 79,
          "time": 202.71408299999965,
          "velocity": 0.8661417322834646,
          "duration": 0.20982121874999393
        },
        {
          "name": "G4",
          "midi": 67,
          "time": 202.92836849999964,
          "velocity": 0.8661417322834646,
          "duration": 0.20982121874999393
        },
        {
          "name": "D5",
          "midi": 74,
          "time": 202.92836849999964,
          "velocity": 0.8661417322834646,
          "duration": 0.20982121874999393
        },
        {
          "name": "G5",
          "midi": 79,
          "time": 202.92836849999964,
          "velocity": 0.8661417322834646,
          "duration": 0.20982121874999393
        },
        {
          "name": "G4",
          "midi": 67,
          "time": 203.57122499999963,
          "velocity": 0.8661417322834646,
          "duration": 0.20982121874999393
        },
        {
          "name": "D5",
          "midi": 74,
          "time": 203.57122499999963,
          "velocity": 0.8661417322834646,
          "duration": 0.20982121874999393
        },
        {
          "name": "G5",
          "midi": 79,
          "time": 203.57122499999963,
          "velocity": 0.8661417322834646,
          "duration": 0.20982121874999393
        },
        {
          "name": "G4",
          "midi": 67,
          "time": 203.78551049999962,
          "velocity": 0.8661417322834646,
          "duration": 0.20982121874999393
        },
        {
          "name": "D5",
          "midi": 74,
          "time": 203.78551049999962,
          "velocity": 0.8661417322834646,
          "duration": 0.20982121874999393
        },
        {
          "name": "G5",
          "midi": 79,
          "time": 203.78551049999962,
          "velocity": 0.8661417322834646,
          "duration": 0.20982121874999393
        },
        {
          "name": "G4",
          "midi": 67,
          "time": 204.4283669999996,
          "velocity": 0.8661417322834646,
          "duration": 0.20982121874999393
        },
        {
          "name": "D5",
          "midi": 74,
          "time": 204.4283669999996,
          "velocity": 0.8661417322834646,
          "duration": 0.20982121874999393
        },
        {
          "name": "G5",
          "midi": 79,
          "time": 204.4283669999996,
          "velocity": 0.8661417322834646,
          "duration": 0.20982121874999393
        },
        {
          "name": "G4",
          "midi": 67,
          "time": 204.6426524999996,
          "velocity": 0.8661417322834646,
          "duration": 0.20982121874999393
        },
        {
          "name": "D5",
          "midi": 74,
          "time": 204.6426524999996,
          "velocity": 0.8661417322834646,
          "duration": 0.20982121874999393
        },
        {
          "name": "G5",
          "midi": 79,
          "time": 204.6426524999996,
          "velocity": 0.8661417322834646,
          "duration": 0.20982121874999393
        },
        {
          "name": "A4",
          "midi": 69,
          "time": 205.2855089999996,
          "velocity": 0.8661417322834646,
          "duration": 0.20982121874999393
        },
        {
          "name": "D#5",
          "midi": 75,
          "time": 205.2855089999996,
          "velocity": 0.8661417322834646,
          "duration": 0.20982121874999393
        },
        {
          "name": "A5",
          "midi": 81,
          "time": 205.2855089999996,
          "velocity": 0.8661417322834646,
          "duration": 0.20982121874999393
        },
        {
          "name": "F#4",
          "midi": 66,
          "time": 205.49979449999958,
          "velocity": 0.8661417322834646,
          "duration": 0.20982121874999393
        },
        {
          "name": "D#5",
          "midi": 75,
          "time": 205.49979449999958,
          "velocity": 0.8661417322834646,
          "duration": 0.20982121874999393
        },
        {
          "name": "F#5",
          "midi": 78,
          "time": 205.49979449999958,
          "velocity": 0.8661417322834646,
          "duration": 0.20982121874999393
        },
        {
          "name": "G4",
          "midi": 67,
          "time": 206.14265099999957,
          "velocity": 0.8661417322834646,
          "duration": 0.3169639687500023
        },
        {
          "name": "D5",
          "midi": 74,
          "time": 206.14265099999957,
          "velocity": 0.8661417322834646,
          "duration": 0.3169639687500023
        },
        {
          "name": "G5",
          "midi": 79,
          "time": 206.14265099999957,
          "velocity": 0.8661417322834646,
          "duration": 0.3169639687500023
        },
        {
          "name": "G4",
          "midi": 67,
          "time": 206.46407924999957,
          "velocity": 0.8661417322834646,
          "duration": 2.9999970000000076
        },
        {
          "name": "D5",
          "midi": 74,
          "time": 206.46407924999957,
          "velocity": 0.8661417322834646,
          "duration": 2.9999970000000076
        },
        {
          "name": "G5",
          "midi": 79,
          "time": 206.46407924999957,
          "velocity": 0.8661417322834646,
          "duration": 2.9999970000000076
        },
        {
          "name": "F4",
          "midi": 65,
          "time": 212.99978699999957,
          "velocity": 0.8661417322834646,
          "duration": 1.6071412500000122
        },
        {
          "name": "A#4",
          "midi": 70,
          "time": 212.99978699999957,
          "velocity": 0.8661417322834646,
          "duration": 1.6071412500000122
        },
        {
          "name": "C#5",
          "midi": 73,
          "time": 212.99978699999957,
          "velocity": 0.8661417322834646,
          "duration": 1.6071412500000122
        },
        {
          "name": "F5",
          "midi": 77,
          "time": 212.99978699999957,
          "velocity": 0.8661417322834646,
          "duration": 1.6071412500000122
        },
        {
          "name": "F#4",
          "midi": 66,
          "time": 214.7140709999996,
          "velocity": 0.8661417322834646,
          "duration": 0.20982121874999393
        },
        {
          "name": "A#4",
          "midi": 70,
          "time": 214.7140709999996,
          "velocity": 0.8661417322834646,
          "duration": 0.20982121874999393
        },
        {
          "name": "C5",
          "midi": 72,
          "time": 214.7140709999996,
          "velocity": 0.8661417322834646,
          "duration": 0.20982121874999393
        },
        {
          "name": "F#5",
          "midi": 78,
          "time": 214.7140709999996,
          "velocity": 0.8661417322834646,
          "duration": 0.20982121874999393
        },
        {
          "name": "A#4",
          "midi": 70,
          "time": 214.92835649999958,
          "velocity": 0.8661417322834646,
          "duration": 0.9642847499999903
        },
        {
          "name": "D#5",
          "midi": 75,
          "time": 214.92835649999958,
          "velocity": 0.8661417322834646,
          "duration": 0.9642847499999903
        },
        {
          "name": "G4",
          "midi": 67,
          "time": 216.42835499999958,
          "velocity": 0.8661417322834646,
          "duration": 1.6071412500000122
        },
        {
          "name": "D5",
          "midi": 74,
          "time": 216.42835499999958,
          "velocity": 0.8661417322834646,
          "duration": 1.6071412500000122
        },
        {
          "name": "G5",
          "midi": 79,
          "time": 216.42835499999958,
          "velocity": 0.8661417322834646,
          "duration": 1.6071412500000122
        },
        {
          "name": "A4",
          "midi": 69,
          "time": 218.1426389999996,
          "velocity": 0.8661417322834646,
          "duration": 0.20982121874999393
        },
        {
          "name": "C5",
          "midi": 72,
          "time": 218.1426389999996,
          "velocity": 0.8661417322834646,
          "duration": 0.20982121874999393
        },
        {
          "name": "A5",
          "midi": 81,
          "time": 218.1426389999996,
          "velocity": 0.8661417322834646,
          "duration": 0.20982121874999393
        },
        {
          "name": "F#4",
          "midi": 66,
          "time": 218.3569244999996,
          "velocity": 0.8661417322834646,
          "duration": 0.20982121874999393
        },
        {
          "name": "D#5",
          "midi": 75,
          "time": 218.3569244999996,
          "velocity": 0.8661417322834646,
          "duration": 0.20982121874999393
        },
        {
          "name": "F#5",
          "midi": 78,
          "time": 218.3569244999996,
          "velocity": 0.8661417322834646,
          "duration": 0.20982121874999393
        },
        {
          "name": "F#4",
          "midi": 66,
          "time": 218.57120999999958,
          "velocity": 0.8661417322834646,
          "duration": 1.178570250000007
        },
        {
          "name": "D#5",
          "midi": 75,
          "time": 218.57120999999958,
          "velocity": 0.8661417322834646,
          "duration": 1.178570250000007
        },
        {
          "name": "F#5",
          "midi": 78,
          "time": 218.57120999999958,
          "velocity": 0.8661417322834646,
          "duration": 1.178570250000007
        },
        {
          "name": "G4",
          "midi": 67,
          "time": 243.8568989999996,
          "velocity": 0.8661417322834646,
          "duration": 0.3169639687500023
        },
        {
          "name": "A#4",
          "midi": 70,
          "time": 243.8568989999996,
          "velocity": 0.8661417322834646,
          "duration": 0.3169639687500023
        },
        {
          "name": "D5",
          "midi": 74,
          "time": 243.8568989999996,
          "velocity": 0.8661417322834646,
          "duration": 0.3169639687500023
        },
        {
          "name": "G4",
          "midi": 67,
          "time": 244.1783272499996,
          "velocity": 0.8661417322834646,
          "duration": 2.5714260000000024
        },
        {
          "name": "A#4",
          "midi": 70,
          "time": 244.1783272499996,
          "velocity": 0.8661417322834646,
          "duration": 2.5714260000000024
        },
        {
          "name": "D5",
          "midi": 74,
          "time": 244.1783272499996,
          "velocity": 0.8661417322834646,
          "duration": 2.5714260000000024
        },
        {
          "name": "G4",
          "midi": 67,
          "time": 247.2854669999996,
          "velocity": 0.8661417322834646,
          "duration": 0.20982121874999393
        },
        {
          "name": "C5",
          "midi": 72,
          "time": 247.2854669999996,
          "velocity": 0.8661417322834646,
          "duration": 0.20982121874999393
        },
        {
          "name": "D5",
          "midi": 74,
          "time": 247.2854669999996,
          "velocity": 0.8661417322834646,
          "duration": 0.20982121874999393
        },
        {
          "name": "G4",
          "midi": 67,
          "time": 247.4997524999996,
          "velocity": 0.8661417322834646,
          "duration": 2.678568750000011
        },
        {
          "name": "A4",
          "midi": 69,
          "time": 247.4997524999996,
          "velocity": 0.8661417322834646,
          "duration": 2.678568750000011
        },
        {
          "name": "D5",
          "midi": 74,
          "time": 247.4997524999996,
          "velocity": 0.8661417322834646,
          "duration": 2.678568750000011
        },
        {
          "name": "G4",
          "midi": 67,
          "time": 250.71403499999963,
          "velocity": 0.8661417322834646,
          "duration": 0.20982121874999393
        },
        {
          "name": "A#4",
          "midi": 70,
          "time": 250.71403499999963,
          "velocity": 0.8661417322834646,
          "duration": 0.20982121874999393
        },
        {
          "name": "D5",
          "midi": 74,
          "time": 250.71403499999963,
          "velocity": 0.8661417322834646,
          "duration": 0.20982121874999393
        },
        {
          "name": "G5",
          "midi": 79,
          "time": 250.71403499999963,
          "velocity": 0.8661417322834646,
          "duration": 0.20982121874999393
        },
        {
          "name": "G4",
          "midi": 67,
          "time": 250.92832049999961,
          "velocity": 0.8661417322834646,
          "duration": 2.678568750000011
        },
        {
          "name": "A#4",
          "midi": 70,
          "time": 250.92832049999961,
          "velocity": 0.8661417322834646,
          "duration": 2.678568750000011
        },
        {
          "name": "D5",
          "midi": 74,
          "time": 250.92832049999961,
          "velocity": 0.8661417322834646,
          "duration": 2.678568750000011
        },
        {
          "name": "G5",
          "midi": 79,
          "time": 250.92832049999961,
          "velocity": 0.8661417322834646,
          "duration": 2.678568750000011
        },
        {
          "name": "A4",
          "midi": 69,
          "time": 254.14260299999964,
          "velocity": 0.8661417322834646,
          "duration": 0.3169639687500023
        },
        {
          "name": "C5",
          "midi": 72,
          "time": 254.14260299999964,
          "velocity": 0.8661417322834646,
          "duration": 0.3169639687500023
        },
        {
          "name": "A5",
          "midi": 81,
          "time": 254.14260299999964,
          "velocity": 0.8661417322834646,
          "duration": 0.3169639687500023
        },
        {
          "name": "F#4",
          "midi": 66,
          "time": 254.46403124999964,
          "velocity": 0.8661417322834646,
          "duration": 0.3169639687500023
        },
        {
          "name": "D#5",
          "midi": 75,
          "time": 254.46403124999964,
          "velocity": 0.8661417322834646,
          "duration": 0.3169639687500023
        },
        {
          "name": "F#5",
          "midi": 78,
          "time": 254.46403124999964,
          "velocity": 0.8661417322834646,
          "duration": 0.3169639687500023
        },
        {
          "name": "F#4",
          "midi": 66,
          "time": 254.78545949999963,
          "velocity": 0.8661417322834646,
          "duration": 2.6785687499999824
        },
        {
          "name": "D#5",
          "midi": 75,
          "time": 254.78545949999963,
          "velocity": 0.8661417322834646,
          "duration": 2.6785687499999824
        },
        {
          "name": "F#5",
          "midi": 78,
          "time": 254.78545949999963,
          "velocity": 0.8661417322834646,
          "duration": 2.6785687499999824
        },
        {
          "name": "G4",
          "midi": 67,
          "time": 257.5711709999996,
          "velocity": 0.8661417322834646,
          "duration": 0.20982121874999393
        },
        {
          "name": "D5",
          "midi": 74,
          "time": 257.5711709999996,
          "velocity": 0.8661417322834646,
          "duration": 0.20982121874999393
        },
        {
          "name": "G5",
          "midi": 79,
          "time": 257.5711709999996,
          "velocity": 0.8661417322834646,
          "duration": 0.20982121874999393
        },
        {
          "name": "G4",
          "midi": 67,
          "time": 257.7854564999996,
          "velocity": 0.8661417322834646,
          "duration": 0.20982121874999393
        },
        {
          "name": "D5",
          "midi": 74,
          "time": 257.7854564999996,
          "velocity": 0.8661417322834646,
          "duration": 0.20982121874999393
        },
        {
          "name": "G5",
          "midi": 79,
          "time": 257.7854564999996,
          "velocity": 0.8661417322834646,
          "duration": 0.20982121874999393
        },
        {
          "name": "G4",
          "midi": 67,
          "time": 258.4283129999996,
          "velocity": 0.8661417322834646,
          "duration": 0.20982121874999393
        },
        {
          "name": "D5",
          "midi": 74,
          "time": 258.4283129999996,
          "velocity": 0.8661417322834646,
          "duration": 0.20982121874999393
        },
        {
          "name": "G5",
          "midi": 79,
          "time": 258.4283129999996,
          "velocity": 0.8661417322834646,
          "duration": 0.20982121874999393
        },
        {
          "name": "G4",
          "midi": 67,
          "time": 258.6425984999996,
          "velocity": 0.8661417322834646,
          "duration": 0.20982121874999393
        },
        {
          "name": "D5",
          "midi": 74,
          "time": 258.6425984999996,
          "velocity": 0.8661417322834646,
          "duration": 0.20982121874999393
        },
        {
          "name": "G5",
          "midi": 79,
          "time": 258.6425984999996,
          "velocity": 0.8661417322834646,
          "duration": 0.20982121874999393
        },
        {
          "name": "G4",
          "midi": 67,
          "time": 259.2854549999996,
          "velocity": 0.8661417322834646,
          "duration": 0.20982121874999393
        },
        {
          "name": "D5",
          "midi": 74,
          "time": 259.2854549999996,
          "velocity": 0.8661417322834646,
          "duration": 0.20982121874999393
        },
        {
          "name": "G5",
          "midi": 79,
          "time": 259.2854549999996,
          "velocity": 0.8661417322834646,
          "duration": 0.20982121874999393
        },
        {
          "name": "G4",
          "midi": 67,
          "time": 259.49974049999963,
          "velocity": 0.8661417322834646,
          "duration": 0.20982121874999393
        },
        {
          "name": "D5",
          "midi": 74,
          "time": 259.49974049999963,
          "velocity": 0.8661417322834646,
          "duration": 0.20982121874999393
        },
        {
          "name": "G5",
          "midi": 79,
          "time": 259.49974049999963,
          "velocity": 0.8661417322834646,
          "duration": 0.20982121874999393
        },
        {
          "name": "A4",
          "midi": 69,
          "time": 260.1425969999996,
          "velocity": 0.8661417322834646,
          "duration": 0.20982121874999393
        },
        {
          "name": "D5",
          "midi": 74,
          "time": 260.1425969999996,
          "velocity": 0.8661417322834646,
          "duration": 0.20982121874999393
        },
        {
          "name": "A5",
          "midi": 81,
          "time": 260.1425969999996,
          "velocity": 0.8661417322834646,
          "duration": 0.20982121874999393
        },
        {
          "name": "F#4",
          "midi": 66,
          "time": 260.35688249999964,
          "velocity": 0.8661417322834646,
          "duration": 0.20982121874999393
        },
        {
          "name": "D5",
          "midi": 74,
          "time": 260.35688249999964,
          "velocity": 0.8661417322834646,
          "duration": 0.20982121874999393
        },
        {
          "name": "F#5",
          "midi": 78,
          "time": 260.35688249999964,
          "velocity": 0.8661417322834646,
          "duration": 0.20982121874999393
        },
        {
          "name": "G4",
          "midi": 67,
          "time": 260.99973899999964,
          "velocity": 0.8661417322834646,
          "duration": 0.20982121874999393
        },
        {
          "name": "D5",
          "midi": 74,
          "time": 260.99973899999964,
          "velocity": 0.8661417322834646,
          "duration": 0.20982121874999393
        },
        {
          "name": "G5",
          "midi": 79,
          "time": 260.99973899999964,
          "velocity": 0.8661417322834646,
          "duration": 0.20982121874999393
        },
        {
          "name": "G4",
          "midi": 67,
          "time": 261.21402449999965,
          "velocity": 0.8661417322834646,
          "duration": 0.20982121874999393
        },
        {
          "name": "D5",
          "midi": 74,
          "time": 261.21402449999965,
          "velocity": 0.8661417322834646,
          "duration": 0.20982121874999393
        },
        {
          "name": "G5",
          "midi": 79,
          "time": 261.21402449999965,
          "velocity": 0.8661417322834646,
          "duration": 0.20982121874999393
        },
        {
          "name": "G4",
          "midi": 67,
          "time": 261.85688099999965,
          "velocity": 0.8661417322834646,
          "duration": 0.20982121874999393
        },
        {
          "name": "D5",
          "midi": 74,
          "time": 261.85688099999965,
          "velocity": 0.8661417322834646,
          "duration": 0.20982121874999393
        },
        {
          "name": "G5",
          "midi": 79,
          "time": 261.85688099999965,
          "velocity": 0.8661417322834646,
          "duration": 0.20982121874999393
        },
        {
          "name": "G4",
          "midi": 67,
          "time": 262.07116649999966,
          "velocity": 0.8661417322834646,
          "duration": 0.20982121874999393
        },
        {
          "name": "D5",
          "midi": 74,
          "time": 262.07116649999966,
          "velocity": 0.8661417322834646,
          "duration": 0.20982121874999393
        },
        {
          "name": "G5",
          "midi": 79,
          "time": 262.07116649999966,
          "velocity": 0.8661417322834646,
          "duration": 0.20982121874999393
        },
        {
          "name": "G4",
          "midi": 67,
          "time": 262.71402299999966,
          "velocity": 0.8661417322834646,
          "duration": 0.20982121874999393
        },
        {
          "name": "D5",
          "midi": 74,
          "time": 262.71402299999966,
          "velocity": 0.8661417322834646,
          "duration": 0.20982121874999393
        },
        {
          "name": "G5",
          "midi": 79,
          "time": 262.71402299999966,
          "velocity": 0.8661417322834646,
          "duration": 0.20982121874999393
        },
        {
          "name": "G4",
          "midi": 67,
          "time": 262.9283084999997,
          "velocity": 0.8661417322834646,
          "duration": 0.20982121874999393
        },
        {
          "name": "D5",
          "midi": 74,
          "time": 262.9283084999997,
          "velocity": 0.8661417322834646,
          "duration": 0.20982121874999393
        },
        {
          "name": "G5",
          "midi": 79,
          "time": 262.9283084999997,
          "velocity": 0.8661417322834646,
          "duration": 0.20982121874999393
        },
        {
          "name": "A4",
          "midi": 69,
          "time": 263.57116499999967,
          "velocity": 0.8661417322834646,
          "duration": 0.20982121874999393
        },
        {
          "name": "D#5",
          "midi": 75,
          "time": 263.57116499999967,
          "velocity": 0.8661417322834646,
          "duration": 0.20982121874999393
        },
        {
          "name": "A5",
          "midi": 81,
          "time": 263.57116499999967,
          "velocity": 0.8661417322834646,
          "duration": 0.20982121874999393
        },
        {
          "name": "F#4",
          "midi": 66,
          "time": 263.7854504999997,
          "velocity": 0.8661417322834646,
          "duration": 0.20982121874999393
        },
        {
          "name": "D#5",
          "midi": 75,
          "time": 263.7854504999997,
          "velocity": 0.8661417322834646,
          "duration": 0.20982121874999393
        },
        {
          "name": "F#5",
          "midi": 78,
          "time": 263.7854504999997,
          "velocity": 0.8661417322834646,
          "duration": 0.20982121874999393
        },
        {
          "name": "G4",
          "midi": 67,
          "time": 264.4283069999997,
          "velocity": 0.8661417322834646,
          "duration": 0.20982121874999393
        },
        {
          "name": "D5",
          "midi": 74,
          "time": 264.4283069999997,
          "velocity": 0.8661417322834646,
          "duration": 0.20982121874999393
        },
        {
          "name": "G5",
          "midi": 79,
          "time": 264.4283069999997,
          "velocity": 0.8661417322834646,
          "duration": 0.20982121874999393
        },
        {
          "name": "G4",
          "midi": 67,
          "time": 264.6425924999997,
          "velocity": 0.8661417322834646,
          "duration": 2.678568750000011
        },
        {
          "name": "D5",
          "midi": 74,
          "time": 264.6425924999997,
          "velocity": 0.8661417322834646,
          "duration": 2.678568750000011
        },
        {
          "name": "G5",
          "midi": 79,
          "time": 264.6425924999997,
          "velocity": 0.8661417322834646,
          "duration": 2.678568750000011
        }
      ],
      "controlChanges": {
        "10": [
          {
            "number": 10,
            "time": 0,
            "value": 0.5039370078740157
          }
        ]
      },
      "id": 1,
      "name": "John William's",
      "instrumentNumber": 52,
      "instrument": "choir aahs",
      "instrumentFamily": "ensemble",
      "channelNumber": 0,
      "isPercussion": false
    },
    {
      "startTime": 1.7142840000000001,
      "duration": 267.3211612499997,
      "length": 135,
      "notes": [
        {
          "name": "G3",
          "midi": 55,
          "time": 1.7142840000000001,
          "velocity": 0.8661417322834646,
          "duration": 0.35714250000000014
        },
        {
          "name": "G3",
          "midi": 55,
          "time": 2.1428550000000004,
          "velocity": 0.8661417322834646,
          "duration": 2.8928542499999996
        },
        {
          "name": "A3",
          "midi": 57,
          "time": 5.142852,
          "velocity": 0.8661417322834646,
          "duration": 0.35714250000000014
        },
        {
          "name": "F#3",
          "midi": 54,
          "time": 5.571423,
          "velocity": 0.8661417322834646,
          "duration": 2.89285425
        },
        {
          "name": "B3",
          "midi": 59,
          "time": 8.999991,
          "velocity": 0.8661417322834646,
          "duration": 0.35714250000000014
        },
        {
          "name": "B3",
          "midi": 59,
          "time": 9.428562,
          "velocity": 0.8661417322834646,
          "duration": 2.892854249999999
        },
        {
          "name": "A3",
          "midi": 57,
          "time": 12.428558999999998,
          "velocity": 0.8661417322834646,
          "duration": 0.35714250000000014
        },
        {
          "name": "C4",
          "midi": 60,
          "time": 12.857129999999998,
          "velocity": 0.8661417322834646,
          "duration": 0.35714250000000014
        },
        {
          "name": "D#4",
          "midi": 63,
          "time": 12.857129999999998,
          "velocity": 0.8661417322834646,
          "duration": 0.35714250000000014
        },
        {
          "name": "C4",
          "midi": 60,
          "time": 13.285700999999998,
          "velocity": 0.8661417322834646,
          "duration": 0.35714250000000014
        },
        {
          "name": "D#4",
          "midi": 63,
          "time": 13.285700999999998,
          "velocity": 0.8661417322834646,
          "duration": 0.35714250000000014
        },
        {
          "name": "B3",
          "midi": 59,
          "time": 70.714215,
          "velocity": 0.8661417322834646,
          "duration": 0.20982121874999393
        },
        {
          "name": "B3",
          "midi": 59,
          "time": 70.92850049999998,
          "velocity": 0.8661417322834646,
          "duration": 3.1071397500000018
        },
        {
          "name": "B3",
          "midi": 59,
          "time": 74.14278299999998,
          "velocity": 0.8661417322834646,
          "duration": 0.3169639687500023
        },
        {
          "name": "A3",
          "midi": 57,
          "time": 74.46421124999998,
          "velocity": 0.8661417322834646,
          "duration": 0.2633925937499981
        },
        {
          "name": "A3",
          "midi": 57,
          "time": 74.73206812499997,
          "velocity": 0.8661417322834646,
          "duration": 2.732140125000001
        },
        {
          "name": "B3",
          "midi": 59,
          "time": 77.57135099999996,
          "velocity": 0.8661417322834646,
          "duration": 0.20982121874999393
        },
        {
          "name": "B3",
          "midi": 59,
          "time": 77.78563649999995,
          "velocity": 0.8661417322834646,
          "duration": 3.1071397500000018
        },
        {
          "name": "B3",
          "midi": 59,
          "time": 80.99991899999995,
          "velocity": 0.8661417322834646,
          "duration": 0.3571424999999948
        },
        {
          "name": "A3",
          "midi": 57,
          "time": 81.42848999999994,
          "velocity": 0.8661417322834646,
          "duration": 2.892854249999999
        },
        {
          "name": "B3",
          "midi": 59,
          "time": 91.28562299999994,
          "velocity": 0.8661417322834646,
          "duration": 0.20982121874999393
        },
        {
          "name": "B3",
          "midi": 59,
          "time": 91.49990849999993,
          "velocity": 0.8661417322834646,
          "duration": 2.6785687499999966
        },
        {
          "name": "C4",
          "midi": 60,
          "time": 94.71419099999993,
          "velocity": 0.8661417322834646,
          "duration": 0.3571424999999948
        },
        {
          "name": "C4",
          "midi": 60,
          "time": 95.14276199999992,
          "velocity": 0.8661417322834646,
          "duration": 2.464283249999994
        },
        {
          "name": "D#4",
          "midi": 63,
          "time": 95.14276199999992,
          "velocity": 0.8661417322834646,
          "duration": 2.464283249999994
        },
        {
          "name": "B3",
          "midi": 59,
          "time": 98.14275899999991,
          "velocity": 0.8661417322834646,
          "duration": 0.3169639687500023
        },
        {
          "name": "B3",
          "midi": 59,
          "time": 98.46418724999991,
          "velocity": 0.8661417322834646,
          "duration": 0.2633925937499981
        },
        {
          "name": "B3",
          "midi": 59,
          "time": 98.7320441249999,
          "velocity": 0.8661417322834646,
          "duration": 2.3035691249999957
        },
        {
          "name": "C4",
          "midi": 60,
          "time": 101.5713269999999,
          "velocity": 0.8661417322834646,
          "duration": 0.3571424999999948
        },
        {
          "name": "C4",
          "midi": 60,
          "time": 101.99989799999989,
          "velocity": 0.8661417322834646,
          "duration": 2.464283249999994
        },
        {
          "name": "D#4",
          "midi": 63,
          "time": 101.99989799999989,
          "velocity": 0.8661417322834646,
          "duration": 2.464283249999994
        },
        {
          "name": "B3",
          "midi": 59,
          "time": 104.99989499999988,
          "velocity": 0.8661417322834646,
          "duration": 0.20982121874999393
        },
        {
          "name": "B3",
          "midi": 59,
          "time": 105.21418049999987,
          "velocity": 0.8661417322834646,
          "duration": 2.6785687499999966
        },
        {
          "name": "C4",
          "midi": 60,
          "time": 108.42846299999987,
          "velocity": 0.8661417322834646,
          "duration": 0.20982121874999393
        },
        {
          "name": "B3",
          "midi": 59,
          "time": 108.64274849999985,
          "velocity": 0.8661417322834646,
          "duration": 2.6785687499999966
        },
        {
          "name": "C4",
          "midi": 60,
          "time": 111.85703099999985,
          "velocity": 0.8661417322834646,
          "duration": 0.20982121874999393
        },
        {
          "name": "A3",
          "midi": 57,
          "time": 112.07131649999984,
          "velocity": 0.8661417322834646,
          "duration": 1.3928557499999954
        },
        {
          "name": "B3",
          "midi": 59,
          "time": 113.57131499999983,
          "velocity": 0.8661417322834646,
          "duration": 0.20982121874999393
        },
        {
          "name": "B3",
          "midi": 59,
          "time": 113.78560049999982,
          "velocity": 0.8661417322834646,
          "duration": 0.20982121874999393
        },
        {
          "name": "B3",
          "midi": 59,
          "time": 114.42845699999981,
          "velocity": 0.8661417322834646,
          "duration": 0.20982121874999393
        },
        {
          "name": "B3",
          "midi": 59,
          "time": 114.6427424999998,
          "velocity": 0.8661417322834646,
          "duration": 0.20982121874999393
        },
        {
          "name": "B3",
          "midi": 59,
          "time": 115.28559899999979,
          "velocity": 0.8661417322834646,
          "duration": 0.20982121874999393
        },
        {
          "name": "B3",
          "midi": 59,
          "time": 115.49988449999978,
          "velocity": 0.8661417322834646,
          "duration": 0.20982121874999393
        },
        {
          "name": "B3",
          "midi": 59,
          "time": 116.14274099999977,
          "velocity": 0.8661417322834646,
          "duration": 0.20982121874999393
        },
        {
          "name": "B3",
          "midi": 59,
          "time": 116.35702649999976,
          "velocity": 0.8661417322834646,
          "duration": 0.20982121874999393
        },
        {
          "name": "B3",
          "midi": 59,
          "time": 116.99988299999976,
          "velocity": 0.8661417322834646,
          "duration": 0.20982121874999393
        },
        {
          "name": "B3",
          "midi": 59,
          "time": 117.21416849999974,
          "velocity": 0.8661417322834646,
          "duration": 0.20982121874999393
        },
        {
          "name": "B3",
          "midi": 59,
          "time": 117.85702499999974,
          "velocity": 0.8661417322834646,
          "duration": 0.20982121874999393
        },
        {
          "name": "B3",
          "midi": 59,
          "time": 118.07131049999973,
          "velocity": 0.8661417322834646,
          "duration": 0.20982121874999393
        },
        {
          "name": "B3",
          "midi": 59,
          "time": 118.71416699999972,
          "velocity": 0.8661417322834646,
          "duration": 0.20982121874999393
        },
        {
          "name": "B3",
          "midi": 59,
          "time": 118.92845249999971,
          "velocity": 0.8661417322834646,
          "duration": 0.20982121874999393
        },
        {
          "name": "B3",
          "midi": 59,
          "time": 119.5713089999997,
          "velocity": 0.8661417322834646,
          "duration": 0.20982121874999393
        },
        {
          "name": "B3",
          "midi": 59,
          "time": 119.78559449999969,
          "velocity": 0.8661417322834646,
          "duration": 0.20982121874999393
        },
        {
          "name": "A#3",
          "midi": 58,
          "time": 120.42845099999968,
          "velocity": 0.8661417322834646,
          "duration": 0.20982121874999393
        },
        {
          "name": "D4",
          "midi": 62,
          "time": 120.42845099999968,
          "velocity": 0.8661417322834646,
          "duration": 0.20982121874999393
        },
        {
          "name": "A#3",
          "midi": 58,
          "time": 120.64273649999967,
          "velocity": 0.8661417322834646,
          "duration": 2.6785687499999966
        },
        {
          "name": "D4",
          "midi": 62,
          "time": 120.64273649999967,
          "velocity": 0.8661417322834646,
          "duration": 2.6785687499999966
        },
        {
          "name": "C4",
          "midi": 60,
          "time": 123.85701899999967,
          "velocity": 0.8661417322834646,
          "duration": 0.20982121874999393
        },
        {
          "name": "D4",
          "midi": 62,
          "time": 123.85701899999967,
          "velocity": 0.8661417322834646,
          "duration": 0.20982121874999393
        },
        {
          "name": "A3",
          "midi": 57,
          "time": 124.07130449999966,
          "velocity": 0.8661417322834646,
          "duration": 2.6785687499999966
        },
        {
          "name": "D4",
          "midi": 62,
          "time": 124.07130449999966,
          "velocity": 0.8661417322834646,
          "duration": 2.6785687499999966
        },
        {
          "name": "D4",
          "midi": 62,
          "time": 127.28558699999965,
          "velocity": 0.8661417322834646,
          "duration": 0.3169639687500023
        },
        {
          "name": "D4",
          "midi": 62,
          "time": 127.60701524999965,
          "velocity": 0.8661417322834646,
          "duration": 2.5714260000000024
        },
        {
          "name": "D#4",
          "midi": 63,
          "time": 131.03558324999966,
          "velocity": 0.8661417322834646,
          "duration": 0.26339259375001234
        },
        {
          "name": "D#4",
          "midi": 63,
          "time": 131.30344012499967,
          "velocity": 0.8661417322834646,
          "duration": 2.732140125000001
        },
        {
          "name": "G3",
          "midi": 55,
          "time": 185.57124299999967,
          "velocity": 0.8661417322834646,
          "duration": 0.20982121874999393
        },
        {
          "name": "D4",
          "midi": 62,
          "time": 185.57124299999967,
          "velocity": 0.8661417322834646,
          "duration": 0.20982121874999393
        },
        {
          "name": "G3",
          "midi": 55,
          "time": 185.78552849999966,
          "velocity": 0.8661417322834646,
          "duration": 2.678568750000011
        },
        {
          "name": "D4",
          "midi": 62,
          "time": 185.78552849999966,
          "velocity": 0.8661417322834646,
          "duration": 2.678568750000011
        },
        {
          "name": "G3",
          "midi": 55,
          "time": 188.99981099999968,
          "velocity": 0.8661417322834646,
          "duration": 0.3169639687500023
        },
        {
          "name": "D#4",
          "midi": 63,
          "time": 188.99981099999968,
          "velocity": 0.8661417322834646,
          "duration": 0.3169639687500023
        },
        {
          "name": "G3",
          "midi": 55,
          "time": 189.32123924999968,
          "velocity": 0.8661417322834646,
          "duration": 2.5714260000000024
        },
        {
          "name": "C4",
          "midi": 60,
          "time": 189.32123924999968,
          "velocity": 0.8661417322834646,
          "duration": 2.5714260000000024
        },
        {
          "name": "D4",
          "midi": 62,
          "time": 192.4283789999997,
          "velocity": 0.8661417322834646,
          "duration": 0.20982121874999393
        },
        {
          "name": "D4",
          "midi": 62,
          "time": 192.64266449999968,
          "velocity": 0.8661417322834646,
          "duration": 2.678568750000011
        },
        {
          "name": "C4",
          "midi": 60,
          "time": 195.8569469999997,
          "velocity": 0.8661417322834646,
          "duration": 0.3169639687500023
        },
        {
          "name": "D#4",
          "midi": 63,
          "time": 196.1783752499997,
          "velocity": 0.8661417322834646,
          "duration": 0.26339259375001234
        },
        {
          "name": "D#4",
          "midi": 63,
          "time": 196.4462321249997,
          "velocity": 0.8661417322834646,
          "duration": 2.3035691249999957
        },
        {
          "name": "D4",
          "midi": 62,
          "time": 199.28551499999972,
          "velocity": 0.8661417322834646,
          "duration": 0.20982121874999393
        },
        {
          "name": "D4",
          "midi": 62,
          "time": 199.4998004999997,
          "velocity": 0.8661417322834646,
          "duration": 0.20982121874999393
        },
        {
          "name": "D4",
          "midi": 62,
          "time": 200.1426569999997,
          "velocity": 0.8661417322834646,
          "duration": 0.20982121874999393
        },
        {
          "name": "D4",
          "midi": 62,
          "time": 200.3569424999997,
          "velocity": 0.8661417322834646,
          "duration": 0.20982121874999393
        },
        {
          "name": "D4",
          "midi": 62,
          "time": 200.99979899999968,
          "velocity": 0.8661417322834646,
          "duration": 0.20982121874999393
        },
        {
          "name": "D4",
          "midi": 62,
          "time": 201.21408449999967,
          "velocity": 0.8661417322834646,
          "duration": 0.20982121874999393
        },
        {
          "name": "D4",
          "midi": 62,
          "time": 201.85694099999967,
          "velocity": 0.8661417322834646,
          "duration": 0.20982121874999393
        },
        {
          "name": "D4",
          "midi": 62,
          "time": 202.07122649999965,
          "velocity": 0.8661417322834646,
          "duration": 0.20982121874999393
        },
        {
          "name": "D4",
          "midi": 62,
          "time": 202.71408299999965,
          "velocity": 0.8661417322834646,
          "duration": 0.20982121874999393
        },
        {
          "name": "D4",
          "midi": 62,
          "time": 202.92836849999964,
          "velocity": 0.8661417322834646,
          "duration": 0.20982121874999393
        },
        {
          "name": "D4",
          "midi": 62,
          "time": 203.57122499999963,
          "velocity": 0.8661417322834646,
          "duration": 0.20982121874999393
        },
        {
          "name": "D4",
          "midi": 62,
          "time": 203.78551049999962,
          "velocity": 0.8661417322834646,
          "duration": 0.20982121874999393
        },
        {
          "name": "D4",
          "midi": 62,
          "time": 204.4283669999996,
          "velocity": 0.8661417322834646,
          "duration": 0.20982121874999393
        },
        {
          "name": "D4",
          "midi": 62,
          "time": 204.6426524999996,
          "velocity": 0.8661417322834646,
          "duration": 0.20982121874999393
        },
        {
          "name": "D#4",
          "midi": 63,
          "time": 205.2855089999996,
          "velocity": 0.8661417322834646,
          "duration": 0.20982121874999393
        },
        {
          "name": "D#4",
          "midi": 63,
          "time": 205.49979449999958,
          "velocity": 0.8661417322834646,
          "duration": 0.20982121874999393
        },
        {
          "name": "D4",
          "midi": 62,
          "time": 206.14265099999957,
          "velocity": 0.8661417322834646,
          "duration": 0.3169639687500023
        },
        {
          "name": "D4",
          "midi": 62,
          "time": 206.46407924999957,
          "velocity": 0.8661417322834646,
          "duration": 2.9999970000000076
        },
        {
          "name": "C#4",
          "midi": 61,
          "time": 212.99978699999957,
          "velocity": 0.8661417322834646,
          "duration": 1.6071412500000122
        },
        {
          "name": "C4",
          "midi": 60,
          "time": 214.7140709999996,
          "velocity": 0.8661417322834646,
          "duration": 0.20982121874999393
        },
        {
          "name": "A#3",
          "midi": 58,
          "time": 214.92835649999958,
          "velocity": 0.8661417322834646,
          "duration": 0.9642847499999903
        },
        {
          "name": "D#4",
          "midi": 63,
          "time": 214.92835649999958,
          "velocity": 0.8661417322834646,
          "duration": 0.9642847499999903
        },
        {
          "name": "D4",
          "midi": 62,
          "time": 216.42835499999958,
          "velocity": 0.8661417322834646,
          "duration": 1.6071412500000122
        },
        {
          "name": "C4",
          "midi": 60,
          "time": 218.1426389999996,
          "velocity": 0.8661417322834646,
          "duration": 0.20982121874999393
        },
        {
          "name": "D#4",
          "midi": 63,
          "time": 218.3569244999996,
          "velocity": 0.8661417322834646,
          "duration": 0.20982121874999393
        },
        {
          "name": "D#4",
          "midi": 63,
          "time": 218.57120999999958,
          "velocity": 0.8661417322834646,
          "duration": 1.178570250000007
        },
        {
          "name": "A#3",
          "midi": 58,
          "time": 243.8568989999996,
          "velocity": 0.8661417322834646,
          "duration": 0.3169639687500023
        },
        {
          "name": "D4",
          "midi": 62,
          "time": 243.8568989999996,
          "velocity": 0.8661417322834646,
          "duration": 0.3169639687500023
        },
        {
          "name": "A#3",
          "midi": 58,
          "time": 244.1783272499996,
          "velocity": 0.8661417322834646,
          "duration": 2.5714260000000024
        },
        {
          "name": "D4",
          "midi": 62,
          "time": 244.1783272499996,
          "velocity": 0.8661417322834646,
          "duration": 2.5714260000000024
        },
        {
          "name": "C4",
          "midi": 60,
          "time": 247.2854669999996,
          "velocity": 0.8661417322834646,
          "duration": 0.20982121874999393
        },
        {
          "name": "D4",
          "midi": 62,
          "time": 247.2854669999996,
          "velocity": 0.8661417322834646,
          "duration": 0.20982121874999393
        },
        {
          "name": "A3",
          "midi": 57,
          "time": 247.4997524999996,
          "velocity": 0.8661417322834646,
          "duration": 2.678568750000011
        },
        {
          "name": "D4",
          "midi": 62,
          "time": 247.4997524999996,
          "velocity": 0.8661417322834646,
          "duration": 2.678568750000011
        },
        {
          "name": "D4",
          "midi": 62,
          "time": 250.71403499999963,
          "velocity": 0.8661417322834646,
          "duration": 0.20982121874999393
        },
        {
          "name": "D4",
          "midi": 62,
          "time": 250.92832049999961,
          "velocity": 0.8661417322834646,
          "duration": 2.678568750000011
        },
        {
          "name": "C4",
          "midi": 60,
          "time": 254.14260299999964,
          "velocity": 0.8661417322834646,
          "duration": 0.3169639687500023
        },
        {
          "name": "D#4",
          "midi": 63,
          "time": 254.46403124999964,
          "velocity": 0.8661417322834646,
          "duration": 0.3169639687500023
        },
        {
          "name": "D#4",
          "midi": 63,
          "time": 254.78545949999963,
          "velocity": 0.8661417322834646,
          "duration": 2.6785687499999824
        },
        {
          "name": "D4",
          "midi": 62,
          "time": 257.5711709999996,
          "velocity": 0.8661417322834646,
          "duration": 0.20982121874999393
        },
        {
          "name": "D4",
          "midi": 62,
          "time": 257.7854564999996,
          "velocity": 0.8661417322834646,
          "duration": 0.20982121874999393
        },
        {
          "name": "D4",
          "midi": 62,
          "time": 258.4283129999996,
          "velocity": 0.8661417322834646,
          "duration": 0.20982121874999393
        },
        {
          "name": "D4",
          "midi": 62,
          "time": 258.6425984999996,
          "velocity": 0.8661417322834646,
          "duration": 0.20982121874999393
        },
        {
          "name": "D4",
          "midi": 62,
          "time": 259.2854549999996,
          "velocity": 0.8661417322834646,
          "duration": 0.20982121874999393
        },
        {
          "name": "D4",
          "midi": 62,
          "time": 259.49974049999963,
          "velocity": 0.8661417322834646,
          "duration": 0.20982121874999393
        },
        {
          "name": "D4",
          "midi": 62,
          "time": 260.1425969999996,
          "velocity": 0.8661417322834646,
          "duration": 0.20982121874999393
        },
        {
          "name": "D4",
          "midi": 62,
          "time": 260.35688249999964,
          "velocity": 0.8661417322834646,
          "duration": 0.20982121874999393
        },
        {
          "name": "D4",
          "midi": 62,
          "time": 260.99973899999964,
          "velocity": 0.8661417322834646,
          "duration": 0.20982121874999393
        },
        {
          "name": "D4",
          "midi": 62,
          "time": 261.21402449999965,
          "velocity": 0.8661417322834646,
          "duration": 0.20982121874999393
        },
        {
          "name": "D4",
          "midi": 62,
          "time": 261.85688099999965,
          "velocity": 0.8661417322834646,
          "duration": 0.20982121874999393
        },
        {
          "name": "D4",
          "midi": 62,
          "time": 262.07116649999966,
          "velocity": 0.8661417322834646,
          "duration": 0.20982121874999393
        },
        {
          "name": "D4",
          "midi": 62,
          "time": 262.71402299999966,
          "velocity": 0.8661417322834646,
          "duration": 0.20982121874999393
        },
        {
          "name": "D4",
          "midi": 62,
          "time": 262.9283084999997,
          "velocity": 0.8661417322834646,
          "duration": 0.20982121874999393
        },
        {
          "name": "D#4",
          "midi": 63,
          "time": 263.57116499999967,
          "velocity": 0.8661417322834646,
          "duration": 0.20982121874999393
        },
        {
          "name": "D#4",
          "midi": 63,
          "time": 263.7854504999997,
          "velocity": 0.8661417322834646,
          "duration": 0.20982121874999393
        },
        {
          "name": "D4",
          "midi": 62,
          "time": 264.4283069999997,
          "velocity": 0.8661417322834646,
          "duration": 0.20982121874999393
        },
        {
          "name": "D4",
          "midi": 62,
          "time": 264.6425924999997,
          "velocity": 0.8661417322834646,
          "duration": 2.678568750000011
        }
      ],
      "controlChanges": {
        "10": [
          {
            "number": 10,
            "time": 0,
            "value": 0.5039370078740157
          }
        ]
      },
      "id": 2,
      "name": "Duel of the Fates",
      "instrumentNumber": 52,
      "instrument": "choir aahs",
      "instrumentFamily": "ensemble",
      "channelNumber": 0,
      "isPercussion": false
    },
    {
      "startTime": 15.857127000000002,
      "duration": 273.4238337187468,
      "length": 747,
      "notes": [
        {
          "name": "E1",
          "midi": 28,
          "time": 15.857127000000002,
          "velocity": 0.8661417322834646,
          "duration": 0.35714249999999836
        },
        {
          "name": "E1",
          "midi": 28,
          "time": 19.285695,
          "velocity": 0.8661417322834646,
          "duration": 0.20982121875000104
        },
        {
          "name": "G1",
          "midi": 31,
          "time": 19.499980500000003,
          "velocity": 0.8661417322834646,
          "duration": 0.20982121875000104
        },
        {
          "name": "E1",
          "midi": 28,
          "time": 22.499977500000004,
          "velocity": 0.8661417322834646,
          "duration": 0.20982121875000104
        },
        {
          "name": "D#1",
          "midi": 27,
          "time": 22.714263000000006,
          "velocity": 0.8661417322834646,
          "duration": 0.20982121875000104
        },
        {
          "name": "E1",
          "midi": 28,
          "time": 22.92854850000001,
          "velocity": 0.8661417322834646,
          "duration": 0.20982121875000104
        },
        {
          "name": "E1",
          "midi": 28,
          "time": 23.14283400000001,
          "velocity": 0.8661417322834646,
          "duration": 0.20982121875000104
        },
        {
          "name": "G1",
          "midi": 31,
          "time": 23.357119500000014,
          "velocity": 0.8661417322834646,
          "duration": 0.20982121875000104
        },
        {
          "name": "E1",
          "midi": 28,
          "time": 26.142831000000015,
          "velocity": 0.8661417322834646,
          "duration": 0.35714249999999836
        },
        {
          "name": "E1",
          "midi": 28,
          "time": 29.571399000000014,
          "velocity": 0.8661417322834646,
          "duration": 0.20982121875000104
        },
        {
          "name": "G1",
          "midi": 31,
          "time": 29.785684500000016,
          "velocity": 0.8661417322834646,
          "duration": 0.20982121875000104
        },
        {
          "name": "E1",
          "midi": 28,
          "time": 32.99996700000002,
          "velocity": 0.8661417322834646,
          "duration": 0.20982121875000104
        },
        {
          "name": "E1",
          "midi": 28,
          "time": 33.21425250000002,
          "velocity": 0.8661417322834646,
          "duration": 0.20982121875000104
        },
        {
          "name": "E1",
          "midi": 28,
          "time": 35.785678500000024,
          "velocity": 0.8661417322834646,
          "duration": 0.20982121875000104
        },
        {
          "name": "E1",
          "midi": 28,
          "time": 36.428535000000025,
          "velocity": 0.8661417322834646,
          "duration": 0.20982121875000104
        },
        {
          "name": "G1",
          "midi": 31,
          "time": 36.64282050000003,
          "velocity": 0.8661417322834646,
          "duration": 0.20982121875000104
        },
        {
          "name": "E1",
          "midi": 28,
          "time": 36.85710600000003,
          "velocity": 0.8661417322834646,
          "duration": 0.20982121875000104
        },
        {
          "name": "G1",
          "midi": 31,
          "time": 37.07139150000003,
          "velocity": 0.8661417322834646,
          "duration": 0.20982121875000104
        },
        {
          "name": "E1",
          "midi": 28,
          "time": 39.85710300000004,
          "velocity": 0.8661417322834646,
          "duration": 0.20982121875000104
        },
        {
          "name": "G1",
          "midi": 31,
          "time": 40.07138850000004,
          "velocity": 0.8661417322834646,
          "duration": 0.20982121875000104
        },
        {
          "name": "E1",
          "midi": 28,
          "time": 40.71424500000004,
          "velocity": 0.8661417322834646,
          "duration": 0.20982121875000104
        },
        {
          "name": "G1",
          "midi": 31,
          "time": 40.92853050000004,
          "velocity": 0.8661417322834646,
          "duration": 0.20982121875000104
        },
        {
          "name": "E1",
          "midi": 28,
          "time": 41.571387000000044,
          "velocity": 0.8661417322834646,
          "duration": 0.20982121875000104
        },
        {
          "name": "G1",
          "midi": 31,
          "time": 41.78567250000005,
          "velocity": 0.8661417322834646,
          "duration": 0.20982121875000104
        },
        {
          "name": "E1",
          "midi": 28,
          "time": 42.42852900000005,
          "velocity": 0.8661417322834646,
          "duration": 0.20982121875000104
        },
        {
          "name": "G1",
          "midi": 31,
          "time": 42.64281450000005,
          "velocity": 0.8661417322834646,
          "duration": 0.20982121875000104
        },
        {
          "name": "E1",
          "midi": 28,
          "time": 43.28567100000005,
          "velocity": 0.8661417322834646,
          "duration": 0.20982121875000104
        },
        {
          "name": "E1",
          "midi": 28,
          "time": 43.49995650000005,
          "velocity": 0.8661417322834646,
          "duration": 0.20982121875000104
        },
        {
          "name": "E1",
          "midi": 28,
          "time": 45.85709700000005,
          "velocity": 0.8661417322834646,
          "duration": 0.20982121875000104
        },
        {
          "name": "G1",
          "midi": 31,
          "time": 46.071382500000055,
          "velocity": 0.8661417322834646,
          "duration": 0.20982121875000104
        },
        {
          "name": "E1",
          "midi": 28,
          "time": 46.714239000000056,
          "velocity": 0.8661417322834646,
          "duration": 0.20982121875000104
        },
        {
          "name": "G1",
          "midi": 31,
          "time": 46.92852450000006,
          "velocity": 0.8661417322834646,
          "duration": 0.20982121875000104
        },
        {
          "name": "E1",
          "midi": 28,
          "time": 50.14280700000006,
          "velocity": 0.8661417322834646,
          "duration": 0.3571425000000019
        },
        {
          "name": "E1",
          "midi": 28,
          "time": 51.85709100000006,
          "velocity": 0.8661417322834646,
          "duration": 0.3571425000000019
        },
        {
          "name": "G1",
          "midi": 31,
          "time": 53.57137500000006,
          "velocity": 0.8661417322834646,
          "duration": 0.20982121875000104
        },
        {
          "name": "E1",
          "midi": 28,
          "time": 53.78566050000006,
          "velocity": 0.8661417322834646,
          "duration": 0.20982121875000104
        },
        {
          "name": "E1",
          "midi": 28,
          "time": 55.28565900000007,
          "velocity": 0.8661417322834646,
          "duration": 0.3571425000000019
        },
        {
          "name": "G1",
          "midi": 31,
          "time": 56.999943000000066,
          "velocity": 0.8661417322834646,
          "duration": 0.20982121875000104
        },
        {
          "name": "D#1",
          "midi": 27,
          "time": 57.21422850000007,
          "velocity": 0.8661417322834646,
          "duration": 0.20982121875000104
        },
        {
          "name": "D#1",
          "midi": 27,
          "time": 58.71422700000007,
          "velocity": 0.8661417322834646,
          "duration": 0.3571425000000019
        },
        {
          "name": "F#1",
          "midi": 30,
          "time": 60.42851100000007,
          "velocity": 0.8661417322834646,
          "duration": 0.20982121875000104
        },
        {
          "name": "D#1",
          "midi": 27,
          "time": 60.642796500000074,
          "velocity": 0.8661417322834646,
          "duration": 0.20982121875000104
        },
        {
          "name": "E1",
          "midi": 28,
          "time": 62.14279500000008,
          "velocity": 0.8661417322834646,
          "duration": 0.3571425000000019
        },
        {
          "name": "E1",
          "midi": 28,
          "time": 63.85707900000008,
          "velocity": 0.8661417322834646,
          "duration": 0.20982121875000104
        },
        {
          "name": "G1",
          "midi": 31,
          "time": 64.07136450000007,
          "velocity": 0.8661417322834646,
          "duration": 0.20982121874999393
        },
        {
          "name": "A1",
          "midi": 33,
          "time": 64.49993550000006,
          "velocity": 0.8661417322834646,
          "duration": 0.20982121874999393
        },
        {
          "name": "E1",
          "midi": 28,
          "time": 64.71422100000005,
          "velocity": 0.8661417322834646,
          "duration": 0.20982121874999393
        },
        {
          "name": "G1",
          "midi": 31,
          "time": 64.92850650000004,
          "velocity": 0.8661417322834646,
          "duration": 0.20982121874999393
        },
        {
          "name": "A1",
          "midi": 33,
          "time": 65.35707750000003,
          "velocity": 0.8661417322834646,
          "duration": 0.20982121874999393
        },
        {
          "name": "E1",
          "midi": 28,
          "time": 65.57136300000002,
          "velocity": 0.8661417322834646,
          "duration": 0.20982121874999393
        },
        {
          "name": "G1",
          "midi": 31,
          "time": 65.78564850000001,
          "velocity": 0.8661417322834646,
          "duration": 0.20982121874999393
        },
        {
          "name": "A1",
          "midi": 33,
          "time": 66.2142195,
          "velocity": 0.8661417322834646,
          "duration": 0.20982121874999393
        },
        {
          "name": "D#1",
          "midi": 27,
          "time": 66.42850499999999,
          "velocity": 0.8661417322834646,
          "duration": 0.20982121874999393
        },
        {
          "name": "F#1",
          "midi": 30,
          "time": 66.64279049999998,
          "velocity": 0.8661417322834646,
          "duration": 0.20982121874999393
        },
        {
          "name": "A1",
          "midi": 33,
          "time": 67.07136149999997,
          "velocity": 0.8661417322834646,
          "duration": 0.20982121874999393
        },
        {
          "name": "E1",
          "midi": 28,
          "time": 67.28564699999995,
          "velocity": 0.8661417322834646,
          "duration": 0.20982121874999393
        },
        {
          "name": "G1",
          "midi": 31,
          "time": 67.49993249999994,
          "velocity": 0.8661417322834646,
          "duration": 0.20982121874999393
        },
        {
          "name": "A1",
          "midi": 33,
          "time": 67.92850349999993,
          "velocity": 0.8661417322834646,
          "duration": 0.20982121874999393
        },
        {
          "name": "E1",
          "midi": 28,
          "time": 68.14278899999992,
          "velocity": 0.8661417322834646,
          "duration": 0.20982121874999393
        },
        {
          "name": "G1",
          "midi": 31,
          "time": 68.35707449999991,
          "velocity": 0.8661417322834646,
          "duration": 0.20982121874999393
        },
        {
          "name": "A1",
          "midi": 33,
          "time": 68.7856454999999,
          "velocity": 0.8661417322834646,
          "duration": 0.20982121874999393
        },
        {
          "name": "E1",
          "midi": 28,
          "time": 68.99993099999989,
          "velocity": 0.8661417322834646,
          "duration": 0.20982121874999393
        },
        {
          "name": "G1",
          "midi": 31,
          "time": 69.21421649999988,
          "velocity": 0.8661417322834646,
          "duration": 0.20982121874999393
        },
        {
          "name": "A1",
          "midi": 33,
          "time": 69.64278749999987,
          "velocity": 0.8661417322834646,
          "duration": 0.20982121874999393
        },
        {
          "name": "E1",
          "midi": 28,
          "time": 69.85707299999986,
          "velocity": 0.8661417322834646,
          "duration": 0.20982121874999393
        },
        {
          "name": "G1",
          "midi": 31,
          "time": 70.07135849999985,
          "velocity": 0.8661417322834646,
          "duration": 0.20982121874999393
        },
        {
          "name": "A1",
          "midi": 33,
          "time": 70.49992949999984,
          "velocity": 0.8661417322834646,
          "duration": 0.20982121874999393
        },
        {
          "name": "E1",
          "midi": 28,
          "time": 70.71421499999983,
          "velocity": 0.8661417322834646,
          "duration": 0.20982121874999393
        },
        {
          "name": "G1",
          "midi": 31,
          "time": 70.92850049999981,
          "velocity": 0.8661417322834646,
          "duration": 0.20982121874999393
        },
        {
          "name": "E1",
          "midi": 28,
          "time": 71.1427859999998,
          "velocity": 0.8661417322834646,
          "duration": 0.20982121874999393
        },
        {
          "name": "A1",
          "midi": 33,
          "time": 71.35707149999979,
          "velocity": 0.8661417322834646,
          "duration": 0.20982121874999393
        },
        {
          "name": "E1",
          "midi": 28,
          "time": 71.57135699999978,
          "velocity": 0.8661417322834646,
          "duration": 0.20982121874999393
        },
        {
          "name": "G1",
          "midi": 31,
          "time": 71.78564249999977,
          "velocity": 0.8661417322834646,
          "duration": 0.20982121874999393
        },
        {
          "name": "E1",
          "midi": 28,
          "time": 71.99992799999976,
          "velocity": 0.8661417322834646,
          "duration": 0.20982121874999393
        },
        {
          "name": "A1",
          "midi": 33,
          "time": 72.21421349999974,
          "velocity": 0.8661417322834646,
          "duration": 0.20982121874999393
        },
        {
          "name": "E1",
          "midi": 28,
          "time": 72.42849899999973,
          "velocity": 0.8661417322834646,
          "duration": 0.20982121874999393
        },
        {
          "name": "G1",
          "midi": 31,
          "time": 72.64278449999972,
          "velocity": 0.8661417322834646,
          "duration": 0.20982121874999393
        },
        {
          "name": "E1",
          "midi": 28,
          "time": 72.85706999999971,
          "velocity": 0.8661417322834646,
          "duration": 0.20982121874999393
        },
        {
          "name": "A1",
          "midi": 33,
          "time": 73.0713554999997,
          "velocity": 0.8661417322834646,
          "duration": 0.20982121874999393
        },
        {
          "name": "E1",
          "midi": 28,
          "time": 73.28564099999969,
          "velocity": 0.8661417322834646,
          "duration": 0.20982121874999393
        },
        {
          "name": "G1",
          "midi": 31,
          "time": 73.49992649999967,
          "velocity": 0.8661417322834646,
          "duration": 0.20982121874999393
        },
        {
          "name": "E1",
          "midi": 28,
          "time": 73.71421199999966,
          "velocity": 0.8661417322834646,
          "duration": 0.20982121874999393
        },
        {
          "name": "A1",
          "midi": 33,
          "time": 73.92849749999965,
          "velocity": 0.8661417322834646,
          "duration": 0.20982121874999393
        },
        {
          "name": "E1",
          "midi": 28,
          "time": 74.14278299999964,
          "velocity": 0.8661417322834646,
          "duration": 0.20982121874999393
        },
        {
          "name": "G1",
          "midi": 31,
          "time": 74.35706849999963,
          "velocity": 0.8661417322834646,
          "duration": 0.20982121874999393
        },
        {
          "name": "E1",
          "midi": 28,
          "time": 74.57135399999962,
          "velocity": 0.8661417322834646,
          "duration": 0.20982121874999393
        },
        {
          "name": "A1",
          "midi": 33,
          "time": 74.7856394999996,
          "velocity": 0.8661417322834646,
          "duration": 0.20982121874999393
        },
        {
          "name": "E1",
          "midi": 28,
          "time": 74.99992499999959,
          "velocity": 0.8661417322834646,
          "duration": 0.20982121874999393
        },
        {
          "name": "G1",
          "midi": 31,
          "time": 75.21421049999958,
          "velocity": 0.8661417322834646,
          "duration": 0.20982121874999393
        },
        {
          "name": "E1",
          "midi": 28,
          "time": 75.42849599999957,
          "velocity": 0.8661417322834646,
          "duration": 0.20982121874999393
        },
        {
          "name": "A1",
          "midi": 33,
          "time": 75.64278149999956,
          "velocity": 0.8661417322834646,
          "duration": 0.20982121874999393
        },
        {
          "name": "E1",
          "midi": 28,
          "time": 75.85706699999955,
          "velocity": 0.8661417322834646,
          "duration": 0.20982121874999393
        },
        {
          "name": "G1",
          "midi": 31,
          "time": 76.07135249999953,
          "velocity": 0.8661417322834646,
          "duration": 0.20982121874999393
        },
        {
          "name": "E1",
          "midi": 28,
          "time": 76.28563799999952,
          "velocity": 0.8661417322834646,
          "duration": 0.20982121874999393
        },
        {
          "name": "A1",
          "midi": 33,
          "time": 76.49992349999951,
          "velocity": 0.8661417322834646,
          "duration": 0.20982121874999393
        },
        {
          "name": "E1",
          "midi": 28,
          "time": 76.7142089999995,
          "velocity": 0.8661417322834646,
          "duration": 0.20982121874999393
        },
        {
          "name": "G1",
          "midi": 31,
          "time": 76.92849449999949,
          "velocity": 0.8661417322834646,
          "duration": 0.20982121874999393
        },
        {
          "name": "E1",
          "midi": 28,
          "time": 77.14277999999948,
          "velocity": 0.8661417322834646,
          "duration": 0.20982121874999393
        },
        {
          "name": "A1",
          "midi": 33,
          "time": 77.35706549999946,
          "velocity": 0.8661417322834646,
          "duration": 0.20982121874999393
        },
        {
          "name": "E1",
          "midi": 28,
          "time": 77.57135099999945,
          "velocity": 0.8661417322834646,
          "duration": 0.20982121874999393
        },
        {
          "name": "G1",
          "midi": 31,
          "time": 77.78563649999944,
          "velocity": 0.8661417322834646,
          "duration": 0.20982121874999393
        },
        {
          "name": "E1",
          "midi": 28,
          "time": 77.99992199999943,
          "velocity": 0.8661417322834646,
          "duration": 0.20982121874999393
        },
        {
          "name": "A1",
          "midi": 33,
          "time": 78.21420749999942,
          "velocity": 0.8661417322834646,
          "duration": 0.20982121874999393
        },
        {
          "name": "E1",
          "midi": 28,
          "time": 78.4284929999994,
          "velocity": 0.8661417322834646,
          "duration": 0.20982121874999393
        },
        {
          "name": "G1",
          "midi": 31,
          "time": 78.6427784999994,
          "velocity": 0.8661417322834646,
          "duration": 0.20982121874999393
        },
        {
          "name": "E1",
          "midi": 28,
          "time": 78.85706399999938,
          "velocity": 0.8661417322834646,
          "duration": 0.20982121874999393
        },
        {
          "name": "A1",
          "midi": 33,
          "time": 79.07134949999937,
          "velocity": 0.8661417322834646,
          "duration": 0.20982121874999393
        },
        {
          "name": "E1",
          "midi": 28,
          "time": 79.28563499999936,
          "velocity": 0.8661417322834646,
          "duration": 0.20982121874999393
        },
        {
          "name": "G1",
          "midi": 31,
          "time": 79.49992049999935,
          "velocity": 0.8661417322834646,
          "duration": 0.20982121874999393
        },
        {
          "name": "E1",
          "midi": 28,
          "time": 79.71420599999934,
          "velocity": 0.8661417322834646,
          "duration": 0.20982121874999393
        },
        {
          "name": "A1",
          "midi": 33,
          "time": 79.92849149999932,
          "velocity": 0.8661417322834646,
          "duration": 0.20982121874999393
        },
        {
          "name": "E1",
          "midi": 28,
          "time": 80.14277699999931,
          "velocity": 0.8661417322834646,
          "duration": 0.20982121874999393
        },
        {
          "name": "G1",
          "midi": 31,
          "time": 80.3570624999993,
          "velocity": 0.8661417322834646,
          "duration": 0.20982121874999393
        },
        {
          "name": "E1",
          "midi": 28,
          "time": 80.57134799999929,
          "velocity": 0.8661417322834646,
          "duration": 0.20982121874999393
        },
        {
          "name": "A1",
          "midi": 33,
          "time": 80.78563349999928,
          "velocity": 0.8661417322834646,
          "duration": 0.20982121874999393
        },
        {
          "name": "E1",
          "midi": 28,
          "time": 80.99991899999927,
          "velocity": 0.8661417322834646,
          "duration": 0.20982121874999393
        },
        {
          "name": "G1",
          "midi": 31,
          "time": 81.21420449999925,
          "velocity": 0.8661417322834646,
          "duration": 0.20982121874999393
        },
        {
          "name": "E1",
          "midi": 28,
          "time": 81.42848999999924,
          "velocity": 0.8661417322834646,
          "duration": 0.20982121874999393
        },
        {
          "name": "A1",
          "midi": 33,
          "time": 81.64277549999923,
          "velocity": 0.8661417322834646,
          "duration": 0.20982121874999393
        },
        {
          "name": "E1",
          "midi": 28,
          "time": 81.85706099999922,
          "velocity": 0.8661417322834646,
          "duration": 0.20982121874999393
        },
        {
          "name": "G1",
          "midi": 31,
          "time": 82.07134649999921,
          "velocity": 0.8661417322834646,
          "duration": 0.20982121874999393
        },
        {
          "name": "E1",
          "midi": 28,
          "time": 82.2856319999992,
          "velocity": 0.8661417322834646,
          "duration": 0.20982121874999393
        },
        {
          "name": "A1",
          "midi": 33,
          "time": 82.49991749999919,
          "velocity": 0.8661417322834646,
          "duration": 0.20982121874999393
        },
        {
          "name": "E1",
          "midi": 28,
          "time": 82.71420299999917,
          "velocity": 0.8661417322834646,
          "duration": 0.20982121874999393
        },
        {
          "name": "G1",
          "midi": 31,
          "time": 82.92848849999916,
          "velocity": 0.8661417322834646,
          "duration": 0.20982121874999393
        },
        {
          "name": "E1",
          "midi": 28,
          "time": 83.14277399999915,
          "velocity": 0.8661417322834646,
          "duration": 0.20982121874999393
        },
        {
          "name": "A1",
          "midi": 33,
          "time": 83.35705949999914,
          "velocity": 0.8661417322834646,
          "duration": 0.20982121874999393
        },
        {
          "name": "E1",
          "midi": 28,
          "time": 83.57134499999913,
          "velocity": 0.8661417322834646,
          "duration": 0.20982121874999393
        },
        {
          "name": "G1",
          "midi": 31,
          "time": 83.78563049999912,
          "velocity": 0.8661417322834646,
          "duration": 0.20982121874999393
        },
        {
          "name": "E1",
          "midi": 28,
          "time": 83.9999159999991,
          "velocity": 0.8661417322834646,
          "duration": 0.20982121874999393
        },
        {
          "name": "A1",
          "midi": 33,
          "time": 84.21420149999909,
          "velocity": 0.8661417322834646,
          "duration": 0.20982121874999393
        },
        {
          "name": "E1",
          "midi": 28,
          "time": 84.42848699999908,
          "velocity": 0.8661417322834646,
          "duration": 0.20982121874999393
        },
        {
          "name": "G1",
          "midi": 31,
          "time": 84.64277249999907,
          "velocity": 0.8661417322834646,
          "duration": 0.20982121874999393
        },
        {
          "name": "E1",
          "midi": 28,
          "time": 84.85705799999906,
          "velocity": 0.8661417322834646,
          "duration": 0.20982121874999393
        },
        {
          "name": "G1",
          "midi": 31,
          "time": 85.07134349999905,
          "velocity": 0.8661417322834646,
          "duration": 0.20982121874999393
        },
        {
          "name": "E1",
          "midi": 28,
          "time": 85.28562899999903,
          "velocity": 0.8661417322834646,
          "duration": 0.20982121874999393
        },
        {
          "name": "G1",
          "midi": 31,
          "time": 85.49991449999902,
          "velocity": 0.8661417322834646,
          "duration": 0.20982121874999393
        },
        {
          "name": "E1",
          "midi": 28,
          "time": 85.71419999999901,
          "velocity": 0.8661417322834646,
          "duration": 0.20982121874999393
        },
        {
          "name": "G1",
          "midi": 31,
          "time": 85.928485499999,
          "velocity": 0.8661417322834646,
          "duration": 0.20982121874999393
        },
        {
          "name": "E1",
          "midi": 28,
          "time": 86.14277099999899,
          "velocity": 0.8661417322834646,
          "duration": 0.20982121874999393
        },
        {
          "name": "G1",
          "midi": 31,
          "time": 86.35705649999898,
          "velocity": 0.8661417322834646,
          "duration": 0.20982121874999393
        },
        {
          "name": "E1",
          "midi": 28,
          "time": 86.57134199999896,
          "velocity": 0.8661417322834646,
          "duration": 0.20982121874999393
        },
        {
          "name": "G1",
          "midi": 31,
          "time": 86.78562749999895,
          "velocity": 0.8661417322834646,
          "duration": 0.20982121874999393
        },
        {
          "name": "E1",
          "midi": 28,
          "time": 86.99991299999894,
          "velocity": 0.8661417322834646,
          "duration": 0.20982121874999393
        },
        {
          "name": "G1",
          "midi": 31,
          "time": 87.21419849999893,
          "velocity": 0.8661417322834646,
          "duration": 0.20982121874999393
        },
        {
          "name": "E1",
          "midi": 28,
          "time": 87.42848399999892,
          "velocity": 0.8661417322834646,
          "duration": 0.20982121874999393
        },
        {
          "name": "G1",
          "midi": 31,
          "time": 87.6427694999989,
          "velocity": 0.8661417322834646,
          "duration": 0.20982121874999393
        },
        {
          "name": "E1",
          "midi": 28,
          "time": 87.8570549999989,
          "velocity": 0.8661417322834646,
          "duration": 0.20982121874999393
        },
        {
          "name": "G1",
          "midi": 31,
          "time": 88.07134049999888,
          "velocity": 0.8661417322834646,
          "duration": 0.20982121874999393
        },
        {
          "name": "E1",
          "midi": 28,
          "time": 88.28562599999887,
          "velocity": 0.8661417322834646,
          "duration": 0.20982121874999393
        },
        {
          "name": "G1",
          "midi": 31,
          "time": 88.49991149999886,
          "velocity": 0.8661417322834646,
          "duration": 0.20982121874999393
        },
        {
          "name": "E1",
          "midi": 28,
          "time": 88.71419699999885,
          "velocity": 0.8661417322834646,
          "duration": 0.20982121874999393
        },
        {
          "name": "G1",
          "midi": 31,
          "time": 88.92848249999884,
          "velocity": 0.8661417322834646,
          "duration": 0.20982121874999393
        },
        {
          "name": "E1",
          "midi": 28,
          "time": 89.14276799999882,
          "velocity": 0.8661417322834646,
          "duration": 0.20982121874999393
        },
        {
          "name": "G1",
          "midi": 31,
          "time": 89.35705349999881,
          "velocity": 0.8661417322834646,
          "duration": 0.20982121874999393
        },
        {
          "name": "E1",
          "midi": 28,
          "time": 89.5713389999988,
          "velocity": 0.8661417322834646,
          "duration": 0.20982121874999393
        },
        {
          "name": "G1",
          "midi": 31,
          "time": 89.78562449999879,
          "velocity": 0.8661417322834646,
          "duration": 0.20982121874999393
        },
        {
          "name": "E1",
          "midi": 28,
          "time": 89.99990999999878,
          "velocity": 0.8661417322834646,
          "duration": 0.20982121874999393
        },
        {
          "name": "G1",
          "midi": 31,
          "time": 90.21419549999877,
          "velocity": 0.8661417322834646,
          "duration": 0.20982121874999393
        },
        {
          "name": "E1",
          "midi": 28,
          "time": 90.42848099999875,
          "velocity": 0.8661417322834646,
          "duration": 0.20982121874999393
        },
        {
          "name": "G1",
          "midi": 31,
          "time": 90.64276649999874,
          "velocity": 0.8661417322834646,
          "duration": 0.20982121874999393
        },
        {
          "name": "E1",
          "midi": 28,
          "time": 90.85705199999873,
          "velocity": 0.8661417322834646,
          "duration": 0.20982121874999393
        },
        {
          "name": "G1",
          "midi": 31,
          "time": 91.07133749999872,
          "velocity": 0.8661417322834646,
          "duration": 0.20982121874999393
        },
        {
          "name": "E1",
          "midi": 28,
          "time": 91.28562299999871,
          "velocity": 0.8661417322834646,
          "duration": 0.20982121874999393
        },
        {
          "name": "G1",
          "midi": 31,
          "time": 91.4999084999987,
          "velocity": 0.8661417322834646,
          "duration": 0.20982121874999393
        },
        {
          "name": "E1",
          "midi": 28,
          "time": 91.71419399999868,
          "velocity": 0.8661417322834646,
          "duration": 0.20982121874999393
        },
        {
          "name": "G1",
          "midi": 31,
          "time": 91.92847949999867,
          "velocity": 0.8661417322834646,
          "duration": 0.20982121874999393
        },
        {
          "name": "E1",
          "midi": 28,
          "time": 92.14276499999866,
          "velocity": 0.8661417322834646,
          "duration": 0.20982121874999393
        },
        {
          "name": "G1",
          "midi": 31,
          "time": 92.35705049999865,
          "velocity": 0.8661417322834646,
          "duration": 0.20982121874999393
        },
        {
          "name": "E1",
          "midi": 28,
          "time": 92.57133599999864,
          "velocity": 0.8661417322834646,
          "duration": 0.20982121874999393
        },
        {
          "name": "G1",
          "midi": 31,
          "time": 92.78562149999863,
          "velocity": 0.8661417322834646,
          "duration": 0.20982121874999393
        },
        {
          "name": "E1",
          "midi": 28,
          "time": 92.99990699999861,
          "velocity": 0.8661417322834646,
          "duration": 0.20982121874999393
        },
        {
          "name": "G1",
          "midi": 31,
          "time": 93.2141924999986,
          "velocity": 0.8661417322834646,
          "duration": 0.20982121874999393
        },
        {
          "name": "E1",
          "midi": 28,
          "time": 93.42847799999859,
          "velocity": 0.8661417322834646,
          "duration": 0.20982121874999393
        },
        {
          "name": "G1",
          "midi": 31,
          "time": 93.64276349999858,
          "velocity": 0.8661417322834646,
          "duration": 0.20982121874999393
        },
        {
          "name": "E1",
          "midi": 28,
          "time": 93.85704899999857,
          "velocity": 0.8661417322834646,
          "duration": 0.20982121874999393
        },
        {
          "name": "G1",
          "midi": 31,
          "time": 94.07133449999856,
          "velocity": 0.8661417322834646,
          "duration": 0.20982121874999393
        },
        {
          "name": "E1",
          "midi": 28,
          "time": 94.28561999999854,
          "velocity": 0.8661417322834646,
          "duration": 0.20982121874999393
        },
        {
          "name": "G1",
          "midi": 31,
          "time": 94.49990549999853,
          "velocity": 0.8661417322834646,
          "duration": 0.20982121874999393
        },
        {
          "name": "C1",
          "midi": 24,
          "time": 94.71419099999852,
          "velocity": 0.8661417322834646,
          "duration": 0.20982121874999393
        },
        {
          "name": "D#1",
          "midi": 27,
          "time": 94.92847649999851,
          "velocity": 0.8661417322834646,
          "duration": 0.20982121874999393
        },
        {
          "name": "C1",
          "midi": 24,
          "time": 95.1427619999985,
          "velocity": 0.8661417322834646,
          "duration": 0.20982121874999393
        },
        {
          "name": "D#1",
          "midi": 27,
          "time": 95.35704749999849,
          "velocity": 0.8661417322834646,
          "duration": 0.20982121874999393
        },
        {
          "name": "C1",
          "midi": 24,
          "time": 95.57133299999848,
          "velocity": 0.8661417322834646,
          "duration": 0.20982121874999393
        },
        {
          "name": "D#1",
          "midi": 27,
          "time": 95.78561849999846,
          "velocity": 0.8661417322834646,
          "duration": 0.20982121874999393
        },
        {
          "name": "C1",
          "midi": 24,
          "time": 95.99990399999845,
          "velocity": 0.8661417322834646,
          "duration": 0.20982121874999393
        },
        {
          "name": "D#1",
          "midi": 27,
          "time": 96.21418949999844,
          "velocity": 0.8661417322834646,
          "duration": 0.20982121874999393
        },
        {
          "name": "C1",
          "midi": 24,
          "time": 96.42847499999843,
          "velocity": 0.8661417322834646,
          "duration": 0.20982121874999393
        },
        {
          "name": "D#1",
          "midi": 27,
          "time": 96.64276049999842,
          "velocity": 0.8661417322834646,
          "duration": 0.20982121874999393
        },
        {
          "name": "C1",
          "midi": 24,
          "time": 96.8570459999984,
          "velocity": 0.8661417322834646,
          "duration": 0.20982121874999393
        },
        {
          "name": "D#1",
          "midi": 27,
          "time": 97.0713314999984,
          "velocity": 0.8661417322834646,
          "duration": 0.20982121874999393
        },
        {
          "name": "C1",
          "midi": 24,
          "time": 97.28561699999838,
          "velocity": 0.8661417322834646,
          "duration": 0.20982121874999393
        },
        {
          "name": "D#1",
          "midi": 27,
          "time": 97.49990249999837,
          "velocity": 0.8661417322834646,
          "duration": 0.20982121874999393
        },
        {
          "name": "C1",
          "midi": 24,
          "time": 97.71418799999836,
          "velocity": 0.8661417322834646,
          "duration": 0.20982121874999393
        },
        {
          "name": "D#1",
          "midi": 27,
          "time": 97.92847349999835,
          "velocity": 0.8661417322834646,
          "duration": 0.20982121874999393
        },
        {
          "name": "E1",
          "midi": 28,
          "time": 98.14275899999834,
          "velocity": 0.8661417322834646,
          "duration": 0.20982121874999393
        },
        {
          "name": "G1",
          "midi": 31,
          "time": 98.35704449999832,
          "velocity": 0.8661417322834646,
          "duration": 0.20982121874999393
        },
        {
          "name": "E1",
          "midi": 28,
          "time": 98.57132999999831,
          "velocity": 0.8661417322834646,
          "duration": 0.20982121874999393
        },
        {
          "name": "G1",
          "midi": 31,
          "time": 98.7856154999983,
          "velocity": 0.8661417322834646,
          "duration": 0.20982121874999393
        },
        {
          "name": "E1",
          "midi": 28,
          "time": 98.99990099999829,
          "velocity": 0.8661417322834646,
          "duration": 0.20982121874999393
        },
        {
          "name": "G1",
          "midi": 31,
          "time": 99.21418649999828,
          "velocity": 0.8661417322834646,
          "duration": 0.20982121874999393
        },
        {
          "name": "E1",
          "midi": 28,
          "time": 99.42847199999827,
          "velocity": 0.8661417322834646,
          "duration": 0.20982121874999393
        },
        {
          "name": "G1",
          "midi": 31,
          "time": 99.64275749999825,
          "velocity": 0.8661417322834646,
          "duration": 0.20982121874999393
        },
        {
          "name": "E1",
          "midi": 28,
          "time": 99.85704299999824,
          "velocity": 0.8661417322834646,
          "duration": 0.20982121874999393
        },
        {
          "name": "G1",
          "midi": 31,
          "time": 100.07132849999823,
          "velocity": 0.8661417322834646,
          "duration": 0.20982121874999393
        },
        {
          "name": "E1",
          "midi": 28,
          "time": 100.28561399999822,
          "velocity": 0.8661417322834646,
          "duration": 0.20982121874999393
        },
        {
          "name": "G1",
          "midi": 31,
          "time": 100.49989949999821,
          "velocity": 0.8661417322834646,
          "duration": 0.20982121874999393
        },
        {
          "name": "E1",
          "midi": 28,
          "time": 100.7141849999982,
          "velocity": 0.8661417322834646,
          "duration": 0.20982121874999393
        },
        {
          "name": "G1",
          "midi": 31,
          "time": 100.92847049999818,
          "velocity": 0.8661417322834646,
          "duration": 0.20982121874999393
        },
        {
          "name": "E1",
          "midi": 28,
          "time": 101.14275599999817,
          "velocity": 0.8661417322834646,
          "duration": 0.20982121874999393
        },
        {
          "name": "G1",
          "midi": 31,
          "time": 101.35704149999816,
          "velocity": 0.8661417322834646,
          "duration": 0.20982121874999393
        },
        {
          "name": "C1",
          "midi": 24,
          "time": 101.57132699999815,
          "velocity": 0.8661417322834646,
          "duration": 0.20982121874999393
        },
        {
          "name": "D#1",
          "midi": 27,
          "time": 101.78561249999814,
          "velocity": 0.8661417322834646,
          "duration": 0.20982121874999393
        },
        {
          "name": "C1",
          "midi": 24,
          "time": 101.99989799999813,
          "velocity": 0.8661417322834646,
          "duration": 0.20982121874999393
        },
        {
          "name": "D#1",
          "midi": 27,
          "time": 102.21418349999811,
          "velocity": 0.8661417322834646,
          "duration": 0.20982121874999393
        },
        {
          "name": "C1",
          "midi": 24,
          "time": 102.4284689999981,
          "velocity": 0.8661417322834646,
          "duration": 0.20982121874999393
        },
        {
          "name": "D#1",
          "midi": 27,
          "time": 102.64275449999809,
          "velocity": 0.8661417322834646,
          "duration": 0.20982121874999393
        },
        {
          "name": "C1",
          "midi": 24,
          "time": 102.85703999999808,
          "velocity": 0.8661417322834646,
          "duration": 0.20982121874999393
        },
        {
          "name": "D#1",
          "midi": 27,
          "time": 103.07132549999807,
          "velocity": 0.8661417322834646,
          "duration": 0.20982121874999393
        },
        {
          "name": "C1",
          "midi": 24,
          "time": 103.28561099999806,
          "velocity": 0.8661417322834646,
          "duration": 0.20982121874999393
        },
        {
          "name": "D#1",
          "midi": 27,
          "time": 103.49989649999804,
          "velocity": 0.8661417322834646,
          "duration": 0.20982121874999393
        },
        {
          "name": "C1",
          "midi": 24,
          "time": 103.71418199999803,
          "velocity": 0.8661417322834646,
          "duration": 0.20982121874999393
        },
        {
          "name": "D#1",
          "midi": 27,
          "time": 103.92846749999802,
          "velocity": 0.8661417322834646,
          "duration": 0.20982121874999393
        },
        {
          "name": "C1",
          "midi": 24,
          "time": 104.14275299999801,
          "velocity": 0.8661417322834646,
          "duration": 0.20982121874999393
        },
        {
          "name": "D#1",
          "midi": 27,
          "time": 104.357038499998,
          "velocity": 0.8661417322834646,
          "duration": 0.20982121874999393
        },
        {
          "name": "C1",
          "midi": 24,
          "time": 104.57132399999799,
          "velocity": 0.8661417322834646,
          "duration": 0.20982121874999393
        },
        {
          "name": "D#1",
          "midi": 27,
          "time": 104.78560949999797,
          "velocity": 0.8661417322834646,
          "duration": 0.20982121874999393
        },
        {
          "name": "E1",
          "midi": 28,
          "time": 104.99989499999796,
          "velocity": 0.8661417322834646,
          "duration": 0.20982121874999393
        },
        {
          "name": "G1",
          "midi": 31,
          "time": 105.21418049999795,
          "velocity": 0.8661417322834646,
          "duration": 0.20982121874999393
        },
        {
          "name": "E1",
          "midi": 28,
          "time": 105.42846599999794,
          "velocity": 0.8661417322834646,
          "duration": 0.20982121874999393
        },
        {
          "name": "G1",
          "midi": 31,
          "time": 105.64275149999793,
          "velocity": 0.8661417322834646,
          "duration": 0.20982121874999393
        },
        {
          "name": "E1",
          "midi": 28,
          "time": 105.85703699999792,
          "velocity": 0.8661417322834646,
          "duration": 0.20982121874999393
        },
        {
          "name": "G1",
          "midi": 31,
          "time": 106.0713224999979,
          "velocity": 0.8661417322834646,
          "duration": 0.20982121874999393
        },
        {
          "name": "E1",
          "midi": 28,
          "time": 106.2856079999979,
          "velocity": 0.8661417322834646,
          "duration": 0.20982121874999393
        },
        {
          "name": "G1",
          "midi": 31,
          "time": 106.49989349999788,
          "velocity": 0.8661417322834646,
          "duration": 0.20982121874999393
        },
        {
          "name": "E1",
          "midi": 28,
          "time": 106.71417899999787,
          "velocity": 0.8661417322834646,
          "duration": 0.20982121874999393
        },
        {
          "name": "G1",
          "midi": 31,
          "time": 106.92846449999786,
          "velocity": 0.8661417322834646,
          "duration": 0.20982121874999393
        },
        {
          "name": "E1",
          "midi": 28,
          "time": 107.14274999999785,
          "velocity": 0.8661417322834646,
          "duration": 0.20982121874999393
        },
        {
          "name": "G1",
          "midi": 31,
          "time": 107.35703549999783,
          "velocity": 0.8661417322834646,
          "duration": 0.20982121874999393
        },
        {
          "name": "E1",
          "midi": 28,
          "time": 107.57132099999782,
          "velocity": 0.8661417322834646,
          "duration": 0.20982121874999393
        },
        {
          "name": "G1",
          "midi": 31,
          "time": 107.78560649999781,
          "velocity": 0.8661417322834646,
          "duration": 0.20982121874999393
        },
        {
          "name": "E1",
          "midi": 28,
          "time": 107.9998919999978,
          "velocity": 0.8661417322834646,
          "duration": 0.20982121874999393
        },
        {
          "name": "G1",
          "midi": 31,
          "time": 108.21417749999779,
          "velocity": 0.8661417322834646,
          "duration": 0.20982121874999393
        },
        {
          "name": "E1",
          "midi": 28,
          "time": 108.42846299999778,
          "velocity": 0.8661417322834646,
          "duration": 0.20982121874999393
        },
        {
          "name": "G1",
          "midi": 31,
          "time": 108.64274849999777,
          "velocity": 0.8661417322834646,
          "duration": 0.20982121874999393
        },
        {
          "name": "E1",
          "midi": 28,
          "time": 108.85703399999775,
          "velocity": 0.8661417322834646,
          "duration": 0.20982121874999393
        },
        {
          "name": "G1",
          "midi": 31,
          "time": 109.07131949999774,
          "velocity": 0.8661417322834646,
          "duration": 0.20982121874999393
        },
        {
          "name": "E1",
          "midi": 28,
          "time": 109.28560499999773,
          "velocity": 0.8661417322834646,
          "duration": 0.20982121874999393
        },
        {
          "name": "G1",
          "midi": 31,
          "time": 109.49989049999772,
          "velocity": 0.8661417322834646,
          "duration": 0.20982121874999393
        },
        {
          "name": "E1",
          "midi": 28,
          "time": 109.7141759999977,
          "velocity": 0.8661417322834646,
          "duration": 0.20982121874999393
        },
        {
          "name": "G1",
          "midi": 31,
          "time": 109.9284614999977,
          "velocity": 0.8661417322834646,
          "duration": 0.20982121874999393
        },
        {
          "name": "E1",
          "midi": 28,
          "time": 110.14274699999768,
          "velocity": 0.8661417322834646,
          "duration": 0.20982121874999393
        },
        {
          "name": "G1",
          "midi": 31,
          "time": 110.35703249999767,
          "velocity": 0.8661417322834646,
          "duration": 0.20982121874999393
        },
        {
          "name": "E1",
          "midi": 28,
          "time": 110.57131799999766,
          "velocity": 0.8661417322834646,
          "duration": 0.20982121874999393
        },
        {
          "name": "G1",
          "midi": 31,
          "time": 110.78560349999765,
          "velocity": 0.8661417322834646,
          "duration": 0.20982121874999393
        },
        {
          "name": "E1",
          "midi": 28,
          "time": 110.99988899999764,
          "velocity": 0.8661417322834646,
          "duration": 0.20982121874999393
        },
        {
          "name": "G1",
          "midi": 31,
          "time": 111.21417449999763,
          "velocity": 0.8661417322834646,
          "duration": 0.20982121874999393
        },
        {
          "name": "E1",
          "midi": 28,
          "time": 111.42845999999761,
          "velocity": 0.8661417322834646,
          "duration": 0.20982121874999393
        },
        {
          "name": "G1",
          "midi": 31,
          "time": 111.6427454999976,
          "velocity": 0.8661417322834646,
          "duration": 0.20982121874999393
        },
        {
          "name": "E1",
          "midi": 28,
          "time": 111.85703099999759,
          "velocity": 0.8661417322834646,
          "duration": 0.20982121874999393
        },
        {
          "name": "G1",
          "midi": 31,
          "time": 112.07131649999758,
          "velocity": 0.8661417322834646,
          "duration": 0.20982121874999393
        },
        {
          "name": "E1",
          "midi": 28,
          "time": 112.28560199999757,
          "velocity": 0.8661417322834646,
          "duration": 0.20982121874999393
        },
        {
          "name": "G1",
          "midi": 31,
          "time": 112.49988749999756,
          "velocity": 0.8661417322834646,
          "duration": 0.20982121874999393
        },
        {
          "name": "E1",
          "midi": 28,
          "time": 112.71417299999754,
          "velocity": 0.8661417322834646,
          "duration": 0.20982121874999393
        },
        {
          "name": "G1",
          "midi": 31,
          "time": 112.92845849999753,
          "velocity": 0.8661417322834646,
          "duration": 0.20982121874999393
        },
        {
          "name": "E1",
          "midi": 28,
          "time": 113.14274399999752,
          "velocity": 0.8661417322834646,
          "duration": 0.20982121874999393
        },
        {
          "name": "G1",
          "midi": 31,
          "time": 113.35702949999751,
          "velocity": 0.8661417322834646,
          "duration": 0.20982121874999393
        },
        {
          "name": "E1",
          "midi": 28,
          "time": 113.5713149999975,
          "velocity": 0.8661417322834646,
          "duration": 0.3571424999999948
        },
        {
          "name": "E1",
          "midi": 28,
          "time": 113.99988599999749,
          "velocity": 0.8661417322834646,
          "duration": 0.20982121874999393
        },
        {
          "name": "G1",
          "midi": 31,
          "time": 114.21417149999748,
          "velocity": 0.8661417322834646,
          "duration": 0.20982121874999393
        },
        {
          "name": "E1",
          "midi": 28,
          "time": 114.42845699999747,
          "velocity": 0.8661417322834646,
          "duration": 0.3571424999999948
        },
        {
          "name": "E1",
          "midi": 28,
          "time": 114.85702799999746,
          "velocity": 0.8661417322834646,
          "duration": 0.20982121874999393
        },
        {
          "name": "G1",
          "midi": 31,
          "time": 115.07131349999744,
          "velocity": 0.8661417322834646,
          "duration": 0.20982121874999393
        },
        {
          "name": "E1",
          "midi": 28,
          "time": 115.28559899999743,
          "velocity": 0.8661417322834646,
          "duration": 0.3571424999999948
        },
        {
          "name": "E1",
          "midi": 28,
          "time": 115.71416999999742,
          "velocity": 0.8661417322834646,
          "duration": 0.20982121874999393
        },
        {
          "name": "G1",
          "midi": 31,
          "time": 115.92845549999741,
          "velocity": 0.8661417322834646,
          "duration": 0.20982121874999393
        },
        {
          "name": "E1",
          "midi": 28,
          "time": 116.1427409999974,
          "velocity": 0.8661417322834646,
          "duration": 0.3571424999999948
        },
        {
          "name": "E1",
          "midi": 28,
          "time": 116.57131199999739,
          "velocity": 0.8661417322834646,
          "duration": 0.20982121874999393
        },
        {
          "name": "G1",
          "midi": 31,
          "time": 116.78559749999738,
          "velocity": 0.8661417322834646,
          "duration": 0.20982121874999393
        },
        {
          "name": "E1",
          "midi": 28,
          "time": 116.99988299999737,
          "velocity": 0.8661417322834646,
          "duration": 0.3571424999999948
        },
        {
          "name": "E1",
          "midi": 28,
          "time": 117.42845399999736,
          "velocity": 0.8661417322834646,
          "duration": 0.20982121874999393
        },
        {
          "name": "G1",
          "midi": 31,
          "time": 117.64273949999735,
          "velocity": 0.8661417322834646,
          "duration": 0.20982121874999393
        },
        {
          "name": "E1",
          "midi": 28,
          "time": 117.85702499999734,
          "velocity": 0.8661417322834646,
          "duration": 0.3571424999999948
        },
        {
          "name": "E1",
          "midi": 28,
          "time": 118.28559599999733,
          "velocity": 0.8661417322834646,
          "duration": 0.20982121874999393
        },
        {
          "name": "G1",
          "midi": 31,
          "time": 118.49988149999731,
          "velocity": 0.8661417322834646,
          "duration": 0.20982121874999393
        },
        {
          "name": "E1",
          "midi": 28,
          "time": 118.7141669999973,
          "velocity": 0.8661417322834646,
          "duration": 0.3571424999999948
        },
        {
          "name": "E1",
          "midi": 28,
          "time": 119.1427379999973,
          "velocity": 0.8661417322834646,
          "duration": 0.20982121874999393
        },
        {
          "name": "G1",
          "midi": 31,
          "time": 119.35702349999728,
          "velocity": 0.8661417322834646,
          "duration": 0.20982121874999393
        },
        {
          "name": "E1",
          "midi": 28,
          "time": 119.57130899999727,
          "velocity": 0.8661417322834646,
          "duration": 0.3571424999999948
        },
        {
          "name": "E1",
          "midi": 28,
          "time": 119.99987999999726,
          "velocity": 0.8661417322834646,
          "duration": 0.20982121874999393
        },
        {
          "name": "G1",
          "midi": 31,
          "time": 120.21416549999725,
          "velocity": 0.8661417322834646,
          "duration": 0.20982121874999393
        },
        {
          "name": "G1",
          "midi": 31,
          "time": 120.42845099999724,
          "velocity": 0.8661417322834646,
          "duration": 0.3571424999999948
        },
        {
          "name": "G2",
          "midi": 43,
          "time": 120.42845099999724,
          "velocity": 0.8661417322834646,
          "duration": 0.3571424999999948
        },
        {
          "name": "G1",
          "midi": 31,
          "time": 121.28559299999723,
          "velocity": 0.8661417322834646,
          "duration": 0.3571424999999948
        },
        {
          "name": "G2",
          "midi": 43,
          "time": 121.28559299999723,
          "velocity": 0.8661417322834646,
          "duration": 0.3571424999999948
        },
        {
          "name": "G1",
          "midi": 31,
          "time": 122.14273499999723,
          "velocity": 0.8661417322834646,
          "duration": 0.3571424999999948
        },
        {
          "name": "G2",
          "midi": 43,
          "time": 122.14273499999723,
          "velocity": 0.8661417322834646,
          "duration": 0.3571424999999948
        },
        {
          "name": "G1",
          "midi": 31,
          "time": 122.99987699999723,
          "velocity": 0.8661417322834646,
          "duration": 0.20982121874999393
        },
        {
          "name": "G2",
          "midi": 43,
          "time": 122.99987699999723,
          "velocity": 0.8661417322834646,
          "duration": 0.20982121874999393
        },
        {
          "name": "A#1",
          "midi": 34,
          "time": 123.21416249999722,
          "velocity": 0.8661417322834646,
          "duration": 0.20982121874999393
        },
        {
          "name": "A#2",
          "midi": 46,
          "time": 123.21416249999722,
          "velocity": 0.8661417322834646,
          "duration": 0.20982121874999393
        },
        {
          "name": "G1",
          "midi": 31,
          "time": 123.85701899999721,
          "velocity": 0.8661417322834646,
          "duration": 0.3571424999999948
        },
        {
          "name": "G2",
          "midi": 43,
          "time": 123.85701899999721,
          "velocity": 0.8661417322834646,
          "duration": 0.3571424999999948
        },
        {
          "name": "G1",
          "midi": 31,
          "time": 124.7141609999972,
          "velocity": 0.8661417322834646,
          "duration": 0.3571424999999948
        },
        {
          "name": "G2",
          "midi": 43,
          "time": 124.7141609999972,
          "velocity": 0.8661417322834646,
          "duration": 0.3571424999999948
        },
        {
          "name": "G1",
          "midi": 31,
          "time": 125.5713029999972,
          "velocity": 0.8661417322834646,
          "duration": 0.3571424999999948
        },
        {
          "name": "G2",
          "midi": 43,
          "time": 125.5713029999972,
          "velocity": 0.8661417322834646,
          "duration": 0.3571424999999948
        },
        {
          "name": "D#1",
          "midi": 27,
          "time": 126.4284449999972,
          "velocity": 0.8661417322834646,
          "duration": 0.20982121874999393
        },
        {
          "name": "D#2",
          "midi": 39,
          "time": 126.4284449999972,
          "velocity": 0.8661417322834646,
          "duration": 0.20982121874999393
        },
        {
          "name": "A#1",
          "midi": 34,
          "time": 126.64273049999719,
          "velocity": 0.8661417322834646,
          "duration": 0.20982121874999393
        },
        {
          "name": "A#2",
          "midi": 46,
          "time": 126.64273049999719,
          "velocity": 0.8661417322834646,
          "duration": 0.20982121874999393
        },
        {
          "name": "G1",
          "midi": 31,
          "time": 127.28558699999718,
          "velocity": 0.8661417322834646,
          "duration": 0.3571424999999948
        },
        {
          "name": "G2",
          "midi": 43,
          "time": 127.28558699999718,
          "velocity": 0.8661417322834646,
          "duration": 0.3571424999999948
        },
        {
          "name": "G1",
          "midi": 31,
          "time": 128.14272899999716,
          "velocity": 0.8661417322834646,
          "duration": 0.357142500000009
        },
        {
          "name": "G2",
          "midi": 43,
          "time": 128.14272899999716,
          "velocity": 0.8661417322834646,
          "duration": 0.357142500000009
        },
        {
          "name": "G1",
          "midi": 31,
          "time": 128.99987099999717,
          "velocity": 0.8661417322834646,
          "duration": 0.357142500000009
        },
        {
          "name": "G2",
          "midi": 43,
          "time": 128.99987099999717,
          "velocity": 0.8661417322834646,
          "duration": 0.357142500000009
        },
        {
          "name": "D#1",
          "midi": 27,
          "time": 129.85701299999718,
          "velocity": 0.8661417322834646,
          "duration": 0.20982121874999393
        },
        {
          "name": "D#2",
          "midi": 39,
          "time": 129.85701299999718,
          "velocity": 0.8661417322834646,
          "duration": 0.20982121874999393
        },
        {
          "name": "A#1",
          "midi": 34,
          "time": 130.07129849999717,
          "velocity": 0.8661417322834646,
          "duration": 0.20982121874999393
        },
        {
          "name": "A#2",
          "midi": 46,
          "time": 130.07129849999717,
          "velocity": 0.8661417322834646,
          "duration": 0.20982121874999393
        },
        {
          "name": "G1",
          "midi": 31,
          "time": 130.71415499999716,
          "velocity": 0.8661417322834646,
          "duration": 0.357142500000009
        },
        {
          "name": "G2",
          "midi": 43,
          "time": 130.71415499999716,
          "velocity": 0.8661417322834646,
          "duration": 0.357142500000009
        },
        {
          "name": "G1",
          "midi": 31,
          "time": 131.57129699999717,
          "velocity": 0.8661417322834646,
          "duration": 0.357142500000009
        },
        {
          "name": "G2",
          "midi": 43,
          "time": 131.57129699999717,
          "velocity": 0.8661417322834646,
          "duration": 0.357142500000009
        },
        {
          "name": "G1",
          "midi": 31,
          "time": 132.42843899999718,
          "velocity": 0.8661417322834646,
          "duration": 0.357142500000009
        },
        {
          "name": "G2",
          "midi": 43,
          "time": 132.42843899999718,
          "velocity": 0.8661417322834646,
          "duration": 0.357142500000009
        },
        {
          "name": "C1",
          "midi": 24,
          "time": 133.2855809999972,
          "velocity": 0.8661417322834646,
          "duration": 0.20982121874999393
        },
        {
          "name": "C2",
          "midi": 36,
          "time": 133.2855809999972,
          "velocity": 0.8661417322834646,
          "duration": 0.20982121874999393
        },
        {
          "name": "A#1",
          "midi": 34,
          "time": 133.49986649999718,
          "velocity": 0.8661417322834646,
          "duration": 0.20982121874999393
        },
        {
          "name": "A#2",
          "midi": 46,
          "time": 133.49986649999718,
          "velocity": 0.8661417322834646,
          "duration": 0.20982121874999393
        },
        {
          "name": "G1",
          "midi": 31,
          "time": 134.14272299999718,
          "velocity": 0.8661417322834646,
          "duration": 0.20982121874999393
        },
        {
          "name": "G2",
          "midi": 43,
          "time": 134.14272299999718,
          "velocity": 0.8661417322834646,
          "duration": 0.20982121874999393
        },
        {
          "name": "A#1",
          "midi": 34,
          "time": 134.35700849999716,
          "velocity": 0.8661417322834646,
          "duration": 0.20982121874999393
        },
        {
          "name": "A#2",
          "midi": 46,
          "time": 134.35700849999716,
          "velocity": 0.8661417322834646,
          "duration": 0.20982121874999393
        },
        {
          "name": "G1",
          "midi": 31,
          "time": 134.57129399999715,
          "velocity": 0.8661417322834646,
          "duration": 0.20982121874999393
        },
        {
          "name": "G2",
          "midi": 43,
          "time": 134.57129399999715,
          "velocity": 0.8661417322834646,
          "duration": 0.20982121874999393
        },
        {
          "name": "A#1",
          "midi": 34,
          "time": 134.78557949999714,
          "velocity": 0.8661417322834646,
          "duration": 0.20982121874999393
        },
        {
          "name": "A#2",
          "midi": 46,
          "time": 134.78557949999714,
          "velocity": 0.8661417322834646,
          "duration": 0.20982121874999393
        },
        {
          "name": "G1",
          "midi": 31,
          "time": 134.99986499999713,
          "velocity": 0.8661417322834646,
          "duration": 0.20982121874999393
        },
        {
          "name": "G2",
          "midi": 43,
          "time": 134.99986499999713,
          "velocity": 0.8661417322834646,
          "duration": 0.20982121874999393
        },
        {
          "name": "A#1",
          "midi": 34,
          "time": 135.21415049999712,
          "velocity": 0.8661417322834646,
          "duration": 0.20982121874999393
        },
        {
          "name": "A#2",
          "midi": 46,
          "time": 135.21415049999712,
          "velocity": 0.8661417322834646,
          "duration": 0.20982121874999393
        },
        {
          "name": "G1",
          "midi": 31,
          "time": 135.4284359999971,
          "velocity": 0.8661417322834646,
          "duration": 0.20982121874999393
        },
        {
          "name": "G2",
          "midi": 43,
          "time": 135.4284359999971,
          "velocity": 0.8661417322834646,
          "duration": 0.20982121874999393
        },
        {
          "name": "A#1",
          "midi": 34,
          "time": 135.6427214999971,
          "velocity": 0.8661417322834646,
          "duration": 0.20982121874999393
        },
        {
          "name": "A#2",
          "midi": 46,
          "time": 135.6427214999971,
          "velocity": 0.8661417322834646,
          "duration": 0.20982121874999393
        },
        {
          "name": "G1",
          "midi": 31,
          "time": 135.85700699999708,
          "velocity": 0.8661417322834646,
          "duration": 0.20982121874999393
        },
        {
          "name": "G2",
          "midi": 43,
          "time": 135.85700699999708,
          "velocity": 0.8661417322834646,
          "duration": 0.20982121874999393
        },
        {
          "name": "A#1",
          "midi": 34,
          "time": 136.07129249999707,
          "velocity": 0.8661417322834646,
          "duration": 0.20982121874999393
        },
        {
          "name": "A#2",
          "midi": 46,
          "time": 136.07129249999707,
          "velocity": 0.8661417322834646,
          "duration": 0.20982121874999393
        },
        {
          "name": "G1",
          "midi": 31,
          "time": 136.28557799999706,
          "velocity": 0.8661417322834646,
          "duration": 0.20982121874999393
        },
        {
          "name": "G2",
          "midi": 43,
          "time": 136.28557799999706,
          "velocity": 0.8661417322834646,
          "duration": 0.20982121874999393
        },
        {
          "name": "A#1",
          "midi": 34,
          "time": 136.49986349999705,
          "velocity": 0.8661417322834646,
          "duration": 0.20982121874999393
        },
        {
          "name": "A#2",
          "midi": 46,
          "time": 136.49986349999705,
          "velocity": 0.8661417322834646,
          "duration": 0.20982121874999393
        },
        {
          "name": "G1",
          "midi": 31,
          "time": 136.71414899999704,
          "velocity": 0.8661417322834646,
          "duration": 0.20982121874999393
        },
        {
          "name": "G2",
          "midi": 43,
          "time": 136.71414899999704,
          "velocity": 0.8661417322834646,
          "duration": 0.20982121874999393
        },
        {
          "name": "A#1",
          "midi": 34,
          "time": 136.92843449999702,
          "velocity": 0.8661417322834646,
          "duration": 0.20982121874999393
        },
        {
          "name": "A#2",
          "midi": 46,
          "time": 136.92843449999702,
          "velocity": 0.8661417322834646,
          "duration": 0.20982121874999393
        },
        {
          "name": "G1",
          "midi": 31,
          "time": 137.142719999997,
          "velocity": 0.8661417322834646,
          "duration": 0.20982121874999393
        },
        {
          "name": "G2",
          "midi": 43,
          "time": 137.142719999997,
          "velocity": 0.8661417322834646,
          "duration": 0.20982121874999393
        },
        {
          "name": "A#1",
          "midi": 34,
          "time": 137.357005499997,
          "velocity": 0.8661417322834646,
          "duration": 0.20982121874999393
        },
        {
          "name": "A#2",
          "midi": 46,
          "time": 137.357005499997,
          "velocity": 0.8661417322834646,
          "duration": 0.20982121874999393
        },
        {
          "name": "G1",
          "midi": 31,
          "time": 137.571290999997,
          "velocity": 0.8661417322834646,
          "duration": 0.357142500000009
        },
        {
          "name": "G2",
          "midi": 43,
          "time": 137.571290999997,
          "velocity": 0.8661417322834646,
          "duration": 0.357142500000009
        },
        {
          "name": "D#1",
          "midi": 27,
          "time": 137.999861999997,
          "velocity": 0.8661417322834646,
          "duration": 0.20982121874999393
        },
        {
          "name": "D#2",
          "midi": 39,
          "time": 137.999861999997,
          "velocity": 0.8661417322834646,
          "duration": 0.20982121874999393
        },
        {
          "name": "A#1",
          "midi": 34,
          "time": 138.21414749999698,
          "velocity": 0.8661417322834646,
          "duration": 0.20982121874999393
        },
        {
          "name": "A#2",
          "midi": 46,
          "time": 138.21414749999698,
          "velocity": 0.8661417322834646,
          "duration": 0.20982121874999393
        },
        {
          "name": "G1",
          "midi": 31,
          "time": 138.42843299999697,
          "velocity": 0.8661417322834646,
          "duration": 0.357142500000009
        },
        {
          "name": "G2",
          "midi": 43,
          "time": 138.42843299999697,
          "velocity": 0.8661417322834646,
          "duration": 0.357142500000009
        },
        {
          "name": "D#1",
          "midi": 27,
          "time": 138.85700399999698,
          "velocity": 0.8661417322834646,
          "duration": 0.20982121874999393
        },
        {
          "name": "D#2",
          "midi": 39,
          "time": 138.85700399999698,
          "velocity": 0.8661417322834646,
          "duration": 0.20982121874999393
        },
        {
          "name": "A#1",
          "midi": 34,
          "time": 139.07128949999696,
          "velocity": 0.8661417322834646,
          "duration": 0.20982121874999393
        },
        {
          "name": "A#2",
          "midi": 46,
          "time": 139.07128949999696,
          "velocity": 0.8661417322834646,
          "duration": 0.20982121874999393
        },
        {
          "name": "G1",
          "midi": 31,
          "time": 139.28557499999695,
          "velocity": 0.8661417322834646,
          "duration": 0.357142500000009
        },
        {
          "name": "G2",
          "midi": 43,
          "time": 139.28557499999695,
          "velocity": 0.8661417322834646,
          "duration": 0.357142500000009
        },
        {
          "name": "D#1",
          "midi": 27,
          "time": 139.71414599999696,
          "velocity": 0.8661417322834646,
          "duration": 0.20982121874999393
        },
        {
          "name": "D#2",
          "midi": 39,
          "time": 139.71414599999696,
          "velocity": 0.8661417322834646,
          "duration": 0.20982121874999393
        },
        {
          "name": "A#1",
          "midi": 34,
          "time": 139.92843149999695,
          "velocity": 0.8661417322834646,
          "duration": 0.20982121874999393
        },
        {
          "name": "A#2",
          "midi": 46,
          "time": 139.92843149999695,
          "velocity": 0.8661417322834646,
          "duration": 0.20982121874999393
        },
        {
          "name": "G1",
          "midi": 31,
          "time": 140.14271699999694,
          "velocity": 0.8661417322834646,
          "duration": 0.357142500000009
        },
        {
          "name": "G2",
          "midi": 43,
          "time": 140.14271699999694,
          "velocity": 0.8661417322834646,
          "duration": 0.357142500000009
        },
        {
          "name": "D#1",
          "midi": 27,
          "time": 140.57128799999694,
          "velocity": 0.8661417322834646,
          "duration": 0.20982121874999393
        },
        {
          "name": "D#2",
          "midi": 39,
          "time": 140.57128799999694,
          "velocity": 0.8661417322834646,
          "duration": 0.20982121874999393
        },
        {
          "name": "A#1",
          "midi": 34,
          "time": 140.78557349999693,
          "velocity": 0.8661417322834646,
          "duration": 0.20982121874999393
        },
        {
          "name": "A#2",
          "midi": 46,
          "time": 140.78557349999693,
          "velocity": 0.8661417322834646,
          "duration": 0.20982121874999393
        },
        {
          "name": "E1",
          "midi": 28,
          "time": 143.57128499999692,
          "velocity": 0.8661417322834646,
          "duration": 0.20982121874999393
        },
        {
          "name": "G1",
          "midi": 31,
          "time": 143.7855704999969,
          "velocity": 0.8661417322834646,
          "duration": 0.20982121874999393
        },
        {
          "name": "E1",
          "midi": 28,
          "time": 144.4284269999969,
          "velocity": 0.8661417322834646,
          "duration": 0.20982121874999393
        },
        {
          "name": "G1",
          "midi": 31,
          "time": 144.6427124999969,
          "velocity": 0.8661417322834646,
          "duration": 0.20982121874999393
        },
        {
          "name": "D#1",
          "midi": 27,
          "time": 146.99985299999688,
          "velocity": 0.8661417322834646,
          "duration": 0.20982121874999393
        },
        {
          "name": "C1",
          "midi": 24,
          "time": 147.21413849999686,
          "velocity": 0.8661417322834646,
          "duration": 0.20982121874999393
        },
        {
          "name": "E1",
          "midi": 28,
          "time": 147.85699499999686,
          "velocity": 0.8661417322834646,
          "duration": 0.20982121874999393
        },
        {
          "name": "G1",
          "midi": 31,
          "time": 148.07128049999685,
          "velocity": 0.8661417322834646,
          "duration": 0.20982121874999393
        },
        {
          "name": "D#1",
          "midi": 27,
          "time": 150.85699199999684,
          "velocity": 0.8661417322834646,
          "duration": 0.20982121874999393
        },
        {
          "name": "C1",
          "midi": 24,
          "time": 151.07127749999682,
          "velocity": 0.8661417322834646,
          "duration": 0.20982121874999393
        },
        {
          "name": "E1",
          "midi": 28,
          "time": 151.2855629999968,
          "velocity": 0.8661417322834646,
          "duration": 0.20982121874999393
        },
        {
          "name": "G1",
          "midi": 31,
          "time": 151.4998484999968,
          "velocity": 0.8661417322834646,
          "duration": 0.20982121874999393
        },
        {
          "name": "G1",
          "midi": 31,
          "time": 165.42840599999678,
          "velocity": 0.8661417322834646,
          "duration": 0.20982121874999393
        },
        {
          "name": "G2",
          "midi": 43,
          "time": 165.42840599999678,
          "velocity": 0.8661417322834646,
          "duration": 0.20982121874999393
        },
        {
          "name": "C1",
          "midi": 24,
          "time": 165.64269149999677,
          "velocity": 0.8661417322834646,
          "duration": 0.20982121874999393
        },
        {
          "name": "C2",
          "midi": 36,
          "time": 165.64269149999677,
          "velocity": 0.8661417322834646,
          "duration": 0.20982121874999393
        },
        {
          "name": "E1",
          "midi": 28,
          "time": 167.57126099999675,
          "velocity": 0.8661417322834646,
          "duration": 0.20982121874999393
        },
        {
          "name": "E2",
          "midi": 40,
          "time": 167.57126099999675,
          "velocity": 0.8661417322834646,
          "duration": 0.20982121874999393
        },
        {
          "name": "E1",
          "midi": 28,
          "time": 167.78554649999674,
          "velocity": 0.8661417322834646,
          "duration": 0.20982121874999393
        },
        {
          "name": "E2",
          "midi": 40,
          "time": 167.78554649999674,
          "velocity": 0.8661417322834646,
          "duration": 0.20982121874999393
        },
        {
          "name": "E1",
          "midi": 28,
          "time": 168.85697399999674,
          "velocity": 0.8661417322834646,
          "duration": 0.20982121874999393
        },
        {
          "name": "E2",
          "midi": 40,
          "time": 168.85697399999674,
          "velocity": 0.8661417322834646,
          "duration": 0.20982121874999393
        },
        {
          "name": "E1",
          "midi": 28,
          "time": 169.07125949999673,
          "velocity": 0.8661417322834646,
          "duration": 0.20982121874999393
        },
        {
          "name": "E2",
          "midi": 40,
          "time": 169.07125949999673,
          "velocity": 0.8661417322834646,
          "duration": 0.20982121874999393
        },
        {
          "name": "E1",
          "midi": 28,
          "time": 169.71411599999672,
          "velocity": 0.8661417322834646,
          "duration": 0.357142500000009
        },
        {
          "name": "E2",
          "midi": 40,
          "time": 169.71411599999672,
          "velocity": 0.8661417322834646,
          "duration": 0.357142500000009
        },
        {
          "name": "B0",
          "midi": 23,
          "time": 170.14268699999673,
          "velocity": 0.8661417322834646,
          "duration": 0.357142500000009
        },
        {
          "name": "B1",
          "midi": 35,
          "time": 170.14268699999673,
          "velocity": 0.8661417322834646,
          "duration": 0.357142500000009
        },
        {
          "name": "G1",
          "midi": 31,
          "time": 170.99982899999674,
          "velocity": 0.8661417322834646,
          "duration": 0.357142500000009
        },
        {
          "name": "G2",
          "midi": 43,
          "time": 170.99982899999674,
          "velocity": 0.8661417322834646,
          "duration": 0.357142500000009
        },
        {
          "name": "E1",
          "midi": 28,
          "time": 171.42839999999674,
          "velocity": 0.8661417322834646,
          "duration": 0.357142500000009
        },
        {
          "name": "E2",
          "midi": 40,
          "time": 171.42839999999674,
          "velocity": 0.8661417322834646,
          "duration": 0.357142500000009
        },
        {
          "name": "G1",
          "midi": 31,
          "time": 172.28554199999675,
          "velocity": 0.8661417322834646,
          "duration": 0.20982121874999393
        },
        {
          "name": "G2",
          "midi": 43,
          "time": 172.28554199999675,
          "velocity": 0.8661417322834646,
          "duration": 0.20982121874999393
        },
        {
          "name": "C1",
          "midi": 24,
          "time": 172.49982749999674,
          "velocity": 0.8661417322834646,
          "duration": 0.20982121874999393
        },
        {
          "name": "C2",
          "midi": 36,
          "time": 172.49982749999674,
          "velocity": 0.8661417322834646,
          "duration": 0.20982121874999393
        },
        {
          "name": "C1",
          "midi": 24,
          "time": 172.71411299999673,
          "velocity": 0.8661417322834646,
          "duration": 0.357142500000009
        },
        {
          "name": "C2",
          "midi": 36,
          "time": 172.71411299999673,
          "velocity": 0.8661417322834646,
          "duration": 0.357142500000009
        },
        {
          "name": "F#1",
          "midi": 30,
          "time": 173.57125499999674,
          "velocity": 0.8661417322834646,
          "duration": 0.357142500000009
        },
        {
          "name": "F#2",
          "midi": 42,
          "time": 173.57125499999674,
          "velocity": 0.8661417322834646,
          "duration": 0.357142500000009
        },
        {
          "name": "F#1",
          "midi": 30,
          "time": 173.99982599999674,
          "velocity": 0.8661417322834646,
          "duration": 0.357142500000009
        },
        {
          "name": "G1",
          "midi": 31,
          "time": 175.28553899999676,
          "velocity": 0.8661417322834646,
          "duration": 0.20982121874999393
        },
        {
          "name": "G2",
          "midi": 43,
          "time": 175.28553899999676,
          "velocity": 0.8661417322834646,
          "duration": 0.20982121874999393
        },
        {
          "name": "C1",
          "midi": 24,
          "time": 175.49982449999675,
          "velocity": 0.8661417322834646,
          "duration": 0.20982121874999393
        },
        {
          "name": "C2",
          "midi": 36,
          "time": 175.49982449999675,
          "velocity": 0.8661417322834646,
          "duration": 0.20982121874999393
        },
        {
          "name": "G1",
          "midi": 31,
          "time": 177.85696499999673,
          "velocity": 0.8661417322834646,
          "duration": 0.20982121874999393
        },
        {
          "name": "G2",
          "midi": 43,
          "time": 177.85696499999673,
          "velocity": 0.8661417322834646,
          "duration": 0.20982121874999393
        },
        {
          "name": "C1",
          "midi": 24,
          "time": 178.07125049999672,
          "velocity": 0.8661417322834646,
          "duration": 0.20982121874999393
        },
        {
          "name": "C2",
          "midi": 36,
          "time": 178.07125049999672,
          "velocity": 0.8661417322834646,
          "duration": 0.20982121874999393
        },
        {
          "name": "G1",
          "midi": 31,
          "time": 178.71410699999672,
          "velocity": 0.8661417322834646,
          "duration": 0.20982121874999393
        },
        {
          "name": "A#1",
          "midi": 34,
          "time": 178.9283924999967,
          "velocity": 0.8661417322834646,
          "duration": 0.20982121874999393
        },
        {
          "name": "G1",
          "midi": 31,
          "time": 179.1426779999967,
          "velocity": 0.8661417322834646,
          "duration": 0.20982121874999393
        },
        {
          "name": "A#1",
          "midi": 34,
          "time": 179.35696349999668,
          "velocity": 0.8661417322834646,
          "duration": 0.20982121874999393
        },
        {
          "name": "G1",
          "midi": 31,
          "time": 179.57124899999667,
          "velocity": 0.8661417322834646,
          "duration": 0.20982121874999393
        },
        {
          "name": "A#1",
          "midi": 34,
          "time": 179.78553449999666,
          "velocity": 0.8661417322834646,
          "duration": 0.20982121874999393
        },
        {
          "name": "G1",
          "midi": 31,
          "time": 179.99981999999665,
          "velocity": 0.8661417322834646,
          "duration": 0.20982121874999393
        },
        {
          "name": "A#1",
          "midi": 34,
          "time": 180.21410549999663,
          "velocity": 0.8661417322834646,
          "duration": 0.20982121874999393
        },
        {
          "name": "G1",
          "midi": 31,
          "time": 180.42839099999662,
          "velocity": 0.8661417322834646,
          "duration": 0.20982121874999393
        },
        {
          "name": "A#1",
          "midi": 34,
          "time": 180.6426764999966,
          "velocity": 0.8661417322834646,
          "duration": 0.20982121874999393
        },
        {
          "name": "G1",
          "midi": 31,
          "time": 180.8569619999966,
          "velocity": 0.8661417322834646,
          "duration": 0.20982121874999393
        },
        {
          "name": "A#1",
          "midi": 34,
          "time": 181.0712474999966,
          "velocity": 0.8661417322834646,
          "duration": 0.20982121874999393
        },
        {
          "name": "G1",
          "midi": 31,
          "time": 181.28553299999658,
          "velocity": 0.8661417322834646,
          "duration": 0.20982121874999393
        },
        {
          "name": "A#1",
          "midi": 34,
          "time": 181.49981849999656,
          "velocity": 0.8661417322834646,
          "duration": 0.20982121874999393
        },
        {
          "name": "G1",
          "midi": 31,
          "time": 181.71410399999655,
          "velocity": 0.8661417322834646,
          "duration": 0.20982121874999393
        },
        {
          "name": "A#1",
          "midi": 34,
          "time": 181.92838949999654,
          "velocity": 0.8661417322834646,
          "duration": 0.20982121874999393
        },
        {
          "name": "G1",
          "midi": 31,
          "time": 182.14267499999653,
          "velocity": 0.8661417322834646,
          "duration": 0.20982121874999393
        },
        {
          "name": "A#1",
          "midi": 34,
          "time": 182.35696049999652,
          "velocity": 0.8661417322834646,
          "duration": 0.20982121874999393
        },
        {
          "name": "G1",
          "midi": 31,
          "time": 182.5712459999965,
          "velocity": 0.8661417322834646,
          "duration": 0.20982121874999393
        },
        {
          "name": "A#1",
          "midi": 34,
          "time": 182.7855314999965,
          "velocity": 0.8661417322834646,
          "duration": 0.20982121874999393
        },
        {
          "name": "G1",
          "midi": 31,
          "time": 182.99981699999648,
          "velocity": 0.8661417322834646,
          "duration": 0.20982121874999393
        },
        {
          "name": "A#1",
          "midi": 34,
          "time": 183.21410249999647,
          "velocity": 0.8661417322834646,
          "duration": 0.20982121874999393
        },
        {
          "name": "G1",
          "midi": 31,
          "time": 183.42838799999646,
          "velocity": 0.8661417322834646,
          "duration": 0.20982121874999393
        },
        {
          "name": "A#1",
          "midi": 34,
          "time": 183.64267349999645,
          "velocity": 0.8661417322834646,
          "duration": 0.20982121874999393
        },
        {
          "name": "G1",
          "midi": 31,
          "time": 183.85695899999644,
          "velocity": 0.8661417322834646,
          "duration": 0.20982121874999393
        },
        {
          "name": "A#1",
          "midi": 34,
          "time": 184.07124449999642,
          "velocity": 0.8661417322834646,
          "duration": 0.20982121874999393
        },
        {
          "name": "G1",
          "midi": 31,
          "time": 184.2855299999964,
          "velocity": 0.8661417322834646,
          "duration": 0.20982121874999393
        },
        {
          "name": "A#1",
          "midi": 34,
          "time": 184.4998154999964,
          "velocity": 0.8661417322834646,
          "duration": 0.20982121874999393
        },
        {
          "name": "G1",
          "midi": 31,
          "time": 184.7141009999964,
          "velocity": 0.8661417322834646,
          "duration": 0.20982121874999393
        },
        {
          "name": "A#1",
          "midi": 34,
          "time": 184.92838649999638,
          "velocity": 0.8661417322834646,
          "duration": 0.20982121874999393
        },
        {
          "name": "G1",
          "midi": 31,
          "time": 185.14267199999637,
          "velocity": 0.8661417322834646,
          "duration": 0.20982121874999393
        },
        {
          "name": "A#1",
          "midi": 34,
          "time": 185.35695749999635,
          "velocity": 0.8661417322834646,
          "duration": 0.20982121874999393
        },
        {
          "name": "G1",
          "midi": 31,
          "time": 185.57124299999634,
          "velocity": 0.8661417322834646,
          "duration": 0.357142500000009
        },
        {
          "name": "G1",
          "midi": 31,
          "time": 186.42838499999635,
          "velocity": 0.8661417322834646,
          "duration": 0.357142500000009
        },
        {
          "name": "G1",
          "midi": 31,
          "time": 187.28552699999636,
          "velocity": 0.8661417322834646,
          "duration": 0.357142500000009
        },
        {
          "name": "G1",
          "midi": 31,
          "time": 188.14266899999637,
          "velocity": 0.8661417322834646,
          "duration": 0.357142500000009
        },
        {
          "name": "G1",
          "midi": 31,
          "time": 188.99981099999638,
          "velocity": 0.8661417322834646,
          "duration": 0.357142500000009
        },
        {
          "name": "G1",
          "midi": 31,
          "time": 189.8569529999964,
          "velocity": 0.8661417322834646,
          "duration": 0.357142500000009
        },
        {
          "name": "G1",
          "midi": 31,
          "time": 190.7140949999964,
          "velocity": 0.8661417322834646,
          "duration": 0.357142500000009
        },
        {
          "name": "G1",
          "midi": 31,
          "time": 191.1426659999964,
          "velocity": 0.8661417322834646,
          "duration": 0.357142500000009
        },
        {
          "name": "G1",
          "midi": 31,
          "time": 191.57123699999642,
          "velocity": 0.8661417322834646,
          "duration": 0.357142500000009
        },
        {
          "name": "G1",
          "midi": 31,
          "time": 192.42837899999643,
          "velocity": 0.8661417322834646,
          "duration": 0.357142500000009
        },
        {
          "name": "G1",
          "midi": 31,
          "time": 193.28552099999644,
          "velocity": 0.8661417322834646,
          "duration": 0.357142500000009
        },
        {
          "name": "G1",
          "midi": 31,
          "time": 194.14266299999645,
          "velocity": 0.8661417322834646,
          "duration": 0.357142500000009
        },
        {
          "name": "G1",
          "midi": 31,
          "time": 194.99980499999646,
          "velocity": 0.8661417322834646,
          "duration": 0.357142500000009
        },
        {
          "name": "D#1",
          "midi": 27,
          "time": 195.85694699999647,
          "velocity": 0.8661417322834646,
          "duration": 0.357142500000009
        },
        {
          "name": "D#1",
          "midi": 27,
          "time": 196.71408899999648,
          "velocity": 0.8661417322834646,
          "duration": 0.357142500000009
        },
        {
          "name": "D#1",
          "midi": 27,
          "time": 197.5712309999965,
          "velocity": 0.8661417322834646,
          "duration": 0.357142500000009
        },
        {
          "name": "D#1",
          "midi": 27,
          "time": 198.4283729999965,
          "velocity": 0.8661417322834646,
          "duration": 0.357142500000009
        },
        {
          "name": "G1",
          "midi": 31,
          "time": 199.2855149999965,
          "velocity": 0.8661417322834646,
          "duration": 0.357142500000009
        },
        {
          "name": "G2",
          "midi": 43,
          "time": 199.2855149999965,
          "velocity": 0.8661417322834646,
          "duration": 0.357142500000009
        },
        {
          "name": "G1",
          "midi": 31,
          "time": 199.7140859999965,
          "velocity": 0.8661417322834646,
          "duration": 0.20982121874999393
        },
        {
          "name": "G2",
          "midi": 43,
          "time": 199.7140859999965,
          "velocity": 0.8661417322834646,
          "duration": 0.20982121874999393
        },
        {
          "name": "A#1",
          "midi": 34,
          "time": 199.9283714999965,
          "velocity": 0.8661417322834646,
          "duration": 0.20982121874999393
        },
        {
          "name": "A#2",
          "midi": 46,
          "time": 199.9283714999965,
          "velocity": 0.8661417322834646,
          "duration": 0.20982121874999393
        },
        {
          "name": "G1",
          "midi": 31,
          "time": 200.1426569999965,
          "velocity": 0.8661417322834646,
          "duration": 0.357142500000009
        },
        {
          "name": "G2",
          "midi": 43,
          "time": 200.1426569999965,
          "velocity": 0.8661417322834646,
          "duration": 0.357142500000009
        },
        {
          "name": "G1",
          "midi": 31,
          "time": 200.5712279999965,
          "velocity": 0.8661417322834646,
          "duration": 0.20982121874999393
        },
        {
          "name": "G2",
          "midi": 43,
          "time": 200.5712279999965,
          "velocity": 0.8661417322834646,
          "duration": 0.20982121874999393
        },
        {
          "name": "A#1",
          "midi": 34,
          "time": 200.78551349999648,
          "velocity": 0.8661417322834646,
          "duration": 0.20982121874999393
        },
        {
          "name": "A#2",
          "midi": 46,
          "time": 200.78551349999648,
          "velocity": 0.8661417322834646,
          "duration": 0.20982121874999393
        },
        {
          "name": "G1",
          "midi": 31,
          "time": 200.99979899999647,
          "velocity": 0.8661417322834646,
          "duration": 0.357142500000009
        },
        {
          "name": "G2",
          "midi": 43,
          "time": 200.99979899999647,
          "velocity": 0.8661417322834646,
          "duration": 0.357142500000009
        },
        {
          "name": "G1",
          "midi": 31,
          "time": 201.42836999999648,
          "velocity": 0.8661417322834646,
          "duration": 0.20982121874999393
        },
        {
          "name": "G2",
          "midi": 43,
          "time": 201.42836999999648,
          "velocity": 0.8661417322834646,
          "duration": 0.20982121874999393
        },
        {
          "name": "A#1",
          "midi": 34,
          "time": 201.64265549999647,
          "velocity": 0.8661417322834646,
          "duration": 0.20982121874999393
        },
        {
          "name": "A#2",
          "midi": 46,
          "time": 201.64265549999647,
          "velocity": 0.8661417322834646,
          "duration": 0.20982121874999393
        },
        {
          "name": "G1",
          "midi": 31,
          "time": 201.85694099999645,
          "velocity": 0.8661417322834646,
          "duration": 0.357142500000009
        },
        {
          "name": "G2",
          "midi": 43,
          "time": 201.85694099999645,
          "velocity": 0.8661417322834646,
          "duration": 0.357142500000009
        },
        {
          "name": "D1",
          "midi": 26,
          "time": 202.28551199999646,
          "velocity": 0.8661417322834646,
          "duration": 0.20982121874999393
        },
        {
          "name": "D#2",
          "midi": 39,
          "time": 202.28551199999646,
          "velocity": 0.8661417322834646,
          "duration": 0.20982121874999393
        },
        {
          "name": "A#1",
          "midi": 34,
          "time": 202.49979749999645,
          "velocity": 0.8661417322834646,
          "duration": 0.20982121874999393
        },
        {
          "name": "A#2",
          "midi": 46,
          "time": 202.49979749999645,
          "velocity": 0.8661417322834646,
          "duration": 0.20982121874999393
        },
        {
          "name": "G1",
          "midi": 31,
          "time": 202.71408299999644,
          "velocity": 0.8661417322834646,
          "duration": 0.357142500000009
        },
        {
          "name": "G2",
          "midi": 43,
          "time": 202.71408299999644,
          "velocity": 0.8661417322834646,
          "duration": 0.357142500000009
        },
        {
          "name": "G1",
          "midi": 31,
          "time": 203.14265399999644,
          "velocity": 0.8661417322834646,
          "duration": 0.20982121874999393
        },
        {
          "name": "G2",
          "midi": 43,
          "time": 203.14265399999644,
          "velocity": 0.8661417322834646,
          "duration": 0.20982121874999393
        },
        {
          "name": "A#1",
          "midi": 34,
          "time": 203.35693949999643,
          "velocity": 0.8661417322834646,
          "duration": 0.20982121874999393
        },
        {
          "name": "A#2",
          "midi": 46,
          "time": 203.35693949999643,
          "velocity": 0.8661417322834646,
          "duration": 0.20982121874999393
        },
        {
          "name": "G1",
          "midi": 31,
          "time": 203.57122499999642,
          "velocity": 0.8661417322834646,
          "duration": 0.357142500000009
        },
        {
          "name": "G2",
          "midi": 43,
          "time": 203.57122499999642,
          "velocity": 0.8661417322834646,
          "duration": 0.357142500000009
        },
        {
          "name": "G1",
          "midi": 31,
          "time": 203.99979599999642,
          "velocity": 0.8661417322834646,
          "duration": 0.20982121874999393
        },
        {
          "name": "G2",
          "midi": 43,
          "time": 203.99979599999642,
          "velocity": 0.8661417322834646,
          "duration": 0.20982121874999393
        },
        {
          "name": "A#1",
          "midi": 34,
          "time": 204.2140814999964,
          "velocity": 0.8661417322834646,
          "duration": 0.20982121874999393
        },
        {
          "name": "A#2",
          "midi": 46,
          "time": 204.2140814999964,
          "velocity": 0.8661417322834646,
          "duration": 0.20982121874999393
        },
        {
          "name": "G1",
          "midi": 31,
          "time": 204.4283669999964,
          "velocity": 0.8661417322834646,
          "duration": 0.357142500000009
        },
        {
          "name": "G2",
          "midi": 43,
          "time": 204.4283669999964,
          "velocity": 0.8661417322834646,
          "duration": 0.357142500000009
        },
        {
          "name": "G1",
          "midi": 31,
          "time": 204.8569379999964,
          "velocity": 0.8661417322834646,
          "duration": 0.20982121874999393
        },
        {
          "name": "G2",
          "midi": 43,
          "time": 204.8569379999964,
          "velocity": 0.8661417322834646,
          "duration": 0.20982121874999393
        },
        {
          "name": "A#1",
          "midi": 34,
          "time": 205.0712234999964,
          "velocity": 0.8661417322834646,
          "duration": 0.20982121874999393
        },
        {
          "name": "A#2",
          "midi": 46,
          "time": 205.0712234999964,
          "velocity": 0.8661417322834646,
          "duration": 0.20982121874999393
        },
        {
          "name": "D#1",
          "midi": 27,
          "time": 205.28550899999638,
          "velocity": 0.8661417322834646,
          "duration": 0.357142500000009
        },
        {
          "name": "D#2",
          "midi": 39,
          "time": 205.28550899999638,
          "velocity": 0.8661417322834646,
          "duration": 0.357142500000009
        },
        {
          "name": "D1",
          "midi": 26,
          "time": 205.7140799999964,
          "velocity": 0.8661417322834646,
          "duration": 0.20982121874999393
        },
        {
          "name": "D#2",
          "midi": 39,
          "time": 205.7140799999964,
          "velocity": 0.8661417322834646,
          "duration": 0.20982121874999393
        },
        {
          "name": "A#1",
          "midi": 34,
          "time": 205.92836549999637,
          "velocity": 0.8661417322834646,
          "duration": 0.20982121874999393
        },
        {
          "name": "A#2",
          "midi": 46,
          "time": 205.92836549999637,
          "velocity": 0.8661417322834646,
          "duration": 0.20982121874999393
        },
        {
          "name": "G2",
          "midi": 43,
          "time": 206.14265099999636,
          "velocity": 0.8661417322834646,
          "duration": 0.357142500000009
        },
        {
          "name": "G2",
          "midi": 43,
          "time": 206.57122199999637,
          "velocity": 0.8661417322834646,
          "duration": 0.20982121874999393
        },
        {
          "name": "A#2",
          "midi": 46,
          "time": 206.78550749999636,
          "velocity": 0.8661417322834646,
          "duration": 0.20982121874999393
        },
        {
          "name": "G2",
          "midi": 43,
          "time": 206.99979299999634,
          "velocity": 0.8661417322834646,
          "duration": 0.357142500000009
        },
        {
          "name": "G2",
          "midi": 43,
          "time": 207.42836399999635,
          "velocity": 0.8661417322834646,
          "duration": 0.20982121874999393
        },
        {
          "name": "A#2",
          "midi": 46,
          "time": 207.64264949999634,
          "velocity": 0.8661417322834646,
          "duration": 0.20982121874999393
        },
        {
          "name": "G2",
          "midi": 43,
          "time": 207.85693499999633,
          "velocity": 0.8661417322834646,
          "duration": 0.357142500000009
        },
        {
          "name": "G2",
          "midi": 43,
          "time": 208.28550599999633,
          "velocity": 0.8661417322834646,
          "duration": 0.20982121874999393
        },
        {
          "name": "A#2",
          "midi": 46,
          "time": 208.49979149999632,
          "velocity": 0.8661417322834646,
          "duration": 0.20982121874999393
        },
        {
          "name": "G2",
          "midi": 43,
          "time": 208.7140769999963,
          "velocity": 0.8661417322834646,
          "duration": 0.357142500000009
        },
        {
          "name": "G2",
          "midi": 43,
          "time": 209.1426479999963,
          "velocity": 0.8661417322834646,
          "duration": 0.20982121874999393
        },
        {
          "name": "A#2",
          "midi": 46,
          "time": 209.3569334999963,
          "velocity": 0.8661417322834646,
          "duration": 0.20982121874999393
        },
        {
          "name": "G2",
          "midi": 43,
          "time": 209.5712189999963,
          "velocity": 0.8661417322834646,
          "duration": 0.20982121874999393
        },
        {
          "name": "A#2",
          "midi": 46,
          "time": 209.78550449999628,
          "velocity": 0.8661417322834646,
          "duration": 0.20982121874999393
        },
        {
          "name": "G2",
          "midi": 43,
          "time": 209.99978999999627,
          "velocity": 0.8661417322834646,
          "duration": 0.20982121874999393
        },
        {
          "name": "A#2",
          "midi": 46,
          "time": 210.21407549999626,
          "velocity": 0.8661417322834646,
          "duration": 0.20982121874999393
        },
        {
          "name": "G2",
          "midi": 43,
          "time": 210.42836099999624,
          "velocity": 0.8661417322834646,
          "duration": 0.20982121874999393
        },
        {
          "name": "A#2",
          "midi": 46,
          "time": 210.64264649999623,
          "velocity": 0.8661417322834646,
          "duration": 0.20982121874999393
        },
        {
          "name": "G2",
          "midi": 43,
          "time": 210.85693199999622,
          "velocity": 0.8661417322834646,
          "duration": 0.20982121874999393
        },
        {
          "name": "A#2",
          "midi": 46,
          "time": 211.0712174999962,
          "velocity": 0.8661417322834646,
          "duration": 0.20982121874999393
        },
        {
          "name": "G2",
          "midi": 43,
          "time": 211.2855029999962,
          "velocity": 0.8661417322834646,
          "duration": 0.20982121874999393
        },
        {
          "name": "A#2",
          "midi": 46,
          "time": 211.49978849999619,
          "velocity": 0.8661417322834646,
          "duration": 0.20982121874999393
        },
        {
          "name": "G2",
          "midi": 43,
          "time": 211.71407399999617,
          "velocity": 0.8661417322834646,
          "duration": 0.20982121874999393
        },
        {
          "name": "A#2",
          "midi": 46,
          "time": 211.92835949999616,
          "velocity": 0.8661417322834646,
          "duration": 0.20982121874999393
        },
        {
          "name": "G2",
          "midi": 43,
          "time": 212.14264499999615,
          "velocity": 0.8661417322834646,
          "duration": 0.20982121874999393
        },
        {
          "name": "A#2",
          "midi": 46,
          "time": 212.35693049999614,
          "velocity": 0.8661417322834646,
          "duration": 0.20982121874999393
        },
        {
          "name": "G2",
          "midi": 43,
          "time": 212.57121599999613,
          "velocity": 0.8661417322834646,
          "duration": 0.20982121874999393
        },
        {
          "name": "A#2",
          "midi": 46,
          "time": 212.78550149999612,
          "velocity": 0.8661417322834646,
          "duration": 0.20982121874999393
        },
        {
          "name": "D#1",
          "midi": 27,
          "time": 219.8569229999961,
          "velocity": 0.8661417322834646,
          "duration": 0.357142500000009
        },
        {
          "name": "D#2",
          "midi": 39,
          "time": 219.8569229999961,
          "velocity": 0.8661417322834646,
          "duration": 0.357142500000009
        },
        {
          "name": "G1",
          "midi": 31,
          "time": 220.2854939999961,
          "velocity": 0.8661417322834646,
          "duration": 0.357142500000009
        },
        {
          "name": "G2",
          "midi": 43,
          "time": 220.2854939999961,
          "velocity": 0.8661417322834646,
          "duration": 0.357142500000009
        },
        {
          "name": "D#1",
          "midi": 27,
          "time": 220.7140649999961,
          "velocity": 0.8661417322834646,
          "duration": 0.357142500000009
        },
        {
          "name": "D#2",
          "midi": 39,
          "time": 220.7140649999961,
          "velocity": 0.8661417322834646,
          "duration": 0.357142500000009
        },
        {
          "name": "G1",
          "midi": 31,
          "time": 221.14263599999612,
          "velocity": 0.8661417322834646,
          "duration": 0.357142500000009
        },
        {
          "name": "G2",
          "midi": 43,
          "time": 221.14263599999612,
          "velocity": 0.8661417322834646,
          "duration": 0.357142500000009
        },
        {
          "name": "D#1",
          "midi": 27,
          "time": 221.57120699999612,
          "velocity": 0.8661417322834646,
          "duration": 0.357142500000009
        },
        {
          "name": "D#2",
          "midi": 39,
          "time": 221.57120699999612,
          "velocity": 0.8661417322834646,
          "duration": 0.357142500000009
        },
        {
          "name": "G1",
          "midi": 31,
          "time": 221.99977799999613,
          "velocity": 0.8661417322834646,
          "duration": 0.357142500000009
        },
        {
          "name": "G2",
          "midi": 43,
          "time": 221.99977799999613,
          "velocity": 0.8661417322834646,
          "duration": 0.357142500000009
        },
        {
          "name": "D#1",
          "midi": 27,
          "time": 222.42834899999613,
          "velocity": 0.8661417322834646,
          "duration": 0.357142500000009
        },
        {
          "name": "D#2",
          "midi": 39,
          "time": 222.42834899999613,
          "velocity": 0.8661417322834646,
          "duration": 0.357142500000009
        },
        {
          "name": "G1",
          "midi": 31,
          "time": 222.85691999999614,
          "velocity": 0.8661417322834646,
          "duration": 0.357142500000009
        },
        {
          "name": "G2",
          "midi": 43,
          "time": 222.85691999999614,
          "velocity": 0.8661417322834646,
          "duration": 0.357142500000009
        },
        {
          "name": "F#1",
          "midi": 30,
          "time": 223.28549099999614,
          "velocity": 0.8661417322834646,
          "duration": 0.357142500000009
        },
        {
          "name": "F#2",
          "midi": 42,
          "time": 223.28549099999614,
          "velocity": 0.8661417322834646,
          "duration": 0.357142500000009
        },
        {
          "name": "C1",
          "midi": 24,
          "time": 228.85691399999615,
          "velocity": 0.8661417322834646,
          "duration": 0.20982121874999393
        },
        {
          "name": "C2",
          "midi": 36,
          "time": 228.85691399999615,
          "velocity": 0.8661417322834646,
          "duration": 0.20982121874999393
        },
        {
          "name": "D1",
          "midi": 26,
          "time": 229.07119949999614,
          "velocity": 0.8661417322834646,
          "duration": 0.20982121874999393
        },
        {
          "name": "D2",
          "midi": 38,
          "time": 229.07119949999614,
          "velocity": 0.8661417322834646,
          "duration": 0.20982121874999393
        },
        {
          "name": "D#1",
          "midi": 27,
          "time": 229.28548499999613,
          "velocity": 0.8661417322834646,
          "duration": 0.20982121874999393
        },
        {
          "name": "D#2",
          "midi": 39,
          "time": 229.28548499999613,
          "velocity": 0.8661417322834646,
          "duration": 0.20982121874999393
        },
        {
          "name": "E1",
          "midi": 28,
          "time": 229.49977049999612,
          "velocity": 0.8661417322834646,
          "duration": 0.20982121874999393
        },
        {
          "name": "E2",
          "midi": 40,
          "time": 229.49977049999612,
          "velocity": 0.8661417322834646,
          "duration": 0.20982121874999393
        },
        {
          "name": "F1",
          "midi": 29,
          "time": 229.7140559999961,
          "velocity": 0.8661417322834646,
          "duration": 0.20982121874999393
        },
        {
          "name": "F2",
          "midi": 41,
          "time": 229.7140559999961,
          "velocity": 0.8661417322834646,
          "duration": 0.20982121874999393
        },
        {
          "name": "F#1",
          "midi": 30,
          "time": 229.9283414999961,
          "velocity": 0.8661417322834646,
          "duration": 0.20982121874999393
        },
        {
          "name": "F#2",
          "midi": 42,
          "time": 229.9283414999961,
          "velocity": 0.8661417322834646,
          "duration": 0.20982121874999393
        },
        {
          "name": "G1",
          "midi": 31,
          "time": 230.14262699999608,
          "velocity": 0.8661417322834646,
          "duration": 0.20982121874999393
        },
        {
          "name": "G2",
          "midi": 43,
          "time": 230.14262699999608,
          "velocity": 0.8661417322834646,
          "duration": 0.20982121874999393
        },
        {
          "name": "G#1",
          "midi": 32,
          "time": 230.35691249999607,
          "velocity": 0.8661417322834646,
          "duration": 0.20982121874999393
        },
        {
          "name": "G#2",
          "midi": 44,
          "time": 230.35691249999607,
          "velocity": 0.8661417322834646,
          "duration": 0.20982121874999393
        },
        {
          "name": "C1",
          "midi": 24,
          "time": 230.99976899999606,
          "velocity": 0.8661417322834646,
          "duration": 0.20982121874999393
        },
        {
          "name": "C2",
          "midi": 36,
          "time": 230.99976899999606,
          "velocity": 0.8661417322834646,
          "duration": 0.20982121874999393
        },
        {
          "name": "D1",
          "midi": 26,
          "time": 231.21405449999605,
          "velocity": 0.8661417322834646,
          "duration": 0.20982121874999393
        },
        {
          "name": "D2",
          "midi": 38,
          "time": 231.21405449999605,
          "velocity": 0.8661417322834646,
          "duration": 0.20982121874999393
        },
        {
          "name": "D#1",
          "midi": 27,
          "time": 231.42833999999604,
          "velocity": 0.8661417322834646,
          "duration": 0.20982121874999393
        },
        {
          "name": "D#2",
          "midi": 39,
          "time": 231.42833999999604,
          "velocity": 0.8661417322834646,
          "duration": 0.20982121874999393
        },
        {
          "name": "F#1",
          "midi": 30,
          "time": 231.64262549999603,
          "velocity": 0.8661417322834646,
          "duration": 0.20982121874999393
        },
        {
          "name": "F#2",
          "midi": 42,
          "time": 231.64262549999603,
          "velocity": 0.8661417322834646,
          "duration": 0.20982121874999393
        },
        {
          "name": "D#1",
          "midi": 27,
          "time": 233.14262399999603,
          "velocity": 0.8661417322834646,
          "duration": 0.20982121874999393
        },
        {
          "name": "D#2",
          "midi": 39,
          "time": 233.14262399999603,
          "velocity": 0.8661417322834646,
          "duration": 0.20982121874999393
        },
        {
          "name": "C1",
          "midi": 24,
          "time": 233.35690949999602,
          "velocity": 0.8661417322834646,
          "duration": 0.20982121874999393
        },
        {
          "name": "C2",
          "midi": 36,
          "time": 233.35690949999602,
          "velocity": 0.8661417322834646,
          "duration": 0.20982121874999393
        },
        {
          "name": "G1",
          "midi": 31,
          "time": 233.571194999996,
          "velocity": 0.8661417322834646,
          "duration": 0.357142500000009
        },
        {
          "name": "G2",
          "midi": 43,
          "time": 233.571194999996,
          "velocity": 0.8661417322834646,
          "duration": 0.357142500000009
        },
        {
          "name": "G1",
          "midi": 31,
          "time": 243.85689899999602,
          "velocity": 0.8661417322834646,
          "duration": 0.357142500000009
        },
        {
          "name": "G2",
          "midi": 43,
          "time": 243.85689899999602,
          "velocity": 0.8661417322834646,
          "duration": 0.357142500000009
        },
        {
          "name": "G1",
          "midi": 31,
          "time": 244.71404099999603,
          "velocity": 0.8661417322834646,
          "duration": 0.357142500000009
        },
        {
          "name": "G2",
          "midi": 43,
          "time": 244.71404099999603,
          "velocity": 0.8661417322834646,
          "duration": 0.357142500000009
        },
        {
          "name": "G1",
          "midi": 31,
          "time": 245.57118299999604,
          "velocity": 0.8661417322834646,
          "duration": 0.357142500000009
        },
        {
          "name": "G2",
          "midi": 43,
          "time": 245.57118299999604,
          "velocity": 0.8661417322834646,
          "duration": 0.357142500000009
        },
        {
          "name": "G1",
          "midi": 31,
          "time": 246.42832499999605,
          "velocity": 0.8661417322834646,
          "duration": 0.20982121874999393
        },
        {
          "name": "G2",
          "midi": 43,
          "time": 246.42832499999605,
          "velocity": 0.8661417322834646,
          "duration": 0.20982121874999393
        },
        {
          "name": "A#1",
          "midi": 34,
          "time": 246.64261049999604,
          "velocity": 0.8661417322834646,
          "duration": 0.20982121874999393
        },
        {
          "name": "A#2",
          "midi": 46,
          "time": 246.64261049999604,
          "velocity": 0.8661417322834646,
          "duration": 0.20982121874999393
        },
        {
          "name": "G1",
          "midi": 31,
          "time": 247.28546699999603,
          "velocity": 0.8661417322834646,
          "duration": 0.357142500000009
        },
        {
          "name": "G2",
          "midi": 43,
          "time": 247.28546699999603,
          "velocity": 0.8661417322834646,
          "duration": 0.357142500000009
        },
        {
          "name": "G1",
          "midi": 31,
          "time": 248.14260899999604,
          "velocity": 0.8661417322834646,
          "duration": 0.357142500000009
        },
        {
          "name": "G2",
          "midi": 43,
          "time": 248.14260899999604,
          "velocity": 0.8661417322834646,
          "duration": 0.357142500000009
        },
        {
          "name": "G1",
          "midi": 31,
          "time": 248.99975099999605,
          "velocity": 0.8661417322834646,
          "duration": 0.357142500000009
        },
        {
          "name": "G2",
          "midi": 43,
          "time": 248.99975099999605,
          "velocity": 0.8661417322834646,
          "duration": 0.357142500000009
        },
        {
          "name": "G1",
          "midi": 31,
          "time": 249.85689299999606,
          "velocity": 0.8661417322834646,
          "duration": 0.20982121874999393
        },
        {
          "name": "G2",
          "midi": 43,
          "time": 249.85689299999606,
          "velocity": 0.8661417322834646,
          "duration": 0.20982121874999393
        },
        {
          "name": "A#1",
          "midi": 34,
          "time": 250.07117849999605,
          "velocity": 0.8661417322834646,
          "duration": 0.20982121874999393
        },
        {
          "name": "A#2",
          "midi": 46,
          "time": 250.07117849999605,
          "velocity": 0.8661417322834646,
          "duration": 0.20982121874999393
        },
        {
          "name": "G1",
          "midi": 31,
          "time": 250.71403499999604,
          "velocity": 0.8661417322834646,
          "duration": 0.357142500000009
        },
        {
          "name": "G2",
          "midi": 43,
          "time": 250.71403499999604,
          "velocity": 0.8661417322834646,
          "duration": 0.357142500000009
        },
        {
          "name": "G1",
          "midi": 31,
          "time": 251.57117699999606,
          "velocity": 0.8661417322834646,
          "duration": 0.357142500000009
        },
        {
          "name": "G2",
          "midi": 43,
          "time": 251.57117699999606,
          "velocity": 0.8661417322834646,
          "duration": 0.357142500000009
        },
        {
          "name": "G1",
          "midi": 31,
          "time": 252.42831899999607,
          "velocity": 0.8661417322834646,
          "duration": 0.357142500000009
        },
        {
          "name": "G2",
          "midi": 43,
          "time": 252.42831899999607,
          "velocity": 0.8661417322834646,
          "duration": 0.357142500000009
        },
        {
          "name": "G1",
          "midi": 31,
          "time": 253.28546099999608,
          "velocity": 0.8661417322834646,
          "duration": 0.20982121874999393
        },
        {
          "name": "G2",
          "midi": 43,
          "time": 253.28546099999608,
          "velocity": 0.8661417322834646,
          "duration": 0.20982121874999393
        },
        {
          "name": "A#1",
          "midi": 34,
          "time": 253.49974649999606,
          "velocity": 0.8661417322834646,
          "duration": 0.20982121874999393
        },
        {
          "name": "A#2",
          "midi": 46,
          "time": 253.49974649999606,
          "velocity": 0.8661417322834646,
          "duration": 0.20982121874999393
        },
        {
          "name": "D#1",
          "midi": 27,
          "time": 254.14260299999606,
          "velocity": 0.8661417322834646,
          "duration": 0.20982121874999393
        },
        {
          "name": "D#2",
          "midi": 39,
          "time": 254.14260299999606,
          "velocity": 0.8661417322834646,
          "duration": 0.20982121874999393
        },
        {
          "name": "A#1",
          "midi": 34,
          "time": 254.35688849999605,
          "velocity": 0.8661417322834646,
          "duration": 0.20982121874999393
        },
        {
          "name": "A#2",
          "midi": 46,
          "time": 254.35688849999605,
          "velocity": 0.8661417322834646,
          "duration": 0.20982121874999393
        },
        {
          "name": "D#1",
          "midi": 27,
          "time": 254.99974499999604,
          "velocity": 0.8661417322834646,
          "duration": 0.20982121874999393
        },
        {
          "name": "D#2",
          "midi": 39,
          "time": 254.99974499999604,
          "velocity": 0.8661417322834646,
          "duration": 0.20982121874999393
        },
        {
          "name": "A#1",
          "midi": 34,
          "time": 255.21403049999603,
          "velocity": 0.8661417322834646,
          "duration": 0.20982121874999393
        },
        {
          "name": "A#2",
          "midi": 46,
          "time": 255.21403049999603,
          "velocity": 0.8661417322834646,
          "duration": 0.20982121874999393
        },
        {
          "name": "D#1",
          "midi": 27,
          "time": 255.85688699999602,
          "velocity": 0.8661417322834646,
          "duration": 0.20982121875002235
        },
        {
          "name": "D#2",
          "midi": 39,
          "time": 255.85688699999602,
          "velocity": 0.8661417322834646,
          "duration": 0.20982121875002235
        },
        {
          "name": "A#1",
          "midi": 34,
          "time": 256.07117249999607,
          "velocity": 0.8661417322834646,
          "duration": 0.20982121874999393
        },
        {
          "name": "A#2",
          "midi": 46,
          "time": 256.07117249999607,
          "velocity": 0.8661417322834646,
          "duration": 0.20982121874999393
        },
        {
          "name": "D#1",
          "midi": 27,
          "time": 256.71402899999606,
          "velocity": 0.8661417322834646,
          "duration": 0.20982121874999393
        },
        {
          "name": "D#2",
          "midi": 39,
          "time": 256.71402899999606,
          "velocity": 0.8661417322834646,
          "duration": 0.20982121874999393
        },
        {
          "name": "A#1",
          "midi": 34,
          "time": 256.9283144999961,
          "velocity": 0.8661417322834646,
          "duration": 0.20982121874999393
        },
        {
          "name": "A#2",
          "midi": 46,
          "time": 256.9283144999961,
          "velocity": 0.8661417322834646,
          "duration": 0.20982121874999393
        },
        {
          "name": "G1",
          "midi": 31,
          "time": 257.57117099999607,
          "velocity": 0.8661417322834646,
          "duration": 0.20982121874999393
        },
        {
          "name": "G2",
          "midi": 43,
          "time": 257.57117099999607,
          "velocity": 0.8661417322834646,
          "duration": 0.20982121874999393
        },
        {
          "name": "A#1",
          "midi": 34,
          "time": 257.7854564999961,
          "velocity": 0.8661417322834646,
          "duration": 0.20982121874999393
        },
        {
          "name": "A#2",
          "midi": 46,
          "time": 257.7854564999961,
          "velocity": 0.8661417322834646,
          "duration": 0.20982121874999393
        },
        {
          "name": "G1",
          "midi": 31,
          "time": 257.9997419999961,
          "velocity": 0.8661417322834646,
          "duration": 0.20982121874999393
        },
        {
          "name": "G2",
          "midi": 43,
          "time": 257.9997419999961,
          "velocity": 0.8661417322834646,
          "duration": 0.20982121874999393
        },
        {
          "name": "A#1",
          "midi": 34,
          "time": 258.2140274999961,
          "velocity": 0.8661417322834646,
          "duration": 0.20982121874999393
        },
        {
          "name": "A#2",
          "midi": 46,
          "time": 258.2140274999961,
          "velocity": 0.8661417322834646,
          "duration": 0.20982121874999393
        },
        {
          "name": "G1",
          "midi": 31,
          "time": 258.42831299999614,
          "velocity": 0.8661417322834646,
          "duration": 0.20982121874999393
        },
        {
          "name": "G2",
          "midi": 43,
          "time": 258.42831299999614,
          "velocity": 0.8661417322834646,
          "duration": 0.20982121874999393
        },
        {
          "name": "A#1",
          "midi": 34,
          "time": 258.64259849999615,
          "velocity": 0.8661417322834646,
          "duration": 0.20982121874999393
        },
        {
          "name": "A#2",
          "midi": 46,
          "time": 258.64259849999615,
          "velocity": 0.8661417322834646,
          "duration": 0.20982121874999393
        },
        {
          "name": "G1",
          "midi": 31,
          "time": 258.85688399999617,
          "velocity": 0.8661417322834646,
          "duration": 0.20982121874999393
        },
        {
          "name": "G2",
          "midi": 43,
          "time": 258.85688399999617,
          "velocity": 0.8661417322834646,
          "duration": 0.20982121874999393
        },
        {
          "name": "A#1",
          "midi": 34,
          "time": 259.0711694999962,
          "velocity": 0.8661417322834646,
          "duration": 0.20982121874999393
        },
        {
          "name": "A#2",
          "midi": 46,
          "time": 259.0711694999962,
          "velocity": 0.8661417322834646,
          "duration": 0.20982121874999393
        },
        {
          "name": "G1",
          "midi": 31,
          "time": 259.2854549999962,
          "velocity": 0.8661417322834646,
          "duration": 0.20982121874999393
        },
        {
          "name": "G2",
          "midi": 43,
          "time": 259.2854549999962,
          "velocity": 0.8661417322834646,
          "duration": 0.20982121874999393
        },
        {
          "name": "A#1",
          "midi": 34,
          "time": 259.4997404999962,
          "velocity": 0.8661417322834646,
          "duration": 0.20982121874999393
        },
        {
          "name": "A#2",
          "midi": 46,
          "time": 259.4997404999962,
          "velocity": 0.8661417322834646,
          "duration": 0.20982121874999393
        },
        {
          "name": "G1",
          "midi": 31,
          "time": 259.71402599999624,
          "velocity": 0.8661417322834646,
          "duration": 0.20982121874999393
        },
        {
          "name": "G2",
          "midi": 43,
          "time": 259.71402599999624,
          "velocity": 0.8661417322834646,
          "duration": 0.20982121874999393
        },
        {
          "name": "A#1",
          "midi": 34,
          "time": 259.92831149999625,
          "velocity": 0.8661417322834646,
          "duration": 0.20982121874999393
        },
        {
          "name": "A#2",
          "midi": 46,
          "time": 259.92831149999625,
          "velocity": 0.8661417322834646,
          "duration": 0.20982121874999393
        },
        {
          "name": "G1",
          "midi": 31,
          "time": 260.1425969999963,
          "velocity": 0.8661417322834646,
          "duration": 0.20982121874999393
        },
        {
          "name": "G2",
          "midi": 43,
          "time": 260.1425969999963,
          "velocity": 0.8661417322834646,
          "duration": 0.20982121874999393
        },
        {
          "name": "A#1",
          "midi": 34,
          "time": 260.3568824999963,
          "velocity": 0.8661417322834646,
          "duration": 0.20982121874999393
        },
        {
          "name": "A#2",
          "midi": 46,
          "time": 260.3568824999963,
          "velocity": 0.8661417322834646,
          "duration": 0.20982121874999393
        },
        {
          "name": "G1",
          "midi": 31,
          "time": 260.5711679999963,
          "velocity": 0.8661417322834646,
          "duration": 0.20982121874999393
        },
        {
          "name": "G2",
          "midi": 43,
          "time": 260.5711679999963,
          "velocity": 0.8661417322834646,
          "duration": 0.20982121874999393
        },
        {
          "name": "A#1",
          "midi": 34,
          "time": 260.7854534999963,
          "velocity": 0.8661417322834646,
          "duration": 0.20982121874999393
        },
        {
          "name": "A#2",
          "midi": 46,
          "time": 260.7854534999963,
          "velocity": 0.8661417322834646,
          "duration": 0.20982121874999393
        },
        {
          "name": "G1",
          "midi": 31,
          "time": 260.99973899999634,
          "velocity": 0.8661417322834646,
          "duration": 0.20982121874999393
        },
        {
          "name": "G2",
          "midi": 43,
          "time": 260.99973899999634,
          "velocity": 0.8661417322834646,
          "duration": 0.20982121874999393
        },
        {
          "name": "A#1",
          "midi": 34,
          "time": 261.21402449999636,
          "velocity": 0.8661417322834646,
          "duration": 0.20982121874999393
        },
        {
          "name": "A#2",
          "midi": 46,
          "time": 261.21402449999636,
          "velocity": 0.8661417322834646,
          "duration": 0.20982121874999393
        },
        {
          "name": "G1",
          "midi": 31,
          "time": 261.4283099999964,
          "velocity": 0.8661417322834646,
          "duration": 0.20982121874999393
        },
        {
          "name": "G2",
          "midi": 43,
          "time": 261.4283099999964,
          "velocity": 0.8661417322834646,
          "duration": 0.20982121874999393
        },
        {
          "name": "A#1",
          "midi": 34,
          "time": 261.6425954999964,
          "velocity": 0.8661417322834646,
          "duration": 0.20982121874999393
        },
        {
          "name": "A#2",
          "midi": 46,
          "time": 261.6425954999964,
          "velocity": 0.8661417322834646,
          "duration": 0.20982121874999393
        },
        {
          "name": "G1",
          "midi": 31,
          "time": 261.8568809999964,
          "velocity": 0.8661417322834646,
          "duration": 0.20982121874999393
        },
        {
          "name": "G2",
          "midi": 43,
          "time": 261.8568809999964,
          "velocity": 0.8661417322834646,
          "duration": 0.20982121874999393
        },
        {
          "name": "A#1",
          "midi": 34,
          "time": 262.0711664999964,
          "velocity": 0.8661417322834646,
          "duration": 0.20982121874999393
        },
        {
          "name": "A#2",
          "midi": 46,
          "time": 262.0711664999964,
          "velocity": 0.8661417322834646,
          "duration": 0.20982121874999393
        },
        {
          "name": "G1",
          "midi": 31,
          "time": 262.28545199999644,
          "velocity": 0.8661417322834646,
          "duration": 0.20982121874999393
        },
        {
          "name": "G2",
          "midi": 43,
          "time": 262.28545199999644,
          "velocity": 0.8661417322834646,
          "duration": 0.20982121874999393
        },
        {
          "name": "A#1",
          "midi": 34,
          "time": 262.49973749999646,
          "velocity": 0.8661417322834646,
          "duration": 0.20982121874999393
        },
        {
          "name": "A#2",
          "midi": 46,
          "time": 262.49973749999646,
          "velocity": 0.8661417322834646,
          "duration": 0.20982121874999393
        },
        {
          "name": "G1",
          "midi": 31,
          "time": 262.7140229999965,
          "velocity": 0.8661417322834646,
          "duration": 0.20982121874999393
        },
        {
          "name": "G2",
          "midi": 43,
          "time": 262.7140229999965,
          "velocity": 0.8661417322834646,
          "duration": 0.20982121874999393
        },
        {
          "name": "A#1",
          "midi": 34,
          "time": 262.9283084999965,
          "velocity": 0.8661417322834646,
          "duration": 0.20982121874999393
        },
        {
          "name": "A#2",
          "midi": 46,
          "time": 262.9283084999965,
          "velocity": 0.8661417322834646,
          "duration": 0.20982121874999393
        },
        {
          "name": "G1",
          "midi": 31,
          "time": 263.1425939999965,
          "velocity": 0.8661417322834646,
          "duration": 0.20982121874999393
        },
        {
          "name": "G2",
          "midi": 43,
          "time": 263.1425939999965,
          "velocity": 0.8661417322834646,
          "duration": 0.20982121874999393
        },
        {
          "name": "A#1",
          "midi": 34,
          "time": 263.3568794999965,
          "velocity": 0.8661417322834646,
          "duration": 0.20982121874999393
        },
        {
          "name": "A#2",
          "midi": 46,
          "time": 263.3568794999965,
          "velocity": 0.8661417322834646,
          "duration": 0.20982121874999393
        },
        {
          "name": "D#1",
          "midi": 27,
          "time": 263.57116499999654,
          "velocity": 0.8661417322834646,
          "duration": 0.20982121874999393
        },
        {
          "name": "D#2",
          "midi": 39,
          "time": 263.57116499999654,
          "velocity": 0.8661417322834646,
          "duration": 0.20982121874999393
        },
        {
          "name": "C1",
          "midi": 24,
          "time": 263.78545049999656,
          "velocity": 0.8661417322834646,
          "duration": 0.20982121874999393
        },
        {
          "name": "C2",
          "midi": 36,
          "time": 263.78545049999656,
          "velocity": 0.8661417322834646,
          "duration": 0.20982121874999393
        },
        {
          "name": "D#1",
          "midi": 27,
          "time": 263.9997359999966,
          "velocity": 0.8661417322834646,
          "duration": 0.20982121874999393
        },
        {
          "name": "D#2",
          "midi": 39,
          "time": 263.9997359999966,
          "velocity": 0.8661417322834646,
          "duration": 0.20982121874999393
        },
        {
          "name": "A#1",
          "midi": 34,
          "time": 264.2140214999966,
          "velocity": 0.8661417322834646,
          "duration": 0.20982121874999393
        },
        {
          "name": "A#2",
          "midi": 46,
          "time": 264.2140214999966,
          "velocity": 0.8661417322834646,
          "duration": 0.20982121874999393
        },
        {
          "name": "C1",
          "midi": 24,
          "time": 264.4283069999966,
          "velocity": 0.8661417322834646,
          "duration": 0.357142500000009
        },
        {
          "name": "G1",
          "midi": 31,
          "time": 265.2854489999966,
          "velocity": 0.8661417322834646,
          "duration": 0.357142500000009
        },
        {
          "name": "D#2",
          "midi": 39,
          "time": 266.1425909999966,
          "velocity": 0.8661417322834646,
          "duration": 0.357142500000009
        },
        {
          "name": "F#1",
          "midi": 30,
          "time": 266.99973299999664,
          "velocity": 0.8661417322834646,
          "duration": 0.357142500000009
        },
        {
          "name": "F#1",
          "midi": 30,
          "time": 267.85687499999665,
          "velocity": 0.8661417322834646,
          "duration": 0.20982121874999393
        },
        {
          "name": "F#2",
          "midi": 42,
          "time": 267.85687499999665,
          "velocity": 0.8661417322834646,
          "duration": 0.20982121874999393
        },
        {
          "name": "A1",
          "midi": 33,
          "time": 268.07116049999667,
          "velocity": 0.8661417322834646,
          "duration": 0.20982121874999393
        },
        {
          "name": "A2",
          "midi": 45,
          "time": 268.07116049999667,
          "velocity": 0.8661417322834646,
          "duration": 0.20982121874999393
        },
        {
          "name": "D#1",
          "midi": 27,
          "time": 269.99972999999665,
          "velocity": 0.8661417322834646,
          "duration": 0.20982121874999393
        },
        {
          "name": "D#2",
          "midi": 39,
          "time": 269.99972999999665,
          "velocity": 0.8661417322834646,
          "duration": 0.20982121874999393
        },
        {
          "name": "D#1",
          "midi": 27,
          "time": 270.21401549999666,
          "velocity": 0.8661417322834646,
          "duration": 0.20982121874999393
        },
        {
          "name": "D#2",
          "midi": 39,
          "time": 270.21401549999666,
          "velocity": 0.8661417322834646,
          "duration": 0.20982121874999393
        },
        {
          "name": "D#1",
          "midi": 27,
          "time": 270.4283009999967,
          "velocity": 0.8661417322834646,
          "duration": 0.20982121874999393
        },
        {
          "name": "D#2",
          "midi": 39,
          "time": 270.4283009999967,
          "velocity": 0.8661417322834646,
          "duration": 0.20982121874999393
        },
        {
          "name": "D#1",
          "midi": 27,
          "time": 270.6425864999967,
          "velocity": 0.8661417322834646,
          "duration": 0.20982121874999393
        },
        {
          "name": "D#2",
          "midi": 39,
          "time": 270.6425864999967,
          "velocity": 0.8661417322834646,
          "duration": 0.20982121874999393
        },
        {
          "name": "D#1",
          "midi": 27,
          "time": 270.8568719999967,
          "velocity": 0.8661417322834646,
          "duration": 0.20982121874999393
        },
        {
          "name": "D#2",
          "midi": 39,
          "time": 270.8568719999967,
          "velocity": 0.8661417322834646,
          "duration": 0.20982121874999393
        },
        {
          "name": "D#1",
          "midi": 27,
          "time": 271.07115749999673,
          "velocity": 0.8661417322834646,
          "duration": 0.20982121874999393
        },
        {
          "name": "D#2",
          "midi": 39,
          "time": 271.07115749999673,
          "velocity": 0.8661417322834646,
          "duration": 0.20982121874999393
        },
        {
          "name": "D1",
          "midi": 26,
          "time": 272.57115599999673,
          "velocity": 0.8661417322834646,
          "duration": 0.20982121874999393
        },
        {
          "name": "D2",
          "midi": 38,
          "time": 272.57115599999673,
          "velocity": 0.8661417322834646,
          "duration": 0.20982121874999393
        },
        {
          "name": "D1",
          "midi": 26,
          "time": 272.78544149999675,
          "velocity": 0.8661417322834646,
          "duration": 0.20982121874999393
        },
        {
          "name": "D2",
          "midi": 38,
          "time": 272.78544149999675,
          "velocity": 0.8661417322834646,
          "duration": 0.20982121874999393
        },
        {
          "name": "G1",
          "midi": 31,
          "time": 272.99972699999677,
          "velocity": 0.8661417322834646,
          "duration": 0.20982121874999393
        },
        {
          "name": "G2",
          "midi": 43,
          "time": 272.99972699999677,
          "velocity": 0.8661417322834646,
          "duration": 0.20982121874999393
        },
        {
          "name": "G1",
          "midi": 31,
          "time": 273.2140124999968,
          "velocity": 0.8661417322834646,
          "duration": 0.20982121874999393
        },
        {
          "name": "G2",
          "midi": 43,
          "time": 273.2140124999968,
          "velocity": 0.8661417322834646,
          "duration": 0.20982121874999393
        }
      ],
      "controlChanges": {
        "10": [
          {
            "number": 10,
            "time": 0,
            "value": 0.5039370078740157
          }
        ]
      },
      "id": 3,
      "name": "The Phantom Menace",
      "instrumentNumber": 42,
      "instrument": "cello",
      "instrumentFamily": "strings",
      "channelNumber": 1,
      "isPercussion": false
    },
    {
      "startTime": 15.857127000000002,
      "duration": 273.42383371874655,
      "length": 2053,
      "notes": [
        {
          "name": "G3",
          "midi": 55,
          "time": 15.857127000000002,
          "velocity": 0.8661417322834646,
          "duration": 0.20982121875000104
        },
        {
          "name": "A3",
          "midi": 57,
          "time": 16.071412500000005,
          "velocity": 0.8661417322834646,
          "duration": 0.20982121875000104
        },
        {
          "name": "G3",
          "midi": 55,
          "time": 16.285698000000007,
          "velocity": 0.8661417322834646,
          "duration": 0.10267846874999975
        },
        {
          "name": "F#3",
          "midi": 54,
          "time": 16.39284075000001,
          "velocity": 0.8661417322834646,
          "duration": 0.10267846874999975
        },
        {
          "name": "E3",
          "midi": 52,
          "time": 16.49998350000001,
          "velocity": 0.8661417322834646,
          "duration": 0.20982121875000104
        },
        {
          "name": "G3",
          "midi": 55,
          "time": 16.714269000000012,
          "velocity": 0.8661417322834646,
          "duration": 0.20982121875000104
        },
        {
          "name": "A3",
          "midi": 57,
          "time": 16.928554500000015,
          "velocity": 0.8661417322834646,
          "duration": 0.20982121875000104
        },
        {
          "name": "G3",
          "midi": 55,
          "time": 17.142840000000017,
          "velocity": 0.8661417322834646,
          "duration": 0.10267846874999975
        },
        {
          "name": "F#3",
          "midi": 54,
          "time": 17.24998275000002,
          "velocity": 0.8661417322834646,
          "duration": 0.10267846874999975
        },
        {
          "name": "E3",
          "midi": 52,
          "time": 17.35712550000002,
          "velocity": 0.8661417322834646,
          "duration": 0.20982121875000104
        },
        {
          "name": "G3",
          "midi": 55,
          "time": 17.571411000000023,
          "velocity": 0.8661417322834646,
          "duration": 0.20982121875000104
        },
        {
          "name": "A3",
          "midi": 57,
          "time": 17.785696500000025,
          "velocity": 0.8661417322834646,
          "duration": 0.20982121875000104
        },
        {
          "name": "G3",
          "midi": 55,
          "time": 17.999982000000028,
          "velocity": 0.8661417322834646,
          "duration": 0.10267846874999975
        },
        {
          "name": "F#3",
          "midi": 54,
          "time": 18.10712475000003,
          "velocity": 0.8661417322834646,
          "duration": 0.10267846874999975
        },
        {
          "name": "E3",
          "midi": 52,
          "time": 18.21426750000003,
          "velocity": 0.8661417322834646,
          "duration": 0.20982121875000104
        },
        {
          "name": "G3",
          "midi": 55,
          "time": 18.428553000000033,
          "velocity": 0.8661417322834646,
          "duration": 0.20982121875000104
        },
        {
          "name": "A3",
          "midi": 57,
          "time": 18.642838500000035,
          "velocity": 0.8661417322834646,
          "duration": 0.20982121875000104
        },
        {
          "name": "G3",
          "midi": 55,
          "time": 18.857124000000038,
          "velocity": 0.8661417322834646,
          "duration": 0.10267846874999975
        },
        {
          "name": "F#3",
          "midi": 54,
          "time": 18.96426675000004,
          "velocity": 0.8661417322834646,
          "duration": 0.10267846874999975
        },
        {
          "name": "E3",
          "midi": 52,
          "time": 19.07140950000004,
          "velocity": 0.8661417322834646,
          "duration": 0.20982121875000104
        },
        {
          "name": "G3",
          "midi": 55,
          "time": 19.285695000000043,
          "velocity": 0.8661417322834646,
          "duration": 0.20982121875000104
        },
        {
          "name": "A3",
          "midi": 57,
          "time": 19.499980500000046,
          "velocity": 0.8661417322834646,
          "duration": 0.20982121875000104
        },
        {
          "name": "G3",
          "midi": 55,
          "time": 19.71426600000005,
          "velocity": 0.8661417322834646,
          "duration": 0.10267846874999975
        },
        {
          "name": "F#3",
          "midi": 54,
          "time": 19.82140875000005,
          "velocity": 0.8661417322834646,
          "duration": 0.10267846874999975
        },
        {
          "name": "E3",
          "midi": 52,
          "time": 19.92855150000005,
          "velocity": 0.8661417322834646,
          "duration": 0.20982121875000104
        },
        {
          "name": "G3",
          "midi": 55,
          "time": 20.142837000000053,
          "velocity": 0.8661417322834646,
          "duration": 0.20982121875000104
        },
        {
          "name": "A3",
          "midi": 57,
          "time": 20.357122500000056,
          "velocity": 0.8661417322834646,
          "duration": 0.20982121875000104
        },
        {
          "name": "G3",
          "midi": 55,
          "time": 20.57140800000006,
          "velocity": 0.8661417322834646,
          "duration": 0.10267846874999975
        },
        {
          "name": "F#3",
          "midi": 54,
          "time": 20.67855075000006,
          "velocity": 0.8661417322834646,
          "duration": 0.10267846874999975
        },
        {
          "name": "E3",
          "midi": 52,
          "time": 20.78569350000006,
          "velocity": 0.8661417322834646,
          "duration": 0.20982121875000104
        },
        {
          "name": "G3",
          "midi": 55,
          "time": 20.999979000000064,
          "velocity": 0.8661417322834646,
          "duration": 0.20982121875000104
        },
        {
          "name": "A3",
          "midi": 57,
          "time": 21.214264500000066,
          "velocity": 0.8661417322834646,
          "duration": 0.20982121875000104
        },
        {
          "name": "G3",
          "midi": 55,
          "time": 21.42855000000007,
          "velocity": 0.8661417322834646,
          "duration": 0.10267846874999975
        },
        {
          "name": "F#3",
          "midi": 54,
          "time": 21.53569275000007,
          "velocity": 0.8661417322834646,
          "duration": 0.10267846874999975
        },
        {
          "name": "E3",
          "midi": 52,
          "time": 21.64283550000007,
          "velocity": 0.8661417322834646,
          "duration": 0.20982121875000104
        },
        {
          "name": "G3",
          "midi": 55,
          "time": 21.857121000000074,
          "velocity": 0.8661417322834646,
          "duration": 0.20982121875000104
        },
        {
          "name": "A3",
          "midi": 57,
          "time": 22.071406500000077,
          "velocity": 0.8661417322834646,
          "duration": 0.20982121875000104
        },
        {
          "name": "G3",
          "midi": 55,
          "time": 22.28569200000008,
          "velocity": 0.8661417322834646,
          "duration": 0.10267846874999975
        },
        {
          "name": "F#3",
          "midi": 54,
          "time": 22.39283475000008,
          "velocity": 0.8661417322834646,
          "duration": 0.10267846874999975
        },
        {
          "name": "E3",
          "midi": 52,
          "time": 22.49997750000008,
          "velocity": 0.8661417322834646,
          "duration": 0.20982121875000104
        },
        {
          "name": "G3",
          "midi": 55,
          "time": 22.714263000000084,
          "velocity": 0.8661417322834646,
          "duration": 0.20982121875000104
        },
        {
          "name": "A3",
          "midi": 57,
          "time": 22.928548500000087,
          "velocity": 0.8661417322834646,
          "duration": 0.20982121875000104
        },
        {
          "name": "G3",
          "midi": 55,
          "time": 23.14283400000009,
          "velocity": 0.8661417322834646,
          "duration": 0.10267846874999975
        },
        {
          "name": "F#3",
          "midi": 54,
          "time": 23.24997675000009,
          "velocity": 0.8661417322834646,
          "duration": 0.10267846874999975
        },
        {
          "name": "E3",
          "midi": 52,
          "time": 23.357119500000092,
          "velocity": 0.8661417322834646,
          "duration": 0.20982121875000104
        },
        {
          "name": "G3",
          "midi": 55,
          "time": 23.571405000000095,
          "velocity": 0.8661417322834646,
          "duration": 0.20982121875000104
        },
        {
          "name": "A3",
          "midi": 57,
          "time": 23.785690500000097,
          "velocity": 0.8661417322834646,
          "duration": 0.20982121875000104
        },
        {
          "name": "G3",
          "midi": 55,
          "time": 23.9999760000001,
          "velocity": 0.8661417322834646,
          "duration": 0.10267846874999975
        },
        {
          "name": "F#3",
          "midi": 54,
          "time": 24.1071187500001,
          "velocity": 0.8661417322834646,
          "duration": 0.10267846874999975
        },
        {
          "name": "E3",
          "midi": 52,
          "time": 24.214261500000102,
          "velocity": 0.8661417322834646,
          "duration": 0.20982121875000104
        },
        {
          "name": "G3",
          "midi": 55,
          "time": 24.428547000000105,
          "velocity": 0.8661417322834646,
          "duration": 0.20982121875000104
        },
        {
          "name": "A3",
          "midi": 57,
          "time": 24.642832500000107,
          "velocity": 0.8661417322834646,
          "duration": 0.20982121875000104
        },
        {
          "name": "G3",
          "midi": 55,
          "time": 24.85711800000011,
          "velocity": 0.8661417322834646,
          "duration": 0.10267846874999975
        },
        {
          "name": "F#3",
          "midi": 54,
          "time": 24.96426075000011,
          "velocity": 0.8661417322834646,
          "duration": 0.10267846874999975
        },
        {
          "name": "E3",
          "midi": 52,
          "time": 25.071403500000113,
          "velocity": 0.8661417322834646,
          "duration": 0.20982121875000104
        },
        {
          "name": "G3",
          "midi": 55,
          "time": 25.285689000000115,
          "velocity": 0.8661417322834646,
          "duration": 0.20982121875000104
        },
        {
          "name": "A3",
          "midi": 57,
          "time": 25.499974500000118,
          "velocity": 0.8661417322834646,
          "duration": 0.20982121875000104
        },
        {
          "name": "G3",
          "midi": 55,
          "time": 25.71426000000012,
          "velocity": 0.8661417322834646,
          "duration": 0.10267846874999975
        },
        {
          "name": "F#3",
          "midi": 54,
          "time": 25.82140275000012,
          "velocity": 0.8661417322834646,
          "duration": 0.10267846874999975
        },
        {
          "name": "E3",
          "midi": 52,
          "time": 25.928545500000123,
          "velocity": 0.8661417322834646,
          "duration": 0.20982121875000104
        },
        {
          "name": "G3",
          "midi": 55,
          "time": 26.142831000000125,
          "velocity": 0.8661417322834646,
          "duration": 0.20982121875000104
        },
        {
          "name": "A3",
          "midi": 57,
          "time": 26.357116500000128,
          "velocity": 0.8661417322834646,
          "duration": 0.20982121875000104
        },
        {
          "name": "G3",
          "midi": 55,
          "time": 26.57140200000013,
          "velocity": 0.8661417322834646,
          "duration": 0.10267846874999975
        },
        {
          "name": "F#3",
          "midi": 54,
          "time": 26.678544750000132,
          "velocity": 0.8661417322834646,
          "duration": 0.10267846874999975
        },
        {
          "name": "E3",
          "midi": 52,
          "time": 26.785687500000133,
          "velocity": 0.8661417322834646,
          "duration": 0.20982121875000104
        },
        {
          "name": "G3",
          "midi": 55,
          "time": 26.999973000000136,
          "velocity": 0.8661417322834646,
          "duration": 0.20982121875000104
        },
        {
          "name": "A3",
          "midi": 57,
          "time": 27.21425850000014,
          "velocity": 0.8661417322834646,
          "duration": 0.20982121875000104
        },
        {
          "name": "G3",
          "midi": 55,
          "time": 27.42854400000014,
          "velocity": 0.8661417322834646,
          "duration": 0.10267846874999975
        },
        {
          "name": "F#3",
          "midi": 54,
          "time": 27.535686750000142,
          "velocity": 0.8661417322834646,
          "duration": 0.10267846874999975
        },
        {
          "name": "E3",
          "midi": 52,
          "time": 27.642829500000143,
          "velocity": 0.8661417322834646,
          "duration": 0.20982121875000104
        },
        {
          "name": "G3",
          "midi": 55,
          "time": 27.857115000000146,
          "velocity": 0.8661417322834646,
          "duration": 0.20982121875000104
        },
        {
          "name": "A3",
          "midi": 57,
          "time": 28.07140050000015,
          "velocity": 0.8661417322834646,
          "duration": 0.20982121875000104
        },
        {
          "name": "G3",
          "midi": 55,
          "time": 28.28568600000015,
          "velocity": 0.8661417322834646,
          "duration": 0.10267846874999975
        },
        {
          "name": "F#3",
          "midi": 54,
          "time": 28.392828750000152,
          "velocity": 0.8661417322834646,
          "duration": 0.10267846874999975
        },
        {
          "name": "E3",
          "midi": 52,
          "time": 28.499971500000154,
          "velocity": 0.8661417322834646,
          "duration": 0.20982121875000104
        },
        {
          "name": "G3",
          "midi": 55,
          "time": 28.714257000000156,
          "velocity": 0.8661417322834646,
          "duration": 0.20982121875000104
        },
        {
          "name": "A3",
          "midi": 57,
          "time": 28.92854250000016,
          "velocity": 0.8661417322834646,
          "duration": 0.20982121875000104
        },
        {
          "name": "G3",
          "midi": 55,
          "time": 29.14282800000016,
          "velocity": 0.8661417322834646,
          "duration": 0.10267846874999975
        },
        {
          "name": "F#3",
          "midi": 54,
          "time": 29.249970750000163,
          "velocity": 0.8661417322834646,
          "duration": 0.10267846874999975
        },
        {
          "name": "E3",
          "midi": 52,
          "time": 29.357113500000164,
          "velocity": 0.8661417322834646,
          "duration": 0.20982121875000104
        },
        {
          "name": "G3",
          "midi": 55,
          "time": 29.571399000000167,
          "velocity": 0.8661417322834646,
          "duration": 0.20982121875000104
        },
        {
          "name": "A3",
          "midi": 57,
          "time": 29.78568450000017,
          "velocity": 0.8661417322834646,
          "duration": 0.20982121875000104
        },
        {
          "name": "G3",
          "midi": 55,
          "time": 29.99997000000017,
          "velocity": 0.8661417322834646,
          "duration": 0.10267846874999975
        },
        {
          "name": "F#3",
          "midi": 54,
          "time": 30.107112750000173,
          "velocity": 0.8661417322834646,
          "duration": 0.10267846874999975
        },
        {
          "name": "E3",
          "midi": 52,
          "time": 30.214255500000174,
          "velocity": 0.8661417322834646,
          "duration": 0.20982121875000104
        },
        {
          "name": "G3",
          "midi": 55,
          "time": 30.428541000000177,
          "velocity": 0.8661417322834646,
          "duration": 0.20982121875000104
        },
        {
          "name": "A3",
          "midi": 57,
          "time": 30.64282650000018,
          "velocity": 0.8661417322834646,
          "duration": 0.20982121875000104
        },
        {
          "name": "G3",
          "midi": 55,
          "time": 30.857112000000182,
          "velocity": 0.8661417322834646,
          "duration": 0.10267846874999975
        },
        {
          "name": "F#3",
          "midi": 54,
          "time": 30.964254750000183,
          "velocity": 0.8661417322834646,
          "duration": 0.10267846874999975
        },
        {
          "name": "E3",
          "midi": 52,
          "time": 31.071397500000185,
          "velocity": 0.8661417322834646,
          "duration": 0.20982121875000104
        },
        {
          "name": "G3",
          "midi": 55,
          "time": 31.285683000000187,
          "velocity": 0.8661417322834646,
          "duration": 0.20982121875000104
        },
        {
          "name": "A3",
          "midi": 57,
          "time": 31.49996850000019,
          "velocity": 0.8661417322834646,
          "duration": 0.20982121875000104
        },
        {
          "name": "G3",
          "midi": 55,
          "time": 31.714254000000192,
          "velocity": 0.8661417322834646,
          "duration": 0.10267846874999975
        },
        {
          "name": "F#3",
          "midi": 54,
          "time": 31.821396750000194,
          "velocity": 0.8661417322834646,
          "duration": 0.10267846874999975
        },
        {
          "name": "E3",
          "midi": 52,
          "time": 31.928539500000195,
          "velocity": 0.8661417322834646,
          "duration": 0.20982121874999748
        },
        {
          "name": "G3",
          "midi": 55,
          "time": 32.142825000000194,
          "velocity": 0.8661417322834646,
          "duration": 0.20982121875000104
        },
        {
          "name": "A3",
          "midi": 57,
          "time": 32.357110500000196,
          "velocity": 0.8661417322834646,
          "duration": 0.20982121875000104
        },
        {
          "name": "G3",
          "midi": 55,
          "time": 32.5713960000002,
          "velocity": 0.8661417322834646,
          "duration": 0.10267846874999975
        },
        {
          "name": "F#3",
          "midi": 54,
          "time": 32.6785387500002,
          "velocity": 0.8661417322834646,
          "duration": 0.10267846874999975
        },
        {
          "name": "E3",
          "midi": 52,
          "time": 32.7856815000002,
          "velocity": 0.8661417322834646,
          "duration": 0.20982121875000104
        },
        {
          "name": "G3",
          "midi": 55,
          "time": 32.999967000000204,
          "velocity": 0.8661417322834646,
          "duration": 0.20982121875000104
        },
        {
          "name": "A3",
          "midi": 57,
          "time": 33.21425250000021,
          "velocity": 0.8661417322834646,
          "duration": 0.20982121875000104
        },
        {
          "name": "G3",
          "midi": 55,
          "time": 33.42853800000021,
          "velocity": 0.8661417322834646,
          "duration": 0.10267846874999975
        },
        {
          "name": "F#3",
          "midi": 54,
          "time": 33.53568075000021,
          "velocity": 0.8661417322834646,
          "duration": 0.10267846874999975
        },
        {
          "name": "E3",
          "midi": 52,
          "time": 33.64282350000021,
          "velocity": 0.8661417322834646,
          "duration": 0.20982121875000104
        },
        {
          "name": "G3",
          "midi": 55,
          "time": 33.857109000000214,
          "velocity": 0.8661417322834646,
          "duration": 0.20982121875000104
        },
        {
          "name": "A3",
          "midi": 57,
          "time": 34.07139450000022,
          "velocity": 0.8661417322834646,
          "duration": 0.20982121875000104
        },
        {
          "name": "G3",
          "midi": 55,
          "time": 34.28568000000022,
          "velocity": 0.8661417322834646,
          "duration": 0.10267846874999975
        },
        {
          "name": "F#3",
          "midi": 54,
          "time": 34.39282275000022,
          "velocity": 0.8661417322834646,
          "duration": 0.10267846874999975
        },
        {
          "name": "E3",
          "midi": 52,
          "time": 34.49996550000022,
          "velocity": 0.8661417322834646,
          "duration": 0.20982121875000104
        },
        {
          "name": "G3",
          "midi": 55,
          "time": 34.714251000000225,
          "velocity": 0.8661417322834646,
          "duration": 0.20982121875000104
        },
        {
          "name": "A3",
          "midi": 57,
          "time": 34.92853650000023,
          "velocity": 0.8661417322834646,
          "duration": 0.20982121875000104
        },
        {
          "name": "G3",
          "midi": 55,
          "time": 35.14282200000023,
          "velocity": 0.8661417322834646,
          "duration": 0.10267846874999975
        },
        {
          "name": "F#3",
          "midi": 54,
          "time": 35.24996475000023,
          "velocity": 0.8661417322834646,
          "duration": 0.10267846874999975
        },
        {
          "name": "E3",
          "midi": 52,
          "time": 35.35710750000023,
          "velocity": 0.8661417322834646,
          "duration": 0.20982121875000104
        },
        {
          "name": "G3",
          "midi": 55,
          "time": 35.571393000000235,
          "velocity": 0.8661417322834646,
          "duration": 0.20982121875000104
        },
        {
          "name": "A3",
          "midi": 57,
          "time": 35.78567850000024,
          "velocity": 0.8661417322834646,
          "duration": 0.20982121875000104
        },
        {
          "name": "G3",
          "midi": 55,
          "time": 35.99996400000024,
          "velocity": 0.8661417322834646,
          "duration": 0.10267846874999975
        },
        {
          "name": "F#3",
          "midi": 54,
          "time": 36.10710675000024,
          "velocity": 0.8661417322834646,
          "duration": 0.10267846874999975
        },
        {
          "name": "E3",
          "midi": 52,
          "time": 36.21424950000024,
          "velocity": 0.8661417322834646,
          "duration": 0.20982121875000104
        },
        {
          "name": "G3",
          "midi": 55,
          "time": 36.428535000000245,
          "velocity": 0.8661417322834646,
          "duration": 0.20982121875000104
        },
        {
          "name": "A3",
          "midi": 57,
          "time": 36.64282050000025,
          "velocity": 0.8661417322834646,
          "duration": 0.20982121875000104
        },
        {
          "name": "G3",
          "midi": 55,
          "time": 36.85710600000025,
          "velocity": 0.8661417322834646,
          "duration": 0.10267846874999975
        },
        {
          "name": "F#3",
          "midi": 54,
          "time": 36.96424875000025,
          "velocity": 0.8661417322834646,
          "duration": 0.10267846874999975
        },
        {
          "name": "E3",
          "midi": 52,
          "time": 37.07139150000025,
          "velocity": 0.8661417322834646,
          "duration": 0.20982121875000104
        },
        {
          "name": "G3",
          "midi": 55,
          "time": 37.285677000000256,
          "velocity": 0.8661417322834646,
          "duration": 0.20982121875000104
        },
        {
          "name": "A3",
          "midi": 57,
          "time": 37.49996250000026,
          "velocity": 0.8661417322834646,
          "duration": 0.20982121875000104
        },
        {
          "name": "G3",
          "midi": 55,
          "time": 37.71424800000026,
          "velocity": 0.8661417322834646,
          "duration": 0.10267846874999975
        },
        {
          "name": "F#3",
          "midi": 54,
          "time": 37.82139075000026,
          "velocity": 0.8661417322834646,
          "duration": 0.10267846874999975
        },
        {
          "name": "E3",
          "midi": 52,
          "time": 37.92853350000026,
          "velocity": 0.8661417322834646,
          "duration": 0.20982121875000104
        },
        {
          "name": "G3",
          "midi": 55,
          "time": 38.142819000000266,
          "velocity": 0.8661417322834646,
          "duration": 0.20982121875000104
        },
        {
          "name": "A3",
          "midi": 57,
          "time": 38.35710450000027,
          "velocity": 0.8661417322834646,
          "duration": 0.20982121875000104
        },
        {
          "name": "G3",
          "midi": 55,
          "time": 38.57139000000027,
          "velocity": 0.8661417322834646,
          "duration": 0.10267846874999975
        },
        {
          "name": "F#3",
          "midi": 54,
          "time": 38.67853275000027,
          "velocity": 0.8661417322834646,
          "duration": 0.10267846874999975
        },
        {
          "name": "E3",
          "midi": 52,
          "time": 38.78567550000027,
          "velocity": 0.8661417322834646,
          "duration": 0.20982121875000104
        },
        {
          "name": "G3",
          "midi": 55,
          "time": 38.999961000000276,
          "velocity": 0.8661417322834646,
          "duration": 0.20982121875000104
        },
        {
          "name": "A3",
          "midi": 57,
          "time": 39.21424650000028,
          "velocity": 0.8661417322834646,
          "duration": 0.20982121875000104
        },
        {
          "name": "G3",
          "midi": 55,
          "time": 39.42853200000028,
          "velocity": 0.8661417322834646,
          "duration": 0.10267846874999975
        },
        {
          "name": "F#3",
          "midi": 54,
          "time": 39.53567475000028,
          "velocity": 0.8661417322834646,
          "duration": 0.10267846874999975
        },
        {
          "name": "E3",
          "midi": 52,
          "time": 39.642817500000284,
          "velocity": 0.8661417322834646,
          "duration": 0.20982121875000104
        },
        {
          "name": "G3",
          "midi": 55,
          "time": 39.857103000000286,
          "velocity": 0.8661417322834646,
          "duration": 0.20982121875000104
        },
        {
          "name": "A3",
          "midi": 57,
          "time": 40.07138850000029,
          "velocity": 0.8661417322834646,
          "duration": 0.20982121875000104
        },
        {
          "name": "G3",
          "midi": 55,
          "time": 40.28567400000029,
          "velocity": 0.8661417322834646,
          "duration": 0.10267846874999975
        },
        {
          "name": "F#3",
          "midi": 54,
          "time": 40.39281675000029,
          "velocity": 0.8661417322834646,
          "duration": 0.10267846874999975
        },
        {
          "name": "E3",
          "midi": 52,
          "time": 40.499959500000294,
          "velocity": 0.8661417322834646,
          "duration": 0.20982121875000104
        },
        {
          "name": "G3",
          "midi": 55,
          "time": 40.7142450000003,
          "velocity": 0.8661417322834646,
          "duration": 0.20982121875000104
        },
        {
          "name": "A3",
          "midi": 57,
          "time": 40.9285305000003,
          "velocity": 0.8661417322834646,
          "duration": 0.20982121875000104
        },
        {
          "name": "G3",
          "midi": 55,
          "time": 41.1428160000003,
          "velocity": 0.8661417322834646,
          "duration": 0.10267846874999975
        },
        {
          "name": "F#3",
          "midi": 54,
          "time": 41.2499587500003,
          "velocity": 0.8661417322834646,
          "duration": 0.10267846874999975
        },
        {
          "name": "E3",
          "midi": 52,
          "time": 41.357101500000304,
          "velocity": 0.8661417322834646,
          "duration": 0.20982121875000104
        },
        {
          "name": "G3",
          "midi": 55,
          "time": 41.57138700000031,
          "velocity": 0.8661417322834646,
          "duration": 0.20982121875000104
        },
        {
          "name": "A3",
          "midi": 57,
          "time": 41.78567250000031,
          "velocity": 0.8661417322834646,
          "duration": 0.20982121875000104
        },
        {
          "name": "G3",
          "midi": 55,
          "time": 41.99995800000031,
          "velocity": 0.8661417322834646,
          "duration": 0.10267846874999975
        },
        {
          "name": "F#3",
          "midi": 54,
          "time": 42.10710075000031,
          "velocity": 0.8661417322834646,
          "duration": 0.10267846874999975
        },
        {
          "name": "E3",
          "midi": 52,
          "time": 42.214243500000315,
          "velocity": 0.8661417322834646,
          "duration": 0.20982121875000104
        },
        {
          "name": "G3",
          "midi": 55,
          "time": 42.42852900000032,
          "velocity": 0.8661417322834646,
          "duration": 0.20982121875000104
        },
        {
          "name": "A3",
          "midi": 57,
          "time": 42.64281450000032,
          "velocity": 0.8661417322834646,
          "duration": 0.20982121875000104
        },
        {
          "name": "G3",
          "midi": 55,
          "time": 42.85710000000032,
          "velocity": 0.8661417322834646,
          "duration": 0.10267846874999975
        },
        {
          "name": "F#3",
          "midi": 54,
          "time": 42.964242750000324,
          "velocity": 0.8661417322834646,
          "duration": 0.10267846874999975
        },
        {
          "name": "E3",
          "midi": 52,
          "time": 43.071385500000325,
          "velocity": 0.8661417322834646,
          "duration": 0.20982121875000104
        },
        {
          "name": "G3",
          "midi": 55,
          "time": 43.28567100000033,
          "velocity": 0.8661417322834646,
          "duration": 0.20982121875000104
        },
        {
          "name": "G4",
          "midi": 67,
          "time": 43.28567100000033,
          "velocity": 0.8661417322834646,
          "duration": 0.20982121875000104
        },
        {
          "name": "A3",
          "midi": 57,
          "time": 43.49995650000033,
          "velocity": 0.8661417322834646,
          "duration": 0.20982121875000104
        },
        {
          "name": "A4",
          "midi": 69,
          "time": 43.49995650000033,
          "velocity": 0.8661417322834646,
          "duration": 0.20982121875000104
        },
        {
          "name": "G3",
          "midi": 55,
          "time": 43.71424200000033,
          "velocity": 0.8661417322834646,
          "duration": 0.10267846874999975
        },
        {
          "name": "G4",
          "midi": 67,
          "time": 43.71424200000033,
          "velocity": 0.8661417322834646,
          "duration": 0.10267846874999975
        },
        {
          "name": "F#3",
          "midi": 54,
          "time": 43.821384750000334,
          "velocity": 0.8661417322834646,
          "duration": 0.10267846874999975
        },
        {
          "name": "F#4",
          "midi": 66,
          "time": 43.821384750000334,
          "velocity": 0.8661417322834646,
          "duration": 0.10267846874999975
        },
        {
          "name": "G2",
          "midi": 43,
          "time": 43.928527500000335,
          "velocity": 0.8661417322834646,
          "duration": 0.20982121875000104
        },
        {
          "name": "E3",
          "midi": 52,
          "time": 43.928527500000335,
          "velocity": 0.8661417322834646,
          "duration": 0.20982121875000104
        },
        {
          "name": "E4",
          "midi": 64,
          "time": 43.928527500000335,
          "velocity": 0.8661417322834646,
          "duration": 0.20982121875000104
        },
        {
          "name": "G3",
          "midi": 55,
          "time": 44.14281300000034,
          "velocity": 0.8661417322834646,
          "duration": 0.20982121875000104
        },
        {
          "name": "G4",
          "midi": 67,
          "time": 44.14281300000034,
          "velocity": 0.8661417322834646,
          "duration": 0.20982121875000104
        },
        {
          "name": "A3",
          "midi": 57,
          "time": 44.35709850000034,
          "velocity": 0.8661417322834646,
          "duration": 0.20982121875000104
        },
        {
          "name": "A4",
          "midi": 69,
          "time": 44.35709850000034,
          "velocity": 0.8661417322834646,
          "duration": 0.20982121875000104
        },
        {
          "name": "G3",
          "midi": 55,
          "time": 44.57138400000034,
          "velocity": 0.8661417322834646,
          "duration": 0.10267846874999975
        },
        {
          "name": "G4",
          "midi": 67,
          "time": 44.57138400000034,
          "velocity": 0.8661417322834646,
          "duration": 0.10267846874999975
        },
        {
          "name": "F#3",
          "midi": 54,
          "time": 44.678526750000344,
          "velocity": 0.8661417322834646,
          "duration": 0.10267846874999975
        },
        {
          "name": "F#4",
          "midi": 66,
          "time": 44.678526750000344,
          "velocity": 0.8661417322834646,
          "duration": 0.10267846874999975
        },
        {
          "name": "G2",
          "midi": 43,
          "time": 44.785669500000346,
          "velocity": 0.8661417322834646,
          "duration": 0.20982121875000104
        },
        {
          "name": "E3",
          "midi": 52,
          "time": 44.785669500000346,
          "velocity": 0.8661417322834646,
          "duration": 0.20982121875000104
        },
        {
          "name": "E4",
          "midi": 64,
          "time": 44.785669500000346,
          "velocity": 0.8661417322834646,
          "duration": 0.20982121875000104
        },
        {
          "name": "G3",
          "midi": 55,
          "time": 44.99995500000035,
          "velocity": 0.8661417322834646,
          "duration": 0.20982121875000104
        },
        {
          "name": "G4",
          "midi": 67,
          "time": 44.99995500000035,
          "velocity": 0.8661417322834646,
          "duration": 0.20982121875000104
        },
        {
          "name": "A3",
          "midi": 57,
          "time": 45.21424050000035,
          "velocity": 0.8661417322834646,
          "duration": 0.20982121875000104
        },
        {
          "name": "A4",
          "midi": 69,
          "time": 45.21424050000035,
          "velocity": 0.8661417322834646,
          "duration": 0.20982121875000104
        },
        {
          "name": "G3",
          "midi": 55,
          "time": 45.42852600000035,
          "velocity": 0.8661417322834646,
          "duration": 0.10267846874999975
        },
        {
          "name": "G4",
          "midi": 67,
          "time": 45.42852600000035,
          "velocity": 0.8661417322834646,
          "duration": 0.10267846874999975
        },
        {
          "name": "F#3",
          "midi": 54,
          "time": 45.535668750000355,
          "velocity": 0.8661417322834646,
          "duration": 0.10267846874999975
        },
        {
          "name": "F#4",
          "midi": 66,
          "time": 45.535668750000355,
          "velocity": 0.8661417322834646,
          "duration": 0.10267846874999975
        },
        {
          "name": "G2",
          "midi": 43,
          "time": 45.642811500000356,
          "velocity": 0.8661417322834646,
          "duration": 0.20982121875000104
        },
        {
          "name": "E3",
          "midi": 52,
          "time": 45.642811500000356,
          "velocity": 0.8661417322834646,
          "duration": 0.20982121875000104
        },
        {
          "name": "E4",
          "midi": 64,
          "time": 45.642811500000356,
          "velocity": 0.8661417322834646,
          "duration": 0.20982121875000104
        },
        {
          "name": "G3",
          "midi": 55,
          "time": 45.85709700000036,
          "velocity": 0.8661417322834646,
          "duration": 0.20982121875000104
        },
        {
          "name": "G4",
          "midi": 67,
          "time": 45.85709700000036,
          "velocity": 0.8661417322834646,
          "duration": 0.20982121875000104
        },
        {
          "name": "A3",
          "midi": 57,
          "time": 46.07138250000036,
          "velocity": 0.8661417322834646,
          "duration": 0.20982121875000104
        },
        {
          "name": "A4",
          "midi": 69,
          "time": 46.07138250000036,
          "velocity": 0.8661417322834646,
          "duration": 0.20982121875000104
        },
        {
          "name": "G3",
          "midi": 55,
          "time": 46.28566800000036,
          "velocity": 0.8661417322834646,
          "duration": 0.10267846874999975
        },
        {
          "name": "G4",
          "midi": 67,
          "time": 46.28566800000036,
          "velocity": 0.8661417322834646,
          "duration": 0.10267846874999975
        },
        {
          "name": "F#3",
          "midi": 54,
          "time": 46.392810750000365,
          "velocity": 0.8661417322834646,
          "duration": 0.10267846874999975
        },
        {
          "name": "F#4",
          "midi": 66,
          "time": 46.392810750000365,
          "velocity": 0.8661417322834646,
          "duration": 0.10267846874999975
        },
        {
          "name": "G2",
          "midi": 43,
          "time": 46.499953500000366,
          "velocity": 0.8661417322834646,
          "duration": 0.20982121875000104
        },
        {
          "name": "E3",
          "midi": 52,
          "time": 46.499953500000366,
          "velocity": 0.8661417322834646,
          "duration": 0.20982121875000104
        },
        {
          "name": "E4",
          "midi": 64,
          "time": 46.499953500000366,
          "velocity": 0.8661417322834646,
          "duration": 0.20982121875000104
        },
        {
          "name": "G3",
          "midi": 55,
          "time": 46.71423900000037,
          "velocity": 0.8661417322834646,
          "duration": 0.20982121875000104
        },
        {
          "name": "B3",
          "midi": 59,
          "time": 46.71423900000037,
          "velocity": 0.8661417322834646,
          "duration": 0.20982121875000104
        },
        {
          "name": "G4",
          "midi": 67,
          "time": 46.71423900000037,
          "velocity": 0.8661417322834646,
          "duration": 0.20982121875000104
        },
        {
          "name": "A3",
          "midi": 57,
          "time": 46.92852450000037,
          "velocity": 0.8661417322834646,
          "duration": 0.20982121875000104
        },
        {
          "name": "C4",
          "midi": 60,
          "time": 46.92852450000037,
          "velocity": 0.8661417322834646,
          "duration": 0.20982121875000104
        },
        {
          "name": "A4",
          "midi": 69,
          "time": 46.92852450000037,
          "velocity": 0.8661417322834646,
          "duration": 0.20982121875000104
        },
        {
          "name": "G3",
          "midi": 55,
          "time": 47.142810000000374,
          "velocity": 0.8661417322834646,
          "duration": 0.10267846874999975
        },
        {
          "name": "G4",
          "midi": 67,
          "time": 47.142810000000374,
          "velocity": 0.8661417322834646,
          "duration": 0.10267846874999975
        },
        {
          "name": "F#3",
          "midi": 54,
          "time": 47.249952750000375,
          "velocity": 0.8661417322834646,
          "duration": 0.10267846874999975
        },
        {
          "name": "F#4",
          "midi": 66,
          "time": 47.249952750000375,
          "velocity": 0.8661417322834646,
          "duration": 0.10267846874999975
        },
        {
          "name": "G2",
          "midi": 43,
          "time": 47.357095500000376,
          "velocity": 0.8661417322834646,
          "duration": 0.20982121875000104
        },
        {
          "name": "E3",
          "midi": 52,
          "time": 47.357095500000376,
          "velocity": 0.8661417322834646,
          "duration": 0.20982121875000104
        },
        {
          "name": "E4",
          "midi": 64,
          "time": 47.357095500000376,
          "velocity": 0.8661417322834646,
          "duration": 0.20982121875000104
        },
        {
          "name": "G3",
          "midi": 55,
          "time": 47.57138100000038,
          "velocity": 0.8661417322834646,
          "duration": 0.20982121875000104
        },
        {
          "name": "B3",
          "midi": 59,
          "time": 47.57138100000038,
          "velocity": 0.8661417322834646,
          "duration": 0.20982121875000104
        },
        {
          "name": "G4",
          "midi": 67,
          "time": 47.57138100000038,
          "velocity": 0.8661417322834646,
          "duration": 0.20982121875000104
        },
        {
          "name": "A3",
          "midi": 57,
          "time": 47.78566650000038,
          "velocity": 0.8661417322834646,
          "duration": 0.20982121875000104
        },
        {
          "name": "C4",
          "midi": 60,
          "time": 47.78566650000038,
          "velocity": 0.8661417322834646,
          "duration": 0.20982121875000104
        },
        {
          "name": "A4",
          "midi": 69,
          "time": 47.78566650000038,
          "velocity": 0.8661417322834646,
          "duration": 0.20982121875000104
        },
        {
          "name": "G3",
          "midi": 55,
          "time": 47.999952000000384,
          "velocity": 0.8661417322834646,
          "duration": 0.10267846874999975
        },
        {
          "name": "G4",
          "midi": 67,
          "time": 47.999952000000384,
          "velocity": 0.8661417322834646,
          "duration": 0.10267846874999975
        },
        {
          "name": "F#3",
          "midi": 54,
          "time": 48.107094750000385,
          "velocity": 0.8661417322834646,
          "duration": 0.10267846874999975
        },
        {
          "name": "F#4",
          "midi": 66,
          "time": 48.107094750000385,
          "velocity": 0.8661417322834646,
          "duration": 0.10267846874999975
        },
        {
          "name": "G2",
          "midi": 43,
          "time": 48.21423750000039,
          "velocity": 0.8661417322834646,
          "duration": 0.20982121875000104
        },
        {
          "name": "E3",
          "midi": 52,
          "time": 48.21423750000039,
          "velocity": 0.8661417322834646,
          "duration": 0.20982121875000104
        },
        {
          "name": "E4",
          "midi": 64,
          "time": 48.21423750000039,
          "velocity": 0.8661417322834646,
          "duration": 0.20982121875000104
        },
        {
          "name": "G3",
          "midi": 55,
          "time": 48.42852300000039,
          "velocity": 0.8661417322834646,
          "duration": 0.20982121875000104
        },
        {
          "name": "B3",
          "midi": 59,
          "time": 48.42852300000039,
          "velocity": 0.8661417322834646,
          "duration": 0.20982121875000104
        },
        {
          "name": "G4",
          "midi": 67,
          "time": 48.42852300000039,
          "velocity": 0.8661417322834646,
          "duration": 0.20982121875000104
        },
        {
          "name": "A3",
          "midi": 57,
          "time": 48.64280850000039,
          "velocity": 0.8661417322834646,
          "duration": 0.20982121875000104
        },
        {
          "name": "C4",
          "midi": 60,
          "time": 48.64280850000039,
          "velocity": 0.8661417322834646,
          "duration": 0.20982121875000104
        },
        {
          "name": "A4",
          "midi": 69,
          "time": 48.64280850000039,
          "velocity": 0.8661417322834646,
          "duration": 0.20982121875000104
        },
        {
          "name": "G3",
          "midi": 55,
          "time": 48.857094000000394,
          "velocity": 0.8661417322834646,
          "duration": 0.10267846874999975
        },
        {
          "name": "G4",
          "midi": 67,
          "time": 48.857094000000394,
          "velocity": 0.8661417322834646,
          "duration": 0.10267846874999975
        },
        {
          "name": "F#3",
          "midi": 54,
          "time": 48.964236750000396,
          "velocity": 0.8661417322834646,
          "duration": 0.10267846874999975
        },
        {
          "name": "F#4",
          "midi": 66,
          "time": 48.964236750000396,
          "velocity": 0.8661417322834646,
          "duration": 0.10267846874999975
        },
        {
          "name": "G2",
          "midi": 43,
          "time": 49.0713795000004,
          "velocity": 0.8661417322834646,
          "duration": 0.20982121875000104
        },
        {
          "name": "E3",
          "midi": 52,
          "time": 49.0713795000004,
          "velocity": 0.8661417322834646,
          "duration": 0.20982121875000104
        },
        {
          "name": "E4",
          "midi": 64,
          "time": 49.0713795000004,
          "velocity": 0.8661417322834646,
          "duration": 0.20982121875000104
        },
        {
          "name": "G3",
          "midi": 55,
          "time": 49.2856650000004,
          "velocity": 0.8661417322834646,
          "duration": 0.20982121875000104
        },
        {
          "name": "B3",
          "midi": 59,
          "time": 49.2856650000004,
          "velocity": 0.8661417322834646,
          "duration": 0.20982121875000104
        },
        {
          "name": "G4",
          "midi": 67,
          "time": 49.2856650000004,
          "velocity": 0.8661417322834646,
          "duration": 0.20982121875000104
        },
        {
          "name": "A3",
          "midi": 57,
          "time": 49.4999505000004,
          "velocity": 0.8661417322834646,
          "duration": 0.20982121875000104
        },
        {
          "name": "C4",
          "midi": 60,
          "time": 49.4999505000004,
          "velocity": 0.8661417322834646,
          "duration": 0.20982121875000104
        },
        {
          "name": "A4",
          "midi": 69,
          "time": 49.4999505000004,
          "velocity": 0.8661417322834646,
          "duration": 0.20982121875000104
        },
        {
          "name": "G3",
          "midi": 55,
          "time": 49.714236000000405,
          "velocity": 0.8661417322834646,
          "duration": 0.10267846874999975
        },
        {
          "name": "G4",
          "midi": 67,
          "time": 49.714236000000405,
          "velocity": 0.8661417322834646,
          "duration": 0.10267846874999975
        },
        {
          "name": "F#3",
          "midi": 54,
          "time": 49.821378750000406,
          "velocity": 0.8661417322834646,
          "duration": 0.10267846874999975
        },
        {
          "name": "F#4",
          "midi": 66,
          "time": 49.821378750000406,
          "velocity": 0.8661417322834646,
          "duration": 0.10267846874999975
        },
        {
          "name": "G2",
          "midi": 43,
          "time": 49.92852150000041,
          "velocity": 0.8661417322834646,
          "duration": 0.20982121875000104
        },
        {
          "name": "E3",
          "midi": 52,
          "time": 49.92852150000041,
          "velocity": 0.8661417322834646,
          "duration": 0.20982121875000104
        },
        {
          "name": "E4",
          "midi": 64,
          "time": 49.92852150000041,
          "velocity": 0.8661417322834646,
          "duration": 0.20982121875000104
        },
        {
          "name": "G3",
          "midi": 55,
          "time": 50.14280700000041,
          "velocity": 0.8661417322834646,
          "duration": 0.20982121875000104
        },
        {
          "name": "G4",
          "midi": 67,
          "time": 50.14280700000041,
          "velocity": 0.8661417322834646,
          "duration": 0.20982121875000104
        },
        {
          "name": "A3",
          "midi": 57,
          "time": 50.35709250000041,
          "velocity": 0.8661417322834646,
          "duration": 0.20982121875000104
        },
        {
          "name": "A4",
          "midi": 69,
          "time": 50.35709250000041,
          "velocity": 0.8661417322834646,
          "duration": 0.20982121875000104
        },
        {
          "name": "G3",
          "midi": 55,
          "time": 50.571378000000415,
          "velocity": 0.8661417322834646,
          "duration": 0.10267846874999975
        },
        {
          "name": "G4",
          "midi": 67,
          "time": 50.571378000000415,
          "velocity": 0.8661417322834646,
          "duration": 0.10267846874999975
        },
        {
          "name": "F#3",
          "midi": 54,
          "time": 50.678520750000416,
          "velocity": 0.8661417322834646,
          "duration": 0.10267846874999975
        },
        {
          "name": "F#4",
          "midi": 66,
          "time": 50.678520750000416,
          "velocity": 0.8661417322834646,
          "duration": 0.10267846874999975
        },
        {
          "name": "E3",
          "midi": 52,
          "time": 50.78566350000042,
          "velocity": 0.8661417322834646,
          "duration": 0.20982121875000104
        },
        {
          "name": "E4",
          "midi": 64,
          "time": 50.78566350000042,
          "velocity": 0.8661417322834646,
          "duration": 0.20982121875000104
        },
        {
          "name": "G3",
          "midi": 55,
          "time": 50.99994900000042,
          "velocity": 0.8661417322834646,
          "duration": 0.20982121875000104
        },
        {
          "name": "G4",
          "midi": 67,
          "time": 50.99994900000042,
          "velocity": 0.8661417322834646,
          "duration": 0.20982121875000104
        },
        {
          "name": "A3",
          "midi": 57,
          "time": 51.21423450000042,
          "velocity": 0.8661417322834646,
          "duration": 0.20982121875000104
        },
        {
          "name": "A4",
          "midi": 69,
          "time": 51.21423450000042,
          "velocity": 0.8661417322834646,
          "duration": 0.20982121875000104
        },
        {
          "name": "G3",
          "midi": 55,
          "time": 51.428520000000425,
          "velocity": 0.8661417322834646,
          "duration": 0.10267846874999975
        },
        {
          "name": "G4",
          "midi": 67,
          "time": 51.428520000000425,
          "velocity": 0.8661417322834646,
          "duration": 0.10267846874999975
        },
        {
          "name": "F#3",
          "midi": 54,
          "time": 51.53566275000043,
          "velocity": 0.8661417322834646,
          "duration": 0.10267846874999975
        },
        {
          "name": "F#4",
          "midi": 66,
          "time": 51.53566275000043,
          "velocity": 0.8661417322834646,
          "duration": 0.10267846874999975
        },
        {
          "name": "E3",
          "midi": 52,
          "time": 51.64280550000043,
          "velocity": 0.8661417322834646,
          "duration": 0.20982121875000104
        },
        {
          "name": "E4",
          "midi": 64,
          "time": 51.64280550000043,
          "velocity": 0.8661417322834646,
          "duration": 0.20982121875000104
        },
        {
          "name": "G3",
          "midi": 55,
          "time": 51.85709100000043,
          "velocity": 0.8661417322834646,
          "duration": 0.20982121875000104
        },
        {
          "name": "G4",
          "midi": 67,
          "time": 51.85709100000043,
          "velocity": 0.8661417322834646,
          "duration": 0.20982121875000104
        },
        {
          "name": "A3",
          "midi": 57,
          "time": 52.07137650000043,
          "velocity": 0.8661417322834646,
          "duration": 0.20982121875000104
        },
        {
          "name": "A4",
          "midi": 69,
          "time": 52.07137650000043,
          "velocity": 0.8661417322834646,
          "duration": 0.20982121875000104
        },
        {
          "name": "G3",
          "midi": 55,
          "time": 52.285662000000436,
          "velocity": 0.8661417322834646,
          "duration": 0.10267846874999975
        },
        {
          "name": "G4",
          "midi": 67,
          "time": 52.285662000000436,
          "velocity": 0.8661417322834646,
          "duration": 0.10267846874999975
        },
        {
          "name": "F#3",
          "midi": 54,
          "time": 52.39280475000044,
          "velocity": 0.8661417322834646,
          "duration": 0.10267846874999975
        },
        {
          "name": "F#4",
          "midi": 66,
          "time": 52.39280475000044,
          "velocity": 0.8661417322834646,
          "duration": 0.10267846874999975
        },
        {
          "name": "E3",
          "midi": 52,
          "time": 52.49994750000044,
          "velocity": 0.8661417322834646,
          "duration": 0.20982121875000104
        },
        {
          "name": "E4",
          "midi": 64,
          "time": 52.49994750000044,
          "velocity": 0.8661417322834646,
          "duration": 0.20982121875000104
        },
        {
          "name": "G3",
          "midi": 55,
          "time": 52.71423300000044,
          "velocity": 0.8661417322834646,
          "duration": 0.20982121875000104
        },
        {
          "name": "G4",
          "midi": 67,
          "time": 52.71423300000044,
          "velocity": 0.8661417322834646,
          "duration": 0.20982121875000104
        },
        {
          "name": "A3",
          "midi": 57,
          "time": 52.92851850000044,
          "velocity": 0.8661417322834646,
          "duration": 0.20982121875000104
        },
        {
          "name": "A4",
          "midi": 69,
          "time": 52.92851850000044,
          "velocity": 0.8661417322834646,
          "duration": 0.20982121875000104
        },
        {
          "name": "G3",
          "midi": 55,
          "time": 53.142804000000446,
          "velocity": 0.8661417322834646,
          "duration": 0.10267846874999975
        },
        {
          "name": "G4",
          "midi": 67,
          "time": 53.142804000000446,
          "velocity": 0.8661417322834646,
          "duration": 0.10267846874999975
        },
        {
          "name": "F#3",
          "midi": 54,
          "time": 53.24994675000045,
          "velocity": 0.8661417322834646,
          "duration": 0.10267846874999975
        },
        {
          "name": "F#4",
          "midi": 66,
          "time": 53.24994675000045,
          "velocity": 0.8661417322834646,
          "duration": 0.10267846874999975
        },
        {
          "name": "E3",
          "midi": 52,
          "time": 53.35708950000045,
          "velocity": 0.8661417322834646,
          "duration": 0.20982121875000104
        },
        {
          "name": "E4",
          "midi": 64,
          "time": 53.35708950000045,
          "velocity": 0.8661417322834646,
          "duration": 0.20982121875000104
        },
        {
          "name": "G3",
          "midi": 55,
          "time": 53.57137500000045,
          "velocity": 0.8661417322834646,
          "duration": 0.20982121875000104
        },
        {
          "name": "G4",
          "midi": 67,
          "time": 53.57137500000045,
          "velocity": 0.8661417322834646,
          "duration": 0.20982121875000104
        },
        {
          "name": "A3",
          "midi": 57,
          "time": 53.78566050000045,
          "velocity": 0.8661417322834646,
          "duration": 0.20982121875000104
        },
        {
          "name": "A4",
          "midi": 69,
          "time": 53.78566050000045,
          "velocity": 0.8661417322834646,
          "duration": 0.20982121875000104
        },
        {
          "name": "G3",
          "midi": 55,
          "time": 53.999946000000456,
          "velocity": 0.8661417322834646,
          "duration": 0.10267846874999975
        },
        {
          "name": "G4",
          "midi": 67,
          "time": 53.999946000000456,
          "velocity": 0.8661417322834646,
          "duration": 0.10267846874999975
        },
        {
          "name": "F#3",
          "midi": 54,
          "time": 54.10708875000046,
          "velocity": 0.8661417322834646,
          "duration": 0.10267846874999975
        },
        {
          "name": "F#4",
          "midi": 66,
          "time": 54.10708875000046,
          "velocity": 0.8661417322834646,
          "duration": 0.10267846874999975
        },
        {
          "name": "E3",
          "midi": 52,
          "time": 54.21423150000046,
          "velocity": 0.8661417322834646,
          "duration": 0.20982121875000104
        },
        {
          "name": "E4",
          "midi": 64,
          "time": 54.21423150000046,
          "velocity": 0.8661417322834646,
          "duration": 0.20982121875000104
        },
        {
          "name": "G3",
          "midi": 55,
          "time": 54.42851700000046,
          "velocity": 0.8661417322834646,
          "duration": 0.20982121875000104
        },
        {
          "name": "G4",
          "midi": 67,
          "time": 54.42851700000046,
          "velocity": 0.8661417322834646,
          "duration": 0.20982121875000104
        },
        {
          "name": "A3",
          "midi": 57,
          "time": 54.642802500000464,
          "velocity": 0.8661417322834646,
          "duration": 0.20982121875000104
        },
        {
          "name": "A4",
          "midi": 69,
          "time": 54.642802500000464,
          "velocity": 0.8661417322834646,
          "duration": 0.20982121875000104
        },
        {
          "name": "G3",
          "midi": 55,
          "time": 54.857088000000466,
          "velocity": 0.8661417322834646,
          "duration": 0.10267846874999975
        },
        {
          "name": "G4",
          "midi": 67,
          "time": 54.857088000000466,
          "velocity": 0.8661417322834646,
          "duration": 0.10267846874999975
        },
        {
          "name": "F#3",
          "midi": 54,
          "time": 54.96423075000047,
          "velocity": 0.8661417322834646,
          "duration": 0.10267846874999975
        },
        {
          "name": "F#4",
          "midi": 66,
          "time": 54.96423075000047,
          "velocity": 0.8661417322834646,
          "duration": 0.10267846874999975
        },
        {
          "name": "E3",
          "midi": 52,
          "time": 55.07137350000047,
          "velocity": 0.8661417322834646,
          "duration": 0.20982121875000104
        },
        {
          "name": "E4",
          "midi": 64,
          "time": 55.07137350000047,
          "velocity": 0.8661417322834646,
          "duration": 0.20982121875000104
        },
        {
          "name": "G3",
          "midi": 55,
          "time": 55.28565900000047,
          "velocity": 0.8661417322834646,
          "duration": 0.20982121875000104
        },
        {
          "name": "G4",
          "midi": 67,
          "time": 55.28565900000047,
          "velocity": 0.8661417322834646,
          "duration": 0.20982121875000104
        },
        {
          "name": "A3",
          "midi": 57,
          "time": 55.499944500000474,
          "velocity": 0.8661417322834646,
          "duration": 0.20982121875000104
        },
        {
          "name": "A4",
          "midi": 69,
          "time": 55.499944500000474,
          "velocity": 0.8661417322834646,
          "duration": 0.20982121875000104
        },
        {
          "name": "G3",
          "midi": 55,
          "time": 55.71423000000048,
          "velocity": 0.8661417322834646,
          "duration": 0.10267846874999975
        },
        {
          "name": "G4",
          "midi": 67,
          "time": 55.71423000000048,
          "velocity": 0.8661417322834646,
          "duration": 0.10267846874999975
        },
        {
          "name": "F#3",
          "midi": 54,
          "time": 55.82137275000048,
          "velocity": 0.8661417322834646,
          "duration": 0.10267846874999975
        },
        {
          "name": "F#4",
          "midi": 66,
          "time": 55.82137275000048,
          "velocity": 0.8661417322834646,
          "duration": 0.10267846874999975
        },
        {
          "name": "E3",
          "midi": 52,
          "time": 55.92851550000048,
          "velocity": 0.8661417322834646,
          "duration": 0.20982121875000104
        },
        {
          "name": "E4",
          "midi": 64,
          "time": 55.92851550000048,
          "velocity": 0.8661417322834646,
          "duration": 0.20982121875000104
        },
        {
          "name": "G3",
          "midi": 55,
          "time": 56.14280100000048,
          "velocity": 0.8661417322834646,
          "duration": 0.20982121875000104
        },
        {
          "name": "G4",
          "midi": 67,
          "time": 56.14280100000048,
          "velocity": 0.8661417322834646,
          "duration": 0.20982121875000104
        },
        {
          "name": "A3",
          "midi": 57,
          "time": 56.357086500000484,
          "velocity": 0.8661417322834646,
          "duration": 0.20982121875000104
        },
        {
          "name": "A4",
          "midi": 69,
          "time": 56.357086500000484,
          "velocity": 0.8661417322834646,
          "duration": 0.20982121875000104
        },
        {
          "name": "G3",
          "midi": 55,
          "time": 56.57137200000049,
          "velocity": 0.8661417322834646,
          "duration": 0.10267846874999975
        },
        {
          "name": "G4",
          "midi": 67,
          "time": 56.57137200000049,
          "velocity": 0.8661417322834646,
          "duration": 0.10267846874999975
        },
        {
          "name": "F#3",
          "midi": 54,
          "time": 56.67851475000049,
          "velocity": 0.8661417322834646,
          "duration": 0.10267846874999975
        },
        {
          "name": "F#4",
          "midi": 66,
          "time": 56.67851475000049,
          "velocity": 0.8661417322834646,
          "duration": 0.10267846874999975
        },
        {
          "name": "E3",
          "midi": 52,
          "time": 56.78565750000049,
          "velocity": 0.8661417322834646,
          "duration": 0.20982121875000104
        },
        {
          "name": "E4",
          "midi": 64,
          "time": 56.78565750000049,
          "velocity": 0.8661417322834646,
          "duration": 0.20982121875000104
        },
        {
          "name": "G3",
          "midi": 55,
          "time": 56.99994300000049,
          "velocity": 0.8661417322834646,
          "duration": 0.20982121875000104
        },
        {
          "name": "G4",
          "midi": 67,
          "time": 56.99994300000049,
          "velocity": 0.8661417322834646,
          "duration": 0.20982121875000104
        },
        {
          "name": "A3",
          "midi": 57,
          "time": 57.214228500000495,
          "velocity": 0.8661417322834646,
          "duration": 0.20982121875000104
        },
        {
          "name": "A4",
          "midi": 69,
          "time": 57.214228500000495,
          "velocity": 0.8661417322834646,
          "duration": 0.20982121875000104
        },
        {
          "name": "G3",
          "midi": 55,
          "time": 57.4285140000005,
          "velocity": 0.8661417322834646,
          "duration": 0.10267846874999975
        },
        {
          "name": "G4",
          "midi": 67,
          "time": 57.4285140000005,
          "velocity": 0.8661417322834646,
          "duration": 0.10267846874999975
        },
        {
          "name": "F#3",
          "midi": 54,
          "time": 57.5356567500005,
          "velocity": 0.8661417322834646,
          "duration": 0.10267846874999975
        },
        {
          "name": "F#4",
          "midi": 66,
          "time": 57.5356567500005,
          "velocity": 0.8661417322834646,
          "duration": 0.10267846874999975
        },
        {
          "name": "E3",
          "midi": 52,
          "time": 57.6427995000005,
          "velocity": 0.8661417322834646,
          "duration": 0.20982121875000104
        },
        {
          "name": "E4",
          "midi": 64,
          "time": 57.6427995000005,
          "velocity": 0.8661417322834646,
          "duration": 0.20982121875000104
        },
        {
          "name": "G3",
          "midi": 55,
          "time": 57.8570850000005,
          "velocity": 0.8661417322834646,
          "duration": 0.20982121875000104
        },
        {
          "name": "G4",
          "midi": 67,
          "time": 57.8570850000005,
          "velocity": 0.8661417322834646,
          "duration": 0.20982121875000104
        },
        {
          "name": "A3",
          "midi": 57,
          "time": 58.071370500000505,
          "velocity": 0.8661417322834646,
          "duration": 0.20982121875000104
        },
        {
          "name": "A4",
          "midi": 69,
          "time": 58.071370500000505,
          "velocity": 0.8661417322834646,
          "duration": 0.20982121875000104
        },
        {
          "name": "G3",
          "midi": 55,
          "time": 58.28565600000051,
          "velocity": 0.8661417322834646,
          "duration": 0.10267846874999975
        },
        {
          "name": "G4",
          "midi": 67,
          "time": 58.28565600000051,
          "velocity": 0.8661417322834646,
          "duration": 0.10267846874999975
        },
        {
          "name": "F#3",
          "midi": 54,
          "time": 58.39279875000051,
          "velocity": 0.8661417322834646,
          "duration": 0.10267846874999975
        },
        {
          "name": "F#4",
          "midi": 66,
          "time": 58.39279875000051,
          "velocity": 0.8661417322834646,
          "duration": 0.10267846874999975
        },
        {
          "name": "E3",
          "midi": 52,
          "time": 58.49994150000051,
          "velocity": 0.8661417322834646,
          "duration": 0.20982121875000104
        },
        {
          "name": "E4",
          "midi": 64,
          "time": 58.49994150000051,
          "velocity": 0.8661417322834646,
          "duration": 0.20982121875000104
        },
        {
          "name": "G3",
          "midi": 55,
          "time": 58.71422700000051,
          "velocity": 0.8661417322834646,
          "duration": 0.20982121875000104
        },
        {
          "name": "G4",
          "midi": 67,
          "time": 58.71422700000051,
          "velocity": 0.8661417322834646,
          "duration": 0.20982121875000104
        },
        {
          "name": "A3",
          "midi": 57,
          "time": 58.928512500000515,
          "velocity": 0.8661417322834646,
          "duration": 0.20982121875000104
        },
        {
          "name": "A4",
          "midi": 69,
          "time": 58.928512500000515,
          "velocity": 0.8661417322834646,
          "duration": 0.20982121875000104
        },
        {
          "name": "G3",
          "midi": 55,
          "time": 59.14279800000052,
          "velocity": 0.8661417322834646,
          "duration": 0.10267846874999975
        },
        {
          "name": "G4",
          "midi": 67,
          "time": 59.14279800000052,
          "velocity": 0.8661417322834646,
          "duration": 0.10267846874999975
        },
        {
          "name": "F#3",
          "midi": 54,
          "time": 59.24994075000052,
          "velocity": 0.8661417322834646,
          "duration": 0.10267846874999975
        },
        {
          "name": "F#4",
          "midi": 66,
          "time": 59.24994075000052,
          "velocity": 0.8661417322834646,
          "duration": 0.10267846874999975
        },
        {
          "name": "E3",
          "midi": 52,
          "time": 59.35708350000052,
          "velocity": 0.8661417322834646,
          "duration": 0.20982121875000104
        },
        {
          "name": "E4",
          "midi": 64,
          "time": 59.35708350000052,
          "velocity": 0.8661417322834646,
          "duration": 0.20982121875000104
        },
        {
          "name": "G3",
          "midi": 55,
          "time": 59.57136900000052,
          "velocity": 0.8661417322834646,
          "duration": 0.20982121875000104
        },
        {
          "name": "G4",
          "midi": 67,
          "time": 59.57136900000052,
          "velocity": 0.8661417322834646,
          "duration": 0.20982121875000104
        },
        {
          "name": "A3",
          "midi": 57,
          "time": 59.785654500000526,
          "velocity": 0.8661417322834646,
          "duration": 0.20982121875000104
        },
        {
          "name": "A4",
          "midi": 69,
          "time": 59.785654500000526,
          "velocity": 0.8661417322834646,
          "duration": 0.20982121875000104
        },
        {
          "name": "G3",
          "midi": 55,
          "time": 59.99994000000053,
          "velocity": 0.8661417322834646,
          "duration": 0.10267846874999975
        },
        {
          "name": "G4",
          "midi": 67,
          "time": 59.99994000000053,
          "velocity": 0.8661417322834646,
          "duration": 0.10267846874999975
        },
        {
          "name": "F#3",
          "midi": 54,
          "time": 60.10708275000053,
          "velocity": 0.8661417322834646,
          "duration": 0.10267846874999975
        },
        {
          "name": "F#4",
          "midi": 66,
          "time": 60.10708275000053,
          "velocity": 0.8661417322834646,
          "duration": 0.10267846874999975
        },
        {
          "name": "E3",
          "midi": 52,
          "time": 60.21422550000053,
          "velocity": 0.8661417322834646,
          "duration": 0.20982121875000104
        },
        {
          "name": "E4",
          "midi": 64,
          "time": 60.21422550000053,
          "velocity": 0.8661417322834646,
          "duration": 0.20982121875000104
        },
        {
          "name": "G3",
          "midi": 55,
          "time": 60.42851100000053,
          "velocity": 0.8661417322834646,
          "duration": 0.20982121875000104
        },
        {
          "name": "G4",
          "midi": 67,
          "time": 60.42851100000053,
          "velocity": 0.8661417322834646,
          "duration": 0.20982121875000104
        },
        {
          "name": "A3",
          "midi": 57,
          "time": 60.642796500000536,
          "velocity": 0.8661417322834646,
          "duration": 0.20982121875000104
        },
        {
          "name": "A4",
          "midi": 69,
          "time": 60.642796500000536,
          "velocity": 0.8661417322834646,
          "duration": 0.20982121875000104
        },
        {
          "name": "G3",
          "midi": 55,
          "time": 60.85708200000054,
          "velocity": 0.8661417322834646,
          "duration": 0.10267846874999975
        },
        {
          "name": "G4",
          "midi": 67,
          "time": 60.85708200000054,
          "velocity": 0.8661417322834646,
          "duration": 0.10267846874999975
        },
        {
          "name": "F#3",
          "midi": 54,
          "time": 60.96422475000054,
          "velocity": 0.8661417322834646,
          "duration": 0.10267846874999975
        },
        {
          "name": "F#4",
          "midi": 66,
          "time": 60.96422475000054,
          "velocity": 0.8661417322834646,
          "duration": 0.10267846874999975
        },
        {
          "name": "E3",
          "midi": 52,
          "time": 61.07136750000054,
          "velocity": 0.8661417322834646,
          "duration": 0.20982121875000104
        },
        {
          "name": "E4",
          "midi": 64,
          "time": 61.07136750000054,
          "velocity": 0.8661417322834646,
          "duration": 0.20982121875000104
        },
        {
          "name": "G3",
          "midi": 55,
          "time": 61.28565300000054,
          "velocity": 0.8661417322834646,
          "duration": 0.20982121875000104
        },
        {
          "name": "G4",
          "midi": 67,
          "time": 61.28565300000054,
          "velocity": 0.8661417322834646,
          "duration": 0.20982121875000104
        },
        {
          "name": "A3",
          "midi": 57,
          "time": 61.499938500000546,
          "velocity": 0.8661417322834646,
          "duration": 0.20982121875000104
        },
        {
          "name": "A4",
          "midi": 69,
          "time": 61.499938500000546,
          "velocity": 0.8661417322834646,
          "duration": 0.20982121875000104
        },
        {
          "name": "G3",
          "midi": 55,
          "time": 61.71422400000055,
          "velocity": 0.8661417322834646,
          "duration": 0.10267846874999975
        },
        {
          "name": "G4",
          "midi": 67,
          "time": 61.71422400000055,
          "velocity": 0.8661417322834646,
          "duration": 0.10267846874999975
        },
        {
          "name": "F#3",
          "midi": 54,
          "time": 61.82136675000055,
          "velocity": 0.8661417322834646,
          "duration": 0.10267846874999975
        },
        {
          "name": "F#4",
          "midi": 66,
          "time": 61.82136675000055,
          "velocity": 0.8661417322834646,
          "duration": 0.10267846874999975
        },
        {
          "name": "E3",
          "midi": 52,
          "time": 61.92850950000055,
          "velocity": 0.8661417322834646,
          "duration": 0.20982121875000104
        },
        {
          "name": "E4",
          "midi": 64,
          "time": 61.92850950000055,
          "velocity": 0.8661417322834646,
          "duration": 0.20982121875000104
        },
        {
          "name": "G3",
          "midi": 55,
          "time": 62.142795000000554,
          "velocity": 0.8661417322834646,
          "duration": 0.20982121875000104
        },
        {
          "name": "G4",
          "midi": 67,
          "time": 62.142795000000554,
          "velocity": 0.8661417322834646,
          "duration": 0.20982121875000104
        },
        {
          "name": "A3",
          "midi": 57,
          "time": 62.357080500000556,
          "velocity": 0.8661417322834646,
          "duration": 0.20982121875000104
        },
        {
          "name": "A4",
          "midi": 69,
          "time": 62.357080500000556,
          "velocity": 0.8661417322834646,
          "duration": 0.20982121875000104
        },
        {
          "name": "G3",
          "midi": 55,
          "time": 62.57136600000056,
          "velocity": 0.8661417322834646,
          "duration": 0.10267846874999975
        },
        {
          "name": "G4",
          "midi": 67,
          "time": 62.57136600000056,
          "velocity": 0.8661417322834646,
          "duration": 0.10267846874999975
        },
        {
          "name": "F#3",
          "midi": 54,
          "time": 62.67850875000056,
          "velocity": 0.8661417322834646,
          "duration": 0.10267846874999975
        },
        {
          "name": "F#4",
          "midi": 66,
          "time": 62.67850875000056,
          "velocity": 0.8661417322834646,
          "duration": 0.10267846874999975
        },
        {
          "name": "E3",
          "midi": 52,
          "time": 62.78565150000056,
          "velocity": 0.8661417322834646,
          "duration": 0.20982121875000104
        },
        {
          "name": "E4",
          "midi": 64,
          "time": 62.78565150000056,
          "velocity": 0.8661417322834646,
          "duration": 0.20982121875000104
        },
        {
          "name": "G3",
          "midi": 55,
          "time": 62.999937000000564,
          "velocity": 0.8661417322834646,
          "duration": 0.20982121875000104
        },
        {
          "name": "G4",
          "midi": 67,
          "time": 62.999937000000564,
          "velocity": 0.8661417322834646,
          "duration": 0.20982121875000104
        },
        {
          "name": "A3",
          "midi": 57,
          "time": 63.21422250000057,
          "velocity": 0.8661417322834646,
          "duration": 0.20982121875000104
        },
        {
          "name": "A4",
          "midi": 69,
          "time": 63.21422250000057,
          "velocity": 0.8661417322834646,
          "duration": 0.20982121875000104
        },
        {
          "name": "G3",
          "midi": 55,
          "time": 63.42850800000057,
          "velocity": 0.8661417322834646,
          "duration": 0.10267846874999975
        },
        {
          "name": "G4",
          "midi": 67,
          "time": 63.42850800000057,
          "velocity": 0.8661417322834646,
          "duration": 0.10267846874999975
        },
        {
          "name": "F#3",
          "midi": 54,
          "time": 63.53565075000057,
          "velocity": 0.8661417322834646,
          "duration": 0.10267846874999975
        },
        {
          "name": "F#4",
          "midi": 66,
          "time": 63.53565075000057,
          "velocity": 0.8661417322834646,
          "duration": 0.10267846874999975
        },
        {
          "name": "E3",
          "midi": 52,
          "time": 63.64279350000057,
          "velocity": 0.8661417322834646,
          "duration": 0.20982121875000104
        },
        {
          "name": "E4",
          "midi": 64,
          "time": 63.64279350000057,
          "velocity": 0.8661417322834646,
          "duration": 0.20982121875000104
        },
        {
          "name": "G3",
          "midi": 55,
          "time": 63.857079000000574,
          "velocity": 0.8661417322834646,
          "duration": 0.20982121875000104
        },
        {
          "name": "G4",
          "midi": 67,
          "time": 63.857079000000574,
          "velocity": 0.8661417322834646,
          "duration": 0.20982121875000104
        },
        {
          "name": "A3",
          "midi": 57,
          "time": 64.07136450000057,
          "velocity": 0.8661417322834646,
          "duration": 0.20982121874999393
        },
        {
          "name": "A4",
          "midi": 69,
          "time": 64.07136450000057,
          "velocity": 0.8661417322834646,
          "duration": 0.20982121874999393
        },
        {
          "name": "G3",
          "midi": 55,
          "time": 64.28565000000056,
          "velocity": 0.8661417322834646,
          "duration": 0.10267846874999975
        },
        {
          "name": "G4",
          "midi": 67,
          "time": 64.28565000000056,
          "velocity": 0.8661417322834646,
          "duration": 0.10267846874999975
        },
        {
          "name": "F#3",
          "midi": 54,
          "time": 64.39279275000055,
          "velocity": 0.8661417322834646,
          "duration": 0.10267846874999975
        },
        {
          "name": "F#4",
          "midi": 66,
          "time": 64.39279275000055,
          "velocity": 0.8661417322834646,
          "duration": 0.10267846874999975
        },
        {
          "name": "E3",
          "midi": 52,
          "time": 64.49993550000055,
          "velocity": 0.8661417322834646,
          "duration": 0.20982121874999393
        },
        {
          "name": "E4",
          "midi": 64,
          "time": 64.49993550000055,
          "velocity": 0.8661417322834646,
          "duration": 0.20982121874999393
        },
        {
          "name": "G3",
          "midi": 55,
          "time": 64.71422100000053,
          "velocity": 0.8661417322834646,
          "duration": 0.20982121874999393
        },
        {
          "name": "G4",
          "midi": 67,
          "time": 64.71422100000053,
          "velocity": 0.8661417322834646,
          "duration": 0.20982121874999393
        },
        {
          "name": "A3",
          "midi": 57,
          "time": 64.92850650000052,
          "velocity": 0.8661417322834646,
          "duration": 0.20982121874999393
        },
        {
          "name": "A4",
          "midi": 69,
          "time": 64.92850650000052,
          "velocity": 0.8661417322834646,
          "duration": 0.20982121874999393
        },
        {
          "name": "G3",
          "midi": 55,
          "time": 65.14279200000051,
          "velocity": 0.8661417322834646,
          "duration": 0.10267846874999975
        },
        {
          "name": "G4",
          "midi": 67,
          "time": 65.14279200000051,
          "velocity": 0.8661417322834646,
          "duration": 0.10267846874999975
        },
        {
          "name": "F#3",
          "midi": 54,
          "time": 65.2499347500005,
          "velocity": 0.8661417322834646,
          "duration": 0.10267846874999975
        },
        {
          "name": "F#4",
          "midi": 66,
          "time": 65.2499347500005,
          "velocity": 0.8661417322834646,
          "duration": 0.10267846874999975
        },
        {
          "name": "E3",
          "midi": 52,
          "time": 65.3570775000005,
          "velocity": 0.8661417322834646,
          "duration": 0.20982121874999393
        },
        {
          "name": "E4",
          "midi": 64,
          "time": 65.3570775000005,
          "velocity": 0.8661417322834646,
          "duration": 0.20982121874999393
        },
        {
          "name": "G3",
          "midi": 55,
          "time": 65.57136300000049,
          "velocity": 0.8661417322834646,
          "duration": 0.20982121874999393
        },
        {
          "name": "G4",
          "midi": 67,
          "time": 65.57136300000049,
          "velocity": 0.8661417322834646,
          "duration": 0.20982121874999393
        },
        {
          "name": "A3",
          "midi": 57,
          "time": 65.78564850000048,
          "velocity": 0.8661417322834646,
          "duration": 0.20982121874999393
        },
        {
          "name": "A4",
          "midi": 69,
          "time": 65.78564850000048,
          "velocity": 0.8661417322834646,
          "duration": 0.20982121874999393
        },
        {
          "name": "G3",
          "midi": 55,
          "time": 65.99993400000047,
          "velocity": 0.8661417322834646,
          "duration": 0.10267846874999975
        },
        {
          "name": "G4",
          "midi": 67,
          "time": 65.99993400000047,
          "velocity": 0.8661417322834646,
          "duration": 0.10267846874999975
        },
        {
          "name": "F#3",
          "midi": 54,
          "time": 66.10707675000046,
          "velocity": 0.8661417322834646,
          "duration": 0.10267846874999975
        },
        {
          "name": "F#4",
          "midi": 66,
          "time": 66.10707675000046,
          "velocity": 0.8661417322834646,
          "duration": 0.10267846874999975
        },
        {
          "name": "E3",
          "midi": 52,
          "time": 66.21421950000045,
          "velocity": 0.8661417322834646,
          "duration": 0.20982121874999393
        },
        {
          "name": "E4",
          "midi": 64,
          "time": 66.21421950000045,
          "velocity": 0.8661417322834646,
          "duration": 0.20982121874999393
        },
        {
          "name": "G3",
          "midi": 55,
          "time": 66.42850500000044,
          "velocity": 0.8661417322834646,
          "duration": 0.20982121874999393
        },
        {
          "name": "G4",
          "midi": 67,
          "time": 66.42850500000044,
          "velocity": 0.8661417322834646,
          "duration": 0.20982121874999393
        },
        {
          "name": "A3",
          "midi": 57,
          "time": 66.64279050000043,
          "velocity": 0.8661417322834646,
          "duration": 0.20982121874999393
        },
        {
          "name": "A4",
          "midi": 69,
          "time": 66.64279050000043,
          "velocity": 0.8661417322834646,
          "duration": 0.20982121874999393
        },
        {
          "name": "F#3",
          "midi": 54,
          "time": 66.85707600000042,
          "velocity": 0.8661417322834646,
          "duration": 0.10267846874999975
        },
        {
          "name": "F#4",
          "midi": 66,
          "time": 66.85707600000042,
          "velocity": 0.8661417322834646,
          "duration": 0.10267846874999975
        },
        {
          "name": "E3",
          "midi": 52,
          "time": 66.96421875000041,
          "velocity": 0.8661417322834646,
          "duration": 0.10267846874999975
        },
        {
          "name": "E4",
          "midi": 64,
          "time": 66.96421875000041,
          "velocity": 0.8661417322834646,
          "duration": 0.10267846874999975
        },
        {
          "name": "D#3",
          "midi": 51,
          "time": 67.0713615000004,
          "velocity": 0.8661417322834646,
          "duration": 0.20982121874999393
        },
        {
          "name": "D#4",
          "midi": 63,
          "time": 67.0713615000004,
          "velocity": 0.8661417322834646,
          "duration": 0.20982121874999393
        },
        {
          "name": "G3",
          "midi": 55,
          "time": 67.2856470000004,
          "velocity": 0.8661417322834646,
          "duration": 0.20982121874999393
        },
        {
          "name": "G4",
          "midi": 67,
          "time": 67.2856470000004,
          "velocity": 0.8661417322834646,
          "duration": 0.20982121874999393
        },
        {
          "name": "A3",
          "midi": 57,
          "time": 67.49993250000038,
          "velocity": 0.8661417322834646,
          "duration": 0.20982121874999393
        },
        {
          "name": "A4",
          "midi": 69,
          "time": 67.49993250000038,
          "velocity": 0.8661417322834646,
          "duration": 0.20982121874999393
        },
        {
          "name": "G3",
          "midi": 55,
          "time": 67.71421800000037,
          "velocity": 0.8661417322834646,
          "duration": 0.10267846874999975
        },
        {
          "name": "G4",
          "midi": 67,
          "time": 67.71421800000037,
          "velocity": 0.8661417322834646,
          "duration": 0.10267846874999975
        },
        {
          "name": "F#3",
          "midi": 54,
          "time": 67.82136075000037,
          "velocity": 0.8661417322834646,
          "duration": 0.10267846874999975
        },
        {
          "name": "F#4",
          "midi": 66,
          "time": 67.82136075000037,
          "velocity": 0.8661417322834646,
          "duration": 0.10267846874999975
        },
        {
          "name": "E3",
          "midi": 52,
          "time": 67.92850350000036,
          "velocity": 0.8661417322834646,
          "duration": 0.20982121874999393
        },
        {
          "name": "E4",
          "midi": 64,
          "time": 67.92850350000036,
          "velocity": 0.8661417322834646,
          "duration": 0.20982121874999393
        },
        {
          "name": "G3",
          "midi": 55,
          "time": 68.14278900000035,
          "velocity": 0.8661417322834646,
          "duration": 0.20982121874999393
        },
        {
          "name": "G4",
          "midi": 67,
          "time": 68.14278900000035,
          "velocity": 0.8661417322834646,
          "duration": 0.20982121874999393
        },
        {
          "name": "A3",
          "midi": 57,
          "time": 68.35707450000034,
          "velocity": 0.8661417322834646,
          "duration": 0.20982121874999393
        },
        {
          "name": "A4",
          "midi": 69,
          "time": 68.35707450000034,
          "velocity": 0.8661417322834646,
          "duration": 0.20982121874999393
        },
        {
          "name": "G3",
          "midi": 55,
          "time": 68.57136000000033,
          "velocity": 0.8661417322834646,
          "duration": 0.10267846874999975
        },
        {
          "name": "G4",
          "midi": 67,
          "time": 68.57136000000033,
          "velocity": 0.8661417322834646,
          "duration": 0.10267846874999975
        },
        {
          "name": "F#3",
          "midi": 54,
          "time": 68.67850275000032,
          "velocity": 0.8661417322834646,
          "duration": 0.10267846874999975
        },
        {
          "name": "F#4",
          "midi": 66,
          "time": 68.67850275000032,
          "velocity": 0.8661417322834646,
          "duration": 0.10267846874999975
        },
        {
          "name": "E3",
          "midi": 52,
          "time": 68.78564550000031,
          "velocity": 0.8661417322834646,
          "duration": 0.20982121874999393
        },
        {
          "name": "E4",
          "midi": 64,
          "time": 68.78564550000031,
          "velocity": 0.8661417322834646,
          "duration": 0.20982121874999393
        },
        {
          "name": "G3",
          "midi": 55,
          "time": 68.9999310000003,
          "velocity": 0.8661417322834646,
          "duration": 0.20982121874999393
        },
        {
          "name": "G4",
          "midi": 67,
          "time": 68.9999310000003,
          "velocity": 0.8661417322834646,
          "duration": 0.20982121874999393
        },
        {
          "name": "A3",
          "midi": 57,
          "time": 69.21421650000029,
          "velocity": 0.8661417322834646,
          "duration": 0.20982121874999393
        },
        {
          "name": "A4",
          "midi": 69,
          "time": 69.21421650000029,
          "velocity": 0.8661417322834646,
          "duration": 0.20982121874999393
        },
        {
          "name": "G3",
          "midi": 55,
          "time": 69.42850200000028,
          "velocity": 0.8661417322834646,
          "duration": 0.10267846874999975
        },
        {
          "name": "G4",
          "midi": 67,
          "time": 69.42850200000028,
          "velocity": 0.8661417322834646,
          "duration": 0.10267846874999975
        },
        {
          "name": "F#3",
          "midi": 54,
          "time": 69.53564475000027,
          "velocity": 0.8661417322834646,
          "duration": 0.10267846874999975
        },
        {
          "name": "F#4",
          "midi": 66,
          "time": 69.53564475000027,
          "velocity": 0.8661417322834646,
          "duration": 0.10267846874999975
        },
        {
          "name": "E3",
          "midi": 52,
          "time": 69.64278750000027,
          "velocity": 0.8661417322834646,
          "duration": 0.20982121874999393
        },
        {
          "name": "E4",
          "midi": 64,
          "time": 69.64278750000027,
          "velocity": 0.8661417322834646,
          "duration": 0.20982121874999393
        },
        {
          "name": "G3",
          "midi": 55,
          "time": 69.85707300000026,
          "velocity": 0.8661417322834646,
          "duration": 0.20982121874999393
        },
        {
          "name": "G4",
          "midi": 67,
          "time": 69.85707300000026,
          "velocity": 0.8661417322834646,
          "duration": 0.20982121874999393
        },
        {
          "name": "A3",
          "midi": 57,
          "time": 70.07135850000024,
          "velocity": 0.8661417322834646,
          "duration": 0.20982121874999393
        },
        {
          "name": "A4",
          "midi": 69,
          "time": 70.07135850000024,
          "velocity": 0.8661417322834646,
          "duration": 0.20982121874999393
        },
        {
          "name": "F#3",
          "midi": 54,
          "time": 70.28564400000023,
          "velocity": 0.8661417322834646,
          "duration": 0.10267846874999975
        },
        {
          "name": "F#4",
          "midi": 66,
          "time": 70.28564400000023,
          "velocity": 0.8661417322834646,
          "duration": 0.10267846874999975
        },
        {
          "name": "E3",
          "midi": 52,
          "time": 70.39278675000023,
          "velocity": 0.8661417322834646,
          "duration": 0.10267846874999975
        },
        {
          "name": "E4",
          "midi": 64,
          "time": 70.39278675000023,
          "velocity": 0.8661417322834646,
          "duration": 0.10267846874999975
        },
        {
          "name": "D#3",
          "midi": 51,
          "time": 70.49992950000022,
          "velocity": 0.8661417322834646,
          "duration": 0.20982121874999393
        },
        {
          "name": "D#4",
          "midi": 63,
          "time": 70.49992950000022,
          "velocity": 0.8661417322834646,
          "duration": 0.20982121874999393
        },
        {
          "name": "G3",
          "midi": 55,
          "time": 70.71421500000021,
          "velocity": 0.8661417322834646,
          "duration": 0.20982121874999393
        },
        {
          "name": "G4",
          "midi": 67,
          "time": 70.71421500000021,
          "velocity": 0.8661417322834646,
          "duration": 0.20982121874999393
        },
        {
          "name": "A3",
          "midi": 57,
          "time": 70.9285005000002,
          "velocity": 0.8661417322834646,
          "duration": 0.20982121874999393
        },
        {
          "name": "A4",
          "midi": 69,
          "time": 70.9285005000002,
          "velocity": 0.8661417322834646,
          "duration": 0.20982121874999393
        },
        {
          "name": "G3",
          "midi": 55,
          "time": 71.14278600000019,
          "velocity": 0.8661417322834646,
          "duration": 0.10267846874999975
        },
        {
          "name": "G4",
          "midi": 67,
          "time": 71.14278600000019,
          "velocity": 0.8661417322834646,
          "duration": 0.10267846874999975
        },
        {
          "name": "F#3",
          "midi": 54,
          "time": 71.24992875000018,
          "velocity": 0.8661417322834646,
          "duration": 0.10267846874999975
        },
        {
          "name": "F#4",
          "midi": 66,
          "time": 71.24992875000018,
          "velocity": 0.8661417322834646,
          "duration": 0.10267846874999975
        },
        {
          "name": "E3",
          "midi": 52,
          "time": 71.35707150000017,
          "velocity": 0.8661417322834646,
          "duration": 0.20982121874999393
        },
        {
          "name": "E4",
          "midi": 64,
          "time": 71.35707150000017,
          "velocity": 0.8661417322834646,
          "duration": 0.20982121874999393
        },
        {
          "name": "G3",
          "midi": 55,
          "time": 71.57135700000016,
          "velocity": 0.8661417322834646,
          "duration": 0.20982121874999393
        },
        {
          "name": "G4",
          "midi": 67,
          "time": 71.57135700000016,
          "velocity": 0.8661417322834646,
          "duration": 0.20982121874999393
        },
        {
          "name": "A3",
          "midi": 57,
          "time": 71.78564250000015,
          "velocity": 0.8661417322834646,
          "duration": 0.20982121874999393
        },
        {
          "name": "A4",
          "midi": 69,
          "time": 71.78564250000015,
          "velocity": 0.8661417322834646,
          "duration": 0.20982121874999393
        },
        {
          "name": "G3",
          "midi": 55,
          "time": 71.99992800000014,
          "velocity": 0.8661417322834646,
          "duration": 0.10267846874999975
        },
        {
          "name": "G4",
          "midi": 67,
          "time": 71.99992800000014,
          "velocity": 0.8661417322834646,
          "duration": 0.10267846874999975
        },
        {
          "name": "F#3",
          "midi": 54,
          "time": 72.10707075000013,
          "velocity": 0.8661417322834646,
          "duration": 0.10267846874999975
        },
        {
          "name": "F#4",
          "midi": 66,
          "time": 72.10707075000013,
          "velocity": 0.8661417322834646,
          "duration": 0.10267846874999975
        },
        {
          "name": "E3",
          "midi": 52,
          "time": 72.21421350000013,
          "velocity": 0.8661417322834646,
          "duration": 0.20982121874999393
        },
        {
          "name": "E4",
          "midi": 64,
          "time": 72.21421350000013,
          "velocity": 0.8661417322834646,
          "duration": 0.20982121874999393
        },
        {
          "name": "G3",
          "midi": 55,
          "time": 72.42849900000012,
          "velocity": 0.8661417322834646,
          "duration": 0.20982121874999393
        },
        {
          "name": "G4",
          "midi": 67,
          "time": 72.42849900000012,
          "velocity": 0.8661417322834646,
          "duration": 0.20982121874999393
        },
        {
          "name": "A3",
          "midi": 57,
          "time": 72.6427845000001,
          "velocity": 0.8661417322834646,
          "duration": 0.20982121874999393
        },
        {
          "name": "A4",
          "midi": 69,
          "time": 72.6427845000001,
          "velocity": 0.8661417322834646,
          "duration": 0.20982121874999393
        },
        {
          "name": "G3",
          "midi": 55,
          "time": 72.85707000000009,
          "velocity": 0.8661417322834646,
          "duration": 0.10267846874999975
        },
        {
          "name": "G4",
          "midi": 67,
          "time": 72.85707000000009,
          "velocity": 0.8661417322834646,
          "duration": 0.10267846874999975
        },
        {
          "name": "F#3",
          "midi": 54,
          "time": 72.96421275000009,
          "velocity": 0.8661417322834646,
          "duration": 0.10267846874999975
        },
        {
          "name": "F#4",
          "midi": 66,
          "time": 72.96421275000009,
          "velocity": 0.8661417322834646,
          "duration": 0.10267846874999975
        },
        {
          "name": "E3",
          "midi": 52,
          "time": 73.07135550000008,
          "velocity": 0.8661417322834646,
          "duration": 0.20982121874999393
        },
        {
          "name": "E4",
          "midi": 64,
          "time": 73.07135550000008,
          "velocity": 0.8661417322834646,
          "duration": 0.20982121874999393
        },
        {
          "name": "G3",
          "midi": 55,
          "time": 73.28564100000007,
          "velocity": 0.8661417322834646,
          "duration": 0.20982121874999393
        },
        {
          "name": "G4",
          "midi": 67,
          "time": 73.28564100000007,
          "velocity": 0.8661417322834646,
          "duration": 0.20982121874999393
        },
        {
          "name": "A3",
          "midi": 57,
          "time": 73.49992650000006,
          "velocity": 0.8661417322834646,
          "duration": 0.20982121874999393
        },
        {
          "name": "A4",
          "midi": 69,
          "time": 73.49992650000006,
          "velocity": 0.8661417322834646,
          "duration": 0.20982121874999393
        },
        {
          "name": "G3",
          "midi": 55,
          "time": 73.71421200000005,
          "velocity": 0.8661417322834646,
          "duration": 0.10267846874999975
        },
        {
          "name": "G4",
          "midi": 67,
          "time": 73.71421200000005,
          "velocity": 0.8661417322834646,
          "duration": 0.10267846874999975
        },
        {
          "name": "F#3",
          "midi": 54,
          "time": 73.82135475000004,
          "velocity": 0.8661417322834646,
          "duration": 0.10267846874999975
        },
        {
          "name": "F#4",
          "midi": 66,
          "time": 73.82135475000004,
          "velocity": 0.8661417322834646,
          "duration": 0.10267846874999975
        },
        {
          "name": "E3",
          "midi": 52,
          "time": 73.92849750000003,
          "velocity": 0.8661417322834646,
          "duration": 0.20982121874999393
        },
        {
          "name": "E4",
          "midi": 64,
          "time": 73.92849750000003,
          "velocity": 0.8661417322834646,
          "duration": 0.20982121874999393
        },
        {
          "name": "G3",
          "midi": 55,
          "time": 74.14278300000002,
          "velocity": 0.8661417322834646,
          "duration": 0.20982121874999393
        },
        {
          "name": "G4",
          "midi": 67,
          "time": 74.14278300000002,
          "velocity": 0.8661417322834646,
          "duration": 0.20982121874999393
        },
        {
          "name": "A3",
          "midi": 57,
          "time": 74.35706850000001,
          "velocity": 0.8661417322834646,
          "duration": 0.20982121874999393
        },
        {
          "name": "A4",
          "midi": 69,
          "time": 74.35706850000001,
          "velocity": 0.8661417322834646,
          "duration": 0.20982121874999393
        },
        {
          "name": "G3",
          "midi": 55,
          "time": 74.571354,
          "velocity": 0.8661417322834646,
          "duration": 0.10267846874999975
        },
        {
          "name": "G4",
          "midi": 67,
          "time": 74.571354,
          "velocity": 0.8661417322834646,
          "duration": 0.10267846874999975
        },
        {
          "name": "F#3",
          "midi": 54,
          "time": 74.67849675,
          "velocity": 0.8661417322834646,
          "duration": 0.10267846874999975
        },
        {
          "name": "F#4",
          "midi": 66,
          "time": 74.67849675,
          "velocity": 0.8661417322834646,
          "duration": 0.10267846874999975
        },
        {
          "name": "E3",
          "midi": 52,
          "time": 74.78563949999999,
          "velocity": 0.8661417322834646,
          "duration": 0.20982121874999393
        },
        {
          "name": "E4",
          "midi": 64,
          "time": 74.78563949999999,
          "velocity": 0.8661417322834646,
          "duration": 0.20982121874999393
        },
        {
          "name": "G3",
          "midi": 55,
          "time": 74.99992499999998,
          "velocity": 0.8661417322834646,
          "duration": 0.20982121874999393
        },
        {
          "name": "G4",
          "midi": 67,
          "time": 74.99992499999998,
          "velocity": 0.8661417322834646,
          "duration": 0.20982121874999393
        },
        {
          "name": "A3",
          "midi": 57,
          "time": 75.21421049999996,
          "velocity": 0.8661417322834646,
          "duration": 0.20982121874999393
        },
        {
          "name": "A4",
          "midi": 69,
          "time": 75.21421049999996,
          "velocity": 0.8661417322834646,
          "duration": 0.20982121874999393
        },
        {
          "name": "G3",
          "midi": 55,
          "time": 75.42849599999995,
          "velocity": 0.8661417322834646,
          "duration": 0.10267846874999975
        },
        {
          "name": "G4",
          "midi": 67,
          "time": 75.42849599999995,
          "velocity": 0.8661417322834646,
          "duration": 0.10267846874999975
        },
        {
          "name": "F#3",
          "midi": 54,
          "time": 75.53563874999995,
          "velocity": 0.8661417322834646,
          "duration": 0.10267846874999975
        },
        {
          "name": "F#4",
          "midi": 66,
          "time": 75.53563874999995,
          "velocity": 0.8661417322834646,
          "duration": 0.10267846874999975
        },
        {
          "name": "E3",
          "midi": 52,
          "time": 75.64278149999994,
          "velocity": 0.8661417322834646,
          "duration": 0.20982121874999393
        },
        {
          "name": "E4",
          "midi": 64,
          "time": 75.64278149999994,
          "velocity": 0.8661417322834646,
          "duration": 0.20982121874999393
        },
        {
          "name": "G3",
          "midi": 55,
          "time": 75.85706699999993,
          "velocity": 0.8661417322834646,
          "duration": 0.20982121874999393
        },
        {
          "name": "G4",
          "midi": 67,
          "time": 75.85706699999993,
          "velocity": 0.8661417322834646,
          "duration": 0.20982121874999393
        },
        {
          "name": "A3",
          "midi": 57,
          "time": 76.07135249999992,
          "velocity": 0.8661417322834646,
          "duration": 0.20982121874999393
        },
        {
          "name": "A4",
          "midi": 69,
          "time": 76.07135249999992,
          "velocity": 0.8661417322834646,
          "duration": 0.20982121874999393
        },
        {
          "name": "G3",
          "midi": 55,
          "time": 76.2856379999999,
          "velocity": 0.8661417322834646,
          "duration": 0.10267846874999975
        },
        {
          "name": "G4",
          "midi": 67,
          "time": 76.2856379999999,
          "velocity": 0.8661417322834646,
          "duration": 0.10267846874999975
        },
        {
          "name": "F#3",
          "midi": 54,
          "time": 76.3927807499999,
          "velocity": 0.8661417322834646,
          "duration": 0.10267846874999975
        },
        {
          "name": "F#4",
          "midi": 66,
          "time": 76.3927807499999,
          "velocity": 0.8661417322834646,
          "duration": 0.10267846874999975
        },
        {
          "name": "E3",
          "midi": 52,
          "time": 76.4999234999999,
          "velocity": 0.8661417322834646,
          "duration": 0.20982121874999393
        },
        {
          "name": "E4",
          "midi": 64,
          "time": 76.4999234999999,
          "velocity": 0.8661417322834646,
          "duration": 0.20982121874999393
        },
        {
          "name": "G3",
          "midi": 55,
          "time": 76.71420899999988,
          "velocity": 0.8661417322834646,
          "duration": 0.20982121874999393
        },
        {
          "name": "G4",
          "midi": 67,
          "time": 76.71420899999988,
          "velocity": 0.8661417322834646,
          "duration": 0.20982121874999393
        },
        {
          "name": "A3",
          "midi": 57,
          "time": 76.92849449999987,
          "velocity": 0.8661417322834646,
          "duration": 0.20982121874999393
        },
        {
          "name": "A4",
          "midi": 69,
          "time": 76.92849449999987,
          "velocity": 0.8661417322834646,
          "duration": 0.20982121874999393
        },
        {
          "name": "G3",
          "midi": 55,
          "time": 77.14277999999986,
          "velocity": 0.8661417322834646,
          "duration": 0.10267846874999975
        },
        {
          "name": "G4",
          "midi": 67,
          "time": 77.14277999999986,
          "velocity": 0.8661417322834646,
          "duration": 0.10267846874999975
        },
        {
          "name": "F#3",
          "midi": 54,
          "time": 77.24992274999985,
          "velocity": 0.8661417322834646,
          "duration": 0.10267846874999975
        },
        {
          "name": "F#4",
          "midi": 66,
          "time": 77.24992274999985,
          "velocity": 0.8661417322834646,
          "duration": 0.10267846874999975
        },
        {
          "name": "E3",
          "midi": 52,
          "time": 77.35706549999985,
          "velocity": 0.8661417322834646,
          "duration": 0.20982121874999393
        },
        {
          "name": "E4",
          "midi": 64,
          "time": 77.35706549999985,
          "velocity": 0.8661417322834646,
          "duration": 0.20982121874999393
        },
        {
          "name": "G3",
          "midi": 55,
          "time": 77.57135099999984,
          "velocity": 0.8661417322834646,
          "duration": 0.20982121874999393
        },
        {
          "name": "G4",
          "midi": 67,
          "time": 77.57135099999984,
          "velocity": 0.8661417322834646,
          "duration": 0.20982121874999393
        },
        {
          "name": "A3",
          "midi": 57,
          "time": 77.78563649999982,
          "velocity": 0.8661417322834646,
          "duration": 0.20982121874999393
        },
        {
          "name": "A4",
          "midi": 69,
          "time": 77.78563649999982,
          "velocity": 0.8661417322834646,
          "duration": 0.20982121874999393
        },
        {
          "name": "G3",
          "midi": 55,
          "time": 77.99992199999981,
          "velocity": 0.8661417322834646,
          "duration": 0.10267846874999975
        },
        {
          "name": "G4",
          "midi": 67,
          "time": 77.99992199999981,
          "velocity": 0.8661417322834646,
          "duration": 0.10267846874999975
        },
        {
          "name": "F#3",
          "midi": 54,
          "time": 78.10706474999981,
          "velocity": 0.8661417322834646,
          "duration": 0.10267846874999975
        },
        {
          "name": "F#4",
          "midi": 66,
          "time": 78.10706474999981,
          "velocity": 0.8661417322834646,
          "duration": 0.10267846874999975
        },
        {
          "name": "E3",
          "midi": 52,
          "time": 78.2142074999998,
          "velocity": 0.8661417322834646,
          "duration": 0.20982121874999393
        },
        {
          "name": "E4",
          "midi": 64,
          "time": 78.2142074999998,
          "velocity": 0.8661417322834646,
          "duration": 0.20982121874999393
        },
        {
          "name": "G3",
          "midi": 55,
          "time": 78.42849299999979,
          "velocity": 0.8661417322834646,
          "duration": 0.20982121874999393
        },
        {
          "name": "G4",
          "midi": 67,
          "time": 78.42849299999979,
          "velocity": 0.8661417322834646,
          "duration": 0.20982121874999393
        },
        {
          "name": "A3",
          "midi": 57,
          "time": 78.64277849999978,
          "velocity": 0.8661417322834646,
          "duration": 0.20982121874999393
        },
        {
          "name": "A4",
          "midi": 69,
          "time": 78.64277849999978,
          "velocity": 0.8661417322834646,
          "duration": 0.20982121874999393
        },
        {
          "name": "G3",
          "midi": 55,
          "time": 78.85706399999977,
          "velocity": 0.8661417322834646,
          "duration": 0.10267846874999975
        },
        {
          "name": "G4",
          "midi": 67,
          "time": 78.85706399999977,
          "velocity": 0.8661417322834646,
          "duration": 0.10267846874999975
        },
        {
          "name": "F#3",
          "midi": 54,
          "time": 78.96420674999976,
          "velocity": 0.8661417322834646,
          "duration": 0.10267846874999975
        },
        {
          "name": "F#4",
          "midi": 66,
          "time": 78.96420674999976,
          "velocity": 0.8661417322834646,
          "duration": 0.10267846874999975
        },
        {
          "name": "E3",
          "midi": 52,
          "time": 79.07134949999976,
          "velocity": 0.8661417322834646,
          "duration": 0.20982121874999393
        },
        {
          "name": "E4",
          "midi": 64,
          "time": 79.07134949999976,
          "velocity": 0.8661417322834646,
          "duration": 0.20982121874999393
        },
        {
          "name": "G3",
          "midi": 55,
          "time": 79.28563499999974,
          "velocity": 0.8661417322834646,
          "duration": 0.20982121874999393
        },
        {
          "name": "G4",
          "midi": 67,
          "time": 79.28563499999974,
          "velocity": 0.8661417322834646,
          "duration": 0.20982121874999393
        },
        {
          "name": "A3",
          "midi": 57,
          "time": 79.49992049999973,
          "velocity": 0.8661417322834646,
          "duration": 0.20982121874999393
        },
        {
          "name": "A4",
          "midi": 69,
          "time": 79.49992049999973,
          "velocity": 0.8661417322834646,
          "duration": 0.20982121874999393
        },
        {
          "name": "G3",
          "midi": 55,
          "time": 79.71420599999972,
          "velocity": 0.8661417322834646,
          "duration": 0.10267846874999975
        },
        {
          "name": "G4",
          "midi": 67,
          "time": 79.71420599999972,
          "velocity": 0.8661417322834646,
          "duration": 0.10267846874999975
        },
        {
          "name": "F#3",
          "midi": 54,
          "time": 79.82134874999971,
          "velocity": 0.8661417322834646,
          "duration": 0.10267846874999975
        },
        {
          "name": "F#4",
          "midi": 66,
          "time": 79.82134874999971,
          "velocity": 0.8661417322834646,
          "duration": 0.10267846874999975
        },
        {
          "name": "E3",
          "midi": 52,
          "time": 79.92849149999971,
          "velocity": 0.8661417322834646,
          "duration": 0.20982121874999393
        },
        {
          "name": "E4",
          "midi": 64,
          "time": 79.92849149999971,
          "velocity": 0.8661417322834646,
          "duration": 0.20982121874999393
        },
        {
          "name": "G3",
          "midi": 55,
          "time": 80.1427769999997,
          "velocity": 0.8661417322834646,
          "duration": 0.20982121874999393
        },
        {
          "name": "G4",
          "midi": 67,
          "time": 80.1427769999997,
          "velocity": 0.8661417322834646,
          "duration": 0.20982121874999393
        },
        {
          "name": "A3",
          "midi": 57,
          "time": 80.35706249999969,
          "velocity": 0.8661417322834646,
          "duration": 0.20982121874999393
        },
        {
          "name": "A4",
          "midi": 69,
          "time": 80.35706249999969,
          "velocity": 0.8661417322834646,
          "duration": 0.20982121874999393
        },
        {
          "name": "G3",
          "midi": 55,
          "time": 80.57134799999967,
          "velocity": 0.8661417322834646,
          "duration": 0.10267846874999975
        },
        {
          "name": "G4",
          "midi": 67,
          "time": 80.57134799999967,
          "velocity": 0.8661417322834646,
          "duration": 0.10267846874999975
        },
        {
          "name": "F#3",
          "midi": 54,
          "time": 80.67849074999967,
          "velocity": 0.8661417322834646,
          "duration": 0.10267846874999975
        },
        {
          "name": "F#4",
          "midi": 66,
          "time": 80.67849074999967,
          "velocity": 0.8661417322834646,
          "duration": 0.10267846874999975
        },
        {
          "name": "E3",
          "midi": 52,
          "time": 80.78563349999966,
          "velocity": 0.8661417322834646,
          "duration": 0.20982121874999393
        },
        {
          "name": "E4",
          "midi": 64,
          "time": 80.78563349999966,
          "velocity": 0.8661417322834646,
          "duration": 0.20982121874999393
        },
        {
          "name": "G3",
          "midi": 55,
          "time": 80.99991899999965,
          "velocity": 0.8661417322834646,
          "duration": 0.20982121874999393
        },
        {
          "name": "G4",
          "midi": 67,
          "time": 80.99991899999965,
          "velocity": 0.8661417322834646,
          "duration": 0.20982121874999393
        },
        {
          "name": "A3",
          "midi": 57,
          "time": 81.21420449999964,
          "velocity": 0.8661417322834646,
          "duration": 0.20982121874999393
        },
        {
          "name": "A4",
          "midi": 69,
          "time": 81.21420449999964,
          "velocity": 0.8661417322834646,
          "duration": 0.20982121874999393
        },
        {
          "name": "G3",
          "midi": 55,
          "time": 81.42848999999963,
          "velocity": 0.8661417322834646,
          "duration": 0.10267846874999975
        },
        {
          "name": "G4",
          "midi": 67,
          "time": 81.42848999999963,
          "velocity": 0.8661417322834646,
          "duration": 0.10267846874999975
        },
        {
          "name": "F#3",
          "midi": 54,
          "time": 81.53563274999962,
          "velocity": 0.8661417322834646,
          "duration": 0.10267846874999975
        },
        {
          "name": "F#4",
          "midi": 66,
          "time": 81.53563274999962,
          "velocity": 0.8661417322834646,
          "duration": 0.10267846874999975
        },
        {
          "name": "E3",
          "midi": 52,
          "time": 81.64277549999962,
          "velocity": 0.8661417322834646,
          "duration": 0.20982121874999393
        },
        {
          "name": "E4",
          "midi": 64,
          "time": 81.64277549999962,
          "velocity": 0.8661417322834646,
          "duration": 0.20982121874999393
        },
        {
          "name": "G3",
          "midi": 55,
          "time": 81.8570609999996,
          "velocity": 0.8661417322834646,
          "duration": 0.20982121874999393
        },
        {
          "name": "G4",
          "midi": 67,
          "time": 81.8570609999996,
          "velocity": 0.8661417322834646,
          "duration": 0.20982121874999393
        },
        {
          "name": "A3",
          "midi": 57,
          "time": 82.07134649999959,
          "velocity": 0.8661417322834646,
          "duration": 0.20982121874999393
        },
        {
          "name": "A4",
          "midi": 69,
          "time": 82.07134649999959,
          "velocity": 0.8661417322834646,
          "duration": 0.20982121874999393
        },
        {
          "name": "G3",
          "midi": 55,
          "time": 82.28563199999958,
          "velocity": 0.8661417322834646,
          "duration": 0.10267846874999975
        },
        {
          "name": "G4",
          "midi": 67,
          "time": 82.28563199999958,
          "velocity": 0.8661417322834646,
          "duration": 0.10267846874999975
        },
        {
          "name": "F#3",
          "midi": 54,
          "time": 82.39277474999957,
          "velocity": 0.8661417322834646,
          "duration": 0.10267846874999975
        },
        {
          "name": "F#4",
          "midi": 66,
          "time": 82.39277474999957,
          "velocity": 0.8661417322834646,
          "duration": 0.10267846874999975
        },
        {
          "name": "E3",
          "midi": 52,
          "time": 82.49991749999957,
          "velocity": 0.8661417322834646,
          "duration": 0.20982121874999393
        },
        {
          "name": "E4",
          "midi": 64,
          "time": 82.49991749999957,
          "velocity": 0.8661417322834646,
          "duration": 0.20982121874999393
        },
        {
          "name": "G3",
          "midi": 55,
          "time": 82.71420299999956,
          "velocity": 0.8661417322834646,
          "duration": 0.20982121874999393
        },
        {
          "name": "G4",
          "midi": 67,
          "time": 82.71420299999956,
          "velocity": 0.8661417322834646,
          "duration": 0.20982121874999393
        },
        {
          "name": "A3",
          "midi": 57,
          "time": 82.92848849999955,
          "velocity": 0.8661417322834646,
          "duration": 0.20982121874999393
        },
        {
          "name": "A4",
          "midi": 69,
          "time": 82.92848849999955,
          "velocity": 0.8661417322834646,
          "duration": 0.20982121874999393
        },
        {
          "name": "G3",
          "midi": 55,
          "time": 83.14277399999953,
          "velocity": 0.8661417322834646,
          "duration": 0.10267846874999975
        },
        {
          "name": "G4",
          "midi": 67,
          "time": 83.14277399999953,
          "velocity": 0.8661417322834646,
          "duration": 0.10267846874999975
        },
        {
          "name": "F#3",
          "midi": 54,
          "time": 83.24991674999953,
          "velocity": 0.8661417322834646,
          "duration": 0.10267846874999975
        },
        {
          "name": "F#4",
          "midi": 66,
          "time": 83.24991674999953,
          "velocity": 0.8661417322834646,
          "duration": 0.10267846874999975
        },
        {
          "name": "E3",
          "midi": 52,
          "time": 83.35705949999952,
          "velocity": 0.8661417322834646,
          "duration": 0.20982121874999393
        },
        {
          "name": "E4",
          "midi": 64,
          "time": 83.35705949999952,
          "velocity": 0.8661417322834646,
          "duration": 0.20982121874999393
        },
        {
          "name": "G3",
          "midi": 55,
          "time": 83.57134499999951,
          "velocity": 0.8661417322834646,
          "duration": 0.20982121874999393
        },
        {
          "name": "G4",
          "midi": 67,
          "time": 83.57134499999951,
          "velocity": 0.8661417322834646,
          "duration": 0.20982121874999393
        },
        {
          "name": "A3",
          "midi": 57,
          "time": 83.7856304999995,
          "velocity": 0.8661417322834646,
          "duration": 0.20982121874999393
        },
        {
          "name": "A4",
          "midi": 69,
          "time": 83.7856304999995,
          "velocity": 0.8661417322834646,
          "duration": 0.20982121874999393
        },
        {
          "name": "G3",
          "midi": 55,
          "time": 83.99991599999949,
          "velocity": 0.8661417322834646,
          "duration": 0.10267846874999975
        },
        {
          "name": "G4",
          "midi": 67,
          "time": 83.99991599999949,
          "velocity": 0.8661417322834646,
          "duration": 0.10267846874999975
        },
        {
          "name": "F#3",
          "midi": 54,
          "time": 84.10705874999948,
          "velocity": 0.8661417322834646,
          "duration": 0.10267846874999975
        },
        {
          "name": "F#4",
          "midi": 66,
          "time": 84.10705874999948,
          "velocity": 0.8661417322834646,
          "duration": 0.10267846874999975
        },
        {
          "name": "E3",
          "midi": 52,
          "time": 84.21420149999948,
          "velocity": 0.8661417322834646,
          "duration": 0.20982121874999393
        },
        {
          "name": "E4",
          "midi": 64,
          "time": 84.21420149999948,
          "velocity": 0.8661417322834646,
          "duration": 0.20982121874999393
        },
        {
          "name": "B3",
          "midi": 59,
          "time": 84.42848699999946,
          "velocity": 0.8661417322834646,
          "duration": 0.20982121874999393
        },
        {
          "name": "G4",
          "midi": 67,
          "time": 84.42848699999946,
          "velocity": 0.8661417322834646,
          "duration": 0.20982121874999393
        },
        {
          "name": "G5",
          "midi": 79,
          "time": 84.42848699999946,
          "velocity": 0.8661417322834646,
          "duration": 0.20982121874999393
        },
        {
          "name": "C4",
          "midi": 60,
          "time": 84.64277249999945,
          "velocity": 0.8661417322834646,
          "duration": 0.20982121874999393
        },
        {
          "name": "A4",
          "midi": 69,
          "time": 84.64277249999945,
          "velocity": 0.8661417322834646,
          "duration": 0.20982121874999393
        },
        {
          "name": "A5",
          "midi": 81,
          "time": 84.64277249999945,
          "velocity": 0.8661417322834646,
          "duration": 0.20982121874999393
        },
        {
          "name": "B3",
          "midi": 59,
          "time": 84.85705799999944,
          "velocity": 0.8661417322834646,
          "duration": 0.10267846874999975
        },
        {
          "name": "G4",
          "midi": 67,
          "time": 84.85705799999944,
          "velocity": 0.8661417322834646,
          "duration": 0.10267846874999975
        },
        {
          "name": "G5",
          "midi": 79,
          "time": 84.85705799999944,
          "velocity": 0.8661417322834646,
          "duration": 0.10267846874999975
        },
        {
          "name": "A3",
          "midi": 57,
          "time": 84.96420074999943,
          "velocity": 0.8661417322834646,
          "duration": 0.10267846874999975
        },
        {
          "name": "F#4",
          "midi": 66,
          "time": 84.96420074999943,
          "velocity": 0.8661417322834646,
          "duration": 0.10267846874999975
        },
        {
          "name": "F#5",
          "midi": 78,
          "time": 84.96420074999943,
          "velocity": 0.8661417322834646,
          "duration": 0.10267846874999975
        },
        {
          "name": "G3",
          "midi": 55,
          "time": 85.07134349999943,
          "velocity": 0.8661417322834646,
          "duration": 0.20982121874999393
        },
        {
          "name": "E4",
          "midi": 64,
          "time": 85.07134349999943,
          "velocity": 0.8661417322834646,
          "duration": 0.20982121874999393
        },
        {
          "name": "E5",
          "midi": 76,
          "time": 85.07134349999943,
          "velocity": 0.8661417322834646,
          "duration": 0.20982121874999393
        },
        {
          "name": "B3",
          "midi": 59,
          "time": 85.28562899999942,
          "velocity": 0.8661417322834646,
          "duration": 0.20982121874999393
        },
        {
          "name": "G4",
          "midi": 67,
          "time": 85.28562899999942,
          "velocity": 0.8661417322834646,
          "duration": 0.20982121874999393
        },
        {
          "name": "G5",
          "midi": 79,
          "time": 85.28562899999942,
          "velocity": 0.8661417322834646,
          "duration": 0.20982121874999393
        },
        {
          "name": "C4",
          "midi": 60,
          "time": 85.4999144999994,
          "velocity": 0.8661417322834646,
          "duration": 0.20982121874999393
        },
        {
          "name": "A4",
          "midi": 69,
          "time": 85.4999144999994,
          "velocity": 0.8661417322834646,
          "duration": 0.20982121874999393
        },
        {
          "name": "A5",
          "midi": 81,
          "time": 85.4999144999994,
          "velocity": 0.8661417322834646,
          "duration": 0.20982121874999393
        },
        {
          "name": "B3",
          "midi": 59,
          "time": 85.7141999999994,
          "velocity": 0.8661417322834646,
          "duration": 0.10267846874999975
        },
        {
          "name": "G4",
          "midi": 67,
          "time": 85.7141999999994,
          "velocity": 0.8661417322834646,
          "duration": 0.10267846874999975
        },
        {
          "name": "G5",
          "midi": 79,
          "time": 85.7141999999994,
          "velocity": 0.8661417322834646,
          "duration": 0.10267846874999975
        },
        {
          "name": "A3",
          "midi": 57,
          "time": 85.82134274999939,
          "velocity": 0.8661417322834646,
          "duration": 0.10267846874999975
        },
        {
          "name": "F#4",
          "midi": 66,
          "time": 85.82134274999939,
          "velocity": 0.8661417322834646,
          "duration": 0.10267846874999975
        },
        {
          "name": "F#5",
          "midi": 78,
          "time": 85.82134274999939,
          "velocity": 0.8661417322834646,
          "duration": 0.10267846874999975
        },
        {
          "name": "G3",
          "midi": 55,
          "time": 85.92848549999938,
          "velocity": 0.8661417322834646,
          "duration": 0.20982121874999393
        },
        {
          "name": "E4",
          "midi": 64,
          "time": 85.92848549999938,
          "velocity": 0.8661417322834646,
          "duration": 0.20982121874999393
        },
        {
          "name": "E5",
          "midi": 76,
          "time": 85.92848549999938,
          "velocity": 0.8661417322834646,
          "duration": 0.20982121874999393
        },
        {
          "name": "B3",
          "midi": 59,
          "time": 86.14277099999937,
          "velocity": 0.8661417322834646,
          "duration": 0.20982121874999393
        },
        {
          "name": "G4",
          "midi": 67,
          "time": 86.14277099999937,
          "velocity": 0.8661417322834646,
          "duration": 0.20982121874999393
        },
        {
          "name": "G5",
          "midi": 79,
          "time": 86.14277099999937,
          "velocity": 0.8661417322834646,
          "duration": 0.20982121874999393
        },
        {
          "name": "C4",
          "midi": 60,
          "time": 86.35705649999936,
          "velocity": 0.8661417322834646,
          "duration": 0.20982121874999393
        },
        {
          "name": "A4",
          "midi": 69,
          "time": 86.35705649999936,
          "velocity": 0.8661417322834646,
          "duration": 0.20982121874999393
        },
        {
          "name": "A5",
          "midi": 81,
          "time": 86.35705649999936,
          "velocity": 0.8661417322834646,
          "duration": 0.20982121874999393
        },
        {
          "name": "B3",
          "midi": 59,
          "time": 86.57134199999935,
          "velocity": 0.8661417322834646,
          "duration": 0.10267846874999975
        },
        {
          "name": "G4",
          "midi": 67,
          "time": 86.57134199999935,
          "velocity": 0.8661417322834646,
          "duration": 0.10267846874999975
        },
        {
          "name": "G5",
          "midi": 79,
          "time": 86.57134199999935,
          "velocity": 0.8661417322834646,
          "duration": 0.10267846874999975
        },
        {
          "name": "A3",
          "midi": 57,
          "time": 86.67848474999934,
          "velocity": 0.8661417322834646,
          "duration": 0.10267846874999975
        },
        {
          "name": "F#4",
          "midi": 66,
          "time": 86.67848474999934,
          "velocity": 0.8661417322834646,
          "duration": 0.10267846874999975
        },
        {
          "name": "F#5",
          "midi": 78,
          "time": 86.67848474999934,
          "velocity": 0.8661417322834646,
          "duration": 0.10267846874999975
        },
        {
          "name": "G3",
          "midi": 55,
          "time": 86.78562749999934,
          "velocity": 0.8661417322834646,
          "duration": 0.20982121874999393
        },
        {
          "name": "E4",
          "midi": 64,
          "time": 86.78562749999934,
          "velocity": 0.8661417322834646,
          "duration": 0.20982121874999393
        },
        {
          "name": "E5",
          "midi": 76,
          "time": 86.78562749999934,
          "velocity": 0.8661417322834646,
          "duration": 0.20982121874999393
        },
        {
          "name": "A3",
          "midi": 57,
          "time": 86.99991299999932,
          "velocity": 0.8661417322834646,
          "duration": 0.20982121874999393
        },
        {
          "name": "F#4",
          "midi": 66,
          "time": 86.99991299999932,
          "velocity": 0.8661417322834646,
          "duration": 0.20982121874999393
        },
        {
          "name": "F#5",
          "midi": 78,
          "time": 86.99991299999932,
          "velocity": 0.8661417322834646,
          "duration": 0.20982121874999393
        },
        {
          "name": "B3",
          "midi": 59,
          "time": 87.21419849999931,
          "velocity": 0.8661417322834646,
          "duration": 0.20982121874999393
        },
        {
          "name": "G4",
          "midi": 67,
          "time": 87.21419849999931,
          "velocity": 0.8661417322834646,
          "duration": 0.20982121874999393
        },
        {
          "name": "G5",
          "midi": 79,
          "time": 87.21419849999931,
          "velocity": 0.8661417322834646,
          "duration": 0.20982121874999393
        },
        {
          "name": "A3",
          "midi": 57,
          "time": 87.4284839999993,
          "velocity": 0.8661417322834646,
          "duration": 0.10267846874999975
        },
        {
          "name": "F#4",
          "midi": 66,
          "time": 87.4284839999993,
          "velocity": 0.8661417322834646,
          "duration": 0.10267846874999975
        },
        {
          "name": "F#5",
          "midi": 78,
          "time": 87.4284839999993,
          "velocity": 0.8661417322834646,
          "duration": 0.10267846874999975
        },
        {
          "name": "G3",
          "midi": 55,
          "time": 87.5356267499993,
          "velocity": 0.8661417322834646,
          "duration": 0.10267846874999975
        },
        {
          "name": "E4",
          "midi": 64,
          "time": 87.5356267499993,
          "velocity": 0.8661417322834646,
          "duration": 0.10267846874999975
        },
        {
          "name": "E5",
          "midi": 76,
          "time": 87.5356267499993,
          "velocity": 0.8661417322834646,
          "duration": 0.10267846874999975
        },
        {
          "name": "F#3",
          "midi": 54,
          "time": 87.64276949999929,
          "velocity": 0.8661417322834646,
          "duration": 0.20982121874999393
        },
        {
          "name": "D#4",
          "midi": 63,
          "time": 87.64276949999929,
          "velocity": 0.8661417322834646,
          "duration": 0.20982121874999393
        },
        {
          "name": "D#5",
          "midi": 75,
          "time": 87.64276949999929,
          "velocity": 0.8661417322834646,
          "duration": 0.20982121874999393
        },
        {
          "name": "B3",
          "midi": 59,
          "time": 87.85705499999928,
          "velocity": 0.8661417322834646,
          "duration": 0.20982121874999393
        },
        {
          "name": "G4",
          "midi": 67,
          "time": 87.85705499999928,
          "velocity": 0.8661417322834646,
          "duration": 0.20982121874999393
        },
        {
          "name": "G5",
          "midi": 79,
          "time": 87.85705499999928,
          "velocity": 0.8661417322834646,
          "duration": 0.20982121874999393
        },
        {
          "name": "C4",
          "midi": 60,
          "time": 88.07134049999927,
          "velocity": 0.8661417322834646,
          "duration": 0.20982121874999393
        },
        {
          "name": "A4",
          "midi": 69,
          "time": 88.07134049999927,
          "velocity": 0.8661417322834646,
          "duration": 0.20982121874999393
        },
        {
          "name": "A5",
          "midi": 81,
          "time": 88.07134049999927,
          "velocity": 0.8661417322834646,
          "duration": 0.20982121874999393
        },
        {
          "name": "B3",
          "midi": 59,
          "time": 88.28562599999925,
          "velocity": 0.8661417322834646,
          "duration": 0.10267846874999975
        },
        {
          "name": "G4",
          "midi": 67,
          "time": 88.28562599999925,
          "velocity": 0.8661417322834646,
          "duration": 0.10267846874999975
        },
        {
          "name": "G5",
          "midi": 79,
          "time": 88.28562599999925,
          "velocity": 0.8661417322834646,
          "duration": 0.10267846874999975
        },
        {
          "name": "A3",
          "midi": 57,
          "time": 88.39276874999925,
          "velocity": 0.8661417322834646,
          "duration": 0.10267846874999975
        },
        {
          "name": "F#4",
          "midi": 66,
          "time": 88.39276874999925,
          "velocity": 0.8661417322834646,
          "duration": 0.10267846874999975
        },
        {
          "name": "F#5",
          "midi": 78,
          "time": 88.39276874999925,
          "velocity": 0.8661417322834646,
          "duration": 0.10267846874999975
        },
        {
          "name": "G3",
          "midi": 55,
          "time": 88.49991149999924,
          "velocity": 0.8661417322834646,
          "duration": 0.20982121874999393
        },
        {
          "name": "E4",
          "midi": 64,
          "time": 88.49991149999924,
          "velocity": 0.8661417322834646,
          "duration": 0.20982121874999393
        },
        {
          "name": "E5",
          "midi": 76,
          "time": 88.49991149999924,
          "velocity": 0.8661417322834646,
          "duration": 0.20982121874999393
        },
        {
          "name": "B3",
          "midi": 59,
          "time": 88.71419699999923,
          "velocity": 0.8661417322834646,
          "duration": 0.20982121874999393
        },
        {
          "name": "G4",
          "midi": 67,
          "time": 88.71419699999923,
          "velocity": 0.8661417322834646,
          "duration": 0.20982121874999393
        },
        {
          "name": "G5",
          "midi": 79,
          "time": 88.71419699999923,
          "velocity": 0.8661417322834646,
          "duration": 0.20982121874999393
        },
        {
          "name": "C4",
          "midi": 60,
          "time": 88.92848249999922,
          "velocity": 0.8661417322834646,
          "duration": 0.20982121874999393
        },
        {
          "name": "A4",
          "midi": 69,
          "time": 88.92848249999922,
          "velocity": 0.8661417322834646,
          "duration": 0.20982121874999393
        },
        {
          "name": "A5",
          "midi": 81,
          "time": 88.92848249999922,
          "velocity": 0.8661417322834646,
          "duration": 0.20982121874999393
        },
        {
          "name": "B3",
          "midi": 59,
          "time": 89.14276799999921,
          "velocity": 0.8661417322834646,
          "duration": 0.10267846874999975
        },
        {
          "name": "G4",
          "midi": 67,
          "time": 89.14276799999921,
          "velocity": 0.8661417322834646,
          "duration": 0.10267846874999975
        },
        {
          "name": "G5",
          "midi": 79,
          "time": 89.14276799999921,
          "velocity": 0.8661417322834646,
          "duration": 0.10267846874999975
        },
        {
          "name": "A3",
          "midi": 57,
          "time": 89.2499107499992,
          "velocity": 0.8661417322834646,
          "duration": 0.10267846874999975
        },
        {
          "name": "F#4",
          "midi": 66,
          "time": 89.2499107499992,
          "velocity": 0.8661417322834646,
          "duration": 0.10267846874999975
        },
        {
          "name": "F#5",
          "midi": 78,
          "time": 89.2499107499992,
          "velocity": 0.8661417322834646,
          "duration": 0.10267846874999975
        },
        {
          "name": "G3",
          "midi": 55,
          "time": 89.3570534999992,
          "velocity": 0.8661417322834646,
          "duration": 0.20982121874999393
        },
        {
          "name": "E4",
          "midi": 64,
          "time": 89.3570534999992,
          "velocity": 0.8661417322834646,
          "duration": 0.20982121874999393
        },
        {
          "name": "E5",
          "midi": 76,
          "time": 89.3570534999992,
          "velocity": 0.8661417322834646,
          "duration": 0.20982121874999393
        },
        {
          "name": "B3",
          "midi": 59,
          "time": 89.57133899999918,
          "velocity": 0.8661417322834646,
          "duration": 0.20982121874999393
        },
        {
          "name": "G4",
          "midi": 67,
          "time": 89.57133899999918,
          "velocity": 0.8661417322834646,
          "duration": 0.20982121874999393
        },
        {
          "name": "G5",
          "midi": 79,
          "time": 89.57133899999918,
          "velocity": 0.8661417322834646,
          "duration": 0.20982121874999393
        },
        {
          "name": "C4",
          "midi": 60,
          "time": 89.78562449999917,
          "velocity": 0.8661417322834646,
          "duration": 0.20982121874999393
        },
        {
          "name": "A4",
          "midi": 69,
          "time": 89.78562449999917,
          "velocity": 0.8661417322834646,
          "duration": 0.20982121874999393
        },
        {
          "name": "A5",
          "midi": 81,
          "time": 89.78562449999917,
          "velocity": 0.8661417322834646,
          "duration": 0.20982121874999393
        },
        {
          "name": "B3",
          "midi": 59,
          "time": 89.99990999999916,
          "velocity": 0.8661417322834646,
          "duration": 0.10267846874999975
        },
        {
          "name": "G4",
          "midi": 67,
          "time": 89.99990999999916,
          "velocity": 0.8661417322834646,
          "duration": 0.10267846874999975
        },
        {
          "name": "G5",
          "midi": 79,
          "time": 89.99990999999916,
          "velocity": 0.8661417322834646,
          "duration": 0.10267846874999975
        },
        {
          "name": "A3",
          "midi": 57,
          "time": 90.10705274999916,
          "velocity": 0.8661417322834646,
          "duration": 0.10267846874999975
        },
        {
          "name": "F#4",
          "midi": 66,
          "time": 90.10705274999916,
          "velocity": 0.8661417322834646,
          "duration": 0.10267846874999975
        },
        {
          "name": "F#5",
          "midi": 78,
          "time": 90.10705274999916,
          "velocity": 0.8661417322834646,
          "duration": 0.10267846874999975
        },
        {
          "name": "G3",
          "midi": 55,
          "time": 90.21419549999915,
          "velocity": 0.8661417322834646,
          "duration": 0.20982121874999393
        },
        {
          "name": "E4",
          "midi": 64,
          "time": 90.21419549999915,
          "velocity": 0.8661417322834646,
          "duration": 0.20982121874999393
        },
        {
          "name": "E5",
          "midi": 76,
          "time": 90.21419549999915,
          "velocity": 0.8661417322834646,
          "duration": 0.20982121874999393
        },
        {
          "name": "A3",
          "midi": 57,
          "time": 90.42848099999914,
          "velocity": 0.8661417322834646,
          "duration": 0.20982121874999393
        },
        {
          "name": "F#4",
          "midi": 66,
          "time": 90.42848099999914,
          "velocity": 0.8661417322834646,
          "duration": 0.20982121874999393
        },
        {
          "name": "F#5",
          "midi": 78,
          "time": 90.42848099999914,
          "velocity": 0.8661417322834646,
          "duration": 0.20982121874999393
        },
        {
          "name": "B3",
          "midi": 59,
          "time": 90.64276649999913,
          "velocity": 0.8661417322834646,
          "duration": 0.20982121874999393
        },
        {
          "name": "G4",
          "midi": 67,
          "time": 90.64276649999913,
          "velocity": 0.8661417322834646,
          "duration": 0.20982121874999393
        },
        {
          "name": "G5",
          "midi": 79,
          "time": 90.64276649999913,
          "velocity": 0.8661417322834646,
          "duration": 0.20982121874999393
        },
        {
          "name": "A3",
          "midi": 57,
          "time": 90.85705199999911,
          "velocity": 0.8661417322834646,
          "duration": 0.10267846874999975
        },
        {
          "name": "F#4",
          "midi": 66,
          "time": 90.85705199999911,
          "velocity": 0.8661417322834646,
          "duration": 0.10267846874999975
        },
        {
          "name": "F#5",
          "midi": 78,
          "time": 90.85705199999911,
          "velocity": 0.8661417322834646,
          "duration": 0.10267846874999975
        },
        {
          "name": "G3",
          "midi": 55,
          "time": 90.96419474999911,
          "velocity": 0.8661417322834646,
          "duration": 0.10267846874999975
        },
        {
          "name": "E4",
          "midi": 64,
          "time": 90.96419474999911,
          "velocity": 0.8661417322834646,
          "duration": 0.10267846874999975
        },
        {
          "name": "E5",
          "midi": 76,
          "time": 90.96419474999911,
          "velocity": 0.8661417322834646,
          "duration": 0.10267846874999975
        },
        {
          "name": "F#3",
          "midi": 54,
          "time": 91.0713374999991,
          "velocity": 0.8661417322834646,
          "duration": 0.20982121874999393
        },
        {
          "name": "D#4",
          "midi": 63,
          "time": 91.0713374999991,
          "velocity": 0.8661417322834646,
          "duration": 0.20982121874999393
        },
        {
          "name": "D#5",
          "midi": 75,
          "time": 91.0713374999991,
          "velocity": 0.8661417322834646,
          "duration": 0.20982121874999393
        },
        {
          "name": "G4",
          "midi": 67,
          "time": 91.28562299999909,
          "velocity": 0.8661417322834646,
          "duration": 0.20982121874999393
        },
        {
          "name": "G5",
          "midi": 79,
          "time": 91.28562299999909,
          "velocity": 0.8661417322834646,
          "duration": 0.20982121874999393
        },
        {
          "name": "A4",
          "midi": 69,
          "time": 91.49990849999908,
          "velocity": 0.8661417322834646,
          "duration": 0.20982121874999393
        },
        {
          "name": "A5",
          "midi": 81,
          "time": 91.49990849999908,
          "velocity": 0.8661417322834646,
          "duration": 0.20982121874999393
        },
        {
          "name": "G4",
          "midi": 67,
          "time": 91.71419399999907,
          "velocity": 0.8661417322834646,
          "duration": 0.10267846874999975
        },
        {
          "name": "G5",
          "midi": 79,
          "time": 91.71419399999907,
          "velocity": 0.8661417322834646,
          "duration": 0.10267846874999975
        },
        {
          "name": "F#4",
          "midi": 66,
          "time": 91.82133674999906,
          "velocity": 0.8661417322834646,
          "duration": 0.10267846874999975
        },
        {
          "name": "F#5",
          "midi": 78,
          "time": 91.82133674999906,
          "velocity": 0.8661417322834646,
          "duration": 0.10267846874999975
        },
        {
          "name": "E4",
          "midi": 64,
          "time": 91.92847949999906,
          "velocity": 0.8661417322834646,
          "duration": 0.20982121874999393
        },
        {
          "name": "E5",
          "midi": 76,
          "time": 91.92847949999906,
          "velocity": 0.8661417322834646,
          "duration": 0.20982121874999393
        },
        {
          "name": "G4",
          "midi": 67,
          "time": 92.14276499999905,
          "velocity": 0.8661417322834646,
          "duration": 0.20982121874999393
        },
        {
          "name": "G5",
          "midi": 79,
          "time": 92.14276499999905,
          "velocity": 0.8661417322834646,
          "duration": 0.20982121874999393
        },
        {
          "name": "A4",
          "midi": 69,
          "time": 92.35705049999903,
          "velocity": 0.8661417322834646,
          "duration": 0.20982121874999393
        },
        {
          "name": "A5",
          "midi": 81,
          "time": 92.35705049999903,
          "velocity": 0.8661417322834646,
          "duration": 0.20982121874999393
        },
        {
          "name": "G4",
          "midi": 67,
          "time": 92.57133599999902,
          "velocity": 0.8661417322834646,
          "duration": 0.10267846874999975
        },
        {
          "name": "G5",
          "midi": 79,
          "time": 92.57133599999902,
          "velocity": 0.8661417322834646,
          "duration": 0.10267846874999975
        },
        {
          "name": "F#4",
          "midi": 66,
          "time": 92.67847874999902,
          "velocity": 0.8661417322834646,
          "duration": 0.10267846874999975
        },
        {
          "name": "F#5",
          "midi": 78,
          "time": 92.67847874999902,
          "velocity": 0.8661417322834646,
          "duration": 0.10267846874999975
        },
        {
          "name": "E4",
          "midi": 64,
          "time": 92.78562149999901,
          "velocity": 0.8661417322834646,
          "duration": 0.20982121874999393
        },
        {
          "name": "E5",
          "midi": 76,
          "time": 92.78562149999901,
          "velocity": 0.8661417322834646,
          "duration": 0.20982121874999393
        },
        {
          "name": "G4",
          "midi": 67,
          "time": 92.999906999999,
          "velocity": 0.8661417322834646,
          "duration": 0.20982121874999393
        },
        {
          "name": "G5",
          "midi": 79,
          "time": 92.999906999999,
          "velocity": 0.8661417322834646,
          "duration": 0.20982121874999393
        },
        {
          "name": "A4",
          "midi": 69,
          "time": 93.21419249999899,
          "velocity": 0.8661417322834646,
          "duration": 0.20982121874999393
        },
        {
          "name": "A5",
          "midi": 81,
          "time": 93.21419249999899,
          "velocity": 0.8661417322834646,
          "duration": 0.20982121874999393
        },
        {
          "name": "G4",
          "midi": 67,
          "time": 93.42847799999898,
          "velocity": 0.8661417322834646,
          "duration": 0.10267846874999975
        },
        {
          "name": "G5",
          "midi": 79,
          "time": 93.42847799999898,
          "velocity": 0.8661417322834646,
          "duration": 0.10267846874999975
        },
        {
          "name": "F#4",
          "midi": 66,
          "time": 93.53562074999897,
          "velocity": 0.8661417322834646,
          "duration": 0.10267846874999975
        },
        {
          "name": "F#5",
          "midi": 78,
          "time": 93.53562074999897,
          "velocity": 0.8661417322834646,
          "duration": 0.10267846874999975
        },
        {
          "name": "E4",
          "midi": 64,
          "time": 93.64276349999896,
          "velocity": 0.8661417322834646,
          "duration": 0.20982121874999393
        },
        {
          "name": "E5",
          "midi": 76,
          "time": 93.64276349999896,
          "velocity": 0.8661417322834646,
          "duration": 0.20982121874999393
        },
        {
          "name": "G4",
          "midi": 67,
          "time": 93.85704899999895,
          "velocity": 0.8661417322834646,
          "duration": 0.20982121874999393
        },
        {
          "name": "G5",
          "midi": 79,
          "time": 93.85704899999895,
          "velocity": 0.8661417322834646,
          "duration": 0.20982121874999393
        },
        {
          "name": "A4",
          "midi": 69,
          "time": 94.07133449999894,
          "velocity": 0.8661417322834646,
          "duration": 0.20982121874999393
        },
        {
          "name": "A5",
          "midi": 81,
          "time": 94.07133449999894,
          "velocity": 0.8661417322834646,
          "duration": 0.20982121874999393
        },
        {
          "name": "G4",
          "midi": 67,
          "time": 94.28561999999893,
          "velocity": 0.8661417322834646,
          "duration": 0.10267846874999975
        },
        {
          "name": "G5",
          "midi": 79,
          "time": 94.28561999999893,
          "velocity": 0.8661417322834646,
          "duration": 0.10267846874999975
        },
        {
          "name": "F#4",
          "midi": 66,
          "time": 94.39276274999892,
          "velocity": 0.8661417322834646,
          "duration": 0.10267846874999975
        },
        {
          "name": "F#5",
          "midi": 78,
          "time": 94.39276274999892,
          "velocity": 0.8661417322834646,
          "duration": 0.10267846874999975
        },
        {
          "name": "E4",
          "midi": 64,
          "time": 94.49990549999892,
          "velocity": 0.8661417322834646,
          "duration": 0.20982121874999393
        },
        {
          "name": "E5",
          "midi": 76,
          "time": 94.49990549999892,
          "velocity": 0.8661417322834646,
          "duration": 0.20982121874999393
        },
        {
          "name": "D#4",
          "midi": 63,
          "time": 94.7141909999989,
          "velocity": 0.8661417322834646,
          "duration": 0.20982121874999393
        },
        {
          "name": "D#5",
          "midi": 75,
          "time": 94.7141909999989,
          "velocity": 0.8661417322834646,
          "duration": 0.20982121874999393
        },
        {
          "name": "F4",
          "midi": 65,
          "time": 94.9284764999989,
          "velocity": 0.8661417322834646,
          "duration": 0.20982121874999393
        },
        {
          "name": "F5",
          "midi": 77,
          "time": 94.9284764999989,
          "velocity": 0.8661417322834646,
          "duration": 0.20982121874999393
        },
        {
          "name": "D#4",
          "midi": 63,
          "time": 95.14276199999888,
          "velocity": 0.8661417322834646,
          "duration": 0.10267846874999975
        },
        {
          "name": "D#5",
          "midi": 75,
          "time": 95.14276199999888,
          "velocity": 0.8661417322834646,
          "duration": 0.10267846874999975
        },
        {
          "name": "D4",
          "midi": 62,
          "time": 95.24990474999888,
          "velocity": 0.8661417322834646,
          "duration": 0.10267846874999975
        },
        {
          "name": "D5",
          "midi": 74,
          "time": 95.24990474999888,
          "velocity": 0.8661417322834646,
          "duration": 0.10267846874999975
        },
        {
          "name": "C4",
          "midi": 60,
          "time": 95.35704749999887,
          "velocity": 0.8661417322834646,
          "duration": 0.20982121874999393
        },
        {
          "name": "C5",
          "midi": 72,
          "time": 95.35704749999887,
          "velocity": 0.8661417322834646,
          "duration": 0.20982121874999393
        },
        {
          "name": "D#4",
          "midi": 63,
          "time": 95.57133299999886,
          "velocity": 0.8661417322834646,
          "duration": 0.20982121874999393
        },
        {
          "name": "D#5",
          "midi": 75,
          "time": 95.57133299999886,
          "velocity": 0.8661417322834646,
          "duration": 0.20982121874999393
        },
        {
          "name": "F4",
          "midi": 65,
          "time": 95.78561849999885,
          "velocity": 0.8661417322834646,
          "duration": 0.20982121874999393
        },
        {
          "name": "F5",
          "midi": 77,
          "time": 95.78561849999885,
          "velocity": 0.8661417322834646,
          "duration": 0.20982121874999393
        },
        {
          "name": "D#4",
          "midi": 63,
          "time": 95.99990399999884,
          "velocity": 0.8661417322834646,
          "duration": 0.10267846874999975
        },
        {
          "name": "D#5",
          "midi": 75,
          "time": 95.99990399999884,
          "velocity": 0.8661417322834646,
          "duration": 0.10267846874999975
        },
        {
          "name": "D4",
          "midi": 62,
          "time": 96.10704674999883,
          "velocity": 0.8661417322834646,
          "duration": 0.10267846874999975
        },
        {
          "name": "D5",
          "midi": 74,
          "time": 96.10704674999883,
          "velocity": 0.8661417322834646,
          "duration": 0.10267846874999975
        },
        {
          "name": "C4",
          "midi": 60,
          "time": 96.21418949999882,
          "velocity": 0.8661417322834646,
          "duration": 0.20982121874999393
        },
        {
          "name": "C5",
          "midi": 72,
          "time": 96.21418949999882,
          "velocity": 0.8661417322834646,
          "duration": 0.20982121874999393
        },
        {
          "name": "D#4",
          "midi": 63,
          "time": 96.42847499999881,
          "velocity": 0.8661417322834646,
          "duration": 0.20982121874999393
        },
        {
          "name": "D#5",
          "midi": 75,
          "time": 96.42847499999881,
          "velocity": 0.8661417322834646,
          "duration": 0.20982121874999393
        },
        {
          "name": "F4",
          "midi": 65,
          "time": 96.6427604999988,
          "velocity": 0.8661417322834646,
          "duration": 0.20982121874999393
        },
        {
          "name": "F5",
          "midi": 77,
          "time": 96.6427604999988,
          "velocity": 0.8661417322834646,
          "duration": 0.20982121874999393
        },
        {
          "name": "D#4",
          "midi": 63,
          "time": 96.85704599999879,
          "velocity": 0.8661417322834646,
          "duration": 0.10267846874999975
        },
        {
          "name": "D#5",
          "midi": 75,
          "time": 96.85704599999879,
          "velocity": 0.8661417322834646,
          "duration": 0.10267846874999975
        },
        {
          "name": "D4",
          "midi": 62,
          "time": 96.96418874999878,
          "velocity": 0.8661417322834646,
          "duration": 0.10267846874999975
        },
        {
          "name": "D5",
          "midi": 74,
          "time": 96.96418874999878,
          "velocity": 0.8661417322834646,
          "duration": 0.10267846874999975
        },
        {
          "name": "C4",
          "midi": 60,
          "time": 97.07133149999878,
          "velocity": 0.8661417322834646,
          "duration": 0.20982121874999393
        },
        {
          "name": "C5",
          "midi": 72,
          "time": 97.07133149999878,
          "velocity": 0.8661417322834646,
          "duration": 0.20982121874999393
        },
        {
          "name": "D#4",
          "midi": 63,
          "time": 97.28561699999877,
          "velocity": 0.8661417322834646,
          "duration": 0.20982121874999393
        },
        {
          "name": "D#5",
          "midi": 75,
          "time": 97.28561699999877,
          "velocity": 0.8661417322834646,
          "duration": 0.20982121874999393
        },
        {
          "name": "F4",
          "midi": 65,
          "time": 97.49990249999875,
          "velocity": 0.8661417322834646,
          "duration": 0.20982121874999393
        },
        {
          "name": "F5",
          "midi": 77,
          "time": 97.49990249999875,
          "velocity": 0.8661417322834646,
          "duration": 0.20982121874999393
        },
        {
          "name": "D#4",
          "midi": 63,
          "time": 97.71418799999874,
          "velocity": 0.8661417322834646,
          "duration": 0.10267846874999975
        },
        {
          "name": "D#5",
          "midi": 75,
          "time": 97.71418799999874,
          "velocity": 0.8661417322834646,
          "duration": 0.10267846874999975
        },
        {
          "name": "D4",
          "midi": 62,
          "time": 97.82133074999874,
          "velocity": 0.8661417322834646,
          "duration": 0.10267846874999975
        },
        {
          "name": "D5",
          "midi": 74,
          "time": 97.82133074999874,
          "velocity": 0.8661417322834646,
          "duration": 0.10267846874999975
        },
        {
          "name": "C4",
          "midi": 60,
          "time": 97.92847349999873,
          "velocity": 0.8661417322834646,
          "duration": 0.20982121874999393
        },
        {
          "name": "C5",
          "midi": 72,
          "time": 97.92847349999873,
          "velocity": 0.8661417322834646,
          "duration": 0.20982121874999393
        },
        {
          "name": "G4",
          "midi": 67,
          "time": 98.14275899999872,
          "velocity": 0.8661417322834646,
          "duration": 0.20982121874999393
        },
        {
          "name": "G5",
          "midi": 79,
          "time": 98.14275899999872,
          "velocity": 0.8661417322834646,
          "duration": 0.20982121874999393
        },
        {
          "name": "A4",
          "midi": 69,
          "time": 98.35704449999871,
          "velocity": 0.8661417322834646,
          "duration": 0.20982121874999393
        },
        {
          "name": "A5",
          "midi": 81,
          "time": 98.35704449999871,
          "velocity": 0.8661417322834646,
          "duration": 0.20982121874999393
        },
        {
          "name": "G4",
          "midi": 67,
          "time": 98.5713299999987,
          "velocity": 0.8661417322834646,
          "duration": 0.10267846874999975
        },
        {
          "name": "G5",
          "midi": 79,
          "time": 98.5713299999987,
          "velocity": 0.8661417322834646,
          "duration": 0.10267846874999975
        },
        {
          "name": "F#4",
          "midi": 66,
          "time": 98.67847274999869,
          "velocity": 0.8661417322834646,
          "duration": 0.10267846874999975
        },
        {
          "name": "F#5",
          "midi": 78,
          "time": 98.67847274999869,
          "velocity": 0.8661417322834646,
          "duration": 0.10267846874999975
        },
        {
          "name": "E4",
          "midi": 64,
          "time": 98.78561549999868,
          "velocity": 0.8661417322834646,
          "duration": 0.20982121874999393
        },
        {
          "name": "E5",
          "midi": 76,
          "time": 98.78561549999868,
          "velocity": 0.8661417322834646,
          "duration": 0.20982121874999393
        },
        {
          "name": "G4",
          "midi": 67,
          "time": 98.99990099999867,
          "velocity": 0.8661417322834646,
          "duration": 0.20982121874999393
        },
        {
          "name": "G5",
          "midi": 79,
          "time": 98.99990099999867,
          "velocity": 0.8661417322834646,
          "duration": 0.20982121874999393
        },
        {
          "name": "A4",
          "midi": 69,
          "time": 99.21418649999866,
          "velocity": 0.8661417322834646,
          "duration": 0.20982121874999393
        },
        {
          "name": "A5",
          "midi": 81,
          "time": 99.21418649999866,
          "velocity": 0.8661417322834646,
          "duration": 0.20982121874999393
        },
        {
          "name": "G4",
          "midi": 67,
          "time": 99.42847199999865,
          "velocity": 0.8661417322834646,
          "duration": 0.10267846874999975
        },
        {
          "name": "G5",
          "midi": 79,
          "time": 99.42847199999865,
          "velocity": 0.8661417322834646,
          "duration": 0.10267846874999975
        },
        {
          "name": "F#4",
          "midi": 66,
          "time": 99.53561474999864,
          "velocity": 0.8661417322834646,
          "duration": 0.10267846874999975
        },
        {
          "name": "F#5",
          "midi": 78,
          "time": 99.53561474999864,
          "velocity": 0.8661417322834646,
          "duration": 0.10267846874999975
        },
        {
          "name": "E4",
          "midi": 64,
          "time": 99.64275749999864,
          "velocity": 0.8661417322834646,
          "duration": 0.20982121874999393
        },
        {
          "name": "E5",
          "midi": 76,
          "time": 99.64275749999864,
          "velocity": 0.8661417322834646,
          "duration": 0.20982121874999393
        },
        {
          "name": "G4",
          "midi": 67,
          "time": 99.85704299999863,
          "velocity": 0.8661417322834646,
          "duration": 0.20982121874999393
        },
        {
          "name": "G5",
          "midi": 79,
          "time": 99.85704299999863,
          "velocity": 0.8661417322834646,
          "duration": 0.20982121874999393
        },
        {
          "name": "A4",
          "midi": 69,
          "time": 100.07132849999861,
          "velocity": 0.8661417322834646,
          "duration": 0.20982121874999393
        },
        {
          "name": "A5",
          "midi": 81,
          "time": 100.07132849999861,
          "velocity": 0.8661417322834646,
          "duration": 0.20982121874999393
        },
        {
          "name": "G4",
          "midi": 67,
          "time": 100.2856139999986,
          "velocity": 0.8661417322834646,
          "duration": 0.10267846874999975
        },
        {
          "name": "G5",
          "midi": 79,
          "time": 100.2856139999986,
          "velocity": 0.8661417322834646,
          "duration": 0.10267846874999975
        },
        {
          "name": "F#4",
          "midi": 66,
          "time": 100.3927567499986,
          "velocity": 0.8661417322834646,
          "duration": 0.10267846874999975
        },
        {
          "name": "F#5",
          "midi": 78,
          "time": 100.3927567499986,
          "velocity": 0.8661417322834646,
          "duration": 0.10267846874999975
        },
        {
          "name": "E4",
          "midi": 64,
          "time": 100.49989949999859,
          "velocity": 0.8661417322834646,
          "duration": 0.20982121874999393
        },
        {
          "name": "E5",
          "midi": 76,
          "time": 100.49989949999859,
          "velocity": 0.8661417322834646,
          "duration": 0.20982121874999393
        },
        {
          "name": "G4",
          "midi": 67,
          "time": 100.71418499999858,
          "velocity": 0.8661417322834646,
          "duration": 0.20982121874999393
        },
        {
          "name": "G5",
          "midi": 79,
          "time": 100.71418499999858,
          "velocity": 0.8661417322834646,
          "duration": 0.20982121874999393
        },
        {
          "name": "A4",
          "midi": 69,
          "time": 100.92847049999857,
          "velocity": 0.8661417322834646,
          "duration": 0.20982121874999393
        },
        {
          "name": "A5",
          "midi": 81,
          "time": 100.92847049999857,
          "velocity": 0.8661417322834646,
          "duration": 0.20982121874999393
        },
        {
          "name": "G4",
          "midi": 67,
          "time": 101.14275599999856,
          "velocity": 0.8661417322834646,
          "duration": 0.10267846874999975
        },
        {
          "name": "G5",
          "midi": 79,
          "time": 101.14275599999856,
          "velocity": 0.8661417322834646,
          "duration": 0.10267846874999975
        },
        {
          "name": "F#4",
          "midi": 66,
          "time": 101.24989874999855,
          "velocity": 0.8661417322834646,
          "duration": 0.10267846874999975
        },
        {
          "name": "F#5",
          "midi": 78,
          "time": 101.24989874999855,
          "velocity": 0.8661417322834646,
          "duration": 0.10267846874999975
        },
        {
          "name": "E4",
          "midi": 64,
          "time": 101.35704149999854,
          "velocity": 0.8661417322834646,
          "duration": 0.20982121874999393
        },
        {
          "name": "E5",
          "midi": 76,
          "time": 101.35704149999854,
          "velocity": 0.8661417322834646,
          "duration": 0.20982121874999393
        },
        {
          "name": "D#4",
          "midi": 63,
          "time": 101.57132699999853,
          "velocity": 0.8661417322834646,
          "duration": 0.20982121874999393
        },
        {
          "name": "D#5",
          "midi": 75,
          "time": 101.57132699999853,
          "velocity": 0.8661417322834646,
          "duration": 0.20982121874999393
        },
        {
          "name": "F4",
          "midi": 65,
          "time": 101.78561249999852,
          "velocity": 0.8661417322834646,
          "duration": 0.20982121874999393
        },
        {
          "name": "F5",
          "midi": 77,
          "time": 101.78561249999852,
          "velocity": 0.8661417322834646,
          "duration": 0.20982121874999393
        },
        {
          "name": "D#4",
          "midi": 63,
          "time": 101.99989799999851,
          "velocity": 0.8661417322834646,
          "duration": 0.10267846874999975
        },
        {
          "name": "D#5",
          "midi": 75,
          "time": 101.99989799999851,
          "velocity": 0.8661417322834646,
          "duration": 0.10267846874999975
        },
        {
          "name": "D4",
          "midi": 62,
          "time": 102.1070407499985,
          "velocity": 0.8661417322834646,
          "duration": 0.10267846874999975
        },
        {
          "name": "D5",
          "midi": 74,
          "time": 102.1070407499985,
          "velocity": 0.8661417322834646,
          "duration": 0.10267846874999975
        },
        {
          "name": "C4",
          "midi": 60,
          "time": 102.2141834999985,
          "velocity": 0.8661417322834646,
          "duration": 0.20982121874999393
        },
        {
          "name": "C5",
          "midi": 72,
          "time": 102.2141834999985,
          "velocity": 0.8661417322834646,
          "duration": 0.20982121874999393
        },
        {
          "name": "D#4",
          "midi": 63,
          "time": 102.42846899999849,
          "velocity": 0.8661417322834646,
          "duration": 0.20982121874999393
        },
        {
          "name": "D#5",
          "midi": 75,
          "time": 102.42846899999849,
          "velocity": 0.8661417322834646,
          "duration": 0.20982121874999393
        },
        {
          "name": "F4",
          "midi": 65,
          "time": 102.64275449999847,
          "velocity": 0.8661417322834646,
          "duration": 0.20982121874999393
        },
        {
          "name": "F5",
          "midi": 77,
          "time": 102.64275449999847,
          "velocity": 0.8661417322834646,
          "duration": 0.20982121874999393
        },
        {
          "name": "D#4",
          "midi": 63,
          "time": 102.85703999999846,
          "velocity": 0.8661417322834646,
          "duration": 0.10267846874999975
        },
        {
          "name": "D#5",
          "midi": 75,
          "time": 102.85703999999846,
          "velocity": 0.8661417322834646,
          "duration": 0.10267846874999975
        },
        {
          "name": "D4",
          "midi": 62,
          "time": 102.96418274999846,
          "velocity": 0.8661417322834646,
          "duration": 0.10267846874999975
        },
        {
          "name": "D5",
          "midi": 74,
          "time": 102.96418274999846,
          "velocity": 0.8661417322834646,
          "duration": 0.10267846874999975
        },
        {
          "name": "C4",
          "midi": 60,
          "time": 103.07132549999845,
          "velocity": 0.8661417322834646,
          "duration": 0.20982121874999393
        },
        {
          "name": "C5",
          "midi": 72,
          "time": 103.07132549999845,
          "velocity": 0.8661417322834646,
          "duration": 0.20982121874999393
        },
        {
          "name": "D#4",
          "midi": 63,
          "time": 103.28561099999844,
          "velocity": 0.8661417322834646,
          "duration": 0.20982121874999393
        },
        {
          "name": "D#5",
          "midi": 75,
          "time": 103.28561099999844,
          "velocity": 0.8661417322834646,
          "duration": 0.20982121874999393
        },
        {
          "name": "F4",
          "midi": 65,
          "time": 103.49989649999843,
          "velocity": 0.8661417322834646,
          "duration": 0.20982121874999393
        },
        {
          "name": "F5",
          "midi": 77,
          "time": 103.49989649999843,
          "velocity": 0.8661417322834646,
          "duration": 0.20982121874999393
        },
        {
          "name": "D#4",
          "midi": 63,
          "time": 103.71418199999842,
          "velocity": 0.8661417322834646,
          "duration": 0.10267846874999975
        },
        {
          "name": "D#5",
          "midi": 75,
          "time": 103.71418199999842,
          "velocity": 0.8661417322834646,
          "duration": 0.10267846874999975
        },
        {
          "name": "D4",
          "midi": 62,
          "time": 103.82132474999841,
          "velocity": 0.8661417322834646,
          "duration": 0.10267846874999975
        },
        {
          "name": "D5",
          "midi": 74,
          "time": 103.82132474999841,
          "velocity": 0.8661417322834646,
          "duration": 0.10267846874999975
        },
        {
          "name": "C4",
          "midi": 60,
          "time": 103.9284674999984,
          "velocity": 0.8661417322834646,
          "duration": 0.20982121874999393
        },
        {
          "name": "C5",
          "midi": 72,
          "time": 103.9284674999984,
          "velocity": 0.8661417322834646,
          "duration": 0.20982121874999393
        },
        {
          "name": "D#4",
          "midi": 63,
          "time": 104.1427529999984,
          "velocity": 0.8661417322834646,
          "duration": 0.20982121874999393
        },
        {
          "name": "D#5",
          "midi": 75,
          "time": 104.1427529999984,
          "velocity": 0.8661417322834646,
          "duration": 0.20982121874999393
        },
        {
          "name": "F4",
          "midi": 65,
          "time": 104.35703849999838,
          "velocity": 0.8661417322834646,
          "duration": 0.20982121874999393
        },
        {
          "name": "F5",
          "midi": 77,
          "time": 104.35703849999838,
          "velocity": 0.8661417322834646,
          "duration": 0.20982121874999393
        },
        {
          "name": "D#4",
          "midi": 63,
          "time": 104.57132399999837,
          "velocity": 0.8661417322834646,
          "duration": 0.10267846874999975
        },
        {
          "name": "D#5",
          "midi": 75,
          "time": 104.57132399999837,
          "velocity": 0.8661417322834646,
          "duration": 0.10267846874999975
        },
        {
          "name": "D4",
          "midi": 62,
          "time": 104.67846674999836,
          "velocity": 0.8661417322834646,
          "duration": 0.10267846874999975
        },
        {
          "name": "D5",
          "midi": 74,
          "time": 104.67846674999836,
          "velocity": 0.8661417322834646,
          "duration": 0.10267846874999975
        },
        {
          "name": "C4",
          "midi": 60,
          "time": 104.78560949999836,
          "velocity": 0.8661417322834646,
          "duration": 0.20982121874999393
        },
        {
          "name": "C5",
          "midi": 72,
          "time": 104.78560949999836,
          "velocity": 0.8661417322834646,
          "duration": 0.20982121874999393
        },
        {
          "name": "G4",
          "midi": 67,
          "time": 104.99989499999835,
          "velocity": 0.8661417322834646,
          "duration": 0.20982121874999393
        },
        {
          "name": "G5",
          "midi": 79,
          "time": 104.99989499999835,
          "velocity": 0.8661417322834646,
          "duration": 0.20982121874999393
        },
        {
          "name": "A4",
          "midi": 69,
          "time": 105.21418049999833,
          "velocity": 0.8661417322834646,
          "duration": 0.20982121874999393
        },
        {
          "name": "A5",
          "midi": 81,
          "time": 105.21418049999833,
          "velocity": 0.8661417322834646,
          "duration": 0.20982121874999393
        },
        {
          "name": "G4",
          "midi": 67,
          "time": 105.42846599999832,
          "velocity": 0.8661417322834646,
          "duration": 0.10267846874999975
        },
        {
          "name": "G5",
          "midi": 79,
          "time": 105.42846599999832,
          "velocity": 0.8661417322834646,
          "duration": 0.10267846874999975
        },
        {
          "name": "F#4",
          "midi": 66,
          "time": 105.53560874999832,
          "velocity": 0.8661417322834646,
          "duration": 0.10267846874999975
        },
        {
          "name": "F#5",
          "midi": 78,
          "time": 105.53560874999832,
          "velocity": 0.8661417322834646,
          "duration": 0.10267846874999975
        },
        {
          "name": "E4",
          "midi": 64,
          "time": 105.64275149999831,
          "velocity": 0.8661417322834646,
          "duration": 0.20982121874999393
        },
        {
          "name": "E5",
          "midi": 76,
          "time": 105.64275149999831,
          "velocity": 0.8661417322834646,
          "duration": 0.20982121874999393
        },
        {
          "name": "G4",
          "midi": 67,
          "time": 105.8570369999983,
          "velocity": 0.8661417322834646,
          "duration": 0.20982121874999393
        },
        {
          "name": "G5",
          "midi": 79,
          "time": 105.8570369999983,
          "velocity": 0.8661417322834646,
          "duration": 0.20982121874999393
        },
        {
          "name": "A4",
          "midi": 69,
          "time": 106.07132249999829,
          "velocity": 0.8661417322834646,
          "duration": 0.20982121874999393
        },
        {
          "name": "A5",
          "midi": 81,
          "time": 106.07132249999829,
          "velocity": 0.8661417322834646,
          "duration": 0.20982121874999393
        },
        {
          "name": "G4",
          "midi": 67,
          "time": 106.28560799999828,
          "velocity": 0.8661417322834646,
          "duration": 0.10267846874999975
        },
        {
          "name": "G5",
          "midi": 79,
          "time": 106.28560799999828,
          "velocity": 0.8661417322834646,
          "duration": 0.10267846874999975
        },
        {
          "name": "F#4",
          "midi": 66,
          "time": 106.39275074999827,
          "velocity": 0.8661417322834646,
          "duration": 0.10267846874999975
        },
        {
          "name": "F#5",
          "midi": 78,
          "time": 106.39275074999827,
          "velocity": 0.8661417322834646,
          "duration": 0.10267846874999975
        },
        {
          "name": "E4",
          "midi": 64,
          "time": 106.49989349999827,
          "velocity": 0.8661417322834646,
          "duration": 0.20982121874999393
        },
        {
          "name": "E5",
          "midi": 76,
          "time": 106.49989349999827,
          "velocity": 0.8661417322834646,
          "duration": 0.20982121874999393
        },
        {
          "name": "G4",
          "midi": 67,
          "time": 106.71417899999825,
          "velocity": 0.8661417322834646,
          "duration": 0.20982121874999393
        },
        {
          "name": "G5",
          "midi": 79,
          "time": 106.71417899999825,
          "velocity": 0.8661417322834646,
          "duration": 0.20982121874999393
        },
        {
          "name": "A4",
          "midi": 69,
          "time": 106.92846449999824,
          "velocity": 0.8661417322834646,
          "duration": 0.20982121874999393
        },
        {
          "name": "A5",
          "midi": 81,
          "time": 106.92846449999824,
          "velocity": 0.8661417322834646,
          "duration": 0.20982121874999393
        },
        {
          "name": "G4",
          "midi": 67,
          "time": 107.14274999999823,
          "velocity": 0.8661417322834646,
          "duration": 0.10267846874999975
        },
        {
          "name": "G5",
          "midi": 79,
          "time": 107.14274999999823,
          "velocity": 0.8661417322834646,
          "duration": 0.10267846874999975
        },
        {
          "name": "F#4",
          "midi": 66,
          "time": 107.24989274999822,
          "velocity": 0.8661417322834646,
          "duration": 0.10267846874999975
        },
        {
          "name": "F#5",
          "midi": 78,
          "time": 107.24989274999822,
          "velocity": 0.8661417322834646,
          "duration": 0.10267846874999975
        },
        {
          "name": "E4",
          "midi": 64,
          "time": 107.35703549999822,
          "velocity": 0.8661417322834646,
          "duration": 0.20982121874999393
        },
        {
          "name": "E5",
          "midi": 76,
          "time": 107.35703549999822,
          "velocity": 0.8661417322834646,
          "duration": 0.20982121874999393
        },
        {
          "name": "G4",
          "midi": 67,
          "time": 107.5713209999982,
          "velocity": 0.8661417322834646,
          "duration": 0.20982121874999393
        },
        {
          "name": "G5",
          "midi": 79,
          "time": 107.5713209999982,
          "velocity": 0.8661417322834646,
          "duration": 0.20982121874999393
        },
        {
          "name": "A4",
          "midi": 69,
          "time": 107.7856064999982,
          "velocity": 0.8661417322834646,
          "duration": 0.20982121874999393
        },
        {
          "name": "A5",
          "midi": 81,
          "time": 107.7856064999982,
          "velocity": 0.8661417322834646,
          "duration": 0.20982121874999393
        },
        {
          "name": "G4",
          "midi": 67,
          "time": 107.99989199999818,
          "velocity": 0.8661417322834646,
          "duration": 0.10267846874999975
        },
        {
          "name": "G5",
          "midi": 79,
          "time": 107.99989199999818,
          "velocity": 0.8661417322834646,
          "duration": 0.10267846874999975
        },
        {
          "name": "F#4",
          "midi": 66,
          "time": 108.10703474999818,
          "velocity": 0.8661417322834646,
          "duration": 0.10267846874999975
        },
        {
          "name": "F#5",
          "midi": 78,
          "time": 108.10703474999818,
          "velocity": 0.8661417322834646,
          "duration": 0.10267846874999975
        },
        {
          "name": "E4",
          "midi": 64,
          "time": 108.21417749999817,
          "velocity": 0.8661417322834646,
          "duration": 0.20982121874999393
        },
        {
          "name": "E5",
          "midi": 76,
          "time": 108.21417749999817,
          "velocity": 0.8661417322834646,
          "duration": 0.20982121874999393
        },
        {
          "name": "G4",
          "midi": 67,
          "time": 108.42846299999816,
          "velocity": 0.8661417322834646,
          "duration": 0.20982121874999393
        },
        {
          "name": "G5",
          "midi": 79,
          "time": 108.42846299999816,
          "velocity": 0.8661417322834646,
          "duration": 0.20982121874999393
        },
        {
          "name": "A4",
          "midi": 69,
          "time": 108.64274849999815,
          "velocity": 0.8661417322834646,
          "duration": 0.20982121874999393
        },
        {
          "name": "A5",
          "midi": 81,
          "time": 108.64274849999815,
          "velocity": 0.8661417322834646,
          "duration": 0.20982121874999393
        },
        {
          "name": "G4",
          "midi": 67,
          "time": 108.85703399999814,
          "velocity": 0.8661417322834646,
          "duration": 0.10267846874999975
        },
        {
          "name": "G5",
          "midi": 79,
          "time": 108.85703399999814,
          "velocity": 0.8661417322834646,
          "duration": 0.10267846874999975
        },
        {
          "name": "F#4",
          "midi": 66,
          "time": 108.96417674999813,
          "velocity": 0.8661417322834646,
          "duration": 0.10267846874999975
        },
        {
          "name": "F#5",
          "midi": 78,
          "time": 108.96417674999813,
          "velocity": 0.8661417322834646,
          "duration": 0.10267846874999975
        },
        {
          "name": "E4",
          "midi": 64,
          "time": 109.07131949999813,
          "velocity": 0.8661417322834646,
          "duration": 0.20982121874999393
        },
        {
          "name": "E5",
          "midi": 76,
          "time": 109.07131949999813,
          "velocity": 0.8661417322834646,
          "duration": 0.20982121874999393
        },
        {
          "name": "G4",
          "midi": 67,
          "time": 109.28560499999811,
          "velocity": 0.8661417322834646,
          "duration": 0.20982121874999393
        },
        {
          "name": "G5",
          "midi": 79,
          "time": 109.28560499999811,
          "velocity": 0.8661417322834646,
          "duration": 0.20982121874999393
        },
        {
          "name": "A4",
          "midi": 69,
          "time": 109.4998904999981,
          "velocity": 0.8661417322834646,
          "duration": 0.20982121874999393
        },
        {
          "name": "A5",
          "midi": 81,
          "time": 109.4998904999981,
          "velocity": 0.8661417322834646,
          "duration": 0.20982121874999393
        },
        {
          "name": "G4",
          "midi": 67,
          "time": 109.71417599999809,
          "velocity": 0.8661417322834646,
          "duration": 0.10267846874999975
        },
        {
          "name": "G5",
          "midi": 79,
          "time": 109.71417599999809,
          "velocity": 0.8661417322834646,
          "duration": 0.10267846874999975
        },
        {
          "name": "F#4",
          "midi": 66,
          "time": 109.82131874999808,
          "velocity": 0.8661417322834646,
          "duration": 0.10267846874999975
        },
        {
          "name": "F#5",
          "midi": 78,
          "time": 109.82131874999808,
          "velocity": 0.8661417322834646,
          "duration": 0.10267846874999975
        },
        {
          "name": "E4",
          "midi": 64,
          "time": 109.92846149999808,
          "velocity": 0.8661417322834646,
          "duration": 0.20982121874999393
        },
        {
          "name": "E5",
          "midi": 76,
          "time": 109.92846149999808,
          "velocity": 0.8661417322834646,
          "duration": 0.20982121874999393
        },
        {
          "name": "G4",
          "midi": 67,
          "time": 110.14274699999807,
          "velocity": 0.8661417322834646,
          "duration": 0.20982121874999393
        },
        {
          "name": "G5",
          "midi": 79,
          "time": 110.14274699999807,
          "velocity": 0.8661417322834646,
          "duration": 0.20982121874999393
        },
        {
          "name": "A4",
          "midi": 69,
          "time": 110.35703249999806,
          "velocity": 0.8661417322834646,
          "duration": 0.20982121874999393
        },
        {
          "name": "A5",
          "midi": 81,
          "time": 110.35703249999806,
          "velocity": 0.8661417322834646,
          "duration": 0.20982121874999393
        },
        {
          "name": "G4",
          "midi": 67,
          "time": 110.57131799999804,
          "velocity": 0.8661417322834646,
          "duration": 0.10267846874999975
        },
        {
          "name": "G5",
          "midi": 79,
          "time": 110.57131799999804,
          "velocity": 0.8661417322834646,
          "duration": 0.10267846874999975
        },
        {
          "name": "F#4",
          "midi": 66,
          "time": 110.67846074999804,
          "velocity": 0.8661417322834646,
          "duration": 0.10267846874999975
        },
        {
          "name": "F#5",
          "midi": 78,
          "time": 110.67846074999804,
          "velocity": 0.8661417322834646,
          "duration": 0.10267846874999975
        },
        {
          "name": "E4",
          "midi": 64,
          "time": 110.78560349999803,
          "velocity": 0.8661417322834646,
          "duration": 0.20982121874999393
        },
        {
          "name": "E5",
          "midi": 76,
          "time": 110.78560349999803,
          "velocity": 0.8661417322834646,
          "duration": 0.20982121874999393
        },
        {
          "name": "G4",
          "midi": 67,
          "time": 110.99988899999802,
          "velocity": 0.8661417322834646,
          "duration": 0.20982121874999393
        },
        {
          "name": "G5",
          "midi": 79,
          "time": 110.99988899999802,
          "velocity": 0.8661417322834646,
          "duration": 0.20982121874999393
        },
        {
          "name": "A4",
          "midi": 69,
          "time": 111.21417449999801,
          "velocity": 0.8661417322834646,
          "duration": 0.20982121874999393
        },
        {
          "name": "A5",
          "midi": 81,
          "time": 111.21417449999801,
          "velocity": 0.8661417322834646,
          "duration": 0.20982121874999393
        },
        {
          "name": "G4",
          "midi": 67,
          "time": 111.428459999998,
          "velocity": 0.8661417322834646,
          "duration": 0.10267846874999975
        },
        {
          "name": "G5",
          "midi": 79,
          "time": 111.428459999998,
          "velocity": 0.8661417322834646,
          "duration": 0.10267846874999975
        },
        {
          "name": "F#4",
          "midi": 66,
          "time": 111.53560274999799,
          "velocity": 0.8661417322834646,
          "duration": 0.10267846874999975
        },
        {
          "name": "F#5",
          "midi": 78,
          "time": 111.53560274999799,
          "velocity": 0.8661417322834646,
          "duration": 0.10267846874999975
        },
        {
          "name": "E4",
          "midi": 64,
          "time": 111.64274549999799,
          "velocity": 0.8661417322834646,
          "duration": 0.20982121874999393
        },
        {
          "name": "E5",
          "midi": 76,
          "time": 111.64274549999799,
          "velocity": 0.8661417322834646,
          "duration": 0.20982121874999393
        },
        {
          "name": "F#4",
          "midi": 66,
          "time": 111.85703099999797,
          "velocity": 0.8661417322834646,
          "duration": 0.20982121874999393
        },
        {
          "name": "F#5",
          "midi": 78,
          "time": 111.85703099999797,
          "velocity": 0.8661417322834646,
          "duration": 0.20982121874999393
        },
        {
          "name": "G4",
          "midi": 67,
          "time": 112.07131649999796,
          "velocity": 0.8661417322834646,
          "duration": 0.20982121874999393
        },
        {
          "name": "G5",
          "midi": 79,
          "time": 112.07131649999796,
          "velocity": 0.8661417322834646,
          "duration": 0.20982121874999393
        },
        {
          "name": "F#4",
          "midi": 66,
          "time": 112.28560199999795,
          "velocity": 0.8661417322834646,
          "duration": 0.10267846874999975
        },
        {
          "name": "F#5",
          "midi": 78,
          "time": 112.28560199999795,
          "velocity": 0.8661417322834646,
          "duration": 0.10267846874999975
        },
        {
          "name": "E4",
          "midi": 64,
          "time": 112.39274474999795,
          "velocity": 0.8661417322834646,
          "duration": 0.10267846874999975
        },
        {
          "name": "E5",
          "midi": 76,
          "time": 112.39274474999795,
          "velocity": 0.8661417322834646,
          "duration": 0.10267846874999975
        },
        {
          "name": "D#4",
          "midi": 63,
          "time": 112.49988749999794,
          "velocity": 0.8661417322834646,
          "duration": 0.20982121874999393
        },
        {
          "name": "D#5",
          "midi": 75,
          "time": 112.49988749999794,
          "velocity": 0.8661417322834646,
          "duration": 0.20982121874999393
        },
        {
          "name": "F#4",
          "midi": 66,
          "time": 112.71417299999793,
          "velocity": 0.8661417322834646,
          "duration": 0.20982121874999393
        },
        {
          "name": "F#5",
          "midi": 78,
          "time": 112.71417299999793,
          "velocity": 0.8661417322834646,
          "duration": 0.20982121874999393
        },
        {
          "name": "G4",
          "midi": 67,
          "time": 112.92845849999792,
          "velocity": 0.8661417322834646,
          "duration": 0.20982121874999393
        },
        {
          "name": "G5",
          "midi": 79,
          "time": 112.92845849999792,
          "velocity": 0.8661417322834646,
          "duration": 0.20982121874999393
        },
        {
          "name": "F#4",
          "midi": 66,
          "time": 113.1427439999979,
          "velocity": 0.8661417322834646,
          "duration": 0.10267846874999975
        },
        {
          "name": "F#5",
          "midi": 78,
          "time": 113.1427439999979,
          "velocity": 0.8661417322834646,
          "duration": 0.10267846874999975
        },
        {
          "name": "E4",
          "midi": 64,
          "time": 113.2498867499979,
          "velocity": 0.8661417322834646,
          "duration": 0.10267846874999975
        },
        {
          "name": "E5",
          "midi": 76,
          "time": 113.2498867499979,
          "velocity": 0.8661417322834646,
          "duration": 0.10267846874999975
        },
        {
          "name": "D#4",
          "midi": 63,
          "time": 113.35702949999789,
          "velocity": 0.8661417322834646,
          "duration": 0.20982121874999393
        },
        {
          "name": "D#5",
          "midi": 75,
          "time": 113.35702949999789,
          "velocity": 0.8661417322834646,
          "duration": 0.20982121874999393
        },
        {
          "name": "E5",
          "midi": 76,
          "time": 113.57131499999788,
          "velocity": 0.8661417322834646,
          "duration": 6.749993250000003
        },
        {
          "name": "B5",
          "midi": 83,
          "time": 113.57131499999788,
          "velocity": 0.8661417322834646,
          "duration": 6.749993250000003
        },
        {
          "name": "G5",
          "midi": 79,
          "time": 120.42845099999788,
          "velocity": 0.8661417322834646,
          "duration": 6.749993250000003
        },
        {
          "name": "D6",
          "midi": 86,
          "time": 120.42845099999788,
          "velocity": 0.8661417322834646,
          "duration": 6.749993250000003
        },
        {
          "name": "G5",
          "midi": 79,
          "time": 127.28558699999788,
          "velocity": 0.8661417322834646,
          "duration": 6.749993250000003
        },
        {
          "name": "D6",
          "midi": 86,
          "time": 127.28558699999788,
          "velocity": 0.8661417322834646,
          "duration": 6.749993250000003
        },
        {
          "name": "G6",
          "midi": 91,
          "time": 127.28558699999788,
          "velocity": 0.8661417322834646,
          "duration": 6.749993250000003
        },
        {
          "name": "A#3",
          "midi": 58,
          "time": 134.1427229999979,
          "velocity": 0.8661417322834646,
          "duration": 0.20982121874999393
        },
        {
          "name": "A#4",
          "midi": 70,
          "time": 134.1427229999979,
          "velocity": 0.8661417322834646,
          "duration": 0.20982121874999393
        },
        {
          "name": "C4",
          "midi": 60,
          "time": 134.35700849999787,
          "velocity": 0.8661417322834646,
          "duration": 0.20982121874999393
        },
        {
          "name": "C5",
          "midi": 72,
          "time": 134.35700849999787,
          "velocity": 0.8661417322834646,
          "duration": 0.20982121874999393
        },
        {
          "name": "A#3",
          "midi": 58,
          "time": 134.57129399999786,
          "velocity": 0.8661417322834646,
          "duration": 0.10267846875001396
        },
        {
          "name": "A#4",
          "midi": 70,
          "time": 134.57129399999786,
          "velocity": 0.8661417322834646,
          "duration": 0.10267846875001396
        },
        {
          "name": "A3",
          "midi": 57,
          "time": 134.67843674999787,
          "velocity": 0.8661417322834646,
          "duration": 0.10267846875001396
        },
        {
          "name": "A4",
          "midi": 69,
          "time": 134.67843674999787,
          "velocity": 0.8661417322834646,
          "duration": 0.10267846875001396
        },
        {
          "name": "G3",
          "midi": 55,
          "time": 134.78557949999788,
          "velocity": 0.8661417322834646,
          "duration": 0.20982121874999393
        },
        {
          "name": "G4",
          "midi": 67,
          "time": 134.78557949999788,
          "velocity": 0.8661417322834646,
          "duration": 0.20982121874999393
        },
        {
          "name": "A#3",
          "midi": 58,
          "time": 134.99986499999787,
          "velocity": 0.8661417322834646,
          "duration": 0.20982121874999393
        },
        {
          "name": "A#4",
          "midi": 70,
          "time": 134.99986499999787,
          "velocity": 0.8661417322834646,
          "duration": 0.20982121874999393
        },
        {
          "name": "C4",
          "midi": 60,
          "time": 135.21415049999786,
          "velocity": 0.8661417322834646,
          "duration": 0.20982121874999393
        },
        {
          "name": "C5",
          "midi": 72,
          "time": 135.21415049999786,
          "velocity": 0.8661417322834646,
          "duration": 0.20982121874999393
        },
        {
          "name": "A#3",
          "midi": 58,
          "time": 135.42843599999784,
          "velocity": 0.8661417322834646,
          "duration": 0.10267846875001396
        },
        {
          "name": "A#4",
          "midi": 70,
          "time": 135.42843599999784,
          "velocity": 0.8661417322834646,
          "duration": 0.10267846875001396
        },
        {
          "name": "A3",
          "midi": 57,
          "time": 135.53557874999785,
          "velocity": 0.8661417322834646,
          "duration": 0.10267846875001396
        },
        {
          "name": "A4",
          "midi": 69,
          "time": 135.53557874999785,
          "velocity": 0.8661417322834646,
          "duration": 0.10267846875001396
        },
        {
          "name": "G3",
          "midi": 55,
          "time": 135.64272149999786,
          "velocity": 0.8661417322834646,
          "duration": 0.20982121874999393
        },
        {
          "name": "G4",
          "midi": 67,
          "time": 135.64272149999786,
          "velocity": 0.8661417322834646,
          "duration": 0.20982121874999393
        },
        {
          "name": "A#3",
          "midi": 58,
          "time": 135.85700699999785,
          "velocity": 0.8661417322834646,
          "duration": 0.20982121874999393
        },
        {
          "name": "D4",
          "midi": 62,
          "time": 135.85700699999785,
          "velocity": 0.8661417322834646,
          "duration": 0.20982121874999393
        },
        {
          "name": "A#4",
          "midi": 70,
          "time": 135.85700699999785,
          "velocity": 0.8661417322834646,
          "duration": 0.20982121874999393
        },
        {
          "name": "D5",
          "midi": 74,
          "time": 135.85700699999785,
          "velocity": 0.8661417322834646,
          "duration": 0.20982121874999393
        },
        {
          "name": "C4",
          "midi": 60,
          "time": 136.07129249999784,
          "velocity": 0.8661417322834646,
          "duration": 0.20982121874999393
        },
        {
          "name": "D#4",
          "midi": 63,
          "time": 136.07129249999784,
          "velocity": 0.8661417322834646,
          "duration": 0.20982121874999393
        },
        {
          "name": "C5",
          "midi": 72,
          "time": 136.07129249999784,
          "velocity": 0.8661417322834646,
          "duration": 0.20982121874999393
        },
        {
          "name": "D#5",
          "midi": 75,
          "time": 136.07129249999784,
          "velocity": 0.8661417322834646,
          "duration": 0.20982121874999393
        },
        {
          "name": "A#3",
          "midi": 58,
          "time": 136.28557799999783,
          "velocity": 0.8661417322834646,
          "duration": 0.10267846875001396
        },
        {
          "name": "D4",
          "midi": 62,
          "time": 136.28557799999783,
          "velocity": 0.8661417322834646,
          "duration": 0.10267846875001396
        },
        {
          "name": "A#4",
          "midi": 70,
          "time": 136.28557799999783,
          "velocity": 0.8661417322834646,
          "duration": 0.10267846875001396
        },
        {
          "name": "D5",
          "midi": 74,
          "time": 136.28557799999783,
          "velocity": 0.8661417322834646,
          "duration": 0.10267846875001396
        },
        {
          "name": "A3",
          "midi": 57,
          "time": 136.39272074999784,
          "velocity": 0.8661417322834646,
          "duration": 0.10267846875001396
        },
        {
          "name": "C4",
          "midi": 60,
          "time": 136.39272074999784,
          "velocity": 0.8661417322834646,
          "duration": 0.10267846875001396
        },
        {
          "name": "A4",
          "midi": 69,
          "time": 136.39272074999784,
          "velocity": 0.8661417322834646,
          "duration": 0.10267846875001396
        },
        {
          "name": "C5",
          "midi": 72,
          "time": 136.39272074999784,
          "velocity": 0.8661417322834646,
          "duration": 0.10267846875001396
        },
        {
          "name": "G3",
          "midi": 55,
          "time": 136.49986349999784,
          "velocity": 0.8661417322834646,
          "duration": 0.20982121874999393
        },
        {
          "name": "A#3",
          "midi": 58,
          "time": 136.49986349999784,
          "velocity": 0.8661417322834646,
          "duration": 0.20982121874999393
        },
        {
          "name": "G4",
          "midi": 67,
          "time": 136.49986349999784,
          "velocity": 0.8661417322834646,
          "duration": 0.20982121874999393
        },
        {
          "name": "A#4",
          "midi": 70,
          "time": 136.49986349999784,
          "velocity": 0.8661417322834646,
          "duration": 0.20982121874999393
        },
        {
          "name": "A#3",
          "midi": 58,
          "time": 136.71414899999783,
          "velocity": 0.8661417322834646,
          "duration": 0.20982121874999393
        },
        {
          "name": "D4",
          "midi": 62,
          "time": 136.71414899999783,
          "velocity": 0.8661417322834646,
          "duration": 0.20982121874999393
        },
        {
          "name": "A#4",
          "midi": 70,
          "time": 136.71414899999783,
          "velocity": 0.8661417322834646,
          "duration": 0.20982121874999393
        },
        {
          "name": "D5",
          "midi": 74,
          "time": 136.71414899999783,
          "velocity": 0.8661417322834646,
          "duration": 0.20982121874999393
        },
        {
          "name": "C4",
          "midi": 60,
          "time": 136.92843449999782,
          "velocity": 0.8661417322834646,
          "duration": 0.20982121874999393
        },
        {
          "name": "D#4",
          "midi": 63,
          "time": 136.92843449999782,
          "velocity": 0.8661417322834646,
          "duration": 0.20982121874999393
        },
        {
          "name": "C5",
          "midi": 72,
          "time": 136.92843449999782,
          "velocity": 0.8661417322834646,
          "duration": 0.20982121874999393
        },
        {
          "name": "D#5",
          "midi": 75,
          "time": 136.92843449999782,
          "velocity": 0.8661417322834646,
          "duration": 0.20982121874999393
        },
        {
          "name": "A#3",
          "midi": 58,
          "time": 137.1427199999978,
          "velocity": 0.8661417322834646,
          "duration": 0.10267846875001396
        },
        {
          "name": "D4",
          "midi": 62,
          "time": 137.1427199999978,
          "velocity": 0.8661417322834646,
          "duration": 0.10267846875001396
        },
        {
          "name": "A#4",
          "midi": 70,
          "time": 137.1427199999978,
          "velocity": 0.8661417322834646,
          "duration": 0.10267846875001396
        },
        {
          "name": "D5",
          "midi": 74,
          "time": 137.1427199999978,
          "velocity": 0.8661417322834646,
          "duration": 0.10267846875001396
        },
        {
          "name": "A3",
          "midi": 57,
          "time": 137.24986274999782,
          "velocity": 0.8661417322834646,
          "duration": 0.10267846875001396
        },
        {
          "name": "C4",
          "midi": 60,
          "time": 137.24986274999782,
          "velocity": 0.8661417322834646,
          "duration": 0.10267846875001396
        },
        {
          "name": "A4",
          "midi": 69,
          "time": 137.24986274999782,
          "velocity": 0.8661417322834646,
          "duration": 0.10267846875001396
        },
        {
          "name": "C5",
          "midi": 72,
          "time": 137.24986274999782,
          "velocity": 0.8661417322834646,
          "duration": 0.10267846875001396
        },
        {
          "name": "G3",
          "midi": 55,
          "time": 137.35700549999783,
          "velocity": 0.8661417322834646,
          "duration": 0.20982121874999393
        },
        {
          "name": "A#3",
          "midi": 58,
          "time": 137.35700549999783,
          "velocity": 0.8661417322834646,
          "duration": 0.20982121874999393
        },
        {
          "name": "G4",
          "midi": 67,
          "time": 137.35700549999783,
          "velocity": 0.8661417322834646,
          "duration": 0.20982121874999393
        },
        {
          "name": "A#4",
          "midi": 70,
          "time": 137.35700549999783,
          "velocity": 0.8661417322834646,
          "duration": 0.20982121874999393
        },
        {
          "name": "A#3",
          "midi": 58,
          "time": 137.5712909999978,
          "velocity": 0.8661417322834646,
          "duration": 0.20982121874999393
        },
        {
          "name": "D4",
          "midi": 62,
          "time": 137.5712909999978,
          "velocity": 0.8661417322834646,
          "duration": 0.20982121874999393
        },
        {
          "name": "A#4",
          "midi": 70,
          "time": 137.5712909999978,
          "velocity": 0.8661417322834646,
          "duration": 0.20982121874999393
        },
        {
          "name": "D5",
          "midi": 74,
          "time": 137.5712909999978,
          "velocity": 0.8661417322834646,
          "duration": 0.20982121874999393
        },
        {
          "name": "A#5",
          "midi": 82,
          "time": 137.5712909999978,
          "velocity": 0.8661417322834646,
          "duration": 0.20982121874999393
        },
        {
          "name": "C4",
          "midi": 60,
          "time": 137.7855764999978,
          "velocity": 0.8661417322834646,
          "duration": 0.20982121874999393
        },
        {
          "name": "D#4",
          "midi": 63,
          "time": 137.7855764999978,
          "velocity": 0.8661417322834646,
          "duration": 0.20982121874999393
        },
        {
          "name": "C5",
          "midi": 72,
          "time": 137.7855764999978,
          "velocity": 0.8661417322834646,
          "duration": 0.20982121874999393
        },
        {
          "name": "D#5",
          "midi": 75,
          "time": 137.7855764999978,
          "velocity": 0.8661417322834646,
          "duration": 0.20982121874999393
        },
        {
          "name": "C6",
          "midi": 84,
          "time": 137.7855764999978,
          "velocity": 0.8661417322834646,
          "duration": 0.20982121874999393
        },
        {
          "name": "A#3",
          "midi": 58,
          "time": 137.9998619999978,
          "velocity": 0.8661417322834646,
          "duration": 0.10267846875001396
        },
        {
          "name": "D4",
          "midi": 62,
          "time": 137.9998619999978,
          "velocity": 0.8661417322834646,
          "duration": 0.10267846875001396
        },
        {
          "name": "A#4",
          "midi": 70,
          "time": 137.9998619999978,
          "velocity": 0.8661417322834646,
          "duration": 0.10267846875001396
        },
        {
          "name": "D5",
          "midi": 74,
          "time": 137.9998619999978,
          "velocity": 0.8661417322834646,
          "duration": 0.10267846875001396
        },
        {
          "name": "A#5",
          "midi": 82,
          "time": 137.9998619999978,
          "velocity": 0.8661417322834646,
          "duration": 0.10267846875001396
        },
        {
          "name": "A3",
          "midi": 57,
          "time": 138.1070047499978,
          "velocity": 0.8661417322834646,
          "duration": 0.10267846875001396
        },
        {
          "name": "C4",
          "midi": 60,
          "time": 138.1070047499978,
          "velocity": 0.8661417322834646,
          "duration": 0.10267846875001396
        },
        {
          "name": "A4",
          "midi": 69,
          "time": 138.1070047499978,
          "velocity": 0.8661417322834646,
          "duration": 0.10267846875001396
        },
        {
          "name": "C5",
          "midi": 72,
          "time": 138.1070047499978,
          "velocity": 0.8661417322834646,
          "duration": 0.10267846875001396
        },
        {
          "name": "A5",
          "midi": 81,
          "time": 138.1070047499978,
          "velocity": 0.8661417322834646,
          "duration": 0.10267846875001396
        },
        {
          "name": "G3",
          "midi": 55,
          "time": 138.2141474999978,
          "velocity": 0.8661417322834646,
          "duration": 0.20982121874999393
        },
        {
          "name": "A#3",
          "midi": 58,
          "time": 138.2141474999978,
          "velocity": 0.8661417322834646,
          "duration": 0.20982121874999393
        },
        {
          "name": "G4",
          "midi": 67,
          "time": 138.2141474999978,
          "velocity": 0.8661417322834646,
          "duration": 0.20982121874999393
        },
        {
          "name": "A#4",
          "midi": 70,
          "time": 138.2141474999978,
          "velocity": 0.8661417322834646,
          "duration": 0.20982121874999393
        },
        {
          "name": "G5",
          "midi": 79,
          "time": 138.2141474999978,
          "velocity": 0.8661417322834646,
          "duration": 0.20982121874999393
        },
        {
          "name": "A#3",
          "midi": 58,
          "time": 138.4284329999978,
          "velocity": 0.8661417322834646,
          "duration": 0.20982121874999393
        },
        {
          "name": "D4",
          "midi": 62,
          "time": 138.4284329999978,
          "velocity": 0.8661417322834646,
          "duration": 0.20982121874999393
        },
        {
          "name": "A#4",
          "midi": 70,
          "time": 138.4284329999978,
          "velocity": 0.8661417322834646,
          "duration": 0.20982121874999393
        },
        {
          "name": "D5",
          "midi": 74,
          "time": 138.4284329999978,
          "velocity": 0.8661417322834646,
          "duration": 0.20982121874999393
        },
        {
          "name": "A#5",
          "midi": 82,
          "time": 138.4284329999978,
          "velocity": 0.8661417322834646,
          "duration": 0.20982121874999393
        },
        {
          "name": "C4",
          "midi": 60,
          "time": 138.64271849999778,
          "velocity": 0.8661417322834646,
          "duration": 0.20982121874999393
        },
        {
          "name": "D#4",
          "midi": 63,
          "time": 138.64271849999778,
          "velocity": 0.8661417322834646,
          "duration": 0.20982121874999393
        },
        {
          "name": "C5",
          "midi": 72,
          "time": 138.64271849999778,
          "velocity": 0.8661417322834646,
          "duration": 0.20982121874999393
        },
        {
          "name": "D#5",
          "midi": 75,
          "time": 138.64271849999778,
          "velocity": 0.8661417322834646,
          "duration": 0.20982121874999393
        },
        {
          "name": "C6",
          "midi": 84,
          "time": 138.64271849999778,
          "velocity": 0.8661417322834646,
          "duration": 0.20982121874999393
        },
        {
          "name": "A#3",
          "midi": 58,
          "time": 138.85700399999777,
          "velocity": 0.8661417322834646,
          "duration": 0.10267846875001396
        },
        {
          "name": "D4",
          "midi": 62,
          "time": 138.85700399999777,
          "velocity": 0.8661417322834646,
          "duration": 0.10267846875001396
        },
        {
          "name": "A#4",
          "midi": 70,
          "time": 138.85700399999777,
          "velocity": 0.8661417322834646,
          "duration": 0.10267846875001396
        },
        {
          "name": "D5",
          "midi": 74,
          "time": 138.85700399999777,
          "velocity": 0.8661417322834646,
          "duration": 0.10267846875001396
        },
        {
          "name": "A#5",
          "midi": 82,
          "time": 138.85700399999777,
          "velocity": 0.8661417322834646,
          "duration": 0.10267846875001396
        },
        {
          "name": "A3",
          "midi": 57,
          "time": 138.96414674999778,
          "velocity": 0.8661417322834646,
          "duration": 0.10267846875001396
        },
        {
          "name": "C4",
          "midi": 60,
          "time": 138.96414674999778,
          "velocity": 0.8661417322834646,
          "duration": 0.10267846875001396
        },
        {
          "name": "A4",
          "midi": 69,
          "time": 138.96414674999778,
          "velocity": 0.8661417322834646,
          "duration": 0.10267846875001396
        },
        {
          "name": "C5",
          "midi": 72,
          "time": 138.96414674999778,
          "velocity": 0.8661417322834646,
          "duration": 0.10267846875001396
        },
        {
          "name": "A5",
          "midi": 81,
          "time": 138.96414674999778,
          "velocity": 0.8661417322834646,
          "duration": 0.10267846875001396
        },
        {
          "name": "G3",
          "midi": 55,
          "time": 139.0712894999978,
          "velocity": 0.8661417322834646,
          "duration": 0.20982121874999393
        },
        {
          "name": "A#3",
          "midi": 58,
          "time": 139.0712894999978,
          "velocity": 0.8661417322834646,
          "duration": 0.20982121874999393
        },
        {
          "name": "G4",
          "midi": 67,
          "time": 139.0712894999978,
          "velocity": 0.8661417322834646,
          "duration": 0.20982121874999393
        },
        {
          "name": "A#4",
          "midi": 70,
          "time": 139.0712894999978,
          "velocity": 0.8661417322834646,
          "duration": 0.20982121874999393
        },
        {
          "name": "G5",
          "midi": 79,
          "time": 139.0712894999978,
          "velocity": 0.8661417322834646,
          "duration": 0.20982121874999393
        },
        {
          "name": "A#3",
          "midi": 58,
          "time": 139.28557499999778,
          "velocity": 0.8661417322834646,
          "duration": 0.20982121874999393
        },
        {
          "name": "D4",
          "midi": 62,
          "time": 139.28557499999778,
          "velocity": 0.8661417322834646,
          "duration": 0.20982121874999393
        },
        {
          "name": "A#4",
          "midi": 70,
          "time": 139.28557499999778,
          "velocity": 0.8661417322834646,
          "duration": 0.20982121874999393
        },
        {
          "name": "D5",
          "midi": 74,
          "time": 139.28557499999778,
          "velocity": 0.8661417322834646,
          "duration": 0.20982121874999393
        },
        {
          "name": "A#5",
          "midi": 82,
          "time": 139.28557499999778,
          "velocity": 0.8661417322834646,
          "duration": 0.20982121874999393
        },
        {
          "name": "C4",
          "midi": 60,
          "time": 139.49986049999777,
          "velocity": 0.8661417322834646,
          "duration": 0.20982121874999393
        },
        {
          "name": "D#4",
          "midi": 63,
          "time": 139.49986049999777,
          "velocity": 0.8661417322834646,
          "duration": 0.20982121874999393
        },
        {
          "name": "C5",
          "midi": 72,
          "time": 139.49986049999777,
          "velocity": 0.8661417322834646,
          "duration": 0.20982121874999393
        },
        {
          "name": "D#5",
          "midi": 75,
          "time": 139.49986049999777,
          "velocity": 0.8661417322834646,
          "duration": 0.20982121874999393
        },
        {
          "name": "C6",
          "midi": 84,
          "time": 139.49986049999777,
          "velocity": 0.8661417322834646,
          "duration": 0.20982121874999393
        },
        {
          "name": "A#3",
          "midi": 58,
          "time": 139.71414599999775,
          "velocity": 0.8661417322834646,
          "duration": 0.10267846875001396
        },
        {
          "name": "D4",
          "midi": 62,
          "time": 139.71414599999775,
          "velocity": 0.8661417322834646,
          "duration": 0.10267846875001396
        },
        {
          "name": "A#4",
          "midi": 70,
          "time": 139.71414599999775,
          "velocity": 0.8661417322834646,
          "duration": 0.10267846875001396
        },
        {
          "name": "D5",
          "midi": 74,
          "time": 139.71414599999775,
          "velocity": 0.8661417322834646,
          "duration": 0.10267846875001396
        },
        {
          "name": "A#5",
          "midi": 82,
          "time": 139.71414599999775,
          "velocity": 0.8661417322834646,
          "duration": 0.10267846875001396
        },
        {
          "name": "A3",
          "midi": 57,
          "time": 139.82128874999776,
          "velocity": 0.8661417322834646,
          "duration": 0.10267846875001396
        },
        {
          "name": "C4",
          "midi": 60,
          "time": 139.82128874999776,
          "velocity": 0.8661417322834646,
          "duration": 0.10267846875001396
        },
        {
          "name": "A4",
          "midi": 69,
          "time": 139.82128874999776,
          "velocity": 0.8661417322834646,
          "duration": 0.10267846875001396
        },
        {
          "name": "C5",
          "midi": 72,
          "time": 139.82128874999776,
          "velocity": 0.8661417322834646,
          "duration": 0.10267846875001396
        },
        {
          "name": "A5",
          "midi": 81,
          "time": 139.82128874999776,
          "velocity": 0.8661417322834646,
          "duration": 0.10267846875001396
        },
        {
          "name": "G3",
          "midi": 55,
          "time": 139.92843149999777,
          "velocity": 0.8661417322834646,
          "duration": 0.20982121874999393
        },
        {
          "name": "A#3",
          "midi": 58,
          "time": 139.92843149999777,
          "velocity": 0.8661417322834646,
          "duration": 0.20982121874999393
        },
        {
          "name": "G4",
          "midi": 67,
          "time": 139.92843149999777,
          "velocity": 0.8661417322834646,
          "duration": 0.20982121874999393
        },
        {
          "name": "A#4",
          "midi": 70,
          "time": 139.92843149999777,
          "velocity": 0.8661417322834646,
          "duration": 0.20982121874999393
        },
        {
          "name": "G5",
          "midi": 79,
          "time": 139.92843149999777,
          "velocity": 0.8661417322834646,
          "duration": 0.20982121874999393
        },
        {
          "name": "A#3",
          "midi": 58,
          "time": 140.14271699999776,
          "velocity": 0.8661417322834646,
          "duration": 0.20982121874999393
        },
        {
          "name": "D4",
          "midi": 62,
          "time": 140.14271699999776,
          "velocity": 0.8661417322834646,
          "duration": 0.20982121874999393
        },
        {
          "name": "A#4",
          "midi": 70,
          "time": 140.14271699999776,
          "velocity": 0.8661417322834646,
          "duration": 0.20982121874999393
        },
        {
          "name": "D5",
          "midi": 74,
          "time": 140.14271699999776,
          "velocity": 0.8661417322834646,
          "duration": 0.20982121874999393
        },
        {
          "name": "A#5",
          "midi": 82,
          "time": 140.14271699999776,
          "velocity": 0.8661417322834646,
          "duration": 0.20982121874999393
        },
        {
          "name": "C4",
          "midi": 60,
          "time": 140.35700249999775,
          "velocity": 0.8661417322834646,
          "duration": 0.20982121874999393
        },
        {
          "name": "D#4",
          "midi": 63,
          "time": 140.35700249999775,
          "velocity": 0.8661417322834646,
          "duration": 0.20982121874999393
        },
        {
          "name": "C5",
          "midi": 72,
          "time": 140.35700249999775,
          "velocity": 0.8661417322834646,
          "duration": 0.20982121874999393
        },
        {
          "name": "D#5",
          "midi": 75,
          "time": 140.35700249999775,
          "velocity": 0.8661417322834646,
          "duration": 0.20982121874999393
        },
        {
          "name": "C6",
          "midi": 84,
          "time": 140.35700249999775,
          "velocity": 0.8661417322834646,
          "duration": 0.20982121874999393
        },
        {
          "name": "A#3",
          "midi": 58,
          "time": 140.57128799999774,
          "velocity": 0.8661417322834646,
          "duration": 0.10267846875001396
        },
        {
          "name": "D4",
          "midi": 62,
          "time": 140.57128799999774,
          "velocity": 0.8661417322834646,
          "duration": 0.10267846875001396
        },
        {
          "name": "A#4",
          "midi": 70,
          "time": 140.57128799999774,
          "velocity": 0.8661417322834646,
          "duration": 0.10267846875001396
        },
        {
          "name": "D5",
          "midi": 74,
          "time": 140.57128799999774,
          "velocity": 0.8661417322834646,
          "duration": 0.10267846875001396
        },
        {
          "name": "A#5",
          "midi": 82,
          "time": 140.57128799999774,
          "velocity": 0.8661417322834646,
          "duration": 0.10267846875001396
        },
        {
          "name": "A3",
          "midi": 57,
          "time": 140.67843074999774,
          "velocity": 0.8661417322834646,
          "duration": 0.10267846875001396
        },
        {
          "name": "C4",
          "midi": 60,
          "time": 140.67843074999774,
          "velocity": 0.8661417322834646,
          "duration": 0.10267846875001396
        },
        {
          "name": "A4",
          "midi": 69,
          "time": 140.67843074999774,
          "velocity": 0.8661417322834646,
          "duration": 0.10267846875001396
        },
        {
          "name": "C5",
          "midi": 72,
          "time": 140.67843074999774,
          "velocity": 0.8661417322834646,
          "duration": 0.10267846875001396
        },
        {
          "name": "A5",
          "midi": 81,
          "time": 140.67843074999774,
          "velocity": 0.8661417322834646,
          "duration": 0.10267846875001396
        },
        {
          "name": "G3",
          "midi": 55,
          "time": 140.78557349999775,
          "velocity": 0.8661417322834646,
          "duration": 0.20982121874999393
        },
        {
          "name": "A#3",
          "midi": 58,
          "time": 140.78557349999775,
          "velocity": 0.8661417322834646,
          "duration": 0.20982121874999393
        },
        {
          "name": "G4",
          "midi": 67,
          "time": 140.78557349999775,
          "velocity": 0.8661417322834646,
          "duration": 0.20982121874999393
        },
        {
          "name": "A#4",
          "midi": 70,
          "time": 140.78557349999775,
          "velocity": 0.8661417322834646,
          "duration": 0.20982121874999393
        },
        {
          "name": "G5",
          "midi": 79,
          "time": 140.78557349999775,
          "velocity": 0.8661417322834646,
          "duration": 0.20982121874999393
        },
        {
          "name": "G3",
          "midi": 55,
          "time": 140.99985899999774,
          "velocity": 0.8661417322834646,
          "duration": 0.20982121874999393
        },
        {
          "name": "A3",
          "midi": 57,
          "time": 141.21414449999773,
          "velocity": 0.8661417322834646,
          "duration": 0.20982121874999393
        },
        {
          "name": "G3",
          "midi": 55,
          "time": 141.42842999999772,
          "velocity": 0.8661417322834646,
          "duration": 0.10267846875001396
        },
        {
          "name": "F#3",
          "midi": 54,
          "time": 141.53557274999773,
          "velocity": 0.8661417322834646,
          "duration": 0.10267846875001396
        },
        {
          "name": "E3",
          "midi": 52,
          "time": 141.64271549999773,
          "velocity": 0.8661417322834646,
          "duration": 0.20982121874999393
        },
        {
          "name": "G3",
          "midi": 55,
          "time": 141.85700099999772,
          "velocity": 0.8661417322834646,
          "duration": 0.20982121874999393
        },
        {
          "name": "A3",
          "midi": 57,
          "time": 142.0712864999977,
          "velocity": 0.8661417322834646,
          "duration": 0.20982121874999393
        },
        {
          "name": "G3",
          "midi": 55,
          "time": 142.2855719999977,
          "velocity": 0.8661417322834646,
          "duration": 0.10267846875001396
        },
        {
          "name": "F#3",
          "midi": 54,
          "time": 142.3927147499977,
          "velocity": 0.8661417322834646,
          "duration": 0.10267846875001396
        },
        {
          "name": "E3",
          "midi": 52,
          "time": 142.49985749999772,
          "velocity": 0.8661417322834646,
          "duration": 0.20982121874999393
        },
        {
          "name": "G3",
          "midi": 55,
          "time": 142.7141429999977,
          "velocity": 0.8661417322834646,
          "duration": 0.20982121874999393
        },
        {
          "name": "A3",
          "midi": 57,
          "time": 142.9284284999977,
          "velocity": 0.8661417322834646,
          "duration": 0.20982121874999393
        },
        {
          "name": "G3",
          "midi": 55,
          "time": 143.14271399999768,
          "velocity": 0.8661417322834646,
          "duration": 0.10267846875001396
        },
        {
          "name": "F#3",
          "midi": 54,
          "time": 143.2498567499977,
          "velocity": 0.8661417322834646,
          "duration": 0.10267846875001396
        },
        {
          "name": "E3",
          "midi": 52,
          "time": 143.3569994999977,
          "velocity": 0.8661417322834646,
          "duration": 0.20982121874999393
        },
        {
          "name": "G3",
          "midi": 55,
          "time": 143.5712849999977,
          "velocity": 0.8661417322834646,
          "duration": 0.20982121874999393
        },
        {
          "name": "A3",
          "midi": 57,
          "time": 143.78557049999768,
          "velocity": 0.8661417322834646,
          "duration": 0.20982121874999393
        },
        {
          "name": "G3",
          "midi": 55,
          "time": 143.99985599999766,
          "velocity": 0.8661417322834646,
          "duration": 0.10267846875001396
        },
        {
          "name": "F#3",
          "midi": 54,
          "time": 144.10699874999767,
          "velocity": 0.8661417322834646,
          "duration": 0.10267846875001396
        },
        {
          "name": "E3",
          "midi": 52,
          "time": 144.21414149999768,
          "velocity": 0.8661417322834646,
          "duration": 0.20982121874999393
        },
        {
          "name": "G3",
          "midi": 55,
          "time": 144.42842699999767,
          "velocity": 0.8661417322834646,
          "duration": 0.20982121874999393
        },
        {
          "name": "A3",
          "midi": 57,
          "time": 144.64271249999766,
          "velocity": 0.8661417322834646,
          "duration": 0.20982121874999393
        },
        {
          "name": "G3",
          "midi": 55,
          "time": 144.85699799999765,
          "velocity": 0.8661417322834646,
          "duration": 0.10267846875001396
        },
        {
          "name": "F#3",
          "midi": 54,
          "time": 144.96414074999765,
          "velocity": 0.8661417322834646,
          "duration": 0.10267846875001396
        },
        {
          "name": "E3",
          "midi": 52,
          "time": 145.07128349999766,
          "velocity": 0.8661417322834646,
          "duration": 0.20982121874999393
        },
        {
          "name": "G3",
          "midi": 55,
          "time": 145.28556899999765,
          "velocity": 0.8661417322834646,
          "duration": 0.20982121874999393
        },
        {
          "name": "A3",
          "midi": 57,
          "time": 145.49985449999764,
          "velocity": 0.8661417322834646,
          "duration": 0.20982121874999393
        },
        {
          "name": "G3",
          "midi": 55,
          "time": 145.71413999999763,
          "velocity": 0.8661417322834646,
          "duration": 0.10267846875001396
        },
        {
          "name": "F#3",
          "midi": 54,
          "time": 145.82128274999764,
          "velocity": 0.8661417322834646,
          "duration": 0.10267846875001396
        },
        {
          "name": "E3",
          "midi": 52,
          "time": 145.92842549999764,
          "velocity": 0.8661417322834646,
          "duration": 0.20982121874999393
        },
        {
          "name": "G3",
          "midi": 55,
          "time": 146.14271099999763,
          "velocity": 0.8661417322834646,
          "duration": 0.20982121874999393
        },
        {
          "name": "A3",
          "midi": 57,
          "time": 146.35699649999762,
          "velocity": 0.8661417322834646,
          "duration": 0.20982121874999393
        },
        {
          "name": "G3",
          "midi": 55,
          "time": 146.5712819999976,
          "velocity": 0.8661417322834646,
          "duration": 0.10267846875001396
        },
        {
          "name": "F#3",
          "midi": 54,
          "time": 146.67842474999762,
          "velocity": 0.8661417322834646,
          "duration": 0.10267846875001396
        },
        {
          "name": "E3",
          "midi": 52,
          "time": 146.78556749999763,
          "velocity": 0.8661417322834646,
          "duration": 0.20982121874999393
        },
        {
          "name": "G3",
          "midi": 55,
          "time": 146.99985299999761,
          "velocity": 0.8661417322834646,
          "duration": 0.20982121874999393
        },
        {
          "name": "A3",
          "midi": 57,
          "time": 147.2141384999976,
          "velocity": 0.8661417322834646,
          "duration": 0.20982121874999393
        },
        {
          "name": "G3",
          "midi": 55,
          "time": 147.4284239999976,
          "velocity": 0.8661417322834646,
          "duration": 0.10267846875001396
        },
        {
          "name": "F#3",
          "midi": 54,
          "time": 147.5355667499976,
          "velocity": 0.8661417322834646,
          "duration": 0.10267846875001396
        },
        {
          "name": "E3",
          "midi": 52,
          "time": 147.6427094999976,
          "velocity": 0.8661417322834646,
          "duration": 0.20982121874999393
        },
        {
          "name": "G3",
          "midi": 55,
          "time": 147.8569949999976,
          "velocity": 0.8661417322834646,
          "duration": 0.20982121874999393
        },
        {
          "name": "A3",
          "midi": 57,
          "time": 148.07128049999758,
          "velocity": 0.8661417322834646,
          "duration": 0.20982121874999393
        },
        {
          "name": "G3",
          "midi": 55,
          "time": 148.28556599999757,
          "velocity": 0.8661417322834646,
          "duration": 0.10267846875001396
        },
        {
          "name": "F#3",
          "midi": 54,
          "time": 148.39270874999758,
          "velocity": 0.8661417322834646,
          "duration": 0.10267846875001396
        },
        {
          "name": "E3",
          "midi": 52,
          "time": 148.4998514999976,
          "velocity": 0.8661417322834646,
          "duration": 0.20982121874999393
        },
        {
          "name": "G3",
          "midi": 55,
          "time": 148.71413699999758,
          "velocity": 0.8661417322834646,
          "duration": 0.20982121874999393
        },
        {
          "name": "A3",
          "midi": 57,
          "time": 148.92842249999757,
          "velocity": 0.8661417322834646,
          "duration": 0.20982121874999393
        },
        {
          "name": "G3",
          "midi": 55,
          "time": 149.14270799999755,
          "velocity": 0.8661417322834646,
          "duration": 0.10267846875001396
        },
        {
          "name": "F#3",
          "midi": 54,
          "time": 149.24985074999756,
          "velocity": 0.8661417322834646,
          "duration": 0.10267846875001396
        },
        {
          "name": "E3",
          "midi": 52,
          "time": 149.35699349999757,
          "velocity": 0.8661417322834646,
          "duration": 0.20982121874999393
        },
        {
          "name": "G3",
          "midi": 55,
          "time": 149.57127899999756,
          "velocity": 0.8661417322834646,
          "duration": 0.20982121874999393
        },
        {
          "name": "A3",
          "midi": 57,
          "time": 149.78556449999755,
          "velocity": 0.8661417322834646,
          "duration": 0.20982121874999393
        },
        {
          "name": "G3",
          "midi": 55,
          "time": 149.99984999999754,
          "velocity": 0.8661417322834646,
          "duration": 0.10267846875001396
        },
        {
          "name": "F#3",
          "midi": 54,
          "time": 150.10699274999754,
          "velocity": 0.8661417322834646,
          "duration": 0.10267846875001396
        },
        {
          "name": "E3",
          "midi": 52,
          "time": 150.21413549999755,
          "velocity": 0.8661417322834646,
          "duration": 0.20982121874999393
        },
        {
          "name": "G3",
          "midi": 55,
          "time": 150.42842099999754,
          "velocity": 0.8661417322834646,
          "duration": 0.20982121874999393
        },
        {
          "name": "A3",
          "midi": 57,
          "time": 150.64270649999753,
          "velocity": 0.8661417322834646,
          "duration": 0.20982121874999393
        },
        {
          "name": "G3",
          "midi": 55,
          "time": 150.85699199999752,
          "velocity": 0.8661417322834646,
          "duration": 0.10267846875001396
        },
        {
          "name": "F#3",
          "midi": 54,
          "time": 150.96413474999753,
          "velocity": 0.8661417322834646,
          "duration": 0.10267846875001396
        },
        {
          "name": "E3",
          "midi": 52,
          "time": 151.07127749999754,
          "velocity": 0.8661417322834646,
          "duration": 0.20982121874999393
        },
        {
          "name": "G3",
          "midi": 55,
          "time": 151.28556299999752,
          "velocity": 0.8661417322834646,
          "duration": 0.20982121874999393
        },
        {
          "name": "A3",
          "midi": 57,
          "time": 151.4998484999975,
          "velocity": 0.8661417322834646,
          "duration": 0.20982121874999393
        },
        {
          "name": "G3",
          "midi": 55,
          "time": 151.7141339999975,
          "velocity": 0.8661417322834646,
          "duration": 0.10267846875001396
        },
        {
          "name": "F#3",
          "midi": 54,
          "time": 151.8212767499975,
          "velocity": 0.8661417322834646,
          "duration": 0.10267846875001396
        },
        {
          "name": "E3",
          "midi": 52,
          "time": 151.92841949999752,
          "velocity": 0.8661417322834646,
          "duration": 0.20982121874999393
        },
        {
          "name": "G3",
          "midi": 55,
          "time": 152.1427049999975,
          "velocity": 0.8661417322834646,
          "duration": 0.20982121874999393
        },
        {
          "name": "A3",
          "midi": 57,
          "time": 152.3569904999975,
          "velocity": 0.8661417322834646,
          "duration": 0.20982121874999393
        },
        {
          "name": "G3",
          "midi": 55,
          "time": 152.57127599999748,
          "velocity": 0.8661417322834646,
          "duration": 0.10267846875001396
        },
        {
          "name": "F#3",
          "midi": 54,
          "time": 152.6784187499975,
          "velocity": 0.8661417322834646,
          "duration": 0.10267846875001396
        },
        {
          "name": "E3",
          "midi": 52,
          "time": 152.7855614999975,
          "velocity": 0.8661417322834646,
          "duration": 0.20982121874999393
        },
        {
          "name": "G3",
          "midi": 55,
          "time": 152.9998469999975,
          "velocity": 0.8661417322834646,
          "duration": 0.20982121874999393
        },
        {
          "name": "A3",
          "midi": 57,
          "time": 153.21413249999748,
          "velocity": 0.8661417322834646,
          "duration": 0.20982121874999393
        },
        {
          "name": "G3",
          "midi": 55,
          "time": 153.42841799999746,
          "velocity": 0.8661417322834646,
          "duration": 0.10267846875001396
        },
        {
          "name": "F#3",
          "midi": 54,
          "time": 153.53556074999747,
          "velocity": 0.8661417322834646,
          "duration": 0.10267846875001396
        },
        {
          "name": "E3",
          "midi": 52,
          "time": 153.64270349999748,
          "velocity": 0.8661417322834646,
          "duration": 0.20982121874999393
        },
        {
          "name": "G3",
          "midi": 55,
          "time": 153.85698899999747,
          "velocity": 0.8661417322834646,
          "duration": 0.20982121874999393
        },
        {
          "name": "A3",
          "midi": 57,
          "time": 154.07127449999746,
          "velocity": 0.8661417322834646,
          "duration": 0.20982121874999393
        },
        {
          "name": "G3",
          "midi": 55,
          "time": 154.28555999999745,
          "velocity": 0.8661417322834646,
          "duration": 0.10267846875001396
        },
        {
          "name": "F#3",
          "midi": 54,
          "time": 154.39270274999745,
          "velocity": 0.8661417322834646,
          "duration": 0.10267846875001396
        },
        {
          "name": "E3",
          "midi": 52,
          "time": 154.49984549999746,
          "velocity": 0.8661417322834646,
          "duration": 0.20982121874999393
        },
        {
          "name": "G3",
          "midi": 55,
          "time": 154.71413099999745,
          "velocity": 0.8661417322834646,
          "duration": 0.20982121874999393
        },
        {
          "name": "G4",
          "midi": 67,
          "time": 154.71413099999745,
          "velocity": 0.8661417322834646,
          "duration": 0.20982121874999393
        },
        {
          "name": "A3",
          "midi": 57,
          "time": 154.92841649999744,
          "velocity": 0.8661417322834646,
          "duration": 0.20982121874999393
        },
        {
          "name": "A4",
          "midi": 69,
          "time": 154.92841649999744,
          "velocity": 0.8661417322834646,
          "duration": 0.20982121874999393
        },
        {
          "name": "G3",
          "midi": 55,
          "time": 155.14270199999743,
          "velocity": 0.8661417322834646,
          "duration": 0.10267846875001396
        },
        {
          "name": "G4",
          "midi": 67,
          "time": 155.14270199999743,
          "velocity": 0.8661417322834646,
          "duration": 0.10267846875001396
        },
        {
          "name": "F#3",
          "midi": 54,
          "time": 155.24984474999744,
          "velocity": 0.8661417322834646,
          "duration": 0.10267846875001396
        },
        {
          "name": "F#4",
          "midi": 66,
          "time": 155.24984474999744,
          "velocity": 0.8661417322834646,
          "duration": 0.10267846875001396
        },
        {
          "name": "E3",
          "midi": 52,
          "time": 155.35698749999744,
          "velocity": 0.8661417322834646,
          "duration": 0.20982121874999393
        },
        {
          "name": "E4",
          "midi": 64,
          "time": 155.35698749999744,
          "velocity": 0.8661417322834646,
          "duration": 0.20982121874999393
        },
        {
          "name": "G3",
          "midi": 55,
          "time": 155.57127299999743,
          "velocity": 0.8661417322834646,
          "duration": 0.20982121874999393
        },
        {
          "name": "G4",
          "midi": 67,
          "time": 155.57127299999743,
          "velocity": 0.8661417322834646,
          "duration": 0.20982121874999393
        },
        {
          "name": "A3",
          "midi": 57,
          "time": 155.78555849999742,
          "velocity": 0.8661417322834646,
          "duration": 0.20982121874999393
        },
        {
          "name": "A4",
          "midi": 69,
          "time": 155.78555849999742,
          "velocity": 0.8661417322834646,
          "duration": 0.20982121874999393
        },
        {
          "name": "G3",
          "midi": 55,
          "time": 155.9998439999974,
          "velocity": 0.8661417322834646,
          "duration": 0.10267846875001396
        },
        {
          "name": "G4",
          "midi": 67,
          "time": 155.9998439999974,
          "velocity": 0.8661417322834646,
          "duration": 0.10267846875001396
        },
        {
          "name": "F#3",
          "midi": 54,
          "time": 156.10698674999742,
          "velocity": 0.8661417322834646,
          "duration": 0.10267846875001396
        },
        {
          "name": "F#4",
          "midi": 66,
          "time": 156.10698674999742,
          "velocity": 0.8661417322834646,
          "duration": 0.10267846875001396
        },
        {
          "name": "E3",
          "midi": 52,
          "time": 156.21412949999743,
          "velocity": 0.8661417322834646,
          "duration": 0.20982121874999393
        },
        {
          "name": "E4",
          "midi": 64,
          "time": 156.21412949999743,
          "velocity": 0.8661417322834646,
          "duration": 0.20982121874999393
        },
        {
          "name": "G3",
          "midi": 55,
          "time": 156.42841499999741,
          "velocity": 0.8661417322834646,
          "duration": 0.20982121874999393
        },
        {
          "name": "G4",
          "midi": 67,
          "time": 156.42841499999741,
          "velocity": 0.8661417322834646,
          "duration": 0.20982121874999393
        },
        {
          "name": "A3",
          "midi": 57,
          "time": 156.6427004999974,
          "velocity": 0.8661417322834646,
          "duration": 0.20982121874999393
        },
        {
          "name": "A4",
          "midi": 69,
          "time": 156.6427004999974,
          "velocity": 0.8661417322834646,
          "duration": 0.20982121874999393
        },
        {
          "name": "G3",
          "midi": 55,
          "time": 156.8569859999974,
          "velocity": 0.8661417322834646,
          "duration": 0.10267846875001396
        },
        {
          "name": "G4",
          "midi": 67,
          "time": 156.8569859999974,
          "velocity": 0.8661417322834646,
          "duration": 0.10267846875001396
        },
        {
          "name": "F#3",
          "midi": 54,
          "time": 156.9641287499974,
          "velocity": 0.8661417322834646,
          "duration": 0.10267846875001396
        },
        {
          "name": "F#4",
          "midi": 66,
          "time": 156.9641287499974,
          "velocity": 0.8661417322834646,
          "duration": 0.10267846875001396
        },
        {
          "name": "E3",
          "midi": 52,
          "time": 157.0712714999974,
          "velocity": 0.8661417322834646,
          "duration": 0.20982121874999393
        },
        {
          "name": "E4",
          "midi": 64,
          "time": 157.0712714999974,
          "velocity": 0.8661417322834646,
          "duration": 0.20982121874999393
        },
        {
          "name": "G3",
          "midi": 55,
          "time": 157.2855569999974,
          "velocity": 0.8661417322834646,
          "duration": 0.20982121874999393
        },
        {
          "name": "G4",
          "midi": 67,
          "time": 157.2855569999974,
          "velocity": 0.8661417322834646,
          "duration": 0.20982121874999393
        },
        {
          "name": "A3",
          "midi": 57,
          "time": 157.49984249999738,
          "velocity": 0.8661417322834646,
          "duration": 0.20982121874999393
        },
        {
          "name": "A4",
          "midi": 69,
          "time": 157.49984249999738,
          "velocity": 0.8661417322834646,
          "duration": 0.20982121874999393
        },
        {
          "name": "G3",
          "midi": 55,
          "time": 157.71412799999737,
          "velocity": 0.8661417322834646,
          "duration": 0.10267846875001396
        },
        {
          "name": "G4",
          "midi": 67,
          "time": 157.71412799999737,
          "velocity": 0.8661417322834646,
          "duration": 0.10267846875001396
        },
        {
          "name": "F#3",
          "midi": 54,
          "time": 157.82127074999738,
          "velocity": 0.8661417322834646,
          "duration": 0.10267846875001396
        },
        {
          "name": "F#4",
          "midi": 66,
          "time": 157.82127074999738,
          "velocity": 0.8661417322834646,
          "duration": 0.10267846875001396
        },
        {
          "name": "E3",
          "midi": 52,
          "time": 157.9284134999974,
          "velocity": 0.8661417322834646,
          "duration": 0.20982121874999393
        },
        {
          "name": "E4",
          "midi": 64,
          "time": 157.9284134999974,
          "velocity": 0.8661417322834646,
          "duration": 0.20982121874999393
        },
        {
          "name": "G3",
          "midi": 55,
          "time": 158.14269899999738,
          "velocity": 0.8661417322834646,
          "duration": 0.20982121874999393
        },
        {
          "name": "G4",
          "midi": 67,
          "time": 158.14269899999738,
          "velocity": 0.8661417322834646,
          "duration": 0.20982121874999393
        },
        {
          "name": "A3",
          "midi": 57,
          "time": 158.35698449999737,
          "velocity": 0.8661417322834646,
          "duration": 0.20982121874999393
        },
        {
          "name": "A4",
          "midi": 69,
          "time": 158.35698449999737,
          "velocity": 0.8661417322834646,
          "duration": 0.20982121874999393
        },
        {
          "name": "G3",
          "midi": 55,
          "time": 158.57126999999736,
          "velocity": 0.8661417322834646,
          "duration": 0.10267846875001396
        },
        {
          "name": "G4",
          "midi": 67,
          "time": 158.57126999999736,
          "velocity": 0.8661417322834646,
          "duration": 0.10267846875001396
        },
        {
          "name": "F#3",
          "midi": 54,
          "time": 158.67841274999736,
          "velocity": 0.8661417322834646,
          "duration": 0.10267846875001396
        },
        {
          "name": "F#4",
          "midi": 66,
          "time": 158.67841274999736,
          "velocity": 0.8661417322834646,
          "duration": 0.10267846875001396
        },
        {
          "name": "E3",
          "midi": 52,
          "time": 158.78555549999737,
          "velocity": 0.8661417322834646,
          "duration": 0.20982121874999393
        },
        {
          "name": "E4",
          "midi": 64,
          "time": 158.78555549999737,
          "velocity": 0.8661417322834646,
          "duration": 0.20982121874999393
        },
        {
          "name": "G3",
          "midi": 55,
          "time": 158.99984099999736,
          "velocity": 0.8661417322834646,
          "duration": 0.20982121874999393
        },
        {
          "name": "G4",
          "midi": 67,
          "time": 158.99984099999736,
          "velocity": 0.8661417322834646,
          "duration": 0.20982121874999393
        },
        {
          "name": "A3",
          "midi": 57,
          "time": 159.21412649999735,
          "velocity": 0.8661417322834646,
          "duration": 0.20982121874999393
        },
        {
          "name": "A4",
          "midi": 69,
          "time": 159.21412649999735,
          "velocity": 0.8661417322834646,
          "duration": 0.20982121874999393
        },
        {
          "name": "G3",
          "midi": 55,
          "time": 159.42841199999734,
          "velocity": 0.8661417322834646,
          "duration": 0.10267846875001396
        },
        {
          "name": "G4",
          "midi": 67,
          "time": 159.42841199999734,
          "velocity": 0.8661417322834646,
          "duration": 0.10267846875001396
        },
        {
          "name": "F#3",
          "midi": 54,
          "time": 159.53555474999735,
          "velocity": 0.8661417322834646,
          "duration": 0.10267846875001396
        },
        {
          "name": "F#4",
          "midi": 66,
          "time": 159.53555474999735,
          "velocity": 0.8661417322834646,
          "duration": 0.10267846875001396
        },
        {
          "name": "E3",
          "midi": 52,
          "time": 159.64269749999735,
          "velocity": 0.8661417322834646,
          "duration": 0.20982121874999393
        },
        {
          "name": "E4",
          "midi": 64,
          "time": 159.64269749999735,
          "velocity": 0.8661417322834646,
          "duration": 0.20982121874999393
        },
        {
          "name": "G3",
          "midi": 55,
          "time": 159.85698299999734,
          "velocity": 0.8661417322834646,
          "duration": 0.20982121874999393
        },
        {
          "name": "G4",
          "midi": 67,
          "time": 159.85698299999734,
          "velocity": 0.8661417322834646,
          "duration": 0.20982121874999393
        },
        {
          "name": "A3",
          "midi": 57,
          "time": 160.07126849999733,
          "velocity": 0.8661417322834646,
          "duration": 0.20982121874999393
        },
        {
          "name": "A4",
          "midi": 69,
          "time": 160.07126849999733,
          "velocity": 0.8661417322834646,
          "duration": 0.20982121874999393
        },
        {
          "name": "G3",
          "midi": 55,
          "time": 160.28555399999732,
          "velocity": 0.8661417322834646,
          "duration": 0.10267846875001396
        },
        {
          "name": "G4",
          "midi": 67,
          "time": 160.28555399999732,
          "velocity": 0.8661417322834646,
          "duration": 0.10267846875001396
        },
        {
          "name": "F#3",
          "midi": 54,
          "time": 160.39269674999733,
          "velocity": 0.8661417322834646,
          "duration": 0.10267846875001396
        },
        {
          "name": "F#4",
          "midi": 66,
          "time": 160.39269674999733,
          "velocity": 0.8661417322834646,
          "duration": 0.10267846875001396
        },
        {
          "name": "E3",
          "midi": 52,
          "time": 160.49983949999734,
          "velocity": 0.8661417322834646,
          "duration": 0.20982121874999393
        },
        {
          "name": "E4",
          "midi": 64,
          "time": 160.49983949999734,
          "velocity": 0.8661417322834646,
          "duration": 0.20982121874999393
        },
        {
          "name": "G3",
          "midi": 55,
          "time": 160.71412499999732,
          "velocity": 0.8661417322834646,
          "duration": 0.20982121874999393
        },
        {
          "name": "G4",
          "midi": 67,
          "time": 160.71412499999732,
          "velocity": 0.8661417322834646,
          "duration": 0.20982121874999393
        },
        {
          "name": "A3",
          "midi": 57,
          "time": 160.9284104999973,
          "velocity": 0.8661417322834646,
          "duration": 0.20982121874999393
        },
        {
          "name": "A4",
          "midi": 69,
          "time": 160.9284104999973,
          "velocity": 0.8661417322834646,
          "duration": 0.20982121874999393
        },
        {
          "name": "G3",
          "midi": 55,
          "time": 161.1426959999973,
          "velocity": 0.8661417322834646,
          "duration": 0.10267846875001396
        },
        {
          "name": "G4",
          "midi": 67,
          "time": 161.1426959999973,
          "velocity": 0.8661417322834646,
          "duration": 0.10267846875001396
        },
        {
          "name": "F#3",
          "midi": 54,
          "time": 161.2498387499973,
          "velocity": 0.8661417322834646,
          "duration": 0.10267846875001396
        },
        {
          "name": "F#4",
          "midi": 66,
          "time": 161.2498387499973,
          "velocity": 0.8661417322834646,
          "duration": 0.10267846875001396
        },
        {
          "name": "E3",
          "midi": 52,
          "time": 161.35698149999732,
          "velocity": 0.8661417322834646,
          "duration": 0.20982121874999393
        },
        {
          "name": "E4",
          "midi": 64,
          "time": 161.35698149999732,
          "velocity": 0.8661417322834646,
          "duration": 0.20982121874999393
        },
        {
          "name": "G3",
          "midi": 55,
          "time": 161.5712669999973,
          "velocity": 0.8661417322834646,
          "duration": 0.20982121874999393
        },
        {
          "name": "G4",
          "midi": 67,
          "time": 161.5712669999973,
          "velocity": 0.8661417322834646,
          "duration": 0.20982121874999393
        },
        {
          "name": "A3",
          "midi": 57,
          "time": 161.7855524999973,
          "velocity": 0.8661417322834646,
          "duration": 0.20982121874999393
        },
        {
          "name": "A4",
          "midi": 69,
          "time": 161.7855524999973,
          "velocity": 0.8661417322834646,
          "duration": 0.20982121874999393
        },
        {
          "name": "G3",
          "midi": 55,
          "time": 161.99983799999728,
          "velocity": 0.8661417322834646,
          "duration": 0.10267846875001396
        },
        {
          "name": "G4",
          "midi": 67,
          "time": 161.99983799999728,
          "velocity": 0.8661417322834646,
          "duration": 0.10267846875001396
        },
        {
          "name": "F#3",
          "midi": 54,
          "time": 162.1069807499973,
          "velocity": 0.8661417322834646,
          "duration": 0.10267846875001396
        },
        {
          "name": "F#4",
          "midi": 66,
          "time": 162.1069807499973,
          "velocity": 0.8661417322834646,
          "duration": 0.10267846875001396
        },
        {
          "name": "E3",
          "midi": 52,
          "time": 162.2141234999973,
          "velocity": 0.8661417322834646,
          "duration": 0.20982121874999393
        },
        {
          "name": "E4",
          "midi": 64,
          "time": 162.2141234999973,
          "velocity": 0.8661417322834646,
          "duration": 0.20982121874999393
        },
        {
          "name": "G3",
          "midi": 55,
          "time": 162.4284089999973,
          "velocity": 0.8661417322834646,
          "duration": 0.20982121874999393
        },
        {
          "name": "G4",
          "midi": 67,
          "time": 162.4284089999973,
          "velocity": 0.8661417322834646,
          "duration": 0.20982121874999393
        },
        {
          "name": "A3",
          "midi": 57,
          "time": 162.64269449999728,
          "velocity": 0.8661417322834646,
          "duration": 0.20982121874999393
        },
        {
          "name": "A4",
          "midi": 69,
          "time": 162.64269449999728,
          "velocity": 0.8661417322834646,
          "duration": 0.20982121874999393
        },
        {
          "name": "G3",
          "midi": 55,
          "time": 162.85697999999726,
          "velocity": 0.8661417322834646,
          "duration": 0.10267846875001396
        },
        {
          "name": "G4",
          "midi": 67,
          "time": 162.85697999999726,
          "velocity": 0.8661417322834646,
          "duration": 0.10267846875001396
        },
        {
          "name": "F#3",
          "midi": 54,
          "time": 162.96412274999727,
          "velocity": 0.8661417322834646,
          "duration": 0.10267846875001396
        },
        {
          "name": "F#4",
          "midi": 66,
          "time": 162.96412274999727,
          "velocity": 0.8661417322834646,
          "duration": 0.10267846875001396
        },
        {
          "name": "E3",
          "midi": 52,
          "time": 163.07126549999728,
          "velocity": 0.8661417322834646,
          "duration": 0.20982121874999393
        },
        {
          "name": "E4",
          "midi": 64,
          "time": 163.07126549999728,
          "velocity": 0.8661417322834646,
          "duration": 0.20982121874999393
        },
        {
          "name": "G3",
          "midi": 55,
          "time": 163.28555099999727,
          "velocity": 0.8661417322834646,
          "duration": 0.20982121874999393
        },
        {
          "name": "G4",
          "midi": 67,
          "time": 163.28555099999727,
          "velocity": 0.8661417322834646,
          "duration": 0.20982121874999393
        },
        {
          "name": "A3",
          "midi": 57,
          "time": 163.49983649999726,
          "velocity": 0.8661417322834646,
          "duration": 0.20982121874999393
        },
        {
          "name": "A4",
          "midi": 69,
          "time": 163.49983649999726,
          "velocity": 0.8661417322834646,
          "duration": 0.20982121874999393
        },
        {
          "name": "G3",
          "midi": 55,
          "time": 163.71412199999725,
          "velocity": 0.8661417322834646,
          "duration": 0.10267846875001396
        },
        {
          "name": "G4",
          "midi": 67,
          "time": 163.71412199999725,
          "velocity": 0.8661417322834646,
          "duration": 0.10267846875001396
        },
        {
          "name": "F#3",
          "midi": 54,
          "time": 163.82126474999725,
          "velocity": 0.8661417322834646,
          "duration": 0.10267846875001396
        },
        {
          "name": "F#4",
          "midi": 66,
          "time": 163.82126474999725,
          "velocity": 0.8661417322834646,
          "duration": 0.10267846875001396
        },
        {
          "name": "E3",
          "midi": 52,
          "time": 163.92840749999726,
          "velocity": 0.8661417322834646,
          "duration": 0.20982121874999393
        },
        {
          "name": "E4",
          "midi": 64,
          "time": 163.92840749999726,
          "velocity": 0.8661417322834646,
          "duration": 0.20982121874999393
        },
        {
          "name": "G3",
          "midi": 55,
          "time": 164.14269299999725,
          "velocity": 0.8661417322834646,
          "duration": 0.20982121874999393
        },
        {
          "name": "G4",
          "midi": 67,
          "time": 164.14269299999725,
          "velocity": 0.8661417322834646,
          "duration": 0.20982121874999393
        },
        {
          "name": "A3",
          "midi": 57,
          "time": 164.35697849999724,
          "velocity": 0.8661417322834646,
          "duration": 0.20982121874999393
        },
        {
          "name": "A4",
          "midi": 69,
          "time": 164.35697849999724,
          "velocity": 0.8661417322834646,
          "duration": 0.20982121874999393
        },
        {
          "name": "G3",
          "midi": 55,
          "time": 164.57126399999723,
          "velocity": 0.8661417322834646,
          "duration": 0.10267846875001396
        },
        {
          "name": "G4",
          "midi": 67,
          "time": 164.57126399999723,
          "velocity": 0.8661417322834646,
          "duration": 0.10267846875001396
        },
        {
          "name": "F#3",
          "midi": 54,
          "time": 164.67840674999724,
          "velocity": 0.8661417322834646,
          "duration": 0.10267846875001396
        },
        {
          "name": "F#4",
          "midi": 66,
          "time": 164.67840674999724,
          "velocity": 0.8661417322834646,
          "duration": 0.10267846875001396
        },
        {
          "name": "E3",
          "midi": 52,
          "time": 164.78554949999724,
          "velocity": 0.8661417322834646,
          "duration": 0.20982121874999393
        },
        {
          "name": "E4",
          "midi": 64,
          "time": 164.78554949999724,
          "velocity": 0.8661417322834646,
          "duration": 0.20982121874999393
        },
        {
          "name": "C5",
          "midi": 72,
          "time": 164.99983499999723,
          "velocity": 0.8661417322834646,
          "duration": 0.15624984375000395
        },
        {
          "name": "B4",
          "midi": 71,
          "time": 165.16054912499723,
          "velocity": 0.8661417322834646,
          "duration": 0.15624984375000395
        },
        {
          "name": "C5",
          "midi": 72,
          "time": 165.32126324999723,
          "velocity": 0.8661417322834646,
          "duration": 0.10267846875001396
        },
        {
          "name": "B4",
          "midi": 71,
          "time": 165.42840599999724,
          "velocity": 0.8661417322834646,
          "duration": 0.15624984375000395
        },
        {
          "name": "C5",
          "midi": 72,
          "time": 165.58912012499724,
          "velocity": 0.8661417322834646,
          "duration": 0.15624984375000395
        },
        {
          "name": "B4",
          "midi": 71,
          "time": 165.74983424999724,
          "velocity": 0.8661417322834646,
          "duration": 0.10267846875001396
        },
        {
          "name": "C5",
          "midi": 72,
          "time": 165.85697699999724,
          "velocity": 0.8661417322834646,
          "duration": 0.15624984375000395
        },
        {
          "name": "B4",
          "midi": 71,
          "time": 166.01769112499724,
          "velocity": 0.8661417322834646,
          "duration": 0.15624984375000395
        },
        {
          "name": "C5",
          "midi": 72,
          "time": 166.17840524999724,
          "velocity": 0.8661417322834646,
          "duration": 0.10267846875001396
        },
        {
          "name": "D5",
          "midi": 74,
          "time": 166.28554799999725,
          "velocity": 0.8661417322834646,
          "duration": 0.15624984375000395
        },
        {
          "name": "C5",
          "midi": 72,
          "time": 166.44626212499725,
          "velocity": 0.8661417322834646,
          "duration": 0.15624984375000395
        },
        {
          "name": "B4",
          "midi": 71,
          "time": 166.60697624999725,
          "velocity": 0.8661417322834646,
          "duration": 0.10267846875001396
        },
        {
          "name": "C5",
          "midi": 72,
          "time": 166.71411899999725,
          "velocity": 0.8661417322834646,
          "duration": 0.15624984375000395
        },
        {
          "name": "D5",
          "midi": 74,
          "time": 166.87483312499725,
          "velocity": 0.8661417322834646,
          "duration": 0.15624984375000395
        },
        {
          "name": "C5",
          "midi": 72,
          "time": 167.03554724999725,
          "velocity": 0.8661417322834646,
          "duration": 0.10267846875001396
        },
        {
          "name": "D5",
          "midi": 74,
          "time": 167.14268999999726,
          "velocity": 0.8661417322834646,
          "duration": 0.15624984375000395
        },
        {
          "name": "C5",
          "midi": 72,
          "time": 167.30340412499726,
          "velocity": 0.8661417322834646,
          "duration": 0.15624984375000395
        },
        {
          "name": "D5",
          "midi": 74,
          "time": 167.46411824999726,
          "velocity": 0.8661417322834646,
          "duration": 0.10267846875001396
        },
        {
          "name": "C5",
          "midi": 72,
          "time": 167.57126099999726,
          "velocity": 0.8661417322834646,
          "duration": 0.15624984375000395
        },
        {
          "name": "B5",
          "midi": 83,
          "time": 167.73197512499726,
          "velocity": 0.8661417322834646,
          "duration": 0.15624984375000395
        },
        {
          "name": "A5",
          "midi": 81,
          "time": 167.89268924999726,
          "velocity": 0.8661417322834646,
          "duration": 0.10267846875001396
        },
        {
          "name": "G5",
          "midi": 79,
          "time": 167.99983199999727,
          "velocity": 0.8661417322834646,
          "duration": 0.15624984375000395
        },
        {
          "name": "F#5",
          "midi": 78,
          "time": 168.16054612499727,
          "velocity": 0.8661417322834646,
          "duration": 0.15624984375000395
        },
        {
          "name": "E5",
          "midi": 76,
          "time": 168.32126024999727,
          "velocity": 0.8661417322834646,
          "duration": 0.10267846875001396
        },
        {
          "name": "B4",
          "midi": 71,
          "time": 168.58911712499727,
          "velocity": 0.8661417322834646,
          "duration": 0.15624984375000395
        },
        {
          "name": "E5",
          "midi": 76,
          "time": 168.74983124999727,
          "velocity": 0.8661417322834646,
          "duration": 0.10267846875001396
        },
        {
          "name": "E5",
          "midi": 76,
          "time": 168.85697399999728,
          "velocity": 0.8661417322834646,
          "duration": 0.15624984375000395
        },
        {
          "name": "D5",
          "midi": 74,
          "time": 169.01768812499728,
          "velocity": 0.8661417322834646,
          "duration": 0.15624984375000395
        },
        {
          "name": "C5",
          "midi": 72,
          "time": 169.17840224999728,
          "velocity": 0.8661417322834646,
          "duration": 0.10267846875001396
        },
        {
          "name": "D5",
          "midi": 74,
          "time": 169.28554499999728,
          "velocity": 0.8661417322834646,
          "duration": 0.15624984375000395
        },
        {
          "name": "C5",
          "midi": 72,
          "time": 169.44625912499728,
          "velocity": 0.8661417322834646,
          "duration": 0.15624984375000395
        },
        {
          "name": "D5",
          "midi": 74,
          "time": 169.60697324999728,
          "velocity": 0.8661417322834646,
          "duration": 0.10267846875001396
        },
        {
          "name": "C5",
          "midi": 72,
          "time": 169.7141159999973,
          "velocity": 0.8661417322834646,
          "duration": 0.15624984375000395
        },
        {
          "name": "D5",
          "midi": 74,
          "time": 169.8748301249973,
          "velocity": 0.8661417322834646,
          "duration": 0.15624984375000395
        },
        {
          "name": "C5",
          "midi": 72,
          "time": 170.0355442499973,
          "velocity": 0.8661417322834646,
          "duration": 0.10267846875001396
        },
        {
          "name": "D5",
          "midi": 74,
          "time": 170.1426869999973,
          "velocity": 0.8661417322834646,
          "duration": 0.15624984375000395
        },
        {
          "name": "C5",
          "midi": 72,
          "time": 170.3034011249973,
          "velocity": 0.8661417322834646,
          "duration": 0.15624984375000395
        },
        {
          "name": "D5",
          "midi": 74,
          "time": 170.4641152499973,
          "velocity": 0.8661417322834646,
          "duration": 0.10267846875001396
        },
        {
          "name": "C5",
          "midi": 72,
          "time": 170.5712579999973,
          "velocity": 0.8661417322834646,
          "duration": 0.15624984375000395
        },
        {
          "name": "B5",
          "midi": 83,
          "time": 170.7319721249973,
          "velocity": 0.8661417322834646,
          "duration": 0.15624984375000395
        },
        {
          "name": "A5",
          "midi": 81,
          "time": 170.8926862499973,
          "velocity": 0.8661417322834646,
          "duration": 0.10267846875001396
        },
        {
          "name": "C5",
          "midi": 72,
          "time": 170.9998289999973,
          "velocity": 0.8661417322834646,
          "duration": 0.15624984375000395
        },
        {
          "name": "B5",
          "midi": 83,
          "time": 171.1605431249973,
          "velocity": 0.8661417322834646,
          "duration": 0.15624984375000395
        },
        {
          "name": "C6",
          "midi": 84,
          "time": 171.3212572499973,
          "velocity": 0.8661417322834646,
          "duration": 0.10267846875001396
        },
        {
          "name": "B5",
          "midi": 83,
          "time": 171.4283999999973,
          "velocity": 0.8661417322834646,
          "duration": 0.15624984375000395
        },
        {
          "name": "A5",
          "midi": 81,
          "time": 171.5891141249973,
          "velocity": 0.8661417322834646,
          "duration": 0.15624984375000395
        },
        {
          "name": "G5",
          "midi": 79,
          "time": 171.7498282499973,
          "velocity": 0.8661417322834646,
          "duration": 0.10267846875001396
        },
        {
          "name": "B4",
          "midi": 71,
          "time": 172.0176851249973,
          "velocity": 0.8661417322834646,
          "duration": 0.15624984375000395
        },
        {
          "name": "C5",
          "midi": 72,
          "time": 172.1783992499973,
          "velocity": 0.8661417322834646,
          "duration": 0.10267846875001396
        },
        {
          "name": "D#5",
          "midi": 75,
          "time": 172.28554199999732,
          "velocity": 0.8661417322834646,
          "duration": 0.15624984375000395
        },
        {
          "name": "D#5",
          "midi": 75,
          "time": 172.44625612499732,
          "velocity": 0.8661417322834646,
          "duration": 0.15624984375000395
        },
        {
          "name": "D#5",
          "midi": 75,
          "time": 172.60697024999732,
          "velocity": 0.8661417322834646,
          "duration": 0.10267846875001396
        },
        {
          "name": "E5",
          "midi": 76,
          "time": 172.71411299999733,
          "velocity": 0.8661417322834646,
          "duration": 0.15624984375000395
        },
        {
          "name": "B4",
          "midi": 71,
          "time": 172.87482712499732,
          "velocity": 0.8661417322834646,
          "duration": 0.15624984375000395
        },
        {
          "name": "B4",
          "midi": 71,
          "time": 173.03554124999732,
          "velocity": 0.8661417322834646,
          "duration": 0.10267846875001396
        },
        {
          "name": "C5",
          "midi": 72,
          "time": 173.14268399999733,
          "velocity": 0.8661417322834646,
          "duration": 0.15624984375000395
        },
        {
          "name": "C5",
          "midi": 72,
          "time": 173.30339812499733,
          "velocity": 0.8661417322834646,
          "duration": 0.15624984375000395
        },
        {
          "name": "C5",
          "midi": 72,
          "time": 173.46411224999733,
          "velocity": 0.8661417322834646,
          "duration": 0.10267846875001396
        },
        {
          "name": "C5",
          "midi": 72,
          "time": 173.57125499999734,
          "velocity": 0.8661417322834646,
          "duration": 0.15624984375000395
        },
        {
          "name": "C5",
          "midi": 72,
          "time": 173.73196912499733,
          "velocity": 0.8661417322834646,
          "duration": 0.26339259375001234
        },
        {
          "name": "C5",
          "midi": 72,
          "time": 174.32125424999734,
          "velocity": 0.8661417322834646,
          "duration": 0.10267846875001396
        },
        {
          "name": "C6",
          "midi": 84,
          "time": 174.42839699999735,
          "velocity": 0.8661417322834646,
          "duration": 0.15624984375000395
        },
        {
          "name": "B5",
          "midi": 83,
          "time": 174.58911112499734,
          "velocity": 0.8661417322834646,
          "duration": 0.15624984375000395
        },
        {
          "name": "A5",
          "midi": 81,
          "time": 174.74982524999734,
          "velocity": 0.8661417322834646,
          "duration": 0.10267846875001396
        },
        {
          "name": "G5",
          "midi": 79,
          "time": 174.85696799999735,
          "velocity": 0.8661417322834646,
          "duration": 0.15624984375000395
        },
        {
          "name": "B4",
          "midi": 71,
          "time": 175.01768212499735,
          "velocity": 0.8661417322834646,
          "duration": 0.15624984375000395
        },
        {
          "name": "B5",
          "midi": 83,
          "time": 175.17839624999735,
          "velocity": 0.8661417322834646,
          "duration": 0.10267846875001396
        },
        {
          "name": "E6",
          "midi": 88,
          "time": 175.28553899999736,
          "velocity": 0.8661417322834646,
          "duration": 0.15624984375000395
        },
        {
          "name": "C5",
          "midi": 72,
          "time": 175.44625312499736,
          "velocity": 0.8661417322834646,
          "duration": 0.15624984375000395
        },
        {
          "name": "B4",
          "midi": 71,
          "time": 175.60696724999735,
          "velocity": 0.8661417322834646,
          "duration": 0.10267846875001396
        },
        {
          "name": "C5",
          "midi": 72,
          "time": 175.71410999999736,
          "velocity": 0.8661417322834646,
          "duration": 0.15624984375000395
        },
        {
          "name": "B4",
          "midi": 71,
          "time": 175.87482412499736,
          "velocity": 0.8661417322834646,
          "duration": 0.15624984375000395
        },
        {
          "name": "C5",
          "midi": 72,
          "time": 176.03553824999736,
          "velocity": 0.8661417322834646,
          "duration": 0.10267846875001396
        },
        {
          "name": "B4",
          "midi": 71,
          "time": 176.14268099999737,
          "velocity": 0.8661417322834646,
          "duration": 0.15624984375000395
        },
        {
          "name": "B4",
          "midi": 71,
          "time": 176.30339512499737,
          "velocity": 0.8661417322834646,
          "duration": 0.15624984375000395
        },
        {
          "name": "B4",
          "midi": 71,
          "time": 176.46410924999736,
          "velocity": 0.8661417322834646,
          "duration": 0.10267846875001396
        },
        {
          "name": "F#5",
          "midi": 78,
          "time": 176.57125199999737,
          "velocity": 0.8661417322834646,
          "duration": 0.15624984375000395
        },
        {
          "name": "F#5",
          "midi": 78,
          "time": 176.73196612499737,
          "velocity": 0.8661417322834646,
          "duration": 0.15624984375000395
        },
        {
          "name": "F#5",
          "midi": 78,
          "time": 176.89268024999737,
          "velocity": 0.8661417322834646,
          "duration": 0.10267846875001396
        },
        {
          "name": "D#6",
          "midi": 87,
          "time": 176.99982299999738,
          "velocity": 0.8661417322834646,
          "duration": 0.15624984375000395
        },
        {
          "name": "B5",
          "midi": 83,
          "time": 177.16053712499738,
          "velocity": 0.8661417322834646,
          "duration": 0.15624984375000395
        },
        {
          "name": "B4",
          "midi": 71,
          "time": 177.32125124999737,
          "velocity": 0.8661417322834646,
          "duration": 0.10267846875001396
        },
        {
          "name": "C5",
          "midi": 72,
          "time": 177.42839399999738,
          "velocity": 0.8661417322834646,
          "duration": 0.15624984375000395
        },
        {
          "name": "C5",
          "midi": 72,
          "time": 177.58910812499738,
          "velocity": 0.8661417322834646,
          "duration": 0.15624984375000395
        },
        {
          "name": "C5",
          "midi": 72,
          "time": 177.74982224999738,
          "velocity": 0.8661417322834646,
          "duration": 0.10267846875001396
        },
        {
          "name": "F#5",
          "midi": 78,
          "time": 177.8569649999974,
          "velocity": 0.8661417322834646,
          "duration": 0.357142500000009
        },
        {
          "name": "D#5",
          "midi": 75,
          "time": 178.2855359999974,
          "velocity": 0.8661417322834646,
          "duration": 0.15624984375000395
        },
        {
          "name": "C5",
          "midi": 72,
          "time": 178.4462501249974,
          "velocity": 0.8661417322834646,
          "duration": 0.10267846875001396
        },
        {
          "name": "F#5",
          "midi": 78,
          "time": 178.5533928749974,
          "velocity": 0.8661417322834646,
          "duration": 0.049107093749995556
        },
        {
          "name": "F#6",
          "midi": 90,
          "time": 178.5533928749974,
          "velocity": 0.8661417322834646,
          "duration": 0.049107093749995556
        },
        {
          "name": "C5",
          "midi": 72,
          "time": 178.6069642499974,
          "velocity": 0.8661417322834646,
          "duration": 0.049107093749995556
        },
        {
          "name": "G5",
          "midi": 79,
          "time": 178.6069642499974,
          "velocity": 0.8661417322834646,
          "duration": 0.049107093749995556
        },
        {
          "name": "G6",
          "midi": 91,
          "time": 178.6069642499974,
          "velocity": 0.8661417322834646,
          "duration": 0.049107093749995556
        },
        {
          "name": "A5",
          "midi": 81,
          "time": 178.66053562499738,
          "velocity": 0.8661417322834646,
          "duration": 0.049107093749995556
        },
        {
          "name": "A6",
          "midi": 93,
          "time": 178.66053562499738,
          "velocity": 0.8661417322834646,
          "duration": 0.049107093749995556
        },
        {
          "name": "A#5",
          "midi": 82,
          "time": 178.71410699999737,
          "velocity": 0.8661417322834646,
          "duration": 0.20982121874999393
        },
        {
          "name": "A#6",
          "midi": 94,
          "time": 178.71410699999737,
          "velocity": 0.8661417322834646,
          "duration": 0.20982121874999393
        },
        {
          "name": "A#5",
          "midi": 82,
          "time": 178.92839249999736,
          "velocity": 0.8661417322834646,
          "duration": 0.20982121874999393
        },
        {
          "name": "A#6",
          "midi": 94,
          "time": 178.92839249999736,
          "velocity": 0.8661417322834646,
          "duration": 0.20982121874999393
        },
        {
          "name": "A#5",
          "midi": 82,
          "time": 179.57124899999735,
          "velocity": 0.8661417322834646,
          "duration": 0.20982121874999393
        },
        {
          "name": "A#6",
          "midi": 94,
          "time": 179.57124899999735,
          "velocity": 0.8661417322834646,
          "duration": 0.20982121874999393
        },
        {
          "name": "A#5",
          "midi": 82,
          "time": 179.78553449999734,
          "velocity": 0.8661417322834646,
          "duration": 0.20982121874999393
        },
        {
          "name": "A#6",
          "midi": 94,
          "time": 179.78553449999734,
          "velocity": 0.8661417322834646,
          "duration": 0.20982121874999393
        },
        {
          "name": "A#5",
          "midi": 82,
          "time": 180.42839099999733,
          "velocity": 0.8661417322834646,
          "duration": 0.20982121874999393
        },
        {
          "name": "A#6",
          "midi": 94,
          "time": 180.42839099999733,
          "velocity": 0.8661417322834646,
          "duration": 0.20982121874999393
        },
        {
          "name": "A#5",
          "midi": 82,
          "time": 180.64267649999732,
          "velocity": 0.8661417322834646,
          "duration": 0.20982121874999393
        },
        {
          "name": "A#6",
          "midi": 94,
          "time": 180.64267649999732,
          "velocity": 0.8661417322834646,
          "duration": 0.20982121874999393
        },
        {
          "name": "C6",
          "midi": 84,
          "time": 181.28553299999732,
          "velocity": 0.8661417322834646,
          "duration": 0.20982121874999393
        },
        {
          "name": "C7",
          "midi": 96,
          "time": 181.28553299999732,
          "velocity": 0.8661417322834646,
          "duration": 0.20982121874999393
        },
        {
          "name": "A5",
          "midi": 81,
          "time": 181.4998184999973,
          "velocity": 0.8661417322834646,
          "duration": 0.20982121874999393
        },
        {
          "name": "A6",
          "midi": 93,
          "time": 181.4998184999973,
          "velocity": 0.8661417322834646,
          "duration": 0.20982121874999393
        },
        {
          "name": "A#5",
          "midi": 82,
          "time": 182.1426749999973,
          "velocity": 0.8661417322834646,
          "duration": 0.20982121874999393
        },
        {
          "name": "A#6",
          "midi": 94,
          "time": 182.1426749999973,
          "velocity": 0.8661417322834646,
          "duration": 0.20982121874999393
        },
        {
          "name": "A#5",
          "midi": 82,
          "time": 182.35696049999729,
          "velocity": 0.8661417322834646,
          "duration": 0.20982121874999393
        },
        {
          "name": "A#6",
          "midi": 94,
          "time": 182.35696049999729,
          "velocity": 0.8661417322834646,
          "duration": 0.20982121874999393
        },
        {
          "name": "A#5",
          "midi": 82,
          "time": 182.99981699999728,
          "velocity": 0.8661417322834646,
          "duration": 0.20982121874999393
        },
        {
          "name": "A#6",
          "midi": 94,
          "time": 182.99981699999728,
          "velocity": 0.8661417322834646,
          "duration": 0.20982121874999393
        },
        {
          "name": "A#5",
          "midi": 82,
          "time": 183.21410249999727,
          "velocity": 0.8661417322834646,
          "duration": 0.20982121874999393
        },
        {
          "name": "A#6",
          "midi": 94,
          "time": 183.21410249999727,
          "velocity": 0.8661417322834646,
          "duration": 0.20982121874999393
        },
        {
          "name": "A#5",
          "midi": 82,
          "time": 183.85695899999726,
          "velocity": 0.8661417322834646,
          "duration": 0.20982121874999393
        },
        {
          "name": "A#6",
          "midi": 94,
          "time": 183.85695899999726,
          "velocity": 0.8661417322834646,
          "duration": 0.20982121874999393
        },
        {
          "name": "A#5",
          "midi": 82,
          "time": 184.07124449999725,
          "velocity": 0.8661417322834646,
          "duration": 0.20982121874999393
        },
        {
          "name": "A#6",
          "midi": 94,
          "time": 184.07124449999725,
          "velocity": 0.8661417322834646,
          "duration": 0.20982121874999393
        },
        {
          "name": "C6",
          "midi": 84,
          "time": 184.71410099999724,
          "velocity": 0.8661417322834646,
          "duration": 0.20982121874999393
        },
        {
          "name": "C7",
          "midi": 96,
          "time": 184.71410099999724,
          "velocity": 0.8661417322834646,
          "duration": 0.20982121874999393
        },
        {
          "name": "A5",
          "midi": 81,
          "time": 184.92838649999723,
          "velocity": 0.8661417322834646,
          "duration": 0.20982121874999393
        },
        {
          "name": "A6",
          "midi": 93,
          "time": 184.92838649999723,
          "velocity": 0.8661417322834646,
          "duration": 0.20982121874999393
        },
        {
          "name": "A#4",
          "midi": 70,
          "time": 185.57124299999722,
          "velocity": 0.8661417322834646,
          "duration": 0.20982121874999393
        },
        {
          "name": "C5",
          "midi": 72,
          "time": 185.7855284999972,
          "velocity": 0.8661417322834646,
          "duration": 0.20982121874999393
        },
        {
          "name": "A#4",
          "midi": 70,
          "time": 185.9998139999972,
          "velocity": 0.8661417322834646,
          "duration": 0.10267846875001396
        },
        {
          "name": "A4",
          "midi": 69,
          "time": 186.1069567499972,
          "velocity": 0.8661417322834646,
          "duration": 0.10267846875001396
        },
        {
          "name": "G4",
          "midi": 67,
          "time": 186.21409949999722,
          "velocity": 0.8661417322834646,
          "duration": 0.20982121874999393
        },
        {
          "name": "A#4",
          "midi": 70,
          "time": 186.4283849999972,
          "velocity": 0.8661417322834646,
          "duration": 0.20982121874999393
        },
        {
          "name": "C5",
          "midi": 72,
          "time": 186.6426704999972,
          "velocity": 0.8661417322834646,
          "duration": 0.20982121874999393
        },
        {
          "name": "A#4",
          "midi": 70,
          "time": 186.85695599999718,
          "velocity": 0.8661417322834646,
          "duration": 0.10267846875001396
        },
        {
          "name": "A4",
          "midi": 69,
          "time": 186.9640987499972,
          "velocity": 0.8661417322834646,
          "duration": 0.10267846875001396
        },
        {
          "name": "G4",
          "midi": 67,
          "time": 187.0712414999972,
          "velocity": 0.8661417322834646,
          "duration": 0.20982121874999393
        },
        {
          "name": "A#4",
          "midi": 70,
          "time": 187.2855269999972,
          "velocity": 0.8661417322834646,
          "duration": 0.20982121874999393
        },
        {
          "name": "C5",
          "midi": 72,
          "time": 187.49981249999718,
          "velocity": 0.8661417322834646,
          "duration": 0.20982121874999393
        },
        {
          "name": "A#4",
          "midi": 70,
          "time": 187.71409799999716,
          "velocity": 0.8661417322834646,
          "duration": 0.10267846875001396
        },
        {
          "name": "A4",
          "midi": 69,
          "time": 187.82124074999717,
          "velocity": 0.8661417322834646,
          "duration": 0.10267846875001396
        },
        {
          "name": "G4",
          "midi": 67,
          "time": 187.92838349999718,
          "velocity": 0.8661417322834646,
          "duration": 0.20982121874999393
        },
        {
          "name": "A#4",
          "midi": 70,
          "time": 188.14266899999717,
          "velocity": 0.8661417322834646,
          "duration": 0.20982121874999393
        },
        {
          "name": "C5",
          "midi": 72,
          "time": 188.35695449999716,
          "velocity": 0.8661417322834646,
          "duration": 0.20982121874999393
        },
        {
          "name": "A#4",
          "midi": 70,
          "time": 188.57123999999715,
          "velocity": 0.8661417322834646,
          "duration": 0.10267846875001396
        },
        {
          "name": "A4",
          "midi": 69,
          "time": 188.67838274999716,
          "velocity": 0.8661417322834646,
          "duration": 0.10267846875001396
        },
        {
          "name": "G4",
          "midi": 67,
          "time": 188.78552549999716,
          "velocity": 0.8661417322834646,
          "duration": 0.20982121874999393
        },
        {
          "name": "A#4",
          "midi": 70,
          "time": 188.99981099999715,
          "velocity": 0.8661417322834646,
          "duration": 0.20982121874999393
        },
        {
          "name": "C5",
          "midi": 72,
          "time": 189.21409649999714,
          "velocity": 0.8661417322834646,
          "duration": 0.20982121874999393
        },
        {
          "name": "A#4",
          "midi": 70,
          "time": 189.42838199999713,
          "velocity": 0.8661417322834646,
          "duration": 0.10267846875001396
        },
        {
          "name": "A4",
          "midi": 69,
          "time": 189.53552474999714,
          "velocity": 0.8661417322834646,
          "duration": 0.10267846875001396
        },
        {
          "name": "G4",
          "midi": 67,
          "time": 189.64266749999715,
          "velocity": 0.8661417322834646,
          "duration": 0.20982121874999393
        },
        {
          "name": "A#4",
          "midi": 70,
          "time": 189.85695299999713,
          "velocity": 0.8661417322834646,
          "duration": 0.20982121874999393
        },
        {
          "name": "C5",
          "midi": 72,
          "time": 190.07123849999712,
          "velocity": 0.8661417322834646,
          "duration": 0.20982121874999393
        },
        {
          "name": "A#4",
          "midi": 70,
          "time": 190.2855239999971,
          "velocity": 0.8661417322834646,
          "duration": 0.10267846875001396
        },
        {
          "name": "A4",
          "midi": 69,
          "time": 190.39266674999712,
          "velocity": 0.8661417322834646,
          "duration": 0.10267846875001396
        },
        {
          "name": "G4",
          "midi": 67,
          "time": 190.49980949999713,
          "velocity": 0.8661417322834646,
          "duration": 0.20982121874999393
        },
        {
          "name": "A#4",
          "midi": 70,
          "time": 190.71409499999712,
          "velocity": 0.8661417322834646,
          "duration": 0.20982121874999393
        },
        {
          "name": "C5",
          "midi": 72,
          "time": 190.9283804999971,
          "velocity": 0.8661417322834646,
          "duration": 0.20982121874999393
        },
        {
          "name": "A#4",
          "midi": 70,
          "time": 191.1426659999971,
          "velocity": 0.8661417322834646,
          "duration": 0.10267846875001396
        },
        {
          "name": "A4",
          "midi": 69,
          "time": 191.2498087499971,
          "velocity": 0.8661417322834646,
          "duration": 0.10267846875001396
        },
        {
          "name": "G4",
          "midi": 67,
          "time": 191.3569514999971,
          "velocity": 0.8661417322834646,
          "duration": 0.20982121874999393
        },
        {
          "name": "A#4",
          "midi": 70,
          "time": 191.5712369999971,
          "velocity": 0.8661417322834646,
          "duration": 0.20982121874999393
        },
        {
          "name": "C5",
          "midi": 72,
          "time": 191.78552249999709,
          "velocity": 0.8661417322834646,
          "duration": 0.20982121874999393
        },
        {
          "name": "A#4",
          "midi": 70,
          "time": 191.99980799999707,
          "velocity": 0.8661417322834646,
          "duration": 0.10267846875001396
        },
        {
          "name": "A4",
          "midi": 69,
          "time": 192.10695074999708,
          "velocity": 0.8661417322834646,
          "duration": 0.10267846875001396
        },
        {
          "name": "G4",
          "midi": 67,
          "time": 192.2140934999971,
          "velocity": 0.8661417322834646,
          "duration": 0.20982121874999393
        },
        {
          "name": "A#4",
          "midi": 70,
          "time": 192.42837899999708,
          "velocity": 0.8661417322834646,
          "duration": 0.20982121874999393
        },
        {
          "name": "D5",
          "midi": 74,
          "time": 192.42837899999708,
          "velocity": 0.8661417322834646,
          "duration": 0.20982121874999393
        },
        {
          "name": "D6",
          "midi": 86,
          "time": 192.42837899999708,
          "velocity": 0.8661417322834646,
          "duration": 0.20982121874999393
        },
        {
          "name": "C5",
          "midi": 72,
          "time": 192.64266449999707,
          "velocity": 0.8661417322834646,
          "duration": 0.20982121874999393
        },
        {
          "name": "D#5",
          "midi": 75,
          "time": 192.64266449999707,
          "velocity": 0.8661417322834646,
          "duration": 0.20982121874999393
        },
        {
          "name": "D#6",
          "midi": 87,
          "time": 192.64266449999707,
          "velocity": 0.8661417322834646,
          "duration": 0.20982121874999393
        },
        {
          "name": "A#4",
          "midi": 70,
          "time": 192.85694999999706,
          "velocity": 0.8661417322834646,
          "duration": 0.10267846875001396
        },
        {
          "name": "D5",
          "midi": 74,
          "time": 192.85694999999706,
          "velocity": 0.8661417322834646,
          "duration": 0.10267846875001396
        },
        {
          "name": "D6",
          "midi": 86,
          "time": 192.85694999999706,
          "velocity": 0.8661417322834646,
          "duration": 0.10267846875001396
        },
        {
          "name": "C6",
          "midi": 84,
          "time": 192.96409274999706,
          "velocity": 0.8661417322834646,
          "duration": 0.10267846875001396
        },
        {
          "name": "C5",
          "midi": 72,
          "time": 193.07123549999707,
          "velocity": 0.8661417322834646,
          "duration": 0.20982121874999393
        },
        {
          "name": "D#5",
          "midi": 75,
          "time": 193.07123549999707,
          "velocity": 0.8661417322834646,
          "duration": 0.20982121874999393
        },
        {
          "name": "A#5",
          "midi": 82,
          "time": 193.07123549999707,
          "velocity": 0.8661417322834646,
          "duration": 0.20982121874999393
        },
        {
          "name": "A#4",
          "midi": 70,
          "time": 193.28552099999706,
          "velocity": 0.8661417322834646,
          "duration": 0.20982121874999393
        },
        {
          "name": "D5",
          "midi": 74,
          "time": 193.28552099999706,
          "velocity": 0.8661417322834646,
          "duration": 0.20982121874999393
        },
        {
          "name": "D6",
          "midi": 86,
          "time": 193.28552099999706,
          "velocity": 0.8661417322834646,
          "duration": 0.20982121874999393
        },
        {
          "name": "C5",
          "midi": 72,
          "time": 193.49980649999705,
          "velocity": 0.8661417322834646,
          "duration": 0.20982121874999393
        },
        {
          "name": "D#5",
          "midi": 75,
          "time": 193.49980649999705,
          "velocity": 0.8661417322834646,
          "duration": 0.20982121874999393
        },
        {
          "name": "D#6",
          "midi": 87,
          "time": 193.49980649999705,
          "velocity": 0.8661417322834646,
          "duration": 0.20982121874999393
        },
        {
          "name": "A#4",
          "midi": 70,
          "time": 193.71409199999704,
          "velocity": 0.8661417322834646,
          "duration": 0.10267846875001396
        },
        {
          "name": "D5",
          "midi": 74,
          "time": 193.71409199999704,
          "velocity": 0.8661417322834646,
          "duration": 0.10267846875001396
        },
        {
          "name": "D6",
          "midi": 86,
          "time": 193.71409199999704,
          "velocity": 0.8661417322834646,
          "duration": 0.10267846875001396
        },
        {
          "name": "C6",
          "midi": 84,
          "time": 193.82123474999705,
          "velocity": 0.8661417322834646,
          "duration": 0.10267846875001396
        },
        {
          "name": "C5",
          "midi": 72,
          "time": 193.92837749999705,
          "velocity": 0.8661417322834646,
          "duration": 0.20982121874999393
        },
        {
          "name": "D#5",
          "midi": 75,
          "time": 193.92837749999705,
          "velocity": 0.8661417322834646,
          "duration": 0.20982121874999393
        },
        {
          "name": "A#5",
          "midi": 82,
          "time": 193.92837749999705,
          "velocity": 0.8661417322834646,
          "duration": 0.20982121874999393
        },
        {
          "name": "A#4",
          "midi": 70,
          "time": 194.14266299999704,
          "velocity": 0.8661417322834646,
          "duration": 0.20982121874999393
        },
        {
          "name": "D5",
          "midi": 74,
          "time": 194.14266299999704,
          "velocity": 0.8661417322834646,
          "duration": 0.20982121874999393
        },
        {
          "name": "D6",
          "midi": 86,
          "time": 194.14266299999704,
          "velocity": 0.8661417322834646,
          "duration": 0.20982121874999393
        },
        {
          "name": "C5",
          "midi": 72,
          "time": 194.35694849999703,
          "velocity": 0.8661417322834646,
          "duration": 0.20982121874999393
        },
        {
          "name": "D#5",
          "midi": 75,
          "time": 194.35694849999703,
          "velocity": 0.8661417322834646,
          "duration": 0.20982121874999393
        },
        {
          "name": "D#6",
          "midi": 87,
          "time": 194.35694849999703,
          "velocity": 0.8661417322834646,
          "duration": 0.20982121874999393
        },
        {
          "name": "A#4",
          "midi": 70,
          "time": 194.57123399999702,
          "velocity": 0.8661417322834646,
          "duration": 0.10267846875001396
        },
        {
          "name": "D5",
          "midi": 74,
          "time": 194.57123399999702,
          "velocity": 0.8661417322834646,
          "duration": 0.10267846875001396
        },
        {
          "name": "D6",
          "midi": 86,
          "time": 194.57123399999702,
          "velocity": 0.8661417322834646,
          "duration": 0.10267846875001396
        },
        {
          "name": "C6",
          "midi": 84,
          "time": 194.67837674999703,
          "velocity": 0.8661417322834646,
          "duration": 0.10267846875001396
        },
        {
          "name": "C5",
          "midi": 72,
          "time": 194.78551949999704,
          "velocity": 0.8661417322834646,
          "duration": 0.20982121874999393
        },
        {
          "name": "D#5",
          "midi": 75,
          "time": 194.78551949999704,
          "velocity": 0.8661417322834646,
          "duration": 0.20982121874999393
        },
        {
          "name": "A#5",
          "midi": 82,
          "time": 194.78551949999704,
          "velocity": 0.8661417322834646,
          "duration": 0.20982121874999393
        },
        {
          "name": "A#4",
          "midi": 70,
          "time": 194.99980499999702,
          "velocity": 0.8661417322834646,
          "duration": 0.20982121874999393
        },
        {
          "name": "D5",
          "midi": 74,
          "time": 194.99980499999702,
          "velocity": 0.8661417322834646,
          "duration": 0.20982121874999393
        },
        {
          "name": "D6",
          "midi": 86,
          "time": 194.99980499999702,
          "velocity": 0.8661417322834646,
          "duration": 0.20982121874999393
        },
        {
          "name": "C5",
          "midi": 72,
          "time": 195.214090499997,
          "velocity": 0.8661417322834646,
          "duration": 0.20982121874999393
        },
        {
          "name": "D#5",
          "midi": 75,
          "time": 195.214090499997,
          "velocity": 0.8661417322834646,
          "duration": 0.20982121874999393
        },
        {
          "name": "D#6",
          "midi": 87,
          "time": 195.214090499997,
          "velocity": 0.8661417322834646,
          "duration": 0.20982121874999393
        },
        {
          "name": "A#4",
          "midi": 70,
          "time": 195.428375999997,
          "velocity": 0.8661417322834646,
          "duration": 0.10267846875001396
        },
        {
          "name": "D5",
          "midi": 74,
          "time": 195.428375999997,
          "velocity": 0.8661417322834646,
          "duration": 0.10267846875001396
        },
        {
          "name": "D6",
          "midi": 86,
          "time": 195.428375999997,
          "velocity": 0.8661417322834646,
          "duration": 0.10267846875001396
        },
        {
          "name": "C6",
          "midi": 84,
          "time": 195.535518749997,
          "velocity": 0.8661417322834646,
          "duration": 0.10267846875001396
        },
        {
          "name": "C5",
          "midi": 72,
          "time": 195.64266149999702,
          "velocity": 0.8661417322834646,
          "duration": 0.20982121874999393
        },
        {
          "name": "D#5",
          "midi": 75,
          "time": 195.64266149999702,
          "velocity": 0.8661417322834646,
          "duration": 0.20982121874999393
        },
        {
          "name": "A#5",
          "midi": 82,
          "time": 195.64266149999702,
          "velocity": 0.8661417322834646,
          "duration": 0.20982121874999393
        },
        {
          "name": "F#4",
          "midi": 66,
          "time": 195.856946999997,
          "velocity": 0.8661417322834646,
          "duration": 0.20982121874999393
        },
        {
          "name": "A#4",
          "midi": 70,
          "time": 195.856946999997,
          "velocity": 0.8661417322834646,
          "duration": 0.20982121874999393
        },
        {
          "name": "D6",
          "midi": 86,
          "time": 195.856946999997,
          "velocity": 0.8661417322834646,
          "duration": 0.20982121874999393
        },
        {
          "name": "A#4",
          "midi": 70,
          "time": 196.071232499997,
          "velocity": 0.8661417322834646,
          "duration": 0.20982121874999393
        },
        {
          "name": "D#5",
          "midi": 75,
          "time": 196.071232499997,
          "velocity": 0.8661417322834646,
          "duration": 0.20982121874999393
        },
        {
          "name": "D#6",
          "midi": 87,
          "time": 196.071232499997,
          "velocity": 0.8661417322834646,
          "duration": 0.20982121874999393
        },
        {
          "name": "F#4",
          "midi": 66,
          "time": 196.28551799999698,
          "velocity": 0.8661417322834646,
          "duration": 0.10267846875001396
        },
        {
          "name": "A#4",
          "midi": 70,
          "time": 196.28551799999698,
          "velocity": 0.8661417322834646,
          "duration": 0.10267846875001396
        },
        {
          "name": "D6",
          "midi": 86,
          "time": 196.28551799999698,
          "velocity": 0.8661417322834646,
          "duration": 0.10267846875001396
        },
        {
          "name": "C6",
          "midi": 84,
          "time": 196.392660749997,
          "velocity": 0.8661417322834646,
          "duration": 0.10267846875001396
        },
        {
          "name": "A#4",
          "midi": 70,
          "time": 196.499803499997,
          "velocity": 0.8661417322834646,
          "duration": 0.20982121874999393
        },
        {
          "name": "D#5",
          "midi": 75,
          "time": 196.499803499997,
          "velocity": 0.8661417322834646,
          "duration": 0.20982121874999393
        },
        {
          "name": "A#5",
          "midi": 82,
          "time": 196.499803499997,
          "velocity": 0.8661417322834646,
          "duration": 0.20982121874999393
        },
        {
          "name": "F#4",
          "midi": 66,
          "time": 196.714088999997,
          "velocity": 0.8661417322834646,
          "duration": 0.20982121874999393
        },
        {
          "name": "A#4",
          "midi": 70,
          "time": 196.714088999997,
          "velocity": 0.8661417322834646,
          "duration": 0.20982121874999393
        },
        {
          "name": "D6",
          "midi": 86,
          "time": 196.714088999997,
          "velocity": 0.8661417322834646,
          "duration": 0.20982121874999393
        },
        {
          "name": "A#4",
          "midi": 70,
          "time": 196.92837449999698,
          "velocity": 0.8661417322834646,
          "duration": 0.20982121874999393
        },
        {
          "name": "D#5",
          "midi": 75,
          "time": 196.92837449999698,
          "velocity": 0.8661417322834646,
          "duration": 0.20982121874999393
        },
        {
          "name": "D#6",
          "midi": 87,
          "time": 196.92837449999698,
          "velocity": 0.8661417322834646,
          "duration": 0.20982121874999393
        },
        {
          "name": "F#4",
          "midi": 66,
          "time": 197.14265999999697,
          "velocity": 0.8661417322834646,
          "duration": 0.10267846875001396
        },
        {
          "name": "A#4",
          "midi": 70,
          "time": 197.14265999999697,
          "velocity": 0.8661417322834646,
          "duration": 0.10267846875001396
        },
        {
          "name": "D6",
          "midi": 86,
          "time": 197.14265999999697,
          "velocity": 0.8661417322834646,
          "duration": 0.10267846875001396
        },
        {
          "name": "C6",
          "midi": 84,
          "time": 197.24980274999697,
          "velocity": 0.8661417322834646,
          "duration": 0.10267846875001396
        },
        {
          "name": "A#4",
          "midi": 70,
          "time": 197.35694549999698,
          "velocity": 0.8661417322834646,
          "duration": 0.20982121874999393
        },
        {
          "name": "D#5",
          "midi": 75,
          "time": 197.35694549999698,
          "velocity": 0.8661417322834646,
          "duration": 0.20982121874999393
        },
        {
          "name": "A#5",
          "midi": 82,
          "time": 197.35694549999698,
          "velocity": 0.8661417322834646,
          "duration": 0.20982121874999393
        },
        {
          "name": "F#4",
          "midi": 66,
          "time": 197.57123099999697,
          "velocity": 0.8661417322834646,
          "duration": 0.20982121874999393
        },
        {
          "name": "A#4",
          "midi": 70,
          "time": 197.57123099999697,
          "velocity": 0.8661417322834646,
          "duration": 0.20982121874999393
        },
        {
          "name": "D6",
          "midi": 86,
          "time": 197.57123099999697,
          "velocity": 0.8661417322834646,
          "duration": 0.20982121874999393
        },
        {
          "name": "A#4",
          "midi": 70,
          "time": 197.78551649999696,
          "velocity": 0.8661417322834646,
          "duration": 0.20982121874999393
        },
        {
          "name": "D#5",
          "midi": 75,
          "time": 197.78551649999696,
          "velocity": 0.8661417322834646,
          "duration": 0.20982121874999393
        },
        {
          "name": "D#6",
          "midi": 87,
          "time": 197.78551649999696,
          "velocity": 0.8661417322834646,
          "duration": 0.20982121874999393
        },
        {
          "name": "F#4",
          "midi": 66,
          "time": 197.99980199999695,
          "velocity": 0.8661417322834646,
          "duration": 0.10267846875001396
        },
        {
          "name": "A#4",
          "midi": 70,
          "time": 197.99980199999695,
          "velocity": 0.8661417322834646,
          "duration": 0.10267846875001396
        },
        {
          "name": "D6",
          "midi": 86,
          "time": 197.99980199999695,
          "velocity": 0.8661417322834646,
          "duration": 0.10267846875001396
        },
        {
          "name": "C6",
          "midi": 84,
          "time": 198.10694474999696,
          "velocity": 0.8661417322834646,
          "duration": 0.10267846875001396
        },
        {
          "name": "A#4",
          "midi": 70,
          "time": 198.21408749999696,
          "velocity": 0.8661417322834646,
          "duration": 0.20982121874999393
        },
        {
          "name": "D#5",
          "midi": 75,
          "time": 198.21408749999696,
          "velocity": 0.8661417322834646,
          "duration": 0.20982121874999393
        },
        {
          "name": "A#5",
          "midi": 82,
          "time": 198.21408749999696,
          "velocity": 0.8661417322834646,
          "duration": 0.20982121874999393
        },
        {
          "name": "F#4",
          "midi": 66,
          "time": 198.42837299999695,
          "velocity": 0.8661417322834646,
          "duration": 0.20982121874999393
        },
        {
          "name": "A#4",
          "midi": 70,
          "time": 198.42837299999695,
          "velocity": 0.8661417322834646,
          "duration": 0.20982121874999393
        },
        {
          "name": "D6",
          "midi": 86,
          "time": 198.42837299999695,
          "velocity": 0.8661417322834646,
          "duration": 0.20982121874999393
        },
        {
          "name": "A#4",
          "midi": 70,
          "time": 198.64265849999694,
          "velocity": 0.8661417322834646,
          "duration": 0.20982121874999393
        },
        {
          "name": "D#5",
          "midi": 75,
          "time": 198.64265849999694,
          "velocity": 0.8661417322834646,
          "duration": 0.20982121874999393
        },
        {
          "name": "D#6",
          "midi": 87,
          "time": 198.64265849999694,
          "velocity": 0.8661417322834646,
          "duration": 0.20982121874999393
        },
        {
          "name": "F#4",
          "midi": 66,
          "time": 198.85694399999693,
          "velocity": 0.8661417322834646,
          "duration": 0.10267846875001396
        },
        {
          "name": "A#4",
          "midi": 70,
          "time": 198.85694399999693,
          "velocity": 0.8661417322834646,
          "duration": 0.10267846875001396
        },
        {
          "name": "D6",
          "midi": 86,
          "time": 198.85694399999693,
          "velocity": 0.8661417322834646,
          "duration": 0.10267846875001396
        },
        {
          "name": "C6",
          "midi": 84,
          "time": 198.96408674999694,
          "velocity": 0.8661417322834646,
          "duration": 0.10267846875001396
        },
        {
          "name": "A#4",
          "midi": 70,
          "time": 199.07122949999695,
          "velocity": 0.8661417322834646,
          "duration": 0.20982121874999393
        },
        {
          "name": "D#5",
          "midi": 75,
          "time": 199.07122949999695,
          "velocity": 0.8661417322834646,
          "duration": 0.20982121874999393
        },
        {
          "name": "A#5",
          "midi": 82,
          "time": 199.07122949999695,
          "velocity": 0.8661417322834646,
          "duration": 0.20982121874999393
        },
        {
          "name": "G5",
          "midi": 79,
          "time": 199.28551499999693,
          "velocity": 0.8661417322834646,
          "duration": 0.20982121874999393
        },
        {
          "name": "G6",
          "midi": 91,
          "time": 199.28551499999693,
          "velocity": 0.8661417322834646,
          "duration": 0.20982121874999393
        },
        {
          "name": "G5",
          "midi": 79,
          "time": 199.49980049999692,
          "velocity": 0.8661417322834646,
          "duration": 0.20982121874999393
        },
        {
          "name": "G6",
          "midi": 91,
          "time": 199.49980049999692,
          "velocity": 0.8661417322834646,
          "duration": 0.20982121874999393
        },
        {
          "name": "G5",
          "midi": 79,
          "time": 200.14265699999692,
          "velocity": 0.8661417322834646,
          "duration": 0.20982121874999393
        },
        {
          "name": "G6",
          "midi": 91,
          "time": 200.14265699999692,
          "velocity": 0.8661417322834646,
          "duration": 0.20982121874999393
        },
        {
          "name": "G5",
          "midi": 79,
          "time": 200.3569424999969,
          "velocity": 0.8661417322834646,
          "duration": 0.20982121874999393
        },
        {
          "name": "G6",
          "midi": 91,
          "time": 200.3569424999969,
          "velocity": 0.8661417322834646,
          "duration": 0.20982121874999393
        },
        {
          "name": "G5",
          "midi": 79,
          "time": 200.9997989999969,
          "velocity": 0.8661417322834646,
          "duration": 0.20982121874999393
        },
        {
          "name": "G6",
          "midi": 91,
          "time": 200.9997989999969,
          "velocity": 0.8661417322834646,
          "duration": 0.20982121874999393
        },
        {
          "name": "G5",
          "midi": 79,
          "time": 201.2140844999969,
          "velocity": 0.8661417322834646,
          "duration": 0.20982121874999393
        },
        {
          "name": "G6",
          "midi": 91,
          "time": 201.2140844999969,
          "velocity": 0.8661417322834646,
          "duration": 0.20982121874999393
        },
        {
          "name": "A5",
          "midi": 81,
          "time": 201.85694099999688,
          "velocity": 0.8661417322834646,
          "duration": 0.10267846875001396
        },
        {
          "name": "A6",
          "midi": 93,
          "time": 201.85694099999688,
          "velocity": 0.8661417322834646,
          "duration": 0.10267846875001396
        },
        {
          "name": "G5",
          "midi": 79,
          "time": 201.9640837499969,
          "velocity": 0.8661417322834646,
          "duration": 0.10267846875001396
        },
        {
          "name": "G6",
          "midi": 91,
          "time": 201.9640837499969,
          "velocity": 0.8661417322834646,
          "duration": 0.10267846875001396
        },
        {
          "name": "F#5",
          "midi": 78,
          "time": 202.0712264999969,
          "velocity": 0.8661417322834646,
          "duration": 0.20982121874999393
        },
        {
          "name": "F#6",
          "midi": 90,
          "time": 202.0712264999969,
          "velocity": 0.8661417322834646,
          "duration": 0.20982121874999393
        },
        {
          "name": "G5",
          "midi": 79,
          "time": 202.7140829999969,
          "velocity": 0.8661417322834646,
          "duration": 0.20982121874999393
        },
        {
          "name": "G6",
          "midi": 91,
          "time": 202.7140829999969,
          "velocity": 0.8661417322834646,
          "duration": 0.20982121874999393
        },
        {
          "name": "G5",
          "midi": 79,
          "time": 202.92836849999688,
          "velocity": 0.8661417322834646,
          "duration": 0.20982121874999393
        },
        {
          "name": "G6",
          "midi": 91,
          "time": 202.92836849999688,
          "velocity": 0.8661417322834646,
          "duration": 0.20982121874999393
        },
        {
          "name": "G5",
          "midi": 79,
          "time": 203.57122499999687,
          "velocity": 0.8661417322834646,
          "duration": 0.20982121874999393
        },
        {
          "name": "G6",
          "midi": 91,
          "time": 203.57122499999687,
          "velocity": 0.8661417322834646,
          "duration": 0.20982121874999393
        },
        {
          "name": "G5",
          "midi": 79,
          "time": 203.78551049999686,
          "velocity": 0.8661417322834646,
          "duration": 0.20982121874999393
        },
        {
          "name": "G6",
          "midi": 91,
          "time": 203.78551049999686,
          "velocity": 0.8661417322834646,
          "duration": 0.20982121874999393
        },
        {
          "name": "G5",
          "midi": 79,
          "time": 204.42836699999685,
          "velocity": 0.8661417322834646,
          "duration": 0.20982121874999393
        },
        {
          "name": "G6",
          "midi": 91,
          "time": 204.42836699999685,
          "velocity": 0.8661417322834646,
          "duration": 0.20982121874999393
        },
        {
          "name": "G5",
          "midi": 79,
          "time": 204.64265249999684,
          "velocity": 0.8661417322834646,
          "duration": 0.20982121874999393
        },
        {
          "name": "G6",
          "midi": 91,
          "time": 204.64265249999684,
          "velocity": 0.8661417322834646,
          "duration": 0.20982121874999393
        },
        {
          "name": "A5",
          "midi": 81,
          "time": 205.28550899999684,
          "velocity": 0.8661417322834646,
          "duration": 0.10267846875001396
        },
        {
          "name": "A6",
          "midi": 93,
          "time": 205.28550899999684,
          "velocity": 0.8661417322834646,
          "duration": 0.10267846875001396
        },
        {
          "name": "G5",
          "midi": 79,
          "time": 205.39265174999684,
          "velocity": 0.8661417322834646,
          "duration": 0.10267846875001396
        },
        {
          "name": "G6",
          "midi": 91,
          "time": 205.39265174999684,
          "velocity": 0.8661417322834646,
          "duration": 0.10267846875001396
        },
        {
          "name": "F#5",
          "midi": 78,
          "time": 205.49979449999685,
          "velocity": 0.8661417322834646,
          "duration": 0.20982121874999393
        },
        {
          "name": "F#6",
          "midi": 90,
          "time": 205.49979449999685,
          "velocity": 0.8661417322834646,
          "duration": 0.20982121874999393
        },
        {
          "name": "A#4",
          "midi": 70,
          "time": 206.14265099999685,
          "velocity": 0.8661417322834646,
          "duration": 0.20982121874999393
        },
        {
          "name": "C5",
          "midi": 72,
          "time": 206.35693649999683,
          "velocity": 0.8661417322834646,
          "duration": 0.20982121874999393
        },
        {
          "name": "A#4",
          "midi": 70,
          "time": 206.57122199999682,
          "velocity": 0.8661417322834646,
          "duration": 0.10267846875001396
        },
        {
          "name": "A4",
          "midi": 69,
          "time": 206.67836474999683,
          "velocity": 0.8661417322834646,
          "duration": 0.10267846875001396
        },
        {
          "name": "G4",
          "midi": 67,
          "time": 206.78550749999684,
          "velocity": 0.8661417322834646,
          "duration": 0.20982121874999393
        },
        {
          "name": "A#4",
          "midi": 70,
          "time": 206.99979299999683,
          "velocity": 0.8661417322834646,
          "duration": 0.20982121874999393
        },
        {
          "name": "C5",
          "midi": 72,
          "time": 207.21407849999682,
          "velocity": 0.8661417322834646,
          "duration": 0.20982121874999393
        },
        {
          "name": "A#4",
          "midi": 70,
          "time": 207.4283639999968,
          "velocity": 0.8661417322834646,
          "duration": 0.10267846875001396
        },
        {
          "name": "A4",
          "midi": 69,
          "time": 207.5355067499968,
          "velocity": 0.8661417322834646,
          "duration": 0.10267846875001396
        },
        {
          "name": "G4",
          "midi": 67,
          "time": 207.64264949999682,
          "velocity": 0.8661417322834646,
          "duration": 0.20982121874999393
        },
        {
          "name": "A#4",
          "midi": 70,
          "time": 207.8569349999968,
          "velocity": 0.8661417322834646,
          "duration": 0.20982121874999393
        },
        {
          "name": "D5",
          "midi": 74,
          "time": 207.8569349999968,
          "velocity": 0.8661417322834646,
          "duration": 0.20982121874999393
        },
        {
          "name": "C5",
          "midi": 72,
          "time": 208.0712204999968,
          "velocity": 0.8661417322834646,
          "duration": 0.20982121874999393
        },
        {
          "name": "D#5",
          "midi": 75,
          "time": 208.0712204999968,
          "velocity": 0.8661417322834646,
          "duration": 0.20982121874999393
        },
        {
          "name": "A#4",
          "midi": 70,
          "time": 208.2855059999968,
          "velocity": 0.8661417322834646,
          "duration": 0.10267846875001396
        },
        {
          "name": "D5",
          "midi": 74,
          "time": 208.2855059999968,
          "velocity": 0.8661417322834646,
          "duration": 0.10267846875001396
        },
        {
          "name": "A4",
          "midi": 69,
          "time": 208.3926487499968,
          "velocity": 0.8661417322834646,
          "duration": 0.10267846875001396
        },
        {
          "name": "C5",
          "midi": 72,
          "time": 208.3926487499968,
          "velocity": 0.8661417322834646,
          "duration": 0.10267846875001396
        },
        {
          "name": "G4",
          "midi": 67,
          "time": 208.4997914999968,
          "velocity": 0.8661417322834646,
          "duration": 0.20982121874999393
        },
        {
          "name": "A#4",
          "midi": 70,
          "time": 208.4997914999968,
          "velocity": 0.8661417322834646,
          "duration": 0.20982121874999393
        },
        {
          "name": "A#4",
          "midi": 70,
          "time": 208.7140769999968,
          "velocity": 0.8661417322834646,
          "duration": 0.20982121874999393
        },
        {
          "name": "D5",
          "midi": 74,
          "time": 208.7140769999968,
          "velocity": 0.8661417322834646,
          "duration": 0.20982121874999393
        },
        {
          "name": "C5",
          "midi": 72,
          "time": 208.92836249999678,
          "velocity": 0.8661417322834646,
          "duration": 0.20982121874999393
        },
        {
          "name": "D#5",
          "midi": 75,
          "time": 208.92836249999678,
          "velocity": 0.8661417322834646,
          "duration": 0.20982121874999393
        },
        {
          "name": "A#4",
          "midi": 70,
          "time": 209.14264799999677,
          "velocity": 0.8661417322834646,
          "duration": 0.10267846875001396
        },
        {
          "name": "D5",
          "midi": 74,
          "time": 209.14264799999677,
          "velocity": 0.8661417322834646,
          "duration": 0.10267846875001396
        },
        {
          "name": "A4",
          "midi": 69,
          "time": 209.24979074999678,
          "velocity": 0.8661417322834646,
          "duration": 0.10267846875001396
        },
        {
          "name": "C5",
          "midi": 72,
          "time": 209.24979074999678,
          "velocity": 0.8661417322834646,
          "duration": 0.10267846875001396
        },
        {
          "name": "G4",
          "midi": 67,
          "time": 209.35693349999679,
          "velocity": 0.8661417322834646,
          "duration": 0.20982121874999393
        },
        {
          "name": "A#4",
          "midi": 70,
          "time": 209.35693349999679,
          "velocity": 0.8661417322834646,
          "duration": 0.20982121874999393
        },
        {
          "name": "A#4",
          "midi": 70,
          "time": 209.57121899999677,
          "velocity": 0.8661417322834646,
          "duration": 0.20982121874999393
        },
        {
          "name": "D5",
          "midi": 74,
          "time": 209.57121899999677,
          "velocity": 0.8661417322834646,
          "duration": 0.20982121874999393
        },
        {
          "name": "A#5",
          "midi": 82,
          "time": 209.57121899999677,
          "velocity": 0.8661417322834646,
          "duration": 0.20982121874999393
        },
        {
          "name": "C5",
          "midi": 72,
          "time": 209.78550449999676,
          "velocity": 0.8661417322834646,
          "duration": 0.20982121874999393
        },
        {
          "name": "D#5",
          "midi": 75,
          "time": 209.78550449999676,
          "velocity": 0.8661417322834646,
          "duration": 0.20982121874999393
        },
        {
          "name": "C6",
          "midi": 84,
          "time": 209.78550449999676,
          "velocity": 0.8661417322834646,
          "duration": 0.20982121874999393
        },
        {
          "name": "A#4",
          "midi": 70,
          "time": 209.99978999999675,
          "velocity": 0.8661417322834646,
          "duration": 0.10267846875001396
        },
        {
          "name": "D5",
          "midi": 74,
          "time": 209.99978999999675,
          "velocity": 0.8661417322834646,
          "duration": 0.10267846875001396
        },
        {
          "name": "A#5",
          "midi": 82,
          "time": 209.99978999999675,
          "velocity": 0.8661417322834646,
          "duration": 0.10267846875001396
        },
        {
          "name": "A4",
          "midi": 69,
          "time": 210.10693274999676,
          "velocity": 0.8661417322834646,
          "duration": 0.10267846875001396
        },
        {
          "name": "C5",
          "midi": 72,
          "time": 210.10693274999676,
          "velocity": 0.8661417322834646,
          "duration": 0.10267846875001396
        },
        {
          "name": "A5",
          "midi": 81,
          "time": 210.10693274999676,
          "velocity": 0.8661417322834646,
          "duration": 0.10267846875001396
        },
        {
          "name": "G4",
          "midi": 67,
          "time": 210.21407549999677,
          "velocity": 0.8661417322834646,
          "duration": 0.20982121874999393
        },
        {
          "name": "A#4",
          "midi": 70,
          "time": 210.21407549999677,
          "velocity": 0.8661417322834646,
          "duration": 0.20982121874999393
        },
        {
          "name": "G5",
          "midi": 79,
          "time": 210.21407549999677,
          "velocity": 0.8661417322834646,
          "duration": 0.20982121874999393
        },
        {
          "name": "A#4",
          "midi": 70,
          "time": 210.42836099999676,
          "velocity": 0.8661417322834646,
          "duration": 0.20982121874999393
        },
        {
          "name": "D5",
          "midi": 74,
          "time": 210.42836099999676,
          "velocity": 0.8661417322834646,
          "duration": 0.20982121874999393
        },
        {
          "name": "A#5",
          "midi": 82,
          "time": 210.42836099999676,
          "velocity": 0.8661417322834646,
          "duration": 0.20982121874999393
        },
        {
          "name": "C5",
          "midi": 72,
          "time": 210.64264649999674,
          "velocity": 0.8661417322834646,
          "duration": 0.20982121874999393
        },
        {
          "name": "D#5",
          "midi": 75,
          "time": 210.64264649999674,
          "velocity": 0.8661417322834646,
          "duration": 0.20982121874999393
        },
        {
          "name": "C6",
          "midi": 84,
          "time": 210.64264649999674,
          "velocity": 0.8661417322834646,
          "duration": 0.20982121874999393
        },
        {
          "name": "A#4",
          "midi": 70,
          "time": 210.85693199999673,
          "velocity": 0.8661417322834646,
          "duration": 0.10267846875001396
        },
        {
          "name": "D5",
          "midi": 74,
          "time": 210.85693199999673,
          "velocity": 0.8661417322834646,
          "duration": 0.10267846875001396
        },
        {
          "name": "A#5",
          "midi": 82,
          "time": 210.85693199999673,
          "velocity": 0.8661417322834646,
          "duration": 0.10267846875001396
        },
        {
          "name": "A4",
          "midi": 69,
          "time": 210.96407474999674,
          "velocity": 0.8661417322834646,
          "duration": 0.10267846875001396
        },
        {
          "name": "C5",
          "midi": 72,
          "time": 210.96407474999674,
          "velocity": 0.8661417322834646,
          "duration": 0.10267846875001396
        },
        {
          "name": "A5",
          "midi": 81,
          "time": 210.96407474999674,
          "velocity": 0.8661417322834646,
          "duration": 0.10267846875001396
        },
        {
          "name": "G4",
          "midi": 67,
          "time": 211.07121749999675,
          "velocity": 0.8661417322834646,
          "duration": 0.20982121874999393
        },
        {
          "name": "A#4",
          "midi": 70,
          "time": 211.07121749999675,
          "velocity": 0.8661417322834646,
          "duration": 0.20982121874999393
        },
        {
          "name": "G5",
          "midi": 79,
          "time": 211.07121749999675,
          "velocity": 0.8661417322834646,
          "duration": 0.20982121874999393
        },
        {
          "name": "A#4",
          "midi": 70,
          "time": 211.28550299999674,
          "velocity": 0.8661417322834646,
          "duration": 0.20982121874999393
        },
        {
          "name": "D5",
          "midi": 74,
          "time": 211.28550299999674,
          "velocity": 0.8661417322834646,
          "duration": 0.20982121874999393
        },
        {
          "name": "A#5",
          "midi": 82,
          "time": 211.28550299999674,
          "velocity": 0.8661417322834646,
          "duration": 0.20982121874999393
        },
        {
          "name": "C5",
          "midi": 72,
          "time": 211.49978849999673,
          "velocity": 0.8661417322834646,
          "duration": 0.20982121874999393
        },
        {
          "name": "D#5",
          "midi": 75,
          "time": 211.49978849999673,
          "velocity": 0.8661417322834646,
          "duration": 0.20982121874999393
        },
        {
          "name": "C6",
          "midi": 84,
          "time": 211.49978849999673,
          "velocity": 0.8661417322834646,
          "duration": 0.20982121874999393
        },
        {
          "name": "A#4",
          "midi": 70,
          "time": 211.7140739999967,
          "velocity": 0.8661417322834646,
          "duration": 0.10267846875001396
        },
        {
          "name": "D5",
          "midi": 74,
          "time": 211.7140739999967,
          "velocity": 0.8661417322834646,
          "duration": 0.10267846875001396
        },
        {
          "name": "A#5",
          "midi": 82,
          "time": 211.7140739999967,
          "velocity": 0.8661417322834646,
          "duration": 0.10267846875001396
        },
        {
          "name": "A4",
          "midi": 69,
          "time": 211.82121674999672,
          "velocity": 0.8661417322834646,
          "duration": 0.10267846875001396
        },
        {
          "name": "C5",
          "midi": 72,
          "time": 211.82121674999672,
          "velocity": 0.8661417322834646,
          "duration": 0.10267846875001396
        },
        {
          "name": "A5",
          "midi": 81,
          "time": 211.82121674999672,
          "velocity": 0.8661417322834646,
          "duration": 0.10267846875001396
        },
        {
          "name": "G4",
          "midi": 67,
          "time": 211.92835949999673,
          "velocity": 0.8661417322834646,
          "duration": 0.20982121874999393
        },
        {
          "name": "A#4",
          "midi": 70,
          "time": 211.92835949999673,
          "velocity": 0.8661417322834646,
          "duration": 0.20982121874999393
        },
        {
          "name": "G5",
          "midi": 79,
          "time": 211.92835949999673,
          "velocity": 0.8661417322834646,
          "duration": 0.20982121874999393
        },
        {
          "name": "A#4",
          "midi": 70,
          "time": 212.14264499999672,
          "velocity": 0.8661417322834646,
          "duration": 0.20982121874999393
        },
        {
          "name": "D5",
          "midi": 74,
          "time": 212.14264499999672,
          "velocity": 0.8661417322834646,
          "duration": 0.20982121874999393
        },
        {
          "name": "A#5",
          "midi": 82,
          "time": 212.14264499999672,
          "velocity": 0.8661417322834646,
          "duration": 0.20982121874999393
        },
        {
          "name": "C5",
          "midi": 72,
          "time": 212.3569304999967,
          "velocity": 0.8661417322834646,
          "duration": 0.20982121874999393
        },
        {
          "name": "D#5",
          "midi": 75,
          "time": 212.3569304999967,
          "velocity": 0.8661417322834646,
          "duration": 0.20982121874999393
        },
        {
          "name": "C6",
          "midi": 84,
          "time": 212.3569304999967,
          "velocity": 0.8661417322834646,
          "duration": 0.20982121874999393
        },
        {
          "name": "A#4",
          "midi": 70,
          "time": 212.5712159999967,
          "velocity": 0.8661417322834646,
          "duration": 0.10267846875001396
        },
        {
          "name": "D5",
          "midi": 74,
          "time": 212.5712159999967,
          "velocity": 0.8661417322834646,
          "duration": 0.10267846875001396
        },
        {
          "name": "A#5",
          "midi": 82,
          "time": 212.5712159999967,
          "velocity": 0.8661417322834646,
          "duration": 0.10267846875001396
        },
        {
          "name": "A4",
          "midi": 69,
          "time": 212.6783587499967,
          "velocity": 0.8661417322834646,
          "duration": 0.10267846875001396
        },
        {
          "name": "C5",
          "midi": 72,
          "time": 212.6783587499967,
          "velocity": 0.8661417322834646,
          "duration": 0.10267846875001396
        },
        {
          "name": "A5",
          "midi": 81,
          "time": 212.6783587499967,
          "velocity": 0.8661417322834646,
          "duration": 0.10267846875001396
        },
        {
          "name": "G4",
          "midi": 67,
          "time": 212.7855014999967,
          "velocity": 0.8661417322834646,
          "duration": 0.20982121874999393
        },
        {
          "name": "A#4",
          "midi": 70,
          "time": 212.7855014999967,
          "velocity": 0.8661417322834646,
          "duration": 0.20982121874999393
        },
        {
          "name": "G5",
          "midi": 79,
          "time": 212.7855014999967,
          "velocity": 0.8661417322834646,
          "duration": 0.20982121874999393
        },
        {
          "name": "A#3",
          "midi": 58,
          "time": 219.8569229999967,
          "velocity": 0.8661417322834646,
          "duration": 0.20982121874999393
        },
        {
          "name": "C4",
          "midi": 60,
          "time": 220.0712084999967,
          "velocity": 0.8661417322834646,
          "duration": 0.20982121874999393
        },
        {
          "name": "A#3",
          "midi": 58,
          "time": 220.28549399999667,
          "velocity": 0.8661417322834646,
          "duration": 0.10267846875001396
        },
        {
          "name": "A3",
          "midi": 57,
          "time": 220.39263674999668,
          "velocity": 0.8661417322834646,
          "duration": 0.10267846875001396
        },
        {
          "name": "G3",
          "midi": 55,
          "time": 220.4997794999967,
          "velocity": 0.8661417322834646,
          "duration": 0.20982121874999393
        },
        {
          "name": "A#3",
          "midi": 58,
          "time": 220.71406499999668,
          "velocity": 0.8661417322834646,
          "duration": 0.20982121874999393
        },
        {
          "name": "A#4",
          "midi": 70,
          "time": 220.71406499999668,
          "velocity": 0.8661417322834646,
          "duration": 0.20982121874999393
        },
        {
          "name": "C4",
          "midi": 60,
          "time": 220.92835049999667,
          "velocity": 0.8661417322834646,
          "duration": 0.20982121874999393
        },
        {
          "name": "C5",
          "midi": 72,
          "time": 220.92835049999667,
          "velocity": 0.8661417322834646,
          "duration": 0.20982121874999393
        },
        {
          "name": "A#3",
          "midi": 58,
          "time": 221.14263599999666,
          "velocity": 0.8661417322834646,
          "duration": 0.10267846875001396
        },
        {
          "name": "A#4",
          "midi": 70,
          "time": 221.14263599999666,
          "velocity": 0.8661417322834646,
          "duration": 0.10267846875001396
        },
        {
          "name": "A3",
          "midi": 57,
          "time": 221.24977874999666,
          "velocity": 0.8661417322834646,
          "duration": 0.10267846875001396
        },
        {
          "name": "A4",
          "midi": 69,
          "time": 221.24977874999666,
          "velocity": 0.8661417322834646,
          "duration": 0.10267846875001396
        },
        {
          "name": "G3",
          "midi": 55,
          "time": 221.35692149999667,
          "velocity": 0.8661417322834646,
          "duration": 0.20982121874999393
        },
        {
          "name": "G4",
          "midi": 67,
          "time": 221.35692149999667,
          "velocity": 0.8661417322834646,
          "duration": 0.20982121874999393
        },
        {
          "name": "A#3",
          "midi": 58,
          "time": 221.57120699999666,
          "velocity": 0.8661417322834646,
          "duration": 0.20982121874999393
        },
        {
          "name": "A#4",
          "midi": 70,
          "time": 221.57120699999666,
          "velocity": 0.8661417322834646,
          "duration": 0.20982121874999393
        },
        {
          "name": "A#5",
          "midi": 82,
          "time": 221.57120699999666,
          "velocity": 0.8661417322834646,
          "duration": 0.20982121874999393
        },
        {
          "name": "C4",
          "midi": 60,
          "time": 221.78549249999665,
          "velocity": 0.8661417322834646,
          "duration": 0.20982121874999393
        },
        {
          "name": "C5",
          "midi": 72,
          "time": 221.78549249999665,
          "velocity": 0.8661417322834646,
          "duration": 0.20982121874999393
        },
        {
          "name": "C6",
          "midi": 84,
          "time": 221.78549249999665,
          "velocity": 0.8661417322834646,
          "duration": 0.20982121874999393
        },
        {
          "name": "A#3",
          "midi": 58,
          "time": 221.99977799999664,
          "velocity": 0.8661417322834646,
          "duration": 0.10267846875001396
        },
        {
          "name": "A#4",
          "midi": 70,
          "time": 221.99977799999664,
          "velocity": 0.8661417322834646,
          "duration": 0.10267846875001396
        },
        {
          "name": "A#5",
          "midi": 82,
          "time": 221.99977799999664,
          "velocity": 0.8661417322834646,
          "duration": 0.10267846875001396
        },
        {
          "name": "A3",
          "midi": 57,
          "time": 222.10692074999665,
          "velocity": 0.8661417322834646,
          "duration": 0.10267846875001396
        },
        {
          "name": "A4",
          "midi": 69,
          "time": 222.10692074999665,
          "velocity": 0.8661417322834646,
          "duration": 0.10267846875001396
        },
        {
          "name": "A5",
          "midi": 81,
          "time": 222.10692074999665,
          "velocity": 0.8661417322834646,
          "duration": 0.10267846875001396
        },
        {
          "name": "G3",
          "midi": 55,
          "time": 222.21406349999666,
          "velocity": 0.8661417322834646,
          "duration": 0.20982121874999393
        },
        {
          "name": "G4",
          "midi": 67,
          "time": 222.21406349999666,
          "velocity": 0.8661417322834646,
          "duration": 0.20982121874999393
        },
        {
          "name": "G5",
          "midi": 79,
          "time": 222.21406349999666,
          "velocity": 0.8661417322834646,
          "duration": 0.20982121874999393
        },
        {
          "name": "A#3",
          "midi": 58,
          "time": 222.42834899999664,
          "velocity": 0.8661417322834646,
          "duration": 0.20982121874999393
        },
        {
          "name": "A#4",
          "midi": 70,
          "time": 222.42834899999664,
          "velocity": 0.8661417322834646,
          "duration": 0.20982121874999393
        },
        {
          "name": "A#5",
          "midi": 82,
          "time": 222.42834899999664,
          "velocity": 0.8661417322834646,
          "duration": 0.20982121874999393
        },
        {
          "name": "A#6",
          "midi": 94,
          "time": 222.42834899999664,
          "velocity": 0.8661417322834646,
          "duration": 0.20982121874999393
        },
        {
          "name": "C4",
          "midi": 60,
          "time": 222.64263449999663,
          "velocity": 0.8661417322834646,
          "duration": 0.20982121874999393
        },
        {
          "name": "C5",
          "midi": 72,
          "time": 222.64263449999663,
          "velocity": 0.8661417322834646,
          "duration": 0.20982121874999393
        },
        {
          "name": "C6",
          "midi": 84,
          "time": 222.64263449999663,
          "velocity": 0.8661417322834646,
          "duration": 0.20982121874999393
        },
        {
          "name": "C7",
          "midi": 96,
          "time": 222.64263449999663,
          "velocity": 0.8661417322834646,
          "duration": 0.20982121874999393
        },
        {
          "name": "A#3",
          "midi": 58,
          "time": 222.85691999999662,
          "velocity": 0.8661417322834646,
          "duration": 0.10267846875001396
        },
        {
          "name": "A#4",
          "midi": 70,
          "time": 222.85691999999662,
          "velocity": 0.8661417322834646,
          "duration": 0.10267846875001396
        },
        {
          "name": "A#5",
          "midi": 82,
          "time": 222.85691999999662,
          "velocity": 0.8661417322834646,
          "duration": 0.10267846875001396
        },
        {
          "name": "A#6",
          "midi": 94,
          "time": 222.85691999999662,
          "velocity": 0.8661417322834646,
          "duration": 0.10267846875001396
        },
        {
          "name": "A3",
          "midi": 57,
          "time": 222.96406274999663,
          "velocity": 0.8661417322834646,
          "duration": 0.10267846875001396
        },
        {
          "name": "A4",
          "midi": 69,
          "time": 222.96406274999663,
          "velocity": 0.8661417322834646,
          "duration": 0.10267846875001396
        },
        {
          "name": "A5",
          "midi": 81,
          "time": 222.96406274999663,
          "velocity": 0.8661417322834646,
          "duration": 0.10267846875001396
        },
        {
          "name": "A6",
          "midi": 93,
          "time": 222.96406274999663,
          "velocity": 0.8661417322834646,
          "duration": 0.10267846875001396
        },
        {
          "name": "G3",
          "midi": 55,
          "time": 223.07120549999664,
          "velocity": 0.8661417322834646,
          "duration": 0.20982121874999393
        },
        {
          "name": "G4",
          "midi": 67,
          "time": 223.07120549999664,
          "velocity": 0.8661417322834646,
          "duration": 0.20982121874999393
        },
        {
          "name": "G5",
          "midi": 79,
          "time": 223.07120549999664,
          "velocity": 0.8661417322834646,
          "duration": 0.20982121874999393
        },
        {
          "name": "G6",
          "midi": 91,
          "time": 223.07120549999664,
          "velocity": 0.8661417322834646,
          "duration": 0.20982121874999393
        },
        {
          "name": "A#3",
          "midi": 58,
          "time": 233.57119499999664,
          "velocity": 0.8661417322834646,
          "duration": 0.20982121874999393
        },
        {
          "name": "C4",
          "midi": 60,
          "time": 233.78548049999662,
          "velocity": 0.8661417322834646,
          "duration": 0.20982121874999393
        },
        {
          "name": "A#3",
          "midi": 58,
          "time": 233.9997659999966,
          "velocity": 0.8661417322834646,
          "duration": 0.10267846875001396
        },
        {
          "name": "A3",
          "midi": 57,
          "time": 234.10690874999662,
          "velocity": 0.8661417322834646,
          "duration": 0.10267846875001396
        },
        {
          "name": "G3",
          "midi": 55,
          "time": 234.21405149999663,
          "velocity": 0.8661417322834646,
          "duration": 0.20982121874999393
        },
        {
          "name": "A#3",
          "midi": 58,
          "time": 234.42833699999662,
          "velocity": 0.8661417322834646,
          "duration": 0.20982121874999393
        },
        {
          "name": "C4",
          "midi": 60,
          "time": 234.6426224999966,
          "velocity": 0.8661417322834646,
          "duration": 0.20982121874999393
        },
        {
          "name": "A#3",
          "midi": 58,
          "time": 234.8569079999966,
          "velocity": 0.8661417322834646,
          "duration": 0.10267846875001396
        },
        {
          "name": "A3",
          "midi": 57,
          "time": 234.9640507499966,
          "velocity": 0.8661417322834646,
          "duration": 0.10267846875001396
        },
        {
          "name": "G3",
          "midi": 55,
          "time": 235.0711934999966,
          "velocity": 0.8661417322834646,
          "duration": 0.20982121874999393
        },
        {
          "name": "A#3",
          "midi": 58,
          "time": 235.2854789999966,
          "velocity": 0.8661417322834646,
          "duration": 0.20982121874999393
        },
        {
          "name": "C4",
          "midi": 60,
          "time": 235.4997644999966,
          "velocity": 0.8661417322834646,
          "duration": 0.20982121874999393
        },
        {
          "name": "A#3",
          "midi": 58,
          "time": 235.71404999999658,
          "velocity": 0.8661417322834646,
          "duration": 0.10267846875001396
        },
        {
          "name": "A3",
          "midi": 57,
          "time": 235.82119274999658,
          "velocity": 0.8661417322834646,
          "duration": 0.10267846875001396
        },
        {
          "name": "G3",
          "midi": 55,
          "time": 235.9283354999966,
          "velocity": 0.8661417322834646,
          "duration": 0.20982121874999393
        },
        {
          "name": "A#3",
          "midi": 58,
          "time": 236.14262099999658,
          "velocity": 0.8661417322834646,
          "duration": 0.20982121874999393
        },
        {
          "name": "C4",
          "midi": 60,
          "time": 236.35690649999657,
          "velocity": 0.8661417322834646,
          "duration": 0.20982121874999393
        },
        {
          "name": "A#3",
          "midi": 58,
          "time": 236.57119199999656,
          "velocity": 0.8661417322834646,
          "duration": 0.10267846875001396
        },
        {
          "name": "A3",
          "midi": 57,
          "time": 236.67833474999657,
          "velocity": 0.8661417322834646,
          "duration": 0.10267846875001396
        },
        {
          "name": "G3",
          "midi": 55,
          "time": 236.78547749999657,
          "velocity": 0.8661417322834646,
          "duration": 0.20982121874999393
        },
        {
          "name": "A#3",
          "midi": 58,
          "time": 236.99976299999656,
          "velocity": 0.8661417322834646,
          "duration": 0.20982121874999393
        },
        {
          "name": "C4",
          "midi": 60,
          "time": 237.21404849999655,
          "velocity": 0.8661417322834646,
          "duration": 0.20982121874999393
        },
        {
          "name": "A#3",
          "midi": 58,
          "time": 237.42833399999654,
          "velocity": 0.8661417322834646,
          "duration": 0.10267846875001396
        },
        {
          "name": "A3",
          "midi": 57,
          "time": 237.53547674999655,
          "velocity": 0.8661417322834646,
          "duration": 0.10267846875001396
        },
        {
          "name": "G3",
          "midi": 55,
          "time": 237.64261949999656,
          "velocity": 0.8661417322834646,
          "duration": 0.20982121874999393
        },
        {
          "name": "A#3",
          "midi": 58,
          "time": 237.85690499999654,
          "velocity": 0.8661417322834646,
          "duration": 0.20982121874999393
        },
        {
          "name": "C4",
          "midi": 60,
          "time": 238.07119049999653,
          "velocity": 0.8661417322834646,
          "duration": 0.20982121874999393
        },
        {
          "name": "A#3",
          "midi": 58,
          "time": 238.28547599999652,
          "velocity": 0.8661417322834646,
          "duration": 0.10267846875001396
        },
        {
          "name": "A3",
          "midi": 57,
          "time": 238.39261874999653,
          "velocity": 0.8661417322834646,
          "duration": 0.10267846875001396
        },
        {
          "name": "G3",
          "midi": 55,
          "time": 238.49976149999654,
          "velocity": 0.8661417322834646,
          "duration": 0.20982121874999393
        },
        {
          "name": "A#3",
          "midi": 58,
          "time": 238.71404699999653,
          "velocity": 0.8661417322834646,
          "duration": 0.20982121874999393
        },
        {
          "name": "C4",
          "midi": 60,
          "time": 238.92833249999651,
          "velocity": 0.8661417322834646,
          "duration": 0.20982121874999393
        },
        {
          "name": "A#3",
          "midi": 58,
          "time": 239.1426179999965,
          "velocity": 0.8661417322834646,
          "duration": 0.10267846875001396
        },
        {
          "name": "A3",
          "midi": 57,
          "time": 239.2497607499965,
          "velocity": 0.8661417322834646,
          "duration": 0.10267846875001396
        },
        {
          "name": "G3",
          "midi": 55,
          "time": 239.35690349999652,
          "velocity": 0.8661417322834646,
          "duration": 0.20982121874999393
        },
        {
          "name": "A#3",
          "midi": 58,
          "time": 239.5711889999965,
          "velocity": 0.8661417322834646,
          "duration": 0.20982121874999393
        },
        {
          "name": "C4",
          "midi": 60,
          "time": 239.7854744999965,
          "velocity": 0.8661417322834646,
          "duration": 0.20982121874999393
        },
        {
          "name": "A#3",
          "midi": 58,
          "time": 239.99975999999648,
          "velocity": 0.8661417322834646,
          "duration": 0.10267846875001396
        },
        {
          "name": "A3",
          "midi": 57,
          "time": 240.1069027499965,
          "velocity": 0.8661417322834646,
          "duration": 0.10267846875001396
        },
        {
          "name": "G3",
          "midi": 55,
          "time": 240.2140454999965,
          "velocity": 0.8661417322834646,
          "duration": 0.20982121874999393
        },
        {
          "name": "A#3",
          "midi": 58,
          "time": 240.4283309999965,
          "velocity": 0.8661417322834646,
          "duration": 0.20982121874999393
        },
        {
          "name": "C4",
          "midi": 60,
          "time": 240.64261649999648,
          "velocity": 0.8661417322834646,
          "duration": 0.20982121874999393
        },
        {
          "name": "A#3",
          "midi": 58,
          "time": 240.85690199999647,
          "velocity": 0.8661417322834646,
          "duration": 0.10267846875001396
        },
        {
          "name": "A3",
          "midi": 57,
          "time": 240.96404474999648,
          "velocity": 0.8661417322834646,
          "duration": 0.10267846875001396
        },
        {
          "name": "G3",
          "midi": 55,
          "time": 241.07118749999648,
          "velocity": 0.8661417322834646,
          "duration": 0.20982121874999393
        },
        {
          "name": "A#3",
          "midi": 58,
          "time": 241.28547299999647,
          "velocity": 0.8661417322834646,
          "duration": 0.20982121874999393
        },
        {
          "name": "C4",
          "midi": 60,
          "time": 241.49975849999646,
          "velocity": 0.8661417322834646,
          "duration": 0.20982121874999393
        },
        {
          "name": "A#3",
          "midi": 58,
          "time": 241.71404399999645,
          "velocity": 0.8661417322834646,
          "duration": 0.10267846875001396
        },
        {
          "name": "A3",
          "midi": 57,
          "time": 241.82118674999646,
          "velocity": 0.8661417322834646,
          "duration": 0.10267846875001396
        },
        {
          "name": "G3",
          "midi": 55,
          "time": 241.92832949999647,
          "velocity": 0.8661417322834646,
          "duration": 0.20982121874999393
        },
        {
          "name": "A#3",
          "midi": 58,
          "time": 242.14261499999645,
          "velocity": 0.8661417322834646,
          "duration": 0.20982121874999393
        },
        {
          "name": "C4",
          "midi": 60,
          "time": 242.35690049999644,
          "velocity": 0.8661417322834646,
          "duration": 0.20982121874999393
        },
        {
          "name": "A#3",
          "midi": 58,
          "time": 242.57118599999643,
          "velocity": 0.8661417322834646,
          "duration": 0.10267846875001396
        },
        {
          "name": "A3",
          "midi": 57,
          "time": 242.67832874999644,
          "velocity": 0.8661417322834646,
          "duration": 0.10267846875001396
        },
        {
          "name": "G3",
          "midi": 55,
          "time": 242.78547149999645,
          "velocity": 0.8661417322834646,
          "duration": 0.20982121874999393
        },
        {
          "name": "A#3",
          "midi": 58,
          "time": 242.99975699999644,
          "velocity": 0.8661417322834646,
          "duration": 0.20982121874999393
        },
        {
          "name": "C4",
          "midi": 60,
          "time": 243.21404249999642,
          "velocity": 0.8661417322834646,
          "duration": 0.20982121874999393
        },
        {
          "name": "A#3",
          "midi": 58,
          "time": 243.4283279999964,
          "velocity": 0.8661417322834646,
          "duration": 0.10267846875001396
        },
        {
          "name": "A3",
          "midi": 57,
          "time": 243.53547074999642,
          "velocity": 0.8661417322834646,
          "duration": 0.10267846875001396
        },
        {
          "name": "G3",
          "midi": 55,
          "time": 243.64261349999643,
          "velocity": 0.8661417322834646,
          "duration": 0.20982121874999393
        },
        {
          "name": "A#4",
          "midi": 70,
          "time": 243.85689899999642,
          "velocity": 0.8661417322834646,
          "duration": 0.20982121874999393
        },
        {
          "name": "C5",
          "midi": 72,
          "time": 244.0711844999964,
          "velocity": 0.8661417322834646,
          "duration": 0.20982121874999393
        },
        {
          "name": "A#4",
          "midi": 70,
          "time": 244.2854699999964,
          "velocity": 0.8661417322834646,
          "duration": 0.10267846875001396
        },
        {
          "name": "A4",
          "midi": 69,
          "time": 244.3926127499964,
          "velocity": 0.8661417322834646,
          "duration": 0.10267846875001396
        },
        {
          "name": "G4",
          "midi": 67,
          "time": 244.4997554999964,
          "velocity": 0.8661417322834646,
          "duration": 0.20982121874999393
        },
        {
          "name": "A#4",
          "midi": 70,
          "time": 244.7140409999964,
          "velocity": 0.8661417322834646,
          "duration": 0.20982121874999393
        },
        {
          "name": "C5",
          "midi": 72,
          "time": 244.9283264999964,
          "velocity": 0.8661417322834646,
          "duration": 0.20982121874999393
        },
        {
          "name": "A#4",
          "midi": 70,
          "time": 245.14261199999638,
          "velocity": 0.8661417322834646,
          "duration": 0.10267846875001396
        },
        {
          "name": "A4",
          "midi": 69,
          "time": 245.24975474999638,
          "velocity": 0.8661417322834646,
          "duration": 0.10267846875001396
        },
        {
          "name": "G4",
          "midi": 67,
          "time": 245.3568974999964,
          "velocity": 0.8661417322834646,
          "duration": 0.20982121874999393
        },
        {
          "name": "A#4",
          "midi": 70,
          "time": 245.57118299999638,
          "velocity": 0.8661417322834646,
          "duration": 0.20982121874999393
        },
        {
          "name": "C5",
          "midi": 72,
          "time": 245.78546849999637,
          "velocity": 0.8661417322834646,
          "duration": 0.20982121874999393
        },
        {
          "name": "A#4",
          "midi": 70,
          "time": 245.99975399999636,
          "velocity": 0.8661417322834646,
          "duration": 0.10267846875001396
        },
        {
          "name": "A4",
          "midi": 69,
          "time": 246.10689674999637,
          "velocity": 0.8661417322834646,
          "duration": 0.10267846875001396
        },
        {
          "name": "G4",
          "midi": 67,
          "time": 246.21403949999637,
          "velocity": 0.8661417322834646,
          "duration": 0.20982121874999393
        },
        {
          "name": "A#4",
          "midi": 70,
          "time": 246.42832499999636,
          "velocity": 0.8661417322834646,
          "duration": 0.20982121874999393
        },
        {
          "name": "C5",
          "midi": 72,
          "time": 246.64261049999635,
          "velocity": 0.8661417322834646,
          "duration": 0.20982121874999393
        },
        {
          "name": "A#4",
          "midi": 70,
          "time": 246.85689599999634,
          "velocity": 0.8661417322834646,
          "duration": 0.10267846875001396
        },
        {
          "name": "A4",
          "midi": 69,
          "time": 246.96403874999635,
          "velocity": 0.8661417322834646,
          "duration": 0.10267846875001396
        },
        {
          "name": "G4",
          "midi": 67,
          "time": 247.07118149999636,
          "velocity": 0.8661417322834646,
          "duration": 0.20982121874999393
        },
        {
          "name": "A#4",
          "midi": 70,
          "time": 247.28546699999634,
          "velocity": 0.8661417322834646,
          "duration": 0.20982121874999393
        },
        {
          "name": "C5",
          "midi": 72,
          "time": 247.49975249999633,
          "velocity": 0.8661417322834646,
          "duration": 0.20982121874999393
        },
        {
          "name": "C5",
          "midi": 72,
          "time": 247.71403799999632,
          "velocity": 0.8661417322834646,
          "duration": 0.10267846875001396
        },
        {
          "name": "A#4",
          "midi": 70,
          "time": 247.82118074999633,
          "velocity": 0.8661417322834646,
          "duration": 0.10267846875001396
        },
        {
          "name": "A4",
          "midi": 69,
          "time": 247.92832349999634,
          "velocity": 0.8661417322834646,
          "duration": 0.20982121874999393
        },
        {
          "name": "A#4",
          "midi": 70,
          "time": 248.14260899999633,
          "velocity": 0.8661417322834646,
          "duration": 0.20982121874999393
        },
        {
          "name": "C5",
          "midi": 72,
          "time": 248.35689449999632,
          "velocity": 0.8661417322834646,
          "duration": 0.20982121874999393
        },
        {
          "name": "C5",
          "midi": 72,
          "time": 248.5711799999963,
          "velocity": 0.8661417322834646,
          "duration": 0.10267846875001396
        },
        {
          "name": "A#4",
          "midi": 70,
          "time": 248.6783227499963,
          "velocity": 0.8661417322834646,
          "duration": 0.10267846875001396
        },
        {
          "name": "A4",
          "midi": 69,
          "time": 248.78546549999632,
          "velocity": 0.8661417322834646,
          "duration": 0.20982121874999393
        },
        {
          "name": "A#4",
          "midi": 70,
          "time": 248.9997509999963,
          "velocity": 0.8661417322834646,
          "duration": 0.20982121874999393
        },
        {
          "name": "C5",
          "midi": 72,
          "time": 249.2140364999963,
          "velocity": 0.8661417322834646,
          "duration": 0.20982121874999393
        },
        {
          "name": "C5",
          "midi": 72,
          "time": 249.42832199999629,
          "velocity": 0.8661417322834646,
          "duration": 0.10267846875001396
        },
        {
          "name": "A#4",
          "midi": 70,
          "time": 249.5354647499963,
          "velocity": 0.8661417322834646,
          "duration": 0.10267846875001396
        },
        {
          "name": "A4",
          "midi": 69,
          "time": 249.6426074999963,
          "velocity": 0.8661417322834646,
          "duration": 0.20982121874999393
        },
        {
          "name": "A#4",
          "midi": 70,
          "time": 249.8568929999963,
          "velocity": 0.8661417322834646,
          "duration": 0.20982121874999393
        },
        {
          "name": "C5",
          "midi": 72,
          "time": 250.07117849999628,
          "velocity": 0.8661417322834646,
          "duration": 0.20982121874999393
        },
        {
          "name": "C5",
          "midi": 72,
          "time": 250.28546399999627,
          "velocity": 0.8661417322834646,
          "duration": 0.10267846875001396
        },
        {
          "name": "A#4",
          "midi": 70,
          "time": 250.39260674999628,
          "velocity": 0.8661417322834646,
          "duration": 0.10267846875001396
        },
        {
          "name": "A4",
          "midi": 69,
          "time": 250.49974949999628,
          "velocity": 0.8661417322834646,
          "duration": 0.20982121874999393
        },
        {
          "name": "A#4",
          "midi": 70,
          "time": 250.71403499999627,
          "velocity": 0.8661417322834646,
          "duration": 0.20982121874999393
        },
        {
          "name": "C5",
          "midi": 72,
          "time": 250.92832049999626,
          "velocity": 0.8661417322834646,
          "duration": 0.20982121874999393
        },
        {
          "name": "A#4",
          "midi": 70,
          "time": 251.14260599999625,
          "velocity": 0.8661417322834646,
          "duration": 0.10267846875001396
        },
        {
          "name": "A4",
          "midi": 69,
          "time": 251.24974874999626,
          "velocity": 0.8661417322834646,
          "duration": 0.10267846875001396
        },
        {
          "name": "G4",
          "midi": 67,
          "time": 251.35689149999627,
          "velocity": 0.8661417322834646,
          "duration": 0.20982121874999393
        },
        {
          "name": "A#4",
          "midi": 70,
          "time": 251.57117699999625,
          "velocity": 0.8661417322834646,
          "duration": 0.20982121874999393
        },
        {
          "name": "C5",
          "midi": 72,
          "time": 251.78546249999624,
          "velocity": 0.8661417322834646,
          "duration": 0.20982121874999393
        },
        {
          "name": "A#4",
          "midi": 70,
          "time": 251.99974799999623,
          "velocity": 0.8661417322834646,
          "duration": 0.10267846875001396
        },
        {
          "name": "A4",
          "midi": 69,
          "time": 252.10689074999624,
          "velocity": 0.8661417322834646,
          "duration": 0.10267846875001396
        },
        {
          "name": "G4",
          "midi": 67,
          "time": 252.21403349999625,
          "velocity": 0.8661417322834646,
          "duration": 0.20982121874999393
        },
        {
          "name": "A#4",
          "midi": 70,
          "time": 252.42831899999624,
          "velocity": 0.8661417322834646,
          "duration": 0.20982121874999393
        },
        {
          "name": "C5",
          "midi": 72,
          "time": 252.64260449999622,
          "velocity": 0.8661417322834646,
          "duration": 0.20982121874999393
        },
        {
          "name": "A#4",
          "midi": 70,
          "time": 252.8568899999962,
          "velocity": 0.8661417322834646,
          "duration": 0.10267846875001396
        },
        {
          "name": "A4",
          "midi": 69,
          "time": 252.96403274999622,
          "velocity": 0.8661417322834646,
          "duration": 0.10267846875001396
        },
        {
          "name": "G4",
          "midi": 67,
          "time": 253.07117549999623,
          "velocity": 0.8661417322834646,
          "duration": 0.20982121874999393
        },
        {
          "name": "A#4",
          "midi": 70,
          "time": 253.28546099999622,
          "velocity": 0.8661417322834646,
          "duration": 0.20982121874999393
        },
        {
          "name": "C5",
          "midi": 72,
          "time": 253.4997464999962,
          "velocity": 0.8661417322834646,
          "duration": 0.20982121874999393
        },
        {
          "name": "A#4",
          "midi": 70,
          "time": 253.7140319999962,
          "velocity": 0.8661417322834646,
          "duration": 0.10267846875001396
        },
        {
          "name": "A4",
          "midi": 69,
          "time": 253.8211747499962,
          "velocity": 0.8661417322834646,
          "duration": 0.10267846875001396
        },
        {
          "name": "G4",
          "midi": 67,
          "time": 253.9283174999962,
          "velocity": 0.8661417322834646,
          "duration": 0.20982121874999393
        },
        {
          "name": "D#5",
          "midi": 75,
          "time": 254.1426029999962,
          "velocity": 0.8661417322834646,
          "duration": 0.20982121874999393
        },
        {
          "name": "F5",
          "midi": 77,
          "time": 254.3568884999962,
          "velocity": 0.8661417322834646,
          "duration": 0.20982121874999393
        },
        {
          "name": "D#5",
          "midi": 75,
          "time": 254.57117399999618,
          "velocity": 0.8661417322834646,
          "duration": 0.10267846875001396
        },
        {
          "name": "D5",
          "midi": 74,
          "time": 254.67831674999618,
          "velocity": 0.8661417322834646,
          "duration": 0.10267846875001396
        },
        {
          "name": "C5",
          "midi": 72,
          "time": 254.7854594999962,
          "velocity": 0.8661417322834646,
          "duration": 0.20982121874999393
        },
        {
          "name": "D#5",
          "midi": 75,
          "time": 254.99974499999618,
          "velocity": 0.8661417322834646,
          "duration": 0.20982121874999393
        },
        {
          "name": "F5",
          "midi": 77,
          "time": 255.21403049999617,
          "velocity": 0.8661417322834646,
          "duration": 0.20982121874999393
        },
        {
          "name": "D#5",
          "midi": 75,
          "time": 255.42831599999616,
          "velocity": 0.8661417322834646,
          "duration": 0.10267846875001396
        },
        {
          "name": "D5",
          "midi": 74,
          "time": 255.53545874999617,
          "velocity": 0.8661417322834646,
          "duration": 0.10267846875001396
        },
        {
          "name": "C5",
          "midi": 72,
          "time": 255.64260149999618,
          "velocity": 0.8661417322834646,
          "duration": 0.20982121874999393
        },
        {
          "name": "D#5",
          "midi": 75,
          "time": 255.85688699999616,
          "velocity": 0.8661417322834646,
          "duration": 0.20982121874999393
        },
        {
          "name": "F5",
          "midi": 77,
          "time": 256.0711724999962,
          "velocity": 0.8661417322834646,
          "duration": 0.20982121874999393
        },
        {
          "name": "D#5",
          "midi": 75,
          "time": 256.2854579999962,
          "velocity": 0.8661417322834646,
          "duration": 0.10267846875001396
        },
        {
          "name": "D5",
          "midi": 74,
          "time": 256.39260074999623,
          "velocity": 0.8661417322834646,
          "duration": 0.10267846875001396
        },
        {
          "name": "C5",
          "midi": 72,
          "time": 256.49974349999627,
          "velocity": 0.8661417322834646,
          "duration": 0.20982121874999393
        },
        {
          "name": "D#5",
          "midi": 75,
          "time": 256.7140289999963,
          "velocity": 0.8661417322834646,
          "duration": 0.20982121874999393
        },
        {
          "name": "F5",
          "midi": 77,
          "time": 256.9283144999963,
          "velocity": 0.8661417322834646,
          "duration": 0.20982121874999393
        },
        {
          "name": "D#5",
          "midi": 75,
          "time": 257.1425999999963,
          "velocity": 0.8661417322834646,
          "duration": 0.10267846875001396
        },
        {
          "name": "D5",
          "midi": 74,
          "time": 257.24974274999636,
          "velocity": 0.8661417322834646,
          "duration": 0.10267846875001396
        },
        {
          "name": "C5",
          "midi": 72,
          "time": 257.3568854999964,
          "velocity": 0.8661417322834646,
          "duration": 0.20982121874999393
        },
        {
          "name": "G5",
          "midi": 79,
          "time": 257.5711709999964,
          "velocity": 0.8661417322834646,
          "duration": 0.20982121874999393
        },
        {
          "name": "G6",
          "midi": 91,
          "time": 257.5711709999964,
          "velocity": 0.8661417322834646,
          "duration": 0.20982121874999393
        },
        {
          "name": "G5",
          "midi": 79,
          "time": 257.7854564999964,
          "velocity": 0.8661417322834646,
          "duration": 0.20982121874999393
        },
        {
          "name": "G6",
          "midi": 91,
          "time": 257.7854564999964,
          "velocity": 0.8661417322834646,
          "duration": 0.20982121874999393
        },
        {
          "name": "G5",
          "midi": 79,
          "time": 258.4283129999964,
          "velocity": 0.8661417322834646,
          "duration": 0.20982121874999393
        },
        {
          "name": "G6",
          "midi": 91,
          "time": 258.4283129999964,
          "velocity": 0.8661417322834646,
          "duration": 0.20982121874999393
        },
        {
          "name": "G5",
          "midi": 79,
          "time": 258.64259849999644,
          "velocity": 0.8661417322834646,
          "duration": 0.20982121874999393
        },
        {
          "name": "G6",
          "midi": 91,
          "time": 258.64259849999644,
          "velocity": 0.8661417322834646,
          "duration": 0.20982121874999393
        },
        {
          "name": "G5",
          "midi": 79,
          "time": 259.28545499999643,
          "velocity": 0.8661417322834646,
          "duration": 0.20982121874999393
        },
        {
          "name": "G6",
          "midi": 91,
          "time": 259.28545499999643,
          "velocity": 0.8661417322834646,
          "duration": 0.20982121874999393
        },
        {
          "name": "G5",
          "midi": 79,
          "time": 259.49974049999645,
          "velocity": 0.8661417322834646,
          "duration": 0.20982121874999393
        },
        {
          "name": "G6",
          "midi": 91,
          "time": 259.49974049999645,
          "velocity": 0.8661417322834646,
          "duration": 0.20982121874999393
        },
        {
          "name": "A5",
          "midi": 81,
          "time": 260.14259699999644,
          "velocity": 0.8661417322834646,
          "duration": 0.20982121874999393
        },
        {
          "name": "A6",
          "midi": 93,
          "time": 260.14259699999644,
          "velocity": 0.8661417322834646,
          "duration": 0.20982121874999393
        },
        {
          "name": "F#5",
          "midi": 78,
          "time": 260.35688249999646,
          "velocity": 0.8661417322834646,
          "duration": 0.20982121874999393
        },
        {
          "name": "F#6",
          "midi": 90,
          "time": 260.35688249999646,
          "velocity": 0.8661417322834646,
          "duration": 0.20982121874999393
        },
        {
          "name": "G5",
          "midi": 79,
          "time": 260.99973899999645,
          "velocity": 0.8661417322834646,
          "duration": 0.20982121874999393
        },
        {
          "name": "G6",
          "midi": 91,
          "time": 260.99973899999645,
          "velocity": 0.8661417322834646,
          "duration": 0.20982121874999393
        },
        {
          "name": "G5",
          "midi": 79,
          "time": 261.21402449999647,
          "velocity": 0.8661417322834646,
          "duration": 0.20982121874999393
        },
        {
          "name": "G6",
          "midi": 91,
          "time": 261.21402449999647,
          "velocity": 0.8661417322834646,
          "duration": 0.20982121874999393
        },
        {
          "name": "G5",
          "midi": 79,
          "time": 261.85688099999646,
          "velocity": 0.8661417322834646,
          "duration": 0.20982121874999393
        },
        {
          "name": "G6",
          "midi": 91,
          "time": 261.85688099999646,
          "velocity": 0.8661417322834646,
          "duration": 0.20982121874999393
        },
        {
          "name": "G5",
          "midi": 79,
          "time": 262.0711664999965,
          "velocity": 0.8661417322834646,
          "duration": 0.20982121874999393
        },
        {
          "name": "G6",
          "midi": 91,
          "time": 262.0711664999965,
          "velocity": 0.8661417322834646,
          "duration": 0.20982121874999393
        },
        {
          "name": "G5",
          "midi": 79,
          "time": 262.7140229999965,
          "velocity": 0.8661417322834646,
          "duration": 0.20982121874999393
        },
        {
          "name": "G6",
          "midi": 91,
          "time": 262.7140229999965,
          "velocity": 0.8661417322834646,
          "duration": 0.20982121874999393
        },
        {
          "name": "G5",
          "midi": 79,
          "time": 262.9283084999965,
          "velocity": 0.8661417322834646,
          "duration": 0.20982121874999393
        },
        {
          "name": "G6",
          "midi": 91,
          "time": 262.9283084999965,
          "velocity": 0.8661417322834646,
          "duration": 0.20982121874999393
        },
        {
          "name": "A5",
          "midi": 81,
          "time": 263.5711649999965,
          "velocity": 0.8661417322834646,
          "duration": 0.20982121874999393
        },
        {
          "name": "A6",
          "midi": 93,
          "time": 263.5711649999965,
          "velocity": 0.8661417322834646,
          "duration": 0.20982121874999393
        },
        {
          "name": "F#5",
          "midi": 78,
          "time": 263.7854504999965,
          "velocity": 0.8661417322834646,
          "duration": 0.20982121874999393
        },
        {
          "name": "F#6",
          "midi": 90,
          "time": 263.7854504999965,
          "velocity": 0.8661417322834646,
          "duration": 0.20982121874999393
        },
        {
          "name": "G2",
          "midi": 43,
          "time": 265.2854489999965,
          "velocity": 0.8661417322834646,
          "duration": 0.7499992499999735
        },
        {
          "name": "D#3",
          "midi": 51,
          "time": 266.14259099999646,
          "velocity": 0.8661417322834646,
          "duration": 0.7499992499999735
        },
        {
          "name": "F#2",
          "midi": 42,
          "time": 266.9997329999964,
          "velocity": 0.8661417322834646,
          "duration": 0.7499992499999735
        },
        {
          "name": "F#4",
          "midi": 66,
          "time": 269.99972999999636,
          "velocity": 0.8661417322834646,
          "duration": 0.20982121874999393
        },
        {
          "name": "F#5",
          "midi": 78,
          "time": 269.99972999999636,
          "velocity": 0.8661417322834646,
          "duration": 0.20982121874999393
        },
        {
          "name": "A#5",
          "midi": 82,
          "time": 269.99972999999636,
          "velocity": 0.8661417322834646,
          "duration": 0.20982121874999393
        },
        {
          "name": "F#4",
          "midi": 66,
          "time": 270.2140154999964,
          "velocity": 0.8661417322834646,
          "duration": 0.20982121874999393
        },
        {
          "name": "F#5",
          "midi": 78,
          "time": 270.2140154999964,
          "velocity": 0.8661417322834646,
          "duration": 0.20982121874999393
        },
        {
          "name": "C6",
          "midi": 84,
          "time": 270.2140154999964,
          "velocity": 0.8661417322834646,
          "duration": 0.20982121874999393
        },
        {
          "name": "F#4",
          "midi": 66,
          "time": 270.4283009999964,
          "velocity": 0.8661417322834646,
          "duration": 0.20982121874999393
        },
        {
          "name": "F#5",
          "midi": 78,
          "time": 270.4283009999964,
          "velocity": 0.8661417322834646,
          "duration": 0.20982121874999393
        },
        {
          "name": "A#5",
          "midi": 82,
          "time": 270.4283009999964,
          "velocity": 0.8661417322834646,
          "duration": 0.20982121874999393
        },
        {
          "name": "F#4",
          "midi": 66,
          "time": 270.6425864999964,
          "velocity": 0.8661417322834646,
          "duration": 0.20982121874999393
        },
        {
          "name": "F#5",
          "midi": 78,
          "time": 270.6425864999964,
          "velocity": 0.8661417322834646,
          "duration": 0.20982121874999393
        },
        {
          "name": "C6",
          "midi": 84,
          "time": 270.6425864999964,
          "velocity": 0.8661417322834646,
          "duration": 0.20982121874999393
        },
        {
          "name": "F#4",
          "midi": 66,
          "time": 270.85687199999643,
          "velocity": 0.8661417322834646,
          "duration": 0.20982121874999393
        },
        {
          "name": "F#5",
          "midi": 78,
          "time": 270.85687199999643,
          "velocity": 0.8661417322834646,
          "duration": 0.20982121874999393
        },
        {
          "name": "A#5",
          "midi": 82,
          "time": 270.85687199999643,
          "velocity": 0.8661417322834646,
          "duration": 0.20982121874999393
        },
        {
          "name": "F#4",
          "midi": 66,
          "time": 271.07115749999645,
          "velocity": 0.8661417322834646,
          "duration": 0.20982121874999393
        },
        {
          "name": "F#5",
          "midi": 78,
          "time": 271.07115749999645,
          "velocity": 0.8661417322834646,
          "duration": 0.20982121874999393
        },
        {
          "name": "C6",
          "midi": 84,
          "time": 271.07115749999645,
          "velocity": 0.8661417322834646,
          "duration": 0.20982121874999393
        },
        {
          "name": "A#4",
          "midi": 70,
          "time": 272.57115599999645,
          "velocity": 0.8661417322834646,
          "duration": 0.20982121874999393
        },
        {
          "name": "A#5",
          "midi": 82,
          "time": 272.57115599999645,
          "velocity": 0.8661417322834646,
          "duration": 0.20982121874999393
        },
        {
          "name": "C5",
          "midi": 72,
          "time": 272.78544149999647,
          "velocity": 0.8661417322834646,
          "duration": 0.20982121874999393
        },
        {
          "name": "C6",
          "midi": 84,
          "time": 272.78544149999647,
          "velocity": 0.8661417322834646,
          "duration": 0.20982121874999393
        },
        {
          "name": "A#4",
          "midi": 70,
          "time": 272.9997269999965,
          "velocity": 0.8661417322834646,
          "duration": 0.10267846875001396
        },
        {
          "name": "A#5",
          "midi": 82,
          "time": 272.9997269999965,
          "velocity": 0.8661417322834646,
          "duration": 0.10267846875001396
        },
        {
          "name": "A4",
          "midi": 69,
          "time": 273.1068697499965,
          "velocity": 0.8661417322834646,
          "duration": 0.10267846875001396
        },
        {
          "name": "A5",
          "midi": 81,
          "time": 273.1068697499965,
          "velocity": 0.8661417322834646,
          "duration": 0.10267846875001396
        },
        {
          "name": "G4",
          "midi": 67,
          "time": 273.21401249999656,
          "velocity": 0.8661417322834646,
          "duration": 0.20982121874999393
        },
        {
          "name": "G5",
          "midi": 79,
          "time": 273.21401249999656,
          "velocity": 0.8661417322834646,
          "duration": 0.20982121874999393
        }
      ],
      "controlChanges": {
        "10": [
          {
            "number": 10,
            "time": 0,
            "value": 0.5039370078740157
          }
        ]
      },
      "id": 4,
      "name": "EPISODE I",
      "instrumentNumber": 48,
      "instrument": "string ensemble 1",
      "instrumentFamily": "ensemble",
      "channelNumber": 2,
      "isPercussion": false
    },
    {
      "startTime": 43.714242000000006,
      "duration": 267.74973224999997,
      "length": 17,
      "notes": [
        {
          "name": "E2",
          "midi": 40,
          "time": 43.714242000000006,
          "velocity": 0.8661417322834646,
          "duration": 0.3571425000000019
        },
        {
          "name": "E2",
          "midi": 40,
          "time": 44.57138400000001,
          "velocity": 0.8661417322834646,
          "duration": 0.3571425000000019
        },
        {
          "name": "E2",
          "midi": 40,
          "time": 45.42852600000001,
          "velocity": 0.8661417322834646,
          "duration": 0.3571425000000019
        },
        {
          "name": "E2",
          "midi": 40,
          "time": 46.285668000000015,
          "velocity": 0.8661417322834646,
          "duration": 0.3571425000000019
        },
        {
          "name": "E2",
          "midi": 40,
          "time": 47.14281000000002,
          "velocity": 0.8661417322834646,
          "duration": 0.3571425000000019
        },
        {
          "name": "E2",
          "midi": 40,
          "time": 47.99995200000002,
          "velocity": 0.8661417322834646,
          "duration": 0.3571425000000019
        },
        {
          "name": "E2",
          "midi": 40,
          "time": 48.857094000000025,
          "velocity": 0.8661417322834646,
          "duration": 0.3571425000000019
        },
        {
          "name": "E2",
          "midi": 40,
          "time": 49.71423600000003,
          "velocity": 0.8661417322834646,
          "duration": 0.3571425000000019
        },
        {
          "name": "C2",
          "midi": 36,
          "time": 240.42833100000007,
          "velocity": 0.8661417322834646,
          "duration": 0.7499992500000019
        },
        {
          "name": "D2",
          "midi": 38,
          "time": 241.28547300000008,
          "velocity": 0.8661417322834646,
          "duration": 0.7499992500000019
        },
        {
          "name": "D#2",
          "midi": 39,
          "time": 242.1426150000001,
          "velocity": 0.8661417322834646,
          "duration": 0.7499992500000019
        },
        {
          "name": "F2",
          "midi": 41,
          "time": 242.9997570000001,
          "velocity": 0.8661417322834646,
          "duration": 0.7499992500000019
        },
        {
          "name": "C1",
          "midi": 24,
          "time": 264.42830700000013,
          "velocity": 0.8661417322834646,
          "duration": 0.7499992499999735
        },
        {
          "name": "C2",
          "midi": 36,
          "time": 264.42830700000013,
          "velocity": 0.8661417322834646,
          "duration": 0.7499992499999735
        },
        {
          "name": "G1",
          "midi": 31,
          "time": 265.2854490000001,
          "velocity": 0.8661417322834646,
          "duration": 0.7499992499999735
        },
        {
          "name": "D#2",
          "midi": 39,
          "time": 266.14259100000004,
          "velocity": 0.8661417322834646,
          "duration": 0.7499992499999735
        },
        {
          "name": "F#1",
          "midi": 30,
          "time": 266.999733,
          "velocity": 0.8661417322834646,
          "duration": 0.7499992499999735
        }
      ],
      "controlChanges": {
        "10": [
          {
            "number": 10,
            "time": 0,
            "value": 0.5039370078740157
          }
        ]
      },
      "id": 5,
      "name": "sequenced by",
      "instrumentNumber": 48,
      "instrument": "string ensemble 1",
      "instrumentFamily": "ensemble",
      "channelNumber": 2,
      "isPercussion": false
    },
    {
      "startTime": 26.571402000000003,
      "duration": 251.0711775,
      "length": 81,
      "notes": [
        {
          "name": "E2",
          "midi": 40,
          "time": 26.571402000000003,
          "velocity": 0.8661417322834646,
          "duration": 0.20982121875000104
        },
        {
          "name": "F#2",
          "midi": 42,
          "time": 26.785687500000005,
          "velocity": 0.8661417322834646,
          "duration": 0.20982121875000104
        },
        {
          "name": "G2",
          "midi": 43,
          "time": 26.999973000000008,
          "velocity": 0.8661417322834646,
          "duration": 0.35714249999999836
        },
        {
          "name": "A2",
          "midi": 45,
          "time": 27.428544000000006,
          "velocity": 0.8661417322834646,
          "duration": 0.35714249999999836
        },
        {
          "name": "B1",
          "midi": 35,
          "time": 27.857115000000004,
          "velocity": 0.8661417322834646,
          "duration": 0.35714249999999836
        },
        {
          "name": "A2",
          "midi": 45,
          "time": 28.285686000000002,
          "velocity": 0.8661417322834646,
          "duration": 0.35714249999999836
        },
        {
          "name": "G2",
          "midi": 43,
          "time": 28.714257,
          "velocity": 0.8661417322834646,
          "duration": 0.20982121875000104
        },
        {
          "name": "F#2",
          "midi": 42,
          "time": 28.928542500000002,
          "velocity": 0.8661417322834646,
          "duration": 0.20982121875000104
        },
        {
          "name": "E2",
          "midi": 40,
          "time": 29.142828000000005,
          "velocity": 0.8661417322834646,
          "duration": 0.35714249999999836
        },
        {
          "name": "E2",
          "midi": 40,
          "time": 29.999970000000005,
          "velocity": 0.8661417322834646,
          "duration": 0.20982121875000104
        },
        {
          "name": "F#2",
          "midi": 42,
          "time": 30.214255500000007,
          "velocity": 0.8661417322834646,
          "duration": 0.20982121875000104
        },
        {
          "name": "G2",
          "midi": 43,
          "time": 30.42854100000001,
          "velocity": 0.8661417322834646,
          "duration": 0.35714249999999836
        },
        {
          "name": "A2",
          "midi": 45,
          "time": 30.857112000000008,
          "velocity": 0.8661417322834646,
          "duration": 0.35714249999999836
        },
        {
          "name": "B1",
          "midi": 35,
          "time": 31.285683000000006,
          "velocity": 0.8661417322834646,
          "duration": 0.35714249999999836
        },
        {
          "name": "A2",
          "midi": 45,
          "time": 31.714254000000004,
          "velocity": 0.8661417322834646,
          "duration": 0.3571425000000019
        },
        {
          "name": "G2",
          "midi": 43,
          "time": 32.14282500000001,
          "velocity": 0.8661417322834646,
          "duration": 0.20982121875000104
        },
        {
          "name": "F#2",
          "midi": 42,
          "time": 32.35711050000001,
          "velocity": 0.8661417322834646,
          "duration": 0.20982121875000104
        },
        {
          "name": "E2",
          "midi": 40,
          "time": 32.571396000000014,
          "velocity": 0.8661417322834646,
          "duration": 0.3571425000000019
        },
        {
          "name": "D#2",
          "midi": 39,
          "time": 33.42853800000002,
          "velocity": 0.8661417322834646,
          "duration": 0.20982121875000104
        },
        {
          "name": "E2",
          "midi": 40,
          "time": 33.64282350000002,
          "velocity": 0.8661417322834646,
          "duration": 0.20982121875000104
        },
        {
          "name": "F#2",
          "midi": 42,
          "time": 33.85710900000002,
          "velocity": 0.8661417322834646,
          "duration": 0.3571425000000019
        },
        {
          "name": "G2",
          "midi": 43,
          "time": 34.28568000000003,
          "velocity": 0.8661417322834646,
          "duration": 0.3571425000000019
        },
        {
          "name": "A1",
          "midi": 33,
          "time": 34.71425100000003,
          "velocity": 0.8661417322834646,
          "duration": 0.3571425000000019
        },
        {
          "name": "B2",
          "midi": 47,
          "time": 35.14282200000004,
          "velocity": 0.8661417322834646,
          "duration": 0.3571425000000019
        },
        {
          "name": "A2",
          "midi": 45,
          "time": 35.57139300000004,
          "velocity": 0.8661417322834646,
          "duration": 0.20982121875000104
        },
        {
          "name": "G2",
          "midi": 43,
          "time": 35.785678500000046,
          "velocity": 0.8661417322834646,
          "duration": 0.20982121875000104
        },
        {
          "name": "F#2",
          "midi": 42,
          "time": 35.99996400000005,
          "velocity": 0.8661417322834646,
          "duration": 0.3571425000000019
        },
        {
          "name": "D#2",
          "midi": 39,
          "time": 36.85710600000005,
          "velocity": 0.8661417322834646,
          "duration": 0.20982121875000104
        },
        {
          "name": "E2",
          "midi": 40,
          "time": 37.071391500000054,
          "velocity": 0.8661417322834646,
          "duration": 0.20982121875000104
        },
        {
          "name": "F#2",
          "midi": 42,
          "time": 37.28567700000006,
          "velocity": 0.8661417322834646,
          "duration": 0.3571425000000019
        },
        {
          "name": "G2",
          "midi": 43,
          "time": 37.71424800000006,
          "velocity": 0.8661417322834646,
          "duration": 0.3571425000000019
        },
        {
          "name": "A1",
          "midi": 33,
          "time": 38.14281900000007,
          "velocity": 0.8661417322834646,
          "duration": 0.3571425000000019
        },
        {
          "name": "G2",
          "midi": 43,
          "time": 38.57139000000007,
          "velocity": 0.8661417322834646,
          "duration": 0.3571425000000019
        },
        {
          "name": "F#2",
          "midi": 42,
          "time": 38.99996100000008,
          "velocity": 0.8661417322834646,
          "duration": 0.20982121875000104
        },
        {
          "name": "E2",
          "midi": 40,
          "time": 39.21424650000008,
          "velocity": 0.8661417322834646,
          "duration": 0.20982121875000104
        },
        {
          "name": "D#2",
          "midi": 39,
          "time": 39.42853200000008,
          "velocity": 0.8661417322834646,
          "duration": 3.7499962500000024
        },
        {
          "name": "D#3",
          "midi": 51,
          "time": 151.7141340000001,
          "velocity": 0.8661417322834646,
          "duration": 0.20982121874999393
        },
        {
          "name": "E3",
          "midi": 52,
          "time": 151.92841950000008,
          "velocity": 0.8661417322834646,
          "duration": 0.20982121874999393
        },
        {
          "name": "F#3",
          "midi": 54,
          "time": 152.14270500000006,
          "velocity": 0.8661417322834646,
          "duration": 0.357142500000009
        },
        {
          "name": "G3",
          "midi": 55,
          "time": 152.57127600000007,
          "velocity": 0.8661417322834646,
          "duration": 0.357142500000009
        },
        {
          "name": "A2",
          "midi": 45,
          "time": 152.99984700000007,
          "velocity": 0.8661417322834646,
          "duration": 0.357142500000009
        },
        {
          "name": "G3",
          "midi": 55,
          "time": 153.42841800000008,
          "velocity": 0.8661417322834646,
          "duration": 0.357142500000009
        },
        {
          "name": "F#3",
          "midi": 54,
          "time": 153.85698900000008,
          "velocity": 0.8661417322834646,
          "duration": 0.20982121874999393
        },
        {
          "name": "E3",
          "midi": 52,
          "time": 154.07127450000007,
          "velocity": 0.8661417322834646,
          "duration": 0.20982121874999393
        },
        {
          "name": "D#3",
          "midi": 51,
          "time": 154.28556000000006,
          "velocity": 0.8661417322834646,
          "duration": 0.357142500000009
        },
        {
          "name": "G3",
          "midi": 55,
          "time": 237.42833400000006,
          "velocity": 0.8661417322834646,
          "duration": 0.20982121874999393
        },
        {
          "name": "A3",
          "midi": 57,
          "time": 237.64261950000005,
          "velocity": 0.8661417322834646,
          "duration": 0.20982121874999393
        },
        {
          "name": "A#3",
          "midi": 58,
          "time": 237.85690500000004,
          "velocity": 0.8661417322834646,
          "duration": 0.357142500000009
        },
        {
          "name": "C4",
          "midi": 60,
          "time": 238.28547600000005,
          "velocity": 0.8661417322834646,
          "duration": 0.357142500000009
        },
        {
          "name": "D3",
          "midi": 50,
          "time": 238.71404700000005,
          "velocity": 0.8661417322834646,
          "duration": 0.357142500000009
        },
        {
          "name": "C4",
          "midi": 60,
          "time": 239.14261800000006,
          "velocity": 0.8661417322834646,
          "duration": 0.357142500000009
        },
        {
          "name": "A#3",
          "midi": 58,
          "time": 239.57118900000006,
          "velocity": 0.8661417322834646,
          "duration": 0.20982121874999393
        },
        {
          "name": "A3",
          "midi": 57,
          "time": 239.78547450000005,
          "velocity": 0.8661417322834646,
          "duration": 0.20982121874999393
        },
        {
          "name": "G3",
          "midi": 55,
          "time": 239.99976000000004,
          "velocity": 0.8661417322834646,
          "duration": 0.7857135000000142
        },
        {
          "name": "G3",
          "midi": 55,
          "time": 240.85690200000005,
          "velocity": 0.8661417322834646,
          "duration": 0.20982121874999393
        },
        {
          "name": "A3",
          "midi": 57,
          "time": 241.07118750000004,
          "velocity": 0.8661417322834646,
          "duration": 0.20982121874999393
        },
        {
          "name": "A#3",
          "midi": 58,
          "time": 241.28547300000002,
          "velocity": 0.8661417322834646,
          "duration": 0.357142500000009
        },
        {
          "name": "C4",
          "midi": 60,
          "time": 241.71404400000003,
          "velocity": 0.8661417322834646,
          "duration": 0.357142500000009
        },
        {
          "name": "D#3",
          "midi": 51,
          "time": 242.14261500000003,
          "velocity": 0.8661417322834646,
          "duration": 0.357142500000009
        },
        {
          "name": "D4",
          "midi": 62,
          "time": 242.57118600000004,
          "velocity": 0.8661417322834646,
          "duration": 0.357142500000009
        },
        {
          "name": "C4",
          "midi": 60,
          "time": 242.99975700000005,
          "velocity": 0.8661417322834646,
          "duration": 0.20982121874999393
        },
        {
          "name": "A#3",
          "midi": 58,
          "time": 243.21404250000003,
          "velocity": 0.8661417322834646,
          "duration": 0.20982121874999393
        },
        {
          "name": "A3",
          "midi": 57,
          "time": 243.42832800000002,
          "velocity": 0.8661417322834646,
          "duration": 0.7857135000000142
        },
        {
          "name": "G3",
          "midi": 55,
          "time": 244.28547000000003,
          "velocity": 0.8661417322834646,
          "duration": 0.20982121874999393
        },
        {
          "name": "A3",
          "midi": 57,
          "time": 244.49975550000002,
          "velocity": 0.8661417322834646,
          "duration": 0.20982121874999393
        },
        {
          "name": "A#3",
          "midi": 58,
          "time": 244.714041,
          "velocity": 0.8661417322834646,
          "duration": 0.357142500000009
        },
        {
          "name": "C4",
          "midi": 60,
          "time": 245.142612,
          "velocity": 0.8661417322834646,
          "duration": 0.357142500000009
        },
        {
          "name": "D3",
          "midi": 50,
          "time": 245.57118300000002,
          "velocity": 0.8661417322834646,
          "duration": 0.357142500000009
        },
        {
          "name": "C4",
          "midi": 60,
          "time": 245.99975400000002,
          "velocity": 0.8661417322834646,
          "duration": 0.357142500000009
        },
        {
          "name": "A#3",
          "midi": 58,
          "time": 246.42832500000003,
          "velocity": 0.8661417322834646,
          "duration": 0.20982121874999393
        },
        {
          "name": "A3",
          "midi": 57,
          "time": 246.64261050000002,
          "velocity": 0.8661417322834646,
          "duration": 0.20982121874999393
        },
        {
          "name": "G3",
          "midi": 55,
          "time": 246.856896,
          "velocity": 0.8661417322834646,
          "duration": 0.7857135000000142
        },
        {
          "name": "G3",
          "midi": 55,
          "time": 247.71403800000002,
          "velocity": 0.8661417322834646,
          "duration": 0.20982121874999393
        },
        {
          "name": "A3",
          "midi": 57,
          "time": 247.9283235,
          "velocity": 0.8661417322834646,
          "duration": 0.20982121874999393
        },
        {
          "name": "A#3",
          "midi": 58,
          "time": 248.142609,
          "velocity": 0.8661417322834646,
          "duration": 0.357142500000009
        },
        {
          "name": "C4",
          "midi": 60,
          "time": 248.57118,
          "velocity": 0.8661417322834646,
          "duration": 0.357142500000009
        },
        {
          "name": "D#3",
          "midi": 51,
          "time": 248.999751,
          "velocity": 0.8661417322834646,
          "duration": 0.357142500000009
        },
        {
          "name": "D4",
          "midi": 62,
          "time": 249.428322,
          "velocity": 0.8661417322834646,
          "duration": 0.357142500000009
        },
        {
          "name": "C4",
          "midi": 60,
          "time": 249.856893,
          "velocity": 0.8661417322834646,
          "duration": 0.20982121874999393
        },
        {
          "name": "A#3",
          "midi": 58,
          "time": 250.0711785,
          "velocity": 0.8661417322834646,
          "duration": 0.20982121874999393
        },
        {
          "name": "A3",
          "midi": 57,
          "time": 250.285464,
          "velocity": 0.8661417322834646,
          "duration": 0.7857135000000142
        }
      ],
      "controlChanges": {
        "10": [
          {
            "number": 10,
            "time": 0,
            "value": 0.5039370078740157
          }
        ]
      },
      "id": 6,
      "name": "Brandon Vidal",
      "instrumentNumber": 70,
      "instrument": "bassoon",
      "instrumentFamily": "reed",
      "channelNumber": 3,
      "isPercussion": false
    },
    {
      "startTime": 50.571378,
      "duration": 267.7497322499993,
      "length": 212,
      "notes": [
        {
          "name": "E4",
          "midi": 64,
          "time": 50.571378,
          "velocity": 0.8661417322834646,
          "duration": 0.20982121875000104
        },
        {
          "name": "F#4",
          "midi": 66,
          "time": 50.785663500000005,
          "velocity": 0.8661417322834646,
          "duration": 0.20982121875000104
        },
        {
          "name": "G4",
          "midi": 67,
          "time": 50.99994900000001,
          "velocity": 0.8661417322834646,
          "duration": 0.3571425000000019
        },
        {
          "name": "A4",
          "midi": 69,
          "time": 51.42852000000001,
          "velocity": 0.8661417322834646,
          "duration": 0.3571425000000019
        },
        {
          "name": "B3",
          "midi": 59,
          "time": 51.85709100000002,
          "velocity": 0.8661417322834646,
          "duration": 0.3571425000000019
        },
        {
          "name": "A4",
          "midi": 69,
          "time": 52.28566200000002,
          "velocity": 0.8661417322834646,
          "duration": 0.3571425000000019
        },
        {
          "name": "G4",
          "midi": 67,
          "time": 52.71423300000003,
          "velocity": 0.8661417322834646,
          "duration": 0.20982121875000104
        },
        {
          "name": "F#4",
          "midi": 66,
          "time": 52.92851850000003,
          "velocity": 0.8661417322834646,
          "duration": 0.20982121875000104
        },
        {
          "name": "E4",
          "midi": 64,
          "time": 53.142804000000034,
          "velocity": 0.8661417322834646,
          "duration": 0.3571425000000019
        },
        {
          "name": "E4",
          "midi": 64,
          "time": 53.99994600000004,
          "velocity": 0.8661417322834646,
          "duration": 0.20982121875000104
        },
        {
          "name": "F#4",
          "midi": 66,
          "time": 54.21423150000004,
          "velocity": 0.8661417322834646,
          "duration": 0.20982121875000104
        },
        {
          "name": "G4",
          "midi": 67,
          "time": 54.42851700000004,
          "velocity": 0.8661417322834646,
          "duration": 0.3571425000000019
        },
        {
          "name": "A4",
          "midi": 69,
          "time": 54.85708800000005,
          "velocity": 0.8661417322834646,
          "duration": 0.3571425000000019
        },
        {
          "name": "B3",
          "midi": 59,
          "time": 55.28565900000005,
          "velocity": 0.8661417322834646,
          "duration": 0.3571425000000019
        },
        {
          "name": "A4",
          "midi": 69,
          "time": 55.71423000000006,
          "velocity": 0.8661417322834646,
          "duration": 0.3571425000000019
        },
        {
          "name": "G4",
          "midi": 67,
          "time": 56.14280100000006,
          "velocity": 0.8661417322834646,
          "duration": 0.20982121875000104
        },
        {
          "name": "F#4",
          "midi": 66,
          "time": 56.357086500000065,
          "velocity": 0.8661417322834646,
          "duration": 0.20982121875000104
        },
        {
          "name": "E4",
          "midi": 64,
          "time": 56.57137200000007,
          "velocity": 0.8661417322834646,
          "duration": 0.3571425000000019
        },
        {
          "name": "D#4",
          "midi": 63,
          "time": 57.42851400000007,
          "velocity": 0.8661417322834646,
          "duration": 0.20982121875000104
        },
        {
          "name": "E4",
          "midi": 64,
          "time": 57.64279950000007,
          "velocity": 0.8661417322834646,
          "duration": 0.20982121875000104
        },
        {
          "name": "F#4",
          "midi": 66,
          "time": 57.857085000000076,
          "velocity": 0.8661417322834646,
          "duration": 0.3571425000000019
        },
        {
          "name": "G4",
          "midi": 67,
          "time": 58.28565600000008,
          "velocity": 0.8661417322834646,
          "duration": 0.3571425000000019
        },
        {
          "name": "A3",
          "midi": 57,
          "time": 58.714227000000086,
          "velocity": 0.8661417322834646,
          "duration": 0.3571425000000019
        },
        {
          "name": "B4",
          "midi": 71,
          "time": 59.14279800000009,
          "velocity": 0.8661417322834646,
          "duration": 0.3571425000000019
        },
        {
          "name": "A4",
          "midi": 69,
          "time": 59.5713690000001,
          "velocity": 0.8661417322834646,
          "duration": 0.20982121875000104
        },
        {
          "name": "G4",
          "midi": 67,
          "time": 59.7856545000001,
          "velocity": 0.8661417322834646,
          "duration": 0.20982121875000104
        },
        {
          "name": "F#4",
          "midi": 66,
          "time": 59.9999400000001,
          "velocity": 0.8661417322834646,
          "duration": 0.3571425000000019
        },
        {
          "name": "D#4",
          "midi": 63,
          "time": 60.857082000000105,
          "velocity": 0.8661417322834646,
          "duration": 0.20982121875000104
        },
        {
          "name": "E4",
          "midi": 64,
          "time": 61.07136750000011,
          "velocity": 0.8661417322834646,
          "duration": 0.20982121875000104
        },
        {
          "name": "F#4",
          "midi": 66,
          "time": 61.28565300000011,
          "velocity": 0.8661417322834646,
          "duration": 0.3571425000000019
        },
        {
          "name": "G4",
          "midi": 67,
          "time": 61.714224000000115,
          "velocity": 0.8661417322834646,
          "duration": 0.3571425000000019
        },
        {
          "name": "A3",
          "midi": 57,
          "time": 62.14279500000012,
          "velocity": 0.8661417322834646,
          "duration": 0.3571425000000019
        },
        {
          "name": "A4",
          "midi": 69,
          "time": 62.571366000000125,
          "velocity": 0.8661417322834646,
          "duration": 0.3571425000000019
        },
        {
          "name": "G4",
          "midi": 67,
          "time": 62.99993700000013,
          "velocity": 0.8661417322834646,
          "duration": 0.20982121875000104
        },
        {
          "name": "F#4",
          "midi": 66,
          "time": 63.21422250000013,
          "velocity": 0.8661417322834646,
          "duration": 0.20982121875000104
        },
        {
          "name": "E4",
          "midi": 64,
          "time": 63.428508000000136,
          "velocity": 0.8661417322834646,
          "duration": 0.3571425000000019
        },
        {
          "name": "E4",
          "midi": 64,
          "time": 91.71419400000013,
          "velocity": 0.8661417322834646,
          "duration": 0.20982121874999393
        },
        {
          "name": "F#4",
          "midi": 66,
          "time": 91.92847950000012,
          "velocity": 0.8661417322834646,
          "duration": 0.20982121874999393
        },
        {
          "name": "G4",
          "midi": 67,
          "time": 92.14276500000011,
          "velocity": 0.8661417322834646,
          "duration": 0.3571424999999948
        },
        {
          "name": "A4",
          "midi": 69,
          "time": 92.5713360000001,
          "velocity": 0.8661417322834646,
          "duration": 0.3571424999999948
        },
        {
          "name": "B3",
          "midi": 59,
          "time": 92.99990700000009,
          "velocity": 0.8661417322834646,
          "duration": 0.3571424999999948
        },
        {
          "name": "A4",
          "midi": 69,
          "time": 93.42847800000008,
          "velocity": 0.8661417322834646,
          "duration": 0.3571424999999948
        },
        {
          "name": "G4",
          "midi": 67,
          "time": 93.85704900000007,
          "velocity": 0.8661417322834646,
          "duration": 0.20982121874999393
        },
        {
          "name": "F#4",
          "midi": 66,
          "time": 94.07133450000006,
          "velocity": 0.8661417322834646,
          "duration": 0.20982121874999393
        },
        {
          "name": "E4",
          "midi": 64,
          "time": 94.28562000000005,
          "velocity": 0.8661417322834646,
          "duration": 0.3571424999999948
        },
        {
          "name": "D#4",
          "midi": 63,
          "time": 94.71419100000004,
          "velocity": 0.8661417322834646,
          "duration": 0.20982121874999393
        },
        {
          "name": "F4",
          "midi": 65,
          "time": 94.92847650000003,
          "velocity": 0.8661417322834646,
          "duration": 0.20982121874999393
        },
        {
          "name": "D#4",
          "midi": 63,
          "time": 95.57133300000002,
          "velocity": 0.8661417322834646,
          "duration": 0.20982121874999393
        },
        {
          "name": "F4",
          "midi": 65,
          "time": 95.78561850000001,
          "velocity": 0.8661417322834646,
          "duration": 0.20982121874999393
        },
        {
          "name": "D#4",
          "midi": 63,
          "time": 96.428475,
          "velocity": 0.8661417322834646,
          "duration": 0.20982121874999393
        },
        {
          "name": "F4",
          "midi": 65,
          "time": 96.6427605,
          "velocity": 0.8661417322834646,
          "duration": 0.20982121874999393
        },
        {
          "name": "D#4",
          "midi": 63,
          "time": 97.28561699999999,
          "velocity": 0.8661417322834646,
          "duration": 0.20982121874999393
        },
        {
          "name": "F4",
          "midi": 65,
          "time": 97.49990249999998,
          "velocity": 0.8661417322834646,
          "duration": 0.20982121874999393
        },
        {
          "name": "G4",
          "midi": 67,
          "time": 97.71418799999996,
          "velocity": 0.8661417322834646,
          "duration": 0.3571424999999948
        },
        {
          "name": "E4",
          "midi": 64,
          "time": 98.57132999999996,
          "velocity": 0.8661417322834646,
          "duration": 0.20982121874999393
        },
        {
          "name": "F#4",
          "midi": 66,
          "time": 98.78561549999995,
          "velocity": 0.8661417322834646,
          "duration": 0.20982121874999393
        },
        {
          "name": "G4",
          "midi": 67,
          "time": 98.99990099999994,
          "velocity": 0.8661417322834646,
          "duration": 0.3571424999999948
        },
        {
          "name": "A4",
          "midi": 69,
          "time": 99.42847199999993,
          "velocity": 0.8661417322834646,
          "duration": 0.3571424999999948
        },
        {
          "name": "B3",
          "midi": 59,
          "time": 99.85704299999992,
          "velocity": 0.8661417322834646,
          "duration": 0.3571424999999948
        },
        {
          "name": "B4",
          "midi": 71,
          "time": 100.28561399999991,
          "velocity": 0.8661417322834646,
          "duration": 0.3571424999999948
        },
        {
          "name": "A4",
          "midi": 69,
          "time": 100.7141849999999,
          "velocity": 0.8661417322834646,
          "duration": 0.20982121874999393
        },
        {
          "name": "G4",
          "midi": 67,
          "time": 100.92847049999989,
          "velocity": 0.8661417322834646,
          "duration": 0.20982121874999393
        },
        {
          "name": "F#4",
          "midi": 66,
          "time": 101.14275599999988,
          "velocity": 0.8661417322834646,
          "duration": 0.3571424999999948
        },
        {
          "name": "D#4",
          "midi": 63,
          "time": 101.57132699999987,
          "velocity": 0.8661417322834646,
          "duration": 0.20982121874999393
        },
        {
          "name": "F4",
          "midi": 65,
          "time": 101.78561249999986,
          "velocity": 0.8661417322834646,
          "duration": 0.20982121874999393
        },
        {
          "name": "D#4",
          "midi": 63,
          "time": 102.42846899999985,
          "velocity": 0.8661417322834646,
          "duration": 0.20982121874999393
        },
        {
          "name": "F4",
          "midi": 65,
          "time": 102.64275449999984,
          "velocity": 0.8661417322834646,
          "duration": 0.20982121874999393
        },
        {
          "name": "D#4",
          "midi": 63,
          "time": 103.28561099999983,
          "velocity": 0.8661417322834646,
          "duration": 0.20982121874999393
        },
        {
          "name": "F4",
          "midi": 65,
          "time": 103.49989649999982,
          "velocity": 0.8661417322834646,
          "duration": 0.20982121874999393
        },
        {
          "name": "D#4",
          "midi": 63,
          "time": 104.14275299999981,
          "velocity": 0.8661417322834646,
          "duration": 0.20982121874999393
        },
        {
          "name": "F4",
          "midi": 65,
          "time": 104.3570384999998,
          "velocity": 0.8661417322834646,
          "duration": 0.20982121874999393
        },
        {
          "name": "G4",
          "midi": 67,
          "time": 104.57132399999979,
          "velocity": 0.8661417322834646,
          "duration": 0.3571424999999948
        },
        {
          "name": "G4",
          "midi": 67,
          "time": 104.99989499999978,
          "velocity": 0.8661417322834646,
          "duration": 0.20982121874999393
        },
        {
          "name": "A4",
          "midi": 69,
          "time": 105.21418049999977,
          "velocity": 0.8661417322834646,
          "duration": 0.20982121874999393
        },
        {
          "name": "G4",
          "midi": 67,
          "time": 105.42846599999976,
          "velocity": 0.8661417322834646,
          "duration": 2.892854249999999
        },
        {
          "name": "G4",
          "midi": 67,
          "time": 108.42846299999975,
          "velocity": 0.8661417322834646,
          "duration": 0.20982121874999393
        },
        {
          "name": "G4",
          "midi": 67,
          "time": 108.64274849999974,
          "velocity": 0.8661417322834646,
          "duration": 3.1071397500000018
        },
        {
          "name": "F#4",
          "midi": 66,
          "time": 111.85703099999974,
          "velocity": 0.8661417322834646,
          "duration": 0.20982121874999393
        },
        {
          "name": "A4",
          "midi": 69,
          "time": 111.85703099999974,
          "velocity": 0.8661417322834646,
          "duration": 0.20982121874999393
        },
        {
          "name": "F#4",
          "midi": 66,
          "time": 112.07131649999972,
          "velocity": 0.8661417322834646,
          "duration": 1.3928557499999954
        },
        {
          "name": "A4",
          "midi": 69,
          "time": 112.07131649999972,
          "velocity": 0.8661417322834646,
          "duration": 1.3928557499999954
        },
        {
          "name": "G4",
          "midi": 67,
          "time": 113.57131499999971,
          "velocity": 0.8661417322834646,
          "duration": 0.20982121874999393
        },
        {
          "name": "G4",
          "midi": 67,
          "time": 113.7856004999997,
          "velocity": 0.8661417322834646,
          "duration": 0.20982121874999393
        },
        {
          "name": "G4",
          "midi": 67,
          "time": 114.4284569999997,
          "velocity": 0.8661417322834646,
          "duration": 0.20982121874999393
        },
        {
          "name": "G4",
          "midi": 67,
          "time": 114.64274249999968,
          "velocity": 0.8661417322834646,
          "duration": 0.20982121874999393
        },
        {
          "name": "G4",
          "midi": 67,
          "time": 115.28559899999968,
          "velocity": 0.8661417322834646,
          "duration": 0.20982121874999393
        },
        {
          "name": "G4",
          "midi": 67,
          "time": 115.49988449999967,
          "velocity": 0.8661417322834646,
          "duration": 0.20982121874999393
        },
        {
          "name": "A4",
          "midi": 69,
          "time": 116.14274099999966,
          "velocity": 0.8661417322834646,
          "duration": 0.20982121874999393
        },
        {
          "name": "F#4",
          "midi": 66,
          "time": 116.35702649999965,
          "velocity": 0.8661417322834646,
          "duration": 0.20982121874999393
        },
        {
          "name": "G4",
          "midi": 67,
          "time": 116.99988299999964,
          "velocity": 0.8661417322834646,
          "duration": 0.20982121874999393
        },
        {
          "name": "G4",
          "midi": 67,
          "time": 117.21416849999963,
          "velocity": 0.8661417322834646,
          "duration": 0.20982121874999393
        },
        {
          "name": "G4",
          "midi": 67,
          "time": 117.85702499999962,
          "velocity": 0.8661417322834646,
          "duration": 0.20982121874999393
        },
        {
          "name": "G4",
          "midi": 67,
          "time": 118.07131049999961,
          "velocity": 0.8661417322834646,
          "duration": 0.20982121874999393
        },
        {
          "name": "G4",
          "midi": 67,
          "time": 118.7141669999996,
          "velocity": 0.8661417322834646,
          "duration": 0.20982121874999393
        },
        {
          "name": "G4",
          "midi": 67,
          "time": 118.9284524999996,
          "velocity": 0.8661417322834646,
          "duration": 0.20982121874999393
        },
        {
          "name": "A4",
          "midi": 69,
          "time": 119.57130899999959,
          "velocity": 0.8661417322834646,
          "duration": 0.20982121874999393
        },
        {
          "name": "F#4",
          "midi": 66,
          "time": 119.78559449999958,
          "velocity": 0.8661417322834646,
          "duration": 0.20982121874999393
        },
        {
          "name": "G4",
          "midi": 67,
          "time": 137.57129099999958,
          "velocity": 0.8661417322834646,
          "duration": 0.20982121874999393
        },
        {
          "name": "G4",
          "midi": 67,
          "time": 137.78557649999956,
          "velocity": 0.8661417322834646,
          "duration": 0.20982121874999393
        },
        {
          "name": "G4",
          "midi": 67,
          "time": 137.99986199999955,
          "velocity": 0.8661417322834646,
          "duration": 0.20982121874999393
        },
        {
          "name": "G4",
          "midi": 67,
          "time": 138.21414749999954,
          "velocity": 0.8661417322834646,
          "duration": 0.20982121874999393
        },
        {
          "name": "G4",
          "midi": 67,
          "time": 138.42843299999953,
          "velocity": 0.8661417322834646,
          "duration": 0.20982121874999393
        },
        {
          "name": "G4",
          "midi": 67,
          "time": 138.64271849999952,
          "velocity": 0.8661417322834646,
          "duration": 0.20982121874999393
        },
        {
          "name": "G4",
          "midi": 67,
          "time": 138.8570039999995,
          "velocity": 0.8661417322834646,
          "duration": 0.20982121874999393
        },
        {
          "name": "G4",
          "midi": 67,
          "time": 139.0712894999995,
          "velocity": 0.8661417322834646,
          "duration": 0.20982121874999393
        },
        {
          "name": "G4",
          "midi": 67,
          "time": 139.28557499999948,
          "velocity": 0.8661417322834646,
          "duration": 0.20982121874999393
        },
        {
          "name": "G4",
          "midi": 67,
          "time": 139.49986049999947,
          "velocity": 0.8661417322834646,
          "duration": 0.20982121874999393
        },
        {
          "name": "G4",
          "midi": 67,
          "time": 139.71414599999946,
          "velocity": 0.8661417322834646,
          "duration": 0.20982121874999393
        },
        {
          "name": "G4",
          "midi": 67,
          "time": 139.92843149999945,
          "velocity": 0.8661417322834646,
          "duration": 0.20982121874999393
        },
        {
          "name": "G4",
          "midi": 67,
          "time": 140.14271699999944,
          "velocity": 0.8661417322834646,
          "duration": 0.20982121874999393
        },
        {
          "name": "C5",
          "midi": 72,
          "time": 140.35700249999942,
          "velocity": 0.8661417322834646,
          "duration": 0.20982121874999393
        },
        {
          "name": "A#4",
          "midi": 70,
          "time": 140.5712879999994,
          "velocity": 0.8661417322834646,
          "duration": 0.10267846875001396
        },
        {
          "name": "A4",
          "midi": 69,
          "time": 140.67843074999942,
          "velocity": 0.8661417322834646,
          "duration": 0.10267846875001396
        },
        {
          "name": "G4",
          "midi": 67,
          "time": 140.78557349999943,
          "velocity": 0.8661417322834646,
          "duration": 0.20982121874999393
        },
        {
          "name": "E4",
          "midi": 64,
          "time": 158.57126999999943,
          "velocity": 0.8661417322834646,
          "duration": 0.20982121874999393
        },
        {
          "name": "F#4",
          "midi": 66,
          "time": 158.78555549999942,
          "velocity": 0.8661417322834646,
          "duration": 0.20982121874999393
        },
        {
          "name": "G4",
          "midi": 67,
          "time": 158.9998409999994,
          "velocity": 0.8661417322834646,
          "duration": 0.357142500000009
        },
        {
          "name": "A4",
          "midi": 69,
          "time": 159.4284119999994,
          "velocity": 0.8661417322834646,
          "duration": 0.357142500000009
        },
        {
          "name": "C4",
          "midi": 60,
          "time": 159.85698299999942,
          "velocity": 0.8661417322834646,
          "duration": 0.357142500000009
        },
        {
          "name": "A4",
          "midi": 69,
          "time": 160.28555399999942,
          "velocity": 0.8661417322834646,
          "duration": 0.357142500000009
        },
        {
          "name": "G4",
          "midi": 67,
          "time": 160.71412499999943,
          "velocity": 0.8661417322834646,
          "duration": 0.20982121874999393
        },
        {
          "name": "F#4",
          "midi": 66,
          "time": 160.92841049999942,
          "velocity": 0.8661417322834646,
          "duration": 0.20982121874999393
        },
        {
          "name": "E4",
          "midi": 64,
          "time": 161.1426959999994,
          "velocity": 0.8661417322834646,
          "duration": 3.7499962500000095
        },
        {
          "name": "B3",
          "midi": 59,
          "time": 166.07126249999942,
          "velocity": 0.8661417322834646,
          "duration": 0.20982121874999393
        },
        {
          "name": "G4",
          "midi": 67,
          "time": 166.2855479999994,
          "velocity": 0.8661417322834646,
          "duration": 0.20982121874999393
        },
        {
          "name": "A4",
          "midi": 69,
          "time": 166.4998334999994,
          "velocity": 0.8661417322834646,
          "duration": 0.20982121874999393
        },
        {
          "name": "G4",
          "midi": 67,
          "time": 166.71411899999939,
          "velocity": 0.8661417322834646,
          "duration": 0.10267846875001396
        },
        {
          "name": "F#4",
          "midi": 66,
          "time": 166.8212617499994,
          "velocity": 0.8661417322834646,
          "duration": 0.10267846875001396
        },
        {
          "name": "E4",
          "midi": 64,
          "time": 166.9284044999994,
          "velocity": 0.8661417322834646,
          "duration": 1.3928557499999954
        },
        {
          "name": "E4",
          "midi": 64,
          "time": 168.8569739999994,
          "velocity": 0.8661417322834646,
          "duration": 0.20982121874999393
        },
        {
          "name": "F#4",
          "midi": 66,
          "time": 169.0712594999994,
          "velocity": 0.8661417322834646,
          "duration": 0.20982121874999393
        },
        {
          "name": "G4",
          "midi": 67,
          "time": 169.2855449999994,
          "velocity": 0.8661417322834646,
          "duration": 0.357142500000009
        },
        {
          "name": "A4",
          "midi": 69,
          "time": 169.7141159999994,
          "velocity": 0.8661417322834646,
          "duration": 0.357142500000009
        },
        {
          "name": "A4",
          "midi": 69,
          "time": 170.35697249999942,
          "velocity": 0.8661417322834646,
          "duration": 0.20982121874999393
        },
        {
          "name": "G4",
          "midi": 67,
          "time": 170.5712579999994,
          "velocity": 0.8661417322834646,
          "duration": 0.10267846875001396
        },
        {
          "name": "F#4",
          "midi": 66,
          "time": 170.6784007499994,
          "velocity": 0.8661417322834646,
          "duration": 0.10267846875001396
        },
        {
          "name": "E4",
          "midi": 64,
          "time": 170.78554349999942,
          "velocity": 0.8661417322834646,
          "duration": 0.20982121874999393
        },
        {
          "name": "G4",
          "midi": 67,
          "time": 170.9998289999994,
          "velocity": 0.8661417322834646,
          "duration": 0.20982121874999393
        },
        {
          "name": "A4",
          "midi": 69,
          "time": 171.2141144999994,
          "velocity": 0.8661417322834646,
          "duration": 0.20982121874999393
        },
        {
          "name": "G4",
          "midi": 67,
          "time": 171.42839999999939,
          "velocity": 0.8661417322834646,
          "duration": 0.10267846875001396
        },
        {
          "name": "F#4",
          "midi": 66,
          "time": 171.5355427499994,
          "velocity": 0.8661417322834646,
          "duration": 0.10267846875001396
        },
        {
          "name": "E4",
          "midi": 64,
          "time": 171.6426854999994,
          "velocity": 0.8661417322834646,
          "duration": 0.20982121874999393
        },
        {
          "name": "C4",
          "midi": 60,
          "time": 174.2141114999994,
          "velocity": 0.8661417322834646,
          "duration": 0.20982121874999393
        },
        {
          "name": "G4",
          "midi": 67,
          "time": 174.4283969999994,
          "velocity": 0.8661417322834646,
          "duration": 0.20982121874999393
        },
        {
          "name": "A4",
          "midi": 69,
          "time": 174.64268249999938,
          "velocity": 0.8661417322834646,
          "duration": 0.20982121874999393
        },
        {
          "name": "G4",
          "midi": 67,
          "time": 174.85696799999937,
          "velocity": 0.8661417322834646,
          "duration": 0.10267846875001396
        },
        {
          "name": "F#4",
          "midi": 66,
          "time": 174.96411074999938,
          "velocity": 0.8661417322834646,
          "duration": 0.10267846875001396
        },
        {
          "name": "E4",
          "midi": 64,
          "time": 175.0712534999994,
          "velocity": 0.8661417322834646,
          "duration": 0.20982121874999393
        },
        {
          "name": "B4",
          "midi": 71,
          "time": 175.60696724999937,
          "velocity": 0.8661417322834646,
          "duration": 0.10267846875001396
        },
        {
          "name": "C5",
          "midi": 72,
          "time": 175.71410999999938,
          "velocity": 0.8661417322834646,
          "duration": 1.178570250000007
        },
        {
          "name": "C5",
          "midi": 72,
          "time": 177.4283939999994,
          "velocity": 0.8661417322834646,
          "duration": 0.20982121874999393
        },
        {
          "name": "D#5",
          "midi": 75,
          "time": 177.6426794999994,
          "velocity": 0.8661417322834646,
          "duration": 0.9642847499999903
        },
        {
          "name": "G4",
          "midi": 67,
          "time": 180.42839099999938,
          "velocity": 0.8661417322834646,
          "duration": 0.20982121874999393
        },
        {
          "name": "G4",
          "midi": 67,
          "time": 180.64267649999937,
          "velocity": 0.8661417322834646,
          "duration": 0.20982121874999393
        },
        {
          "name": "A4",
          "midi": 69,
          "time": 181.28553299999936,
          "velocity": 0.8661417322834646,
          "duration": 0.20982121874999393
        },
        {
          "name": "F#4",
          "midi": 66,
          "time": 181.49981849999935,
          "velocity": 0.8661417322834646,
          "duration": 0.20982121874999393
        },
        {
          "name": "G4",
          "midi": 67,
          "time": 183.85695899999934,
          "velocity": 0.8661417322834646,
          "duration": 0.20982121874999393
        },
        {
          "name": "G4",
          "midi": 67,
          "time": 184.07124449999932,
          "velocity": 0.8661417322834646,
          "duration": 0.20982121874999393
        },
        {
          "name": "A4",
          "midi": 69,
          "time": 184.71410099999932,
          "velocity": 0.8661417322834646,
          "duration": 0.20982121874999393
        },
        {
          "name": "F#4",
          "midi": 66,
          "time": 184.9283864999993,
          "velocity": 0.8661417322834646,
          "duration": 0.20982121874999393
        },
        {
          "name": "G4",
          "midi": 67,
          "time": 189.4283819999993,
          "velocity": 0.8661417322834646,
          "duration": 0.20982121874999393
        },
        {
          "name": "A4",
          "midi": 69,
          "time": 189.64266749999928,
          "velocity": 0.8661417322834646,
          "duration": 0.20982121874999393
        },
        {
          "name": "A#4",
          "midi": 70,
          "time": 189.85695299999927,
          "velocity": 0.8661417322834646,
          "duration": 0.357142500000009
        },
        {
          "name": "C5",
          "midi": 72,
          "time": 190.28552399999927,
          "velocity": 0.8661417322834646,
          "duration": 0.357142500000009
        },
        {
          "name": "C4",
          "midi": 60,
          "time": 190.71409499999928,
          "velocity": 0.8661417322834646,
          "duration": 0.357142500000009
        },
        {
          "name": "C5",
          "midi": 72,
          "time": 191.14266599999928,
          "velocity": 0.8661417322834646,
          "duration": 0.357142500000009
        },
        {
          "name": "A#4",
          "midi": 70,
          "time": 191.5712369999993,
          "velocity": 0.8661417322834646,
          "duration": 0.20982121874999393
        },
        {
          "name": "A4",
          "midi": 69,
          "time": 191.78552249999927,
          "velocity": 0.8661417322834646,
          "duration": 0.20982121874999393
        },
        {
          "name": "G4",
          "midi": 67,
          "time": 191.99980799999926,
          "velocity": 0.8661417322834646,
          "duration": 0.357142500000009
        },
        {
          "name": "D#4",
          "midi": 63,
          "time": 196.28551799999929,
          "velocity": 0.8661417322834646,
          "duration": 0.20982121874999393
        },
        {
          "name": "F4",
          "midi": 65,
          "time": 196.49980349999927,
          "velocity": 0.8661417322834646,
          "duration": 0.20982121874999393
        },
        {
          "name": "F#4",
          "midi": 66,
          "time": 196.71408899999926,
          "velocity": 0.8661417322834646,
          "duration": 0.357142500000009
        },
        {
          "name": "G#4",
          "midi": 68,
          "time": 197.14265999999927,
          "velocity": 0.8661417322834646,
          "duration": 0.357142500000009
        },
        {
          "name": "A#3",
          "midi": 58,
          "time": 197.57123099999927,
          "velocity": 0.8661417322834646,
          "duration": 0.357142500000009
        },
        {
          "name": "G#4",
          "midi": 68,
          "time": 197.99980199999928,
          "velocity": 0.8661417322834646,
          "duration": 0.357142500000009
        },
        {
          "name": "F#4",
          "midi": 66,
          "time": 198.42837299999928,
          "velocity": 0.8661417322834646,
          "duration": 0.20982121874999393
        },
        {
          "name": "F4",
          "midi": 65,
          "time": 198.64265849999927,
          "velocity": 0.8661417322834646,
          "duration": 0.20982121874999393
        },
        {
          "name": "D#4",
          "midi": 63,
          "time": 198.85694399999926,
          "velocity": 0.8661417322834646,
          "duration": 0.357142500000009
        },
        {
          "name": "A#4",
          "midi": 70,
          "time": 209.57121899999927,
          "velocity": 0.8661417322834646,
          "duration": 0.20982121874999393
        },
        {
          "name": "C5",
          "midi": 72,
          "time": 209.78550449999926,
          "velocity": 0.8661417322834646,
          "duration": 0.20982121874999393
        },
        {
          "name": "A#4",
          "midi": 70,
          "time": 209.99978999999925,
          "velocity": 0.8661417322834646,
          "duration": 0.10267846875001396
        },
        {
          "name": "A4",
          "midi": 69,
          "time": 210.10693274999926,
          "velocity": 0.8661417322834646,
          "duration": 0.10267846875001396
        },
        {
          "name": "G4",
          "midi": 67,
          "time": 210.21407549999927,
          "velocity": 0.8661417322834646,
          "duration": 0.20982121874999393
        },
        {
          "name": "A#4",
          "midi": 70,
          "time": 210.42836099999926,
          "velocity": 0.8661417322834646,
          "duration": 0.20982121874999393
        },
        {
          "name": "C5",
          "midi": 72,
          "time": 210.64264649999924,
          "velocity": 0.8661417322834646,
          "duration": 0.20982121874999393
        },
        {
          "name": "A#4",
          "midi": 70,
          "time": 210.85693199999923,
          "velocity": 0.8661417322834646,
          "duration": 0.10267846875001396
        },
        {
          "name": "A4",
          "midi": 69,
          "time": 210.96407474999924,
          "velocity": 0.8661417322834646,
          "duration": 0.10267846875001396
        },
        {
          "name": "G4",
          "midi": 67,
          "time": 211.07121749999925,
          "velocity": 0.8661417322834646,
          "duration": 0.20982121874999393
        },
        {
          "name": "A#4",
          "midi": 70,
          "time": 211.28550299999924,
          "velocity": 0.8661417322834646,
          "duration": 0.20982121874999393
        },
        {
          "name": "C5",
          "midi": 72,
          "time": 211.49978849999923,
          "velocity": 0.8661417322834646,
          "duration": 0.20982121874999393
        },
        {
          "name": "A#4",
          "midi": 70,
          "time": 211.71407399999921,
          "velocity": 0.8661417322834646,
          "duration": 0.10267846875001396
        },
        {
          "name": "A4",
          "midi": 69,
          "time": 211.82121674999922,
          "velocity": 0.8661417322834646,
          "duration": 0.10267846875001396
        },
        {
          "name": "G4",
          "midi": 67,
          "time": 211.92835949999923,
          "velocity": 0.8661417322834646,
          "duration": 0.20982121874999393
        },
        {
          "name": "A#4",
          "midi": 70,
          "time": 212.14264499999922,
          "velocity": 0.8661417322834646,
          "duration": 0.20982121874999393
        },
        {
          "name": "C5",
          "midi": 72,
          "time": 212.3569304999992,
          "velocity": 0.8661417322834646,
          "duration": 0.20982121874999393
        },
        {
          "name": "A#4",
          "midi": 70,
          "time": 212.5712159999992,
          "velocity": 0.8661417322834646,
          "duration": 0.10267846875001396
        },
        {
          "name": "A4",
          "midi": 69,
          "time": 212.6783587499992,
          "velocity": 0.8661417322834646,
          "duration": 0.10267846875001396
        },
        {
          "name": "G4",
          "midi": 67,
          "time": 212.7855014999992,
          "velocity": 0.8661417322834646,
          "duration": 0.20982121874999393
        },
        {
          "name": "C#4",
          "midi": 61,
          "time": 212.9997869999992,
          "velocity": 0.8661417322834646,
          "duration": 1.178570250000007
        },
        {
          "name": "F4",
          "midi": 65,
          "time": 212.9997869999992,
          "velocity": 0.8661417322834646,
          "duration": 1.178570250000007
        },
        {
          "name": "G4",
          "midi": 67,
          "time": 252.42831899999922,
          "velocity": 0.8661417322834646,
          "duration": 1.6071412500000122
        },
        {
          "name": "D#4",
          "midi": 63,
          "time": 254.57117399999925,
          "velocity": 0.8661417322834646,
          "duration": 0.20982121874999393
        },
        {
          "name": "F4",
          "midi": 65,
          "time": 254.78545949999923,
          "velocity": 0.8661417322834646,
          "duration": 0.20982121874999393
        },
        {
          "name": "F#4",
          "midi": 66,
          "time": 254.99974499999922,
          "velocity": 0.8661417322834646,
          "duration": 0.357142500000009
        },
        {
          "name": "G#4",
          "midi": 68,
          "time": 255.42831599999923,
          "velocity": 0.8661417322834646,
          "duration": 0.357142500000009
        },
        {
          "name": "A#3",
          "midi": 58,
          "time": 255.85688699999923,
          "velocity": 0.8661417322834646,
          "duration": 0.357142500000009
        },
        {
          "name": "G#4",
          "midi": 68,
          "time": 256.28545799999927,
          "velocity": 0.8661417322834646,
          "duration": 0.357142500000009
        },
        {
          "name": "F#4",
          "midi": 66,
          "time": 256.7140289999993,
          "velocity": 0.8661417322834646,
          "duration": 0.20982121874999393
        },
        {
          "name": "F4",
          "midi": 65,
          "time": 256.9283144999993,
          "velocity": 0.8661417322834646,
          "duration": 0.20982121874999393
        },
        {
          "name": "D#4",
          "midi": 63,
          "time": 257.14259999999933,
          "velocity": 0.8661417322834646,
          "duration": 0.357142500000009
        },
        {
          "name": "D#3",
          "midi": 51,
          "time": 266.14259099999936,
          "velocity": 0.8661417322834646,
          "duration": 0.7499992499999735
        },
        {
          "name": "F#2",
          "midi": 42,
          "time": 266.9997329999993,
          "velocity": 0.8661417322834646,
          "duration": 0.7499992499999735
        }
      ],
      "controlChanges": {
        "10": [
          {
            "number": 10,
            "time": 0,
            "value": 0.5039370078740157
          }
        ]
      },
      "id": 7,
      "name": "Brv13@aol.com",
      "instrumentNumber": 60,
      "instrument": "french horn",
      "instrumentFamily": "brass",
      "channelNumber": 4,
      "isPercussion": false
    },
    {
      "startTime": 55.285659,
      "duration": 273.42383371875053,
      "length": 257,
      "notes": [
        {
          "name": "G3",
          "midi": 55,
          "time": 55.285659,
          "velocity": 0.8661417322834646,
          "duration": 0.3571425000000019
        },
        {
          "name": "B3",
          "midi": 59,
          "time": 55.285659,
          "velocity": 0.8661417322834646,
          "duration": 0.3571425000000019
        },
        {
          "name": "F#3",
          "midi": 54,
          "time": 55.71423000000001,
          "velocity": 0.8661417322834646,
          "duration": 0.3571425000000019
        },
        {
          "name": "A3",
          "midi": 57,
          "time": 55.71423000000001,
          "velocity": 0.8661417322834646,
          "duration": 0.3571425000000019
        },
        {
          "name": "F#3",
          "midi": 54,
          "time": 56.57137200000001,
          "velocity": 0.8661417322834646,
          "duration": 0.3571425000000019
        },
        {
          "name": "A3",
          "midi": 57,
          "time": 56.57137200000001,
          "velocity": 0.8661417322834646,
          "duration": 0.3571425000000019
        },
        {
          "name": "G3",
          "midi": 55,
          "time": 56.999943000000016,
          "velocity": 0.8661417322834646,
          "duration": 0.20982121875000104
        },
        {
          "name": "F#3",
          "midi": 54,
          "time": 57.21422850000002,
          "velocity": 0.8661417322834646,
          "duration": 0.20982121875000104
        },
        {
          "name": "D#3",
          "midi": 51,
          "time": 57.42851400000002,
          "velocity": 0.8661417322834646,
          "duration": 0.3571425000000019
        },
        {
          "name": "D#3",
          "midi": 51,
          "time": 59.14279800000002,
          "velocity": 0.8661417322834646,
          "duration": 0.20982121875000104
        },
        {
          "name": "E3",
          "midi": 52,
          "time": 59.35708350000002,
          "velocity": 0.8661417322834646,
          "duration": 0.20982121875000104
        },
        {
          "name": "F#3",
          "midi": 54,
          "time": 59.571369000000026,
          "velocity": 0.8661417322834646,
          "duration": 0.3571425000000019
        },
        {
          "name": "B3",
          "midi": 59,
          "time": 59.99994000000003,
          "velocity": 0.8661417322834646,
          "duration": 0.3571425000000019
        },
        {
          "name": "A3",
          "midi": 57,
          "time": 60.428511000000036,
          "velocity": 0.8661417322834646,
          "duration": 0.20982121875000104
        },
        {
          "name": "G3",
          "midi": 55,
          "time": 60.64279650000004,
          "velocity": 0.8661417322834646,
          "duration": 0.20982121875000104
        },
        {
          "name": "F#3",
          "midi": 54,
          "time": 60.85708200000004,
          "velocity": 0.8661417322834646,
          "duration": 0.3571425000000019
        },
        {
          "name": "D#3",
          "midi": 51,
          "time": 61.714224000000044,
          "velocity": 0.8661417322834646,
          "duration": 0.3571425000000019
        },
        {
          "name": "F#3",
          "midi": 54,
          "time": 61.714224000000044,
          "velocity": 0.8661417322834646,
          "duration": 0.3571425000000019
        },
        {
          "name": "B2",
          "midi": 47,
          "time": 62.57136600000005,
          "velocity": 0.8661417322834646,
          "duration": 0.3571425000000019
        },
        {
          "name": "D#3",
          "midi": 51,
          "time": 62.57136600000005,
          "velocity": 0.8661417322834646,
          "duration": 0.3571425000000019
        },
        {
          "name": "F#3",
          "midi": 54,
          "time": 62.57136600000005,
          "velocity": 0.8661417322834646,
          "duration": 0.3571425000000019
        },
        {
          "name": "A3",
          "midi": 57,
          "time": 62.99993700000005,
          "velocity": 0.8661417322834646,
          "duration": 0.3571425000000019
        },
        {
          "name": "G3",
          "midi": 55,
          "time": 63.42850800000006,
          "velocity": 0.8661417322834646,
          "duration": 0.20982121875000104
        },
        {
          "name": "F#3",
          "midi": 54,
          "time": 63.64279350000006,
          "velocity": 0.8661417322834646,
          "duration": 0.20982121875000104
        },
        {
          "name": "E3",
          "midi": 52,
          "time": 63.85707900000006,
          "velocity": 0.8661417322834646,
          "duration": 0.3571425000000019
        },
        {
          "name": "G3",
          "midi": 55,
          "time": 83.57134500000006,
          "velocity": 0.8661417322834646,
          "duration": 0.20982121874999393
        },
        {
          "name": "F#3",
          "midi": 54,
          "time": 83.78563050000005,
          "velocity": 0.8661417322834646,
          "duration": 0.20982121874999393
        },
        {
          "name": "E3",
          "midi": 52,
          "time": 83.99991600000004,
          "velocity": 0.8661417322834646,
          "duration": 0.7857135
        },
        {
          "name": "E2",
          "midi": 40,
          "time": 87.85705500000005,
          "velocity": 0.8661417322834646,
          "duration": 0.3571424999999948
        },
        {
          "name": "E3",
          "midi": 52,
          "time": 87.85705500000005,
          "velocity": 0.8661417322834646,
          "duration": 0.3571424999999948
        },
        {
          "name": "E2",
          "midi": 40,
          "time": 89.57133900000004,
          "velocity": 0.8661417322834646,
          "duration": 0.20982121874999393
        },
        {
          "name": "E3",
          "midi": 52,
          "time": 89.57133900000004,
          "velocity": 0.8661417322834646,
          "duration": 0.20982121874999393
        },
        {
          "name": "E2",
          "midi": 40,
          "time": 89.78562450000003,
          "velocity": 0.8661417322834646,
          "duration": 0.20982121874999393
        },
        {
          "name": "E3",
          "midi": 52,
          "time": 89.78562450000003,
          "velocity": 0.8661417322834646,
          "duration": 0.20982121874999393
        },
        {
          "name": "F#4",
          "midi": 66,
          "time": 112.28560200000003,
          "velocity": 0.8661417322834646,
          "duration": 0.10267846874999975
        },
        {
          "name": "E4",
          "midi": 64,
          "time": 112.39274475000002,
          "velocity": 0.8661417322834646,
          "duration": 0.10267846874999975
        },
        {
          "name": "D#4",
          "midi": 63,
          "time": 112.49988750000001,
          "velocity": 0.8661417322834646,
          "duration": 0.20982121874999393
        },
        {
          "name": "E3",
          "midi": 52,
          "time": 113.57131500000001,
          "velocity": 0.8661417322834646,
          "duration": 0.3571424999999948
        },
        {
          "name": "B3",
          "midi": 59,
          "time": 113.57131500000001,
          "velocity": 0.8661417322834646,
          "duration": 0.3571424999999948
        },
        {
          "name": "E3",
          "midi": 52,
          "time": 114.42845700000001,
          "velocity": 0.8661417322834646,
          "duration": 0.3571424999999948
        },
        {
          "name": "B3",
          "midi": 59,
          "time": 114.42845700000001,
          "velocity": 0.8661417322834646,
          "duration": 0.3571424999999948
        },
        {
          "name": "E3",
          "midi": 52,
          "time": 115.285599,
          "velocity": 0.8661417322834646,
          "duration": 0.3571424999999948
        },
        {
          "name": "B3",
          "midi": 59,
          "time": 115.285599,
          "velocity": 0.8661417322834646,
          "duration": 0.3571424999999948
        },
        {
          "name": "E3",
          "midi": 52,
          "time": 116.142741,
          "velocity": 0.8661417322834646,
          "duration": 0.3571424999999948
        },
        {
          "name": "B3",
          "midi": 59,
          "time": 116.142741,
          "velocity": 0.8661417322834646,
          "duration": 0.3571424999999948
        },
        {
          "name": "E3",
          "midi": 52,
          "time": 116.999883,
          "velocity": 0.8661417322834646,
          "duration": 0.3571424999999948
        },
        {
          "name": "B3",
          "midi": 59,
          "time": 116.999883,
          "velocity": 0.8661417322834646,
          "duration": 0.3571424999999948
        },
        {
          "name": "E3",
          "midi": 52,
          "time": 117.857025,
          "velocity": 0.8661417322834646,
          "duration": 0.3571424999999948
        },
        {
          "name": "B3",
          "midi": 59,
          "time": 117.857025,
          "velocity": 0.8661417322834646,
          "duration": 0.3571424999999948
        },
        {
          "name": "E3",
          "midi": 52,
          "time": 118.71416699999999,
          "velocity": 0.8661417322834646,
          "duration": 0.3571424999999948
        },
        {
          "name": "B3",
          "midi": 59,
          "time": 118.71416699999999,
          "velocity": 0.8661417322834646,
          "duration": 0.3571424999999948
        },
        {
          "name": "E3",
          "midi": 52,
          "time": 119.57130899999999,
          "velocity": 0.8661417322834646,
          "duration": 0.3571424999999948
        },
        {
          "name": "B3",
          "midi": 59,
          "time": 119.57130899999999,
          "velocity": 0.8661417322834646,
          "duration": 0.3571424999999948
        },
        {
          "name": "G2",
          "midi": 43,
          "time": 120.42845099999998,
          "velocity": 0.8661417322834646,
          "duration": 0.3571424999999948
        },
        {
          "name": "G3",
          "midi": 55,
          "time": 120.42845099999998,
          "velocity": 0.8661417322834646,
          "duration": 0.3571424999999948
        },
        {
          "name": "G2",
          "midi": 43,
          "time": 121.28559299999998,
          "velocity": 0.8661417322834646,
          "duration": 0.3571424999999948
        },
        {
          "name": "G3",
          "midi": 55,
          "time": 121.28559299999998,
          "velocity": 0.8661417322834646,
          "duration": 0.3571424999999948
        },
        {
          "name": "G2",
          "midi": 43,
          "time": 122.14273499999997,
          "velocity": 0.8661417322834646,
          "duration": 0.3571424999999948
        },
        {
          "name": "G3",
          "midi": 55,
          "time": 122.14273499999997,
          "velocity": 0.8661417322834646,
          "duration": 0.3571424999999948
        },
        {
          "name": "G2",
          "midi": 43,
          "time": 122.99987699999997,
          "velocity": 0.8661417322834646,
          "duration": 0.20982121874999393
        },
        {
          "name": "G3",
          "midi": 55,
          "time": 122.99987699999997,
          "velocity": 0.8661417322834646,
          "duration": 0.20982121874999393
        },
        {
          "name": "A#2",
          "midi": 46,
          "time": 123.21416249999996,
          "velocity": 0.8661417322834646,
          "duration": 0.20982121874999393
        },
        {
          "name": "A#3",
          "midi": 58,
          "time": 123.21416249999996,
          "velocity": 0.8661417322834646,
          "duration": 0.20982121874999393
        },
        {
          "name": "G2",
          "midi": 43,
          "time": 123.85701899999995,
          "velocity": 0.8661417322834646,
          "duration": 0.3571424999999948
        },
        {
          "name": "G3",
          "midi": 55,
          "time": 123.85701899999995,
          "velocity": 0.8661417322834646,
          "duration": 0.3571424999999948
        },
        {
          "name": "G2",
          "midi": 43,
          "time": 124.71416099999995,
          "velocity": 0.8661417322834646,
          "duration": 0.3571424999999948
        },
        {
          "name": "G3",
          "midi": 55,
          "time": 124.71416099999995,
          "velocity": 0.8661417322834646,
          "duration": 0.3571424999999948
        },
        {
          "name": "G2",
          "midi": 43,
          "time": 125.57130299999994,
          "velocity": 0.8661417322834646,
          "duration": 0.3571424999999948
        },
        {
          "name": "G3",
          "midi": 55,
          "time": 125.57130299999994,
          "velocity": 0.8661417322834646,
          "duration": 0.3571424999999948
        },
        {
          "name": "D#2",
          "midi": 39,
          "time": 126.42844499999994,
          "velocity": 0.8661417322834646,
          "duration": 0.20982121874999393
        },
        {
          "name": "D#3",
          "midi": 51,
          "time": 126.42844499999994,
          "velocity": 0.8661417322834646,
          "duration": 0.20982121874999393
        },
        {
          "name": "C3",
          "midi": 48,
          "time": 126.64273049999993,
          "velocity": 0.8661417322834646,
          "duration": 0.20982121874999393
        },
        {
          "name": "A#3",
          "midi": 58,
          "time": 126.64273049999993,
          "velocity": 0.8661417322834646,
          "duration": 0.20982121874999393
        },
        {
          "name": "G2",
          "midi": 43,
          "time": 127.28558699999992,
          "velocity": 0.8661417322834646,
          "duration": 0.3571424999999948
        },
        {
          "name": "G3",
          "midi": 55,
          "time": 127.28558699999992,
          "velocity": 0.8661417322834646,
          "duration": 0.3571424999999948
        },
        {
          "name": "G2",
          "midi": 43,
          "time": 128.14272899999992,
          "velocity": 0.8661417322834646,
          "duration": 0.357142500000009
        },
        {
          "name": "G3",
          "midi": 55,
          "time": 128.14272899999992,
          "velocity": 0.8661417322834646,
          "duration": 0.357142500000009
        },
        {
          "name": "G2",
          "midi": 43,
          "time": 128.99987099999993,
          "velocity": 0.8661417322834646,
          "duration": 0.357142500000009
        },
        {
          "name": "G3",
          "midi": 55,
          "time": 128.99987099999993,
          "velocity": 0.8661417322834646,
          "duration": 0.357142500000009
        },
        {
          "name": "D#2",
          "midi": 39,
          "time": 129.85701299999994,
          "velocity": 0.8661417322834646,
          "duration": 0.20982121874999393
        },
        {
          "name": "D#3",
          "midi": 51,
          "time": 129.85701299999994,
          "velocity": 0.8661417322834646,
          "duration": 0.20982121874999393
        },
        {
          "name": "A#2",
          "midi": 46,
          "time": 130.07129849999993,
          "velocity": 0.8661417322834646,
          "duration": 0.20982121874999393
        },
        {
          "name": "A#3",
          "midi": 58,
          "time": 130.07129849999993,
          "velocity": 0.8661417322834646,
          "duration": 0.20982121874999393
        },
        {
          "name": "G2",
          "midi": 43,
          "time": 130.71415499999992,
          "velocity": 0.8661417322834646,
          "duration": 0.357142500000009
        },
        {
          "name": "G3",
          "midi": 55,
          "time": 130.71415499999992,
          "velocity": 0.8661417322834646,
          "duration": 0.357142500000009
        },
        {
          "name": "G2",
          "midi": 43,
          "time": 131.57129699999993,
          "velocity": 0.8661417322834646,
          "duration": 0.357142500000009
        },
        {
          "name": "G3",
          "midi": 55,
          "time": 131.57129699999993,
          "velocity": 0.8661417322834646,
          "duration": 0.357142500000009
        },
        {
          "name": "G2",
          "midi": 43,
          "time": 132.42843899999994,
          "velocity": 0.8661417322834646,
          "duration": 0.357142500000009
        },
        {
          "name": "G3",
          "midi": 55,
          "time": 132.42843899999994,
          "velocity": 0.8661417322834646,
          "duration": 0.357142500000009
        },
        {
          "name": "C2",
          "midi": 36,
          "time": 133.28558099999995,
          "velocity": 0.8661417322834646,
          "duration": 0.20982121874999393
        },
        {
          "name": "C3",
          "midi": 48,
          "time": 133.28558099999995,
          "velocity": 0.8661417322834646,
          "duration": 0.20982121874999393
        },
        {
          "name": "A#2",
          "midi": 46,
          "time": 133.49986649999994,
          "velocity": 0.8661417322834646,
          "duration": 0.20982121874999393
        },
        {
          "name": "A#3",
          "midi": 58,
          "time": 133.49986649999994,
          "velocity": 0.8661417322834646,
          "duration": 0.20982121874999393
        },
        {
          "name": "G2",
          "midi": 43,
          "time": 185.57124299999992,
          "velocity": 0.8661417322834646,
          "duration": 0.357142500000009
        },
        {
          "name": "G3",
          "midi": 55,
          "time": 185.57124299999992,
          "velocity": 0.8661417322834646,
          "duration": 0.357142500000009
        },
        {
          "name": "G2",
          "midi": 43,
          "time": 186.42838499999993,
          "velocity": 0.8661417322834646,
          "duration": 0.357142500000009
        },
        {
          "name": "G3",
          "midi": 55,
          "time": 186.42838499999993,
          "velocity": 0.8661417322834646,
          "duration": 0.357142500000009
        },
        {
          "name": "G2",
          "midi": 43,
          "time": 187.28552699999995,
          "velocity": 0.8661417322834646,
          "duration": 0.357142500000009
        },
        {
          "name": "G3",
          "midi": 55,
          "time": 187.28552699999995,
          "velocity": 0.8661417322834646,
          "duration": 0.357142500000009
        },
        {
          "name": "G2",
          "midi": 43,
          "time": 188.14266899999996,
          "velocity": 0.8661417322834646,
          "duration": 0.357142500000009
        },
        {
          "name": "G3",
          "midi": 55,
          "time": 188.14266899999996,
          "velocity": 0.8661417322834646,
          "duration": 0.357142500000009
        },
        {
          "name": "G2",
          "midi": 43,
          "time": 188.99981099999997,
          "velocity": 0.8661417322834646,
          "duration": 0.357142500000009
        },
        {
          "name": "G3",
          "midi": 55,
          "time": 188.99981099999997,
          "velocity": 0.8661417322834646,
          "duration": 0.357142500000009
        },
        {
          "name": "G2",
          "midi": 43,
          "time": 189.85695299999998,
          "velocity": 0.8661417322834646,
          "duration": 0.357142500000009
        },
        {
          "name": "G3",
          "midi": 55,
          "time": 189.85695299999998,
          "velocity": 0.8661417322834646,
          "duration": 0.357142500000009
        },
        {
          "name": "G2",
          "midi": 43,
          "time": 190.714095,
          "velocity": 0.8661417322834646,
          "duration": 0.357142500000009
        },
        {
          "name": "G3",
          "midi": 55,
          "time": 190.714095,
          "velocity": 0.8661417322834646,
          "duration": 0.357142500000009
        },
        {
          "name": "G2",
          "midi": 43,
          "time": 191.142666,
          "velocity": 0.8661417322834646,
          "duration": 0.357142500000009
        },
        {
          "name": "G3",
          "midi": 55,
          "time": 191.142666,
          "velocity": 0.8661417322834646,
          "duration": 0.357142500000009
        },
        {
          "name": "G2",
          "midi": 43,
          "time": 191.571237,
          "velocity": 0.8661417322834646,
          "duration": 0.357142500000009
        },
        {
          "name": "G3",
          "midi": 55,
          "time": 191.571237,
          "velocity": 0.8661417322834646,
          "duration": 0.357142500000009
        },
        {
          "name": "G3",
          "midi": 55,
          "time": 199.285515,
          "velocity": 0.8661417322834646,
          "duration": 0.20982121874999393
        },
        {
          "name": "A#3",
          "midi": 58,
          "time": 199.4998005,
          "velocity": 0.8661417322834646,
          "duration": 0.20982121874999393
        },
        {
          "name": "G3",
          "midi": 55,
          "time": 199.71408599999998,
          "velocity": 0.8661417322834646,
          "duration": 0.20982121874999393
        },
        {
          "name": "A#3",
          "midi": 58,
          "time": 199.92837149999997,
          "velocity": 0.8661417322834646,
          "duration": 0.20982121874999393
        },
        {
          "name": "G3",
          "midi": 55,
          "time": 200.14265699999996,
          "velocity": 0.8661417322834646,
          "duration": 0.20982121874999393
        },
        {
          "name": "A#3",
          "midi": 58,
          "time": 200.35694249999995,
          "velocity": 0.8661417322834646,
          "duration": 0.20982121874999393
        },
        {
          "name": "G3",
          "midi": 55,
          "time": 200.57122799999993,
          "velocity": 0.8661417322834646,
          "duration": 0.20982121874999393
        },
        {
          "name": "A#3",
          "midi": 58,
          "time": 200.78551349999992,
          "velocity": 0.8661417322834646,
          "duration": 0.20982121874999393
        },
        {
          "name": "G3",
          "midi": 55,
          "time": 200.9997989999999,
          "velocity": 0.8661417322834646,
          "duration": 0.20982121874999393
        },
        {
          "name": "A#3",
          "midi": 58,
          "time": 201.2140844999999,
          "velocity": 0.8661417322834646,
          "duration": 0.20982121874999393
        },
        {
          "name": "G3",
          "midi": 55,
          "time": 201.4283699999999,
          "velocity": 0.8661417322834646,
          "duration": 0.20982121874999393
        },
        {
          "name": "A#3",
          "midi": 58,
          "time": 201.64265549999988,
          "velocity": 0.8661417322834646,
          "duration": 0.20982121874999393
        },
        {
          "name": "G3",
          "midi": 55,
          "time": 201.85694099999986,
          "velocity": 0.8661417322834646,
          "duration": 0.20982121874999393
        },
        {
          "name": "A#3",
          "midi": 58,
          "time": 202.07122649999985,
          "velocity": 0.8661417322834646,
          "duration": 0.20982121874999393
        },
        {
          "name": "D#3",
          "midi": 51,
          "time": 202.28551199999984,
          "velocity": 0.8661417322834646,
          "duration": 0.20982121874999393
        },
        {
          "name": "A#3",
          "midi": 58,
          "time": 202.49979749999983,
          "velocity": 0.8661417322834646,
          "duration": 0.20982121874999393
        },
        {
          "name": "G3",
          "midi": 55,
          "time": 202.71408299999982,
          "velocity": 0.8661417322834646,
          "duration": 0.20982121874999393
        },
        {
          "name": "A#3",
          "midi": 58,
          "time": 202.9283684999998,
          "velocity": 0.8661417322834646,
          "duration": 0.20982121874999393
        },
        {
          "name": "G3",
          "midi": 55,
          "time": 203.1426539999998,
          "velocity": 0.8661417322834646,
          "duration": 0.20982121874999393
        },
        {
          "name": "A#3",
          "midi": 58,
          "time": 203.35693949999978,
          "velocity": 0.8661417322834646,
          "duration": 0.20982121874999393
        },
        {
          "name": "G3",
          "midi": 55,
          "time": 203.57122499999977,
          "velocity": 0.8661417322834646,
          "duration": 0.20982121874999393
        },
        {
          "name": "A#3",
          "midi": 58,
          "time": 203.78551049999976,
          "velocity": 0.8661417322834646,
          "duration": 0.20982121874999393
        },
        {
          "name": "G3",
          "midi": 55,
          "time": 203.99979599999975,
          "velocity": 0.8661417322834646,
          "duration": 0.20982121874999393
        },
        {
          "name": "A#3",
          "midi": 58,
          "time": 204.21408149999974,
          "velocity": 0.8661417322834646,
          "duration": 0.20982121874999393
        },
        {
          "name": "G3",
          "midi": 55,
          "time": 204.42836699999972,
          "velocity": 0.8661417322834646,
          "duration": 0.20982121874999393
        },
        {
          "name": "A#3",
          "midi": 58,
          "time": 204.6426524999997,
          "velocity": 0.8661417322834646,
          "duration": 0.20982121874999393
        },
        {
          "name": "G3",
          "midi": 55,
          "time": 204.8569379999997,
          "velocity": 0.8661417322834646,
          "duration": 0.20982121874999393
        },
        {
          "name": "A#3",
          "midi": 58,
          "time": 205.0712234999997,
          "velocity": 0.8661417322834646,
          "duration": 0.20982121874999393
        },
        {
          "name": "D#3",
          "midi": 51,
          "time": 205.28550899999968,
          "velocity": 0.8661417322834646,
          "duration": 0.20982121874999393
        },
        {
          "name": "A#3",
          "midi": 58,
          "time": 205.49979449999967,
          "velocity": 0.8661417322834646,
          "duration": 0.20982121874999393
        },
        {
          "name": "D#3",
          "midi": 51,
          "time": 205.71407999999965,
          "velocity": 0.8661417322834646,
          "duration": 0.20982121874999393
        },
        {
          "name": "A#3",
          "midi": 58,
          "time": 205.92836549999964,
          "velocity": 0.8661417322834646,
          "duration": 0.20982121874999393
        },
        {
          "name": "D#2",
          "midi": 39,
          "time": 212.35693049999963,
          "velocity": 0.8661417322834646,
          "duration": 0.20982121874999393
        },
        {
          "name": "G2",
          "midi": 43,
          "time": 220.28549399999963,
          "velocity": 0.8661417322834646,
          "duration": 0.357142500000009
        },
        {
          "name": "G2",
          "midi": 43,
          "time": 221.14263599999964,
          "velocity": 0.8661417322834646,
          "duration": 0.357142500000009
        },
        {
          "name": "G2",
          "midi": 43,
          "time": 221.99977799999965,
          "velocity": 0.8661417322834646,
          "duration": 0.357142500000009
        },
        {
          "name": "G2",
          "midi": 43,
          "time": 222.85691999999966,
          "velocity": 0.8661417322834646,
          "duration": 0.357142500000009
        },
        {
          "name": "D#3",
          "midi": 51,
          "time": 223.28549099999967,
          "velocity": 0.8661417322834646,
          "duration": 0.3169639687500023
        },
        {
          "name": "D#3",
          "midi": 51,
          "time": 223.60691924999966,
          "velocity": 0.8661417322834646,
          "duration": 0.10267846875001396
        },
        {
          "name": "D3",
          "midi": 50,
          "time": 223.87477612499967,
          "velocity": 0.8661417322834646,
          "duration": 0.26339259375001234
        },
        {
          "name": "A2",
          "midi": 45,
          "time": 224.14263299999968,
          "velocity": 0.8661417322834646,
          "duration": 0.3169639687500023
        },
        {
          "name": "F#2",
          "midi": 42,
          "time": 224.46406124999967,
          "velocity": 0.8661417322834646,
          "duration": 0.10267846875001396
        },
        {
          "name": "A3",
          "midi": 57,
          "time": 224.46406124999967,
          "velocity": 0.8661417322834646,
          "duration": 0.10267846875001396
        },
        {
          "name": "C3",
          "midi": 48,
          "time": 224.73191812499968,
          "velocity": 0.8661417322834646,
          "duration": 0.26339259375001234
        },
        {
          "name": "F#3",
          "midi": 54,
          "time": 224.73191812499968,
          "velocity": 0.8661417322834646,
          "duration": 0.26339259375001234
        },
        {
          "name": "C#4",
          "midi": 61,
          "time": 224.9997749999997,
          "velocity": 0.8661417322834646,
          "duration": 0.3169639687500023
        },
        {
          "name": "F#3",
          "midi": 54,
          "time": 225.32120324999968,
          "velocity": 0.8661417322834646,
          "duration": 0.10267846875001396
        },
        {
          "name": "D4",
          "midi": 62,
          "time": 225.5890601249997,
          "velocity": 0.8661417322834646,
          "duration": 0.26339259375001234
        },
        {
          "name": "A3",
          "midi": 57,
          "time": 225.8569169999997,
          "velocity": 0.8661417322834646,
          "duration": 0.3169639687500023
        },
        {
          "name": "F4",
          "midi": 65,
          "time": 226.1783452499997,
          "velocity": 0.8661417322834646,
          "duration": 0.10267846875001396
        },
        {
          "name": "F#4",
          "midi": 66,
          "time": 226.4462021249997,
          "velocity": 0.8661417322834646,
          "duration": 0.26339259375001234
        },
        {
          "name": "A#2",
          "midi": 46,
          "time": 228.8569139999997,
          "velocity": 0.8661417322834646,
          "duration": 0.20982121874999393
        },
        {
          "name": "A#3",
          "midi": 58,
          "time": 228.8569139999997,
          "velocity": 0.8661417322834646,
          "duration": 0.20982121874999393
        },
        {
          "name": "C3",
          "midi": 48,
          "time": 229.0711994999997,
          "velocity": 0.8661417322834646,
          "duration": 0.20982121874999393
        },
        {
          "name": "C4",
          "midi": 60,
          "time": 229.0711994999997,
          "velocity": 0.8661417322834646,
          "duration": 0.20982121874999393
        },
        {
          "name": "A#2",
          "midi": 46,
          "time": 229.28548499999968,
          "velocity": 0.8661417322834646,
          "duration": 0.10267846875001396
        },
        {
          "name": "A#3",
          "midi": 58,
          "time": 229.28548499999968,
          "velocity": 0.8661417322834646,
          "duration": 0.10267846875001396
        },
        {
          "name": "A2",
          "midi": 45,
          "time": 229.3926277499997,
          "velocity": 0.8661417322834646,
          "duration": 0.10267846875001396
        },
        {
          "name": "A3",
          "midi": 57,
          "time": 229.3926277499997,
          "velocity": 0.8661417322834646,
          "duration": 0.10267846875001396
        },
        {
          "name": "G2",
          "midi": 43,
          "time": 229.4997704999997,
          "velocity": 0.8661417322834646,
          "duration": 0.20982121874999393
        },
        {
          "name": "G3",
          "midi": 55,
          "time": 229.4997704999997,
          "velocity": 0.8661417322834646,
          "duration": 0.20982121874999393
        },
        {
          "name": "A#2",
          "midi": 46,
          "time": 229.7140559999997,
          "velocity": 0.8661417322834646,
          "duration": 0.20982121874999393
        },
        {
          "name": "A#3",
          "midi": 58,
          "time": 229.7140559999997,
          "velocity": 0.8661417322834646,
          "duration": 0.20982121874999393
        },
        {
          "name": "C3",
          "midi": 48,
          "time": 229.92834149999968,
          "velocity": 0.8661417322834646,
          "duration": 0.20982121874999393
        },
        {
          "name": "C4",
          "midi": 60,
          "time": 229.92834149999968,
          "velocity": 0.8661417322834646,
          "duration": 0.20982121874999393
        },
        {
          "name": "A#2",
          "midi": 46,
          "time": 230.14262699999966,
          "velocity": 0.8661417322834646,
          "duration": 0.10267846875001396
        },
        {
          "name": "A#3",
          "midi": 58,
          "time": 230.14262699999966,
          "velocity": 0.8661417322834646,
          "duration": 0.10267846875001396
        },
        {
          "name": "A2",
          "midi": 45,
          "time": 230.24976974999967,
          "velocity": 0.8661417322834646,
          "duration": 0.10267846875001396
        },
        {
          "name": "A3",
          "midi": 57,
          "time": 230.24976974999967,
          "velocity": 0.8661417322834646,
          "duration": 0.10267846875001396
        },
        {
          "name": "G2",
          "midi": 43,
          "time": 230.35691249999968,
          "velocity": 0.8661417322834646,
          "duration": 0.20982121874999393
        },
        {
          "name": "G3",
          "midi": 55,
          "time": 230.35691249999968,
          "velocity": 0.8661417322834646,
          "duration": 0.20982121874999393
        },
        {
          "name": "A#2",
          "midi": 46,
          "time": 230.57119799999967,
          "velocity": 0.8661417322834646,
          "duration": 0.20982121874999393
        },
        {
          "name": "A#3",
          "midi": 58,
          "time": 230.57119799999967,
          "velocity": 0.8661417322834646,
          "duration": 0.20982121874999393
        },
        {
          "name": "C3",
          "midi": 48,
          "time": 230.78548349999966,
          "velocity": 0.8661417322834646,
          "duration": 0.20982121874999393
        },
        {
          "name": "C4",
          "midi": 60,
          "time": 230.78548349999966,
          "velocity": 0.8661417322834646,
          "duration": 0.20982121874999393
        },
        {
          "name": "A#2",
          "midi": 46,
          "time": 230.99976899999965,
          "velocity": 0.8661417322834646,
          "duration": 0.10267846875001396
        },
        {
          "name": "A#3",
          "midi": 58,
          "time": 230.99976899999965,
          "velocity": 0.8661417322834646,
          "duration": 0.10267846875001396
        },
        {
          "name": "A2",
          "midi": 45,
          "time": 231.10691174999965,
          "velocity": 0.8661417322834646,
          "duration": 0.10267846875001396
        },
        {
          "name": "A3",
          "midi": 57,
          "time": 231.10691174999965,
          "velocity": 0.8661417322834646,
          "duration": 0.10267846875001396
        },
        {
          "name": "G2",
          "midi": 43,
          "time": 231.21405449999966,
          "velocity": 0.8661417322834646,
          "duration": 0.20982121874999393
        },
        {
          "name": "G3",
          "midi": 55,
          "time": 231.21405449999966,
          "velocity": 0.8661417322834646,
          "duration": 0.20982121874999393
        },
        {
          "name": "A#2",
          "midi": 46,
          "time": 231.42833999999965,
          "velocity": 0.8661417322834646,
          "duration": 0.20982121874999393
        },
        {
          "name": "A#3",
          "midi": 58,
          "time": 231.42833999999965,
          "velocity": 0.8661417322834646,
          "duration": 0.20982121874999393
        },
        {
          "name": "F#2",
          "midi": 42,
          "time": 231.64262549999964,
          "velocity": 0.8661417322834646,
          "duration": 0.20982121874999393
        },
        {
          "name": "F#3",
          "midi": 54,
          "time": 231.64262549999964,
          "velocity": 0.8661417322834646,
          "duration": 0.20982121874999393
        },
        {
          "name": "A#2",
          "midi": 46,
          "time": 233.14262399999964,
          "velocity": 0.8661417322834646,
          "duration": 0.20982121874999393
        },
        {
          "name": "A#3",
          "midi": 58,
          "time": 233.14262399999964,
          "velocity": 0.8661417322834646,
          "duration": 0.20982121874999393
        },
        {
          "name": "C3",
          "midi": 48,
          "time": 233.35690949999963,
          "velocity": 0.8661417322834646,
          "duration": 0.20982121874999393
        },
        {
          "name": "C4",
          "midi": 60,
          "time": 233.35690949999963,
          "velocity": 0.8661417322834646,
          "duration": 0.20982121874999393
        },
        {
          "name": "A#2",
          "midi": 46,
          "time": 233.57119499999962,
          "velocity": 0.8661417322834646,
          "duration": 0.10267846875001396
        },
        {
          "name": "A#3",
          "midi": 58,
          "time": 233.57119499999962,
          "velocity": 0.8661417322834646,
          "duration": 0.10267846875001396
        },
        {
          "name": "A2",
          "midi": 45,
          "time": 233.67833774999963,
          "velocity": 0.8661417322834646,
          "duration": 0.10267846875001396
        },
        {
          "name": "A3",
          "midi": 57,
          "time": 233.67833774999963,
          "velocity": 0.8661417322834646,
          "duration": 0.10267846875001396
        },
        {
          "name": "G2",
          "midi": 43,
          "time": 233.78548049999964,
          "velocity": 0.8661417322834646,
          "duration": 0.20982121874999393
        },
        {
          "name": "G3",
          "midi": 55,
          "time": 233.78548049999964,
          "velocity": 0.8661417322834646,
          "duration": 0.20982121874999393
        },
        {
          "name": "G3",
          "midi": 55,
          "time": 257.57117099999965,
          "velocity": 0.8661417322834646,
          "duration": 0.20982121874999393
        },
        {
          "name": "A#3",
          "midi": 58,
          "time": 257.78545649999967,
          "velocity": 0.8661417322834646,
          "duration": 0.20982121874999393
        },
        {
          "name": "G3",
          "midi": 55,
          "time": 257.9997419999997,
          "velocity": 0.8661417322834646,
          "duration": 0.20982121874999393
        },
        {
          "name": "A#3",
          "midi": 58,
          "time": 258.2140274999997,
          "velocity": 0.8661417322834646,
          "duration": 0.20982121874999393
        },
        {
          "name": "G3",
          "midi": 55,
          "time": 258.4283129999997,
          "velocity": 0.8661417322834646,
          "duration": 0.20982121874999393
        },
        {
          "name": "A#3",
          "midi": 58,
          "time": 258.64259849999974,
          "velocity": 0.8661417322834646,
          "duration": 0.20982121874999393
        },
        {
          "name": "G3",
          "midi": 55,
          "time": 258.85688399999975,
          "velocity": 0.8661417322834646,
          "duration": 0.20982121874999393
        },
        {
          "name": "A#3",
          "midi": 58,
          "time": 259.07116949999977,
          "velocity": 0.8661417322834646,
          "duration": 0.20982121874999393
        },
        {
          "name": "G3",
          "midi": 55,
          "time": 259.2854549999998,
          "velocity": 0.8661417322834646,
          "duration": 0.20982121874999393
        },
        {
          "name": "A#3",
          "midi": 58,
          "time": 259.4997404999998,
          "velocity": 0.8661417322834646,
          "duration": 0.20982121874999393
        },
        {
          "name": "G3",
          "midi": 55,
          "time": 259.7140259999998,
          "velocity": 0.8661417322834646,
          "duration": 0.20982121874999393
        },
        {
          "name": "A#3",
          "midi": 58,
          "time": 259.92831149999984,
          "velocity": 0.8661417322834646,
          "duration": 0.20982121874999393
        },
        {
          "name": "G3",
          "midi": 55,
          "time": 260.14259699999985,
          "velocity": 0.8661417322834646,
          "duration": 0.20982121874999393
        },
        {
          "name": "A#3",
          "midi": 58,
          "time": 260.35688249999987,
          "velocity": 0.8661417322834646,
          "duration": 0.20982121874999393
        },
        {
          "name": "G3",
          "midi": 55,
          "time": 260.5711679999999,
          "velocity": 0.8661417322834646,
          "duration": 0.20982121874999393
        },
        {
          "name": "A#3",
          "midi": 58,
          "time": 260.7854534999999,
          "velocity": 0.8661417322834646,
          "duration": 0.20982121874999393
        },
        {
          "name": "G3",
          "midi": 55,
          "time": 260.9997389999999,
          "velocity": 0.8661417322834646,
          "duration": 0.20982121874999393
        },
        {
          "name": "A#3",
          "midi": 58,
          "time": 261.21402449999994,
          "velocity": 0.8661417322834646,
          "duration": 0.20982121874999393
        },
        {
          "name": "G3",
          "midi": 55,
          "time": 261.42830999999995,
          "velocity": 0.8661417322834646,
          "duration": 0.20982121874999393
        },
        {
          "name": "A#3",
          "midi": 58,
          "time": 261.64259549999997,
          "velocity": 0.8661417322834646,
          "duration": 0.20982121874999393
        },
        {
          "name": "G3",
          "midi": 55,
          "time": 261.856881,
          "velocity": 0.8661417322834646,
          "duration": 0.20982121874999393
        },
        {
          "name": "A#3",
          "midi": 58,
          "time": 262.0711665,
          "velocity": 0.8661417322834646,
          "duration": 0.20982121874999393
        },
        {
          "name": "G3",
          "midi": 55,
          "time": 262.285452,
          "velocity": 0.8661417322834646,
          "duration": 0.20982121874999393
        },
        {
          "name": "A#3",
          "midi": 58,
          "time": 262.49973750000004,
          "velocity": 0.8661417322834646,
          "duration": 0.20982121874999393
        },
        {
          "name": "G3",
          "midi": 55,
          "time": 262.71402300000005,
          "velocity": 0.8661417322834646,
          "duration": 0.20982121874999393
        },
        {
          "name": "A#3",
          "midi": 58,
          "time": 262.92830850000007,
          "velocity": 0.8661417322834646,
          "duration": 0.20982121874999393
        },
        {
          "name": "G3",
          "midi": 55,
          "time": 263.1425940000001,
          "velocity": 0.8661417322834646,
          "duration": 0.20982121874999393
        },
        {
          "name": "A#3",
          "midi": 58,
          "time": 263.3568795000001,
          "velocity": 0.8661417322834646,
          "duration": 0.20982121874999393
        },
        {
          "name": "F3",
          "midi": 53,
          "time": 263.5711650000001,
          "velocity": 0.8661417322834646,
          "duration": 0.20982121874999393
        },
        {
          "name": "D#3",
          "midi": 51,
          "time": 263.78545050000014,
          "velocity": 0.8661417322834646,
          "duration": 0.20982121874999393
        },
        {
          "name": "F#3",
          "midi": 54,
          "time": 263.99973600000015,
          "velocity": 0.8661417322834646,
          "duration": 0.20982121874999393
        },
        {
          "name": "D#3",
          "midi": 51,
          "time": 264.2140215000002,
          "velocity": 0.8661417322834646,
          "duration": 0.20982121874999393
        },
        {
          "name": "A#3",
          "midi": 58,
          "time": 266.99973300000016,
          "velocity": 0.8661417322834646,
          "duration": 0.20982121874999393
        },
        {
          "name": "C4",
          "midi": 60,
          "time": 267.2140185000002,
          "velocity": 0.8661417322834646,
          "duration": 0.20982121874999393
        },
        {
          "name": "A#3",
          "midi": 58,
          "time": 267.4283040000002,
          "velocity": 0.8661417322834646,
          "duration": 0.10267846875001396
        },
        {
          "name": "A3",
          "midi": 57,
          "time": 267.53544675000023,
          "velocity": 0.8661417322834646,
          "duration": 0.10267846875001396
        },
        {
          "name": "G3",
          "midi": 55,
          "time": 267.64258950000027,
          "velocity": 0.8661417322834646,
          "duration": 0.20982121874999393
        },
        {
          "name": "C4",
          "midi": 60,
          "time": 267.8568750000003,
          "velocity": 0.8661417322834646,
          "duration": 0.10267846875001396
        },
        {
          "name": "A#3",
          "midi": 58,
          "time": 267.9640177500003,
          "velocity": 0.8661417322834646,
          "duration": 0.10267846875001396
        },
        {
          "name": "A3",
          "midi": 57,
          "time": 268.07116050000036,
          "velocity": 0.8661417322834646,
          "duration": 0.20982121874999393
        },
        {
          "name": "D#4",
          "midi": 63,
          "time": 269.99973000000034,
          "velocity": 0.8661417322834646,
          "duration": 0.20982121874999393
        },
        {
          "name": "A#3",
          "midi": 58,
          "time": 270.21401550000036,
          "velocity": 0.8661417322834646,
          "duration": 0.20982121874999393
        },
        {
          "name": "D#4",
          "midi": 63,
          "time": 270.4283010000004,
          "velocity": 0.8661417322834646,
          "duration": 0.20982121874999393
        },
        {
          "name": "A#3",
          "midi": 58,
          "time": 270.6425865000004,
          "velocity": 0.8661417322834646,
          "duration": 0.20982121874999393
        },
        {
          "name": "D#4",
          "midi": 63,
          "time": 270.8568720000004,
          "velocity": 0.8661417322834646,
          "duration": 0.20982121874999393
        },
        {
          "name": "C4",
          "midi": 60,
          "time": 271.0711575000004,
          "velocity": 0.8661417322834646,
          "duration": 0.20982121874999393
        },
        {
          "name": "D#4",
          "midi": 63,
          "time": 272.5711560000004,
          "velocity": 0.8661417322834646,
          "duration": 0.20982121874999393
        },
        {
          "name": "D#4",
          "midi": 63,
          "time": 272.78544150000045,
          "velocity": 0.8661417322834646,
          "duration": 0.20982121874999393
        },
        {
          "name": "D4",
          "midi": 62,
          "time": 272.99972700000046,
          "velocity": 0.8661417322834646,
          "duration": 0.10267846875001396
        },
        {
          "name": "D4",
          "midi": 62,
          "time": 273.1068697500005,
          "velocity": 0.8661417322834646,
          "duration": 0.10267846875001396
        },
        {
          "name": "D4",
          "midi": 62,
          "time": 273.21401250000054,
          "velocity": 0.8661417322834646,
          "duration": 0.20982121874999393
        }
      ],
      "controlChanges": {
        "10": [
          {
            "number": 10,
            "time": 0,
            "value": 0.5039370078740157
          }
        ]
      },
      "id": 8,
      "name": "Trombone",
      "instrumentNumber": 57,
      "instrument": "trombone",
      "instrumentFamily": "brass",
      "channelNumber": 5,
      "isPercussion": false
    },
    {
      "startTime": 77.99992200000001,
      "duration": 273.42383371875025,
      "length": 422,
      "notes": [
        {
          "name": "E4",
          "midi": 64,
          "time": 77.99992200000001,
          "velocity": 0.8661417322834646,
          "duration": 0.3571424999999948
        },
        {
          "name": "E5",
          "midi": 76,
          "time": 77.99992200000001,
          "velocity": 0.8661417322834646,
          "duration": 0.3571424999999948
        },
        {
          "name": "E4",
          "midi": 64,
          "time": 79.28563500000001,
          "velocity": 0.8661417322834646,
          "duration": 0.20982121874999393
        },
        {
          "name": "E5",
          "midi": 76,
          "time": 79.28563500000001,
          "velocity": 0.8661417322834646,
          "duration": 0.20982121874999393
        },
        {
          "name": "E4",
          "midi": 64,
          "time": 79.4999205,
          "velocity": 0.8661417322834646,
          "duration": 0.20982121874999393
        },
        {
          "name": "E5",
          "midi": 76,
          "time": 79.4999205,
          "velocity": 0.8661417322834646,
          "duration": 0.20982121874999393
        },
        {
          "name": "E4",
          "midi": 64,
          "time": 81.42849,
          "velocity": 0.8661417322834646,
          "duration": 0.3571424999999948
        },
        {
          "name": "E5",
          "midi": 76,
          "time": 81.42849,
          "velocity": 0.8661417322834646,
          "duration": 0.3571424999999948
        },
        {
          "name": "E4",
          "midi": 64,
          "time": 82.714203,
          "velocity": 0.8661417322834646,
          "duration": 0.20982121874999393
        },
        {
          "name": "E5",
          "midi": 76,
          "time": 82.714203,
          "velocity": 0.8661417322834646,
          "duration": 0.20982121874999393
        },
        {
          "name": "E4",
          "midi": 64,
          "time": 82.92848849999999,
          "velocity": 0.8661417322834646,
          "duration": 0.20982121874999393
        },
        {
          "name": "E5",
          "midi": 76,
          "time": 82.92848849999999,
          "velocity": 0.8661417322834646,
          "duration": 0.20982121874999393
        },
        {
          "name": "E5",
          "midi": 76,
          "time": 84.85705799999998,
          "velocity": 0.8661417322834646,
          "duration": 0.3571424999999948
        },
        {
          "name": "B5",
          "midi": 83,
          "time": 84.85705799999998,
          "velocity": 0.8661417322834646,
          "duration": 0.3571424999999948
        },
        {
          "name": "F#5",
          "midi": 78,
          "time": 86.99991299999998,
          "velocity": 0.8661417322834646,
          "duration": 0.20982121874999393
        },
        {
          "name": "C6",
          "midi": 84,
          "time": 86.99991299999998,
          "velocity": 0.8661417322834646,
          "duration": 0.20982121874999393
        },
        {
          "name": "D#5",
          "midi": 75,
          "time": 87.21419849999997,
          "velocity": 0.8661417322834646,
          "duration": 0.20982121874999393
        },
        {
          "name": "A5",
          "midi": 81,
          "time": 87.21419849999997,
          "velocity": 0.8661417322834646,
          "duration": 0.20982121874999393
        },
        {
          "name": "E5",
          "midi": 76,
          "time": 88.28562599999997,
          "velocity": 0.8661417322834646,
          "duration": 0.3571424999999948
        },
        {
          "name": "B5",
          "midi": 83,
          "time": 88.28562599999997,
          "velocity": 0.8661417322834646,
          "duration": 0.3571424999999948
        },
        {
          "name": "E5",
          "midi": 76,
          "time": 90.21419549999996,
          "velocity": 0.8661417322834646,
          "duration": 0.20982121874999393
        },
        {
          "name": "B5",
          "midi": 83,
          "time": 90.21419549999996,
          "velocity": 0.8661417322834646,
          "duration": 0.20982121874999393
        },
        {
          "name": "F#5",
          "midi": 78,
          "time": 90.42848099999995,
          "velocity": 0.8661417322834646,
          "duration": 0.20982121874999393
        },
        {
          "name": "C6",
          "midi": 84,
          "time": 90.42848099999995,
          "velocity": 0.8661417322834646,
          "duration": 0.20982121874999393
        },
        {
          "name": "D#5",
          "midi": 75,
          "time": 90.64276649999994,
          "velocity": 0.8661417322834646,
          "duration": 0.20982121874999393
        },
        {
          "name": "A5",
          "midi": 81,
          "time": 90.64276649999994,
          "velocity": 0.8661417322834646,
          "duration": 0.20982121874999393
        },
        {
          "name": "C5",
          "midi": 72,
          "time": 95.14276199999993,
          "velocity": 0.8661417322834646,
          "duration": 0.20982121874999393
        },
        {
          "name": "D5",
          "midi": 74,
          "time": 95.35704749999992,
          "velocity": 0.8661417322834646,
          "duration": 0.20982121874999393
        },
        {
          "name": "D#5",
          "midi": 75,
          "time": 95.57133299999991,
          "velocity": 0.8661417322834646,
          "duration": 0.3571424999999948
        },
        {
          "name": "F5",
          "midi": 77,
          "time": 95.9999039999999,
          "velocity": 0.8661417322834646,
          "duration": 0.3571424999999948
        },
        {
          "name": "G4",
          "midi": 67,
          "time": 96.42847499999989,
          "velocity": 0.8661417322834646,
          "duration": 0.3571424999999948
        },
        {
          "name": "F5",
          "midi": 77,
          "time": 96.85704599999988,
          "velocity": 0.8661417322834646,
          "duration": 0.3571424999999948
        },
        {
          "name": "D#5",
          "midi": 75,
          "time": 97.28561699999987,
          "velocity": 0.8661417322834646,
          "duration": 0.20982121874999393
        },
        {
          "name": "D5",
          "midi": 74,
          "time": 97.49990249999986,
          "velocity": 0.8661417322834646,
          "duration": 0.20982121874999393
        },
        {
          "name": "C5",
          "midi": 72,
          "time": 97.71418799999985,
          "velocity": 0.8661417322834646,
          "duration": 0.3571424999999948
        },
        {
          "name": "C5",
          "midi": 72,
          "time": 101.99989799999985,
          "velocity": 0.8661417322834646,
          "duration": 0.20982121874999393
        },
        {
          "name": "D5",
          "midi": 74,
          "time": 102.21418349999983,
          "velocity": 0.8661417322834646,
          "duration": 0.20982121874999393
        },
        {
          "name": "D#5",
          "midi": 75,
          "time": 102.42846899999982,
          "velocity": 0.8661417322834646,
          "duration": 0.3571424999999948
        },
        {
          "name": "F5",
          "midi": 77,
          "time": 102.85703999999981,
          "velocity": 0.8661417322834646,
          "duration": 0.3571424999999948
        },
        {
          "name": "G4",
          "midi": 67,
          "time": 103.2856109999998,
          "velocity": 0.8661417322834646,
          "duration": 0.3571424999999948
        },
        {
          "name": "F5",
          "midi": 77,
          "time": 103.7141819999998,
          "velocity": 0.8661417322834646,
          "duration": 0.3571424999999948
        },
        {
          "name": "D#5",
          "midi": 75,
          "time": 104.14275299999979,
          "velocity": 0.8661417322834646,
          "duration": 0.20982121874999393
        },
        {
          "name": "D5",
          "midi": 74,
          "time": 104.35703849999977,
          "velocity": 0.8661417322834646,
          "duration": 0.20982121874999393
        },
        {
          "name": "C5",
          "midi": 72,
          "time": 104.57132399999976,
          "velocity": 0.8661417322834646,
          "duration": 0.3571424999999948
        },
        {
          "name": "B4",
          "midi": 71,
          "time": 104.99989499999975,
          "velocity": 0.8661417322834646,
          "duration": 0.20982121874999393
        },
        {
          "name": "C5",
          "midi": 72,
          "time": 105.21418049999974,
          "velocity": 0.8661417322834646,
          "duration": 0.20982121874999393
        },
        {
          "name": "B4",
          "midi": 71,
          "time": 105.42846599999973,
          "velocity": 0.8661417322834646,
          "duration": 1.178570250000007
        },
        {
          "name": "B4",
          "midi": 71,
          "time": 106.71417899999973,
          "velocity": 0.8661417322834646,
          "duration": 0.20982121874999393
        },
        {
          "name": "C5",
          "midi": 72,
          "time": 106.92846449999972,
          "velocity": 0.8661417322834646,
          "duration": 0.20982121874999393
        },
        {
          "name": "C5",
          "midi": 72,
          "time": 108.42846299999971,
          "velocity": 0.8661417322834646,
          "duration": 0.20982121874999393
        },
        {
          "name": "B4",
          "midi": 71,
          "time": 108.6427484999997,
          "velocity": 0.8661417322834646,
          "duration": 3.1071397500000018
        },
        {
          "name": "G5",
          "midi": 79,
          "time": 112.9284584999997,
          "velocity": 0.8661417322834646,
          "duration": 0.20982121874999393
        },
        {
          "name": "F#5",
          "midi": 78,
          "time": 113.1427439999997,
          "velocity": 0.8661417322834646,
          "duration": 0.10267846874999975
        },
        {
          "name": "E5",
          "midi": 76,
          "time": 113.24988674999969,
          "velocity": 0.8661417322834646,
          "duration": 0.10267846874999975
        },
        {
          "name": "D#5",
          "midi": 75,
          "time": 113.35702949999968,
          "velocity": 0.8661417322834646,
          "duration": 0.20982121874999393
        },
        {
          "name": "E5",
          "midi": 76,
          "time": 113.99988599999968,
          "velocity": 0.8661417322834646,
          "duration": 0.3571424999999948
        },
        {
          "name": "B5",
          "midi": 83,
          "time": 113.99988599999968,
          "velocity": 0.8661417322834646,
          "duration": 0.3571424999999948
        },
        {
          "name": "E5",
          "midi": 76,
          "time": 115.71416999999967,
          "velocity": 0.8661417322834646,
          "duration": 0.3571424999999948
        },
        {
          "name": "B5",
          "midi": 83,
          "time": 115.71416999999967,
          "velocity": 0.8661417322834646,
          "duration": 0.3571424999999948
        },
        {
          "name": "B4",
          "midi": 71,
          "time": 116.14274099999966,
          "velocity": 0.8661417322834646,
          "duration": 0.20982121874999393
        },
        {
          "name": "B4",
          "midi": 71,
          "time": 116.35702649999965,
          "velocity": 0.8661417322834646,
          "duration": 0.5714279999999974
        },
        {
          "name": "E5",
          "midi": 76,
          "time": 117.42845399999965,
          "velocity": 0.8661417322834646,
          "duration": 0.3571424999999948
        },
        {
          "name": "B5",
          "midi": 83,
          "time": 117.42845399999965,
          "velocity": 0.8661417322834646,
          "duration": 0.3571424999999948
        },
        {
          "name": "E5",
          "midi": 76,
          "time": 119.14273799999964,
          "velocity": 0.8661417322834646,
          "duration": 0.3571424999999948
        },
        {
          "name": "B5",
          "midi": 83,
          "time": 119.14273799999964,
          "velocity": 0.8661417322834646,
          "duration": 0.3571424999999948
        },
        {
          "name": "B4",
          "midi": 71,
          "time": 119.57130899999963,
          "velocity": 0.8661417322834646,
          "duration": 0.20982121874999393
        },
        {
          "name": "B4",
          "midi": 71,
          "time": 119.78559449999962,
          "velocity": 0.8661417322834646,
          "duration": 0.5714279999999974
        },
        {
          "name": "G5",
          "midi": 79,
          "time": 120.85702199999962,
          "velocity": 0.8661417322834646,
          "duration": 0.3571424999999948
        },
        {
          "name": "D6",
          "midi": 86,
          "time": 120.85702199999962,
          "velocity": 0.8661417322834646,
          "duration": 0.3571424999999948
        },
        {
          "name": "G5",
          "midi": 79,
          "time": 122.3570204999996,
          "velocity": 0.8661417322834646,
          "duration": 0.20982121874999393
        },
        {
          "name": "C6",
          "midi": 84,
          "time": 122.3570204999996,
          "velocity": 0.8661417322834646,
          "duration": 0.20982121874999393
        },
        {
          "name": "G5",
          "midi": 79,
          "time": 122.5713059999996,
          "velocity": 0.8661417322834646,
          "duration": 0.10267846874999975
        },
        {
          "name": "A#5",
          "midi": 82,
          "time": 122.5713059999996,
          "velocity": 0.8661417322834646,
          "duration": 0.10267846874999975
        },
        {
          "name": "A5",
          "midi": 81,
          "time": 122.67844874999959,
          "velocity": 0.8661417322834646,
          "duration": 0.10267846874999975
        },
        {
          "name": "G5",
          "midi": 79,
          "time": 122.78559149999958,
          "velocity": 0.8661417322834646,
          "duration": 0.20982121874999393
        },
        {
          "name": "G5",
          "midi": 79,
          "time": 124.28558999999957,
          "velocity": 0.8661417322834646,
          "duration": 0.3571424999999948
        },
        {
          "name": "C6",
          "midi": 84,
          "time": 124.28558999999957,
          "velocity": 0.8661417322834646,
          "duration": 0.3571424999999948
        },
        {
          "name": "A5",
          "midi": 81,
          "time": 125.78558849999956,
          "velocity": 0.8661417322834646,
          "duration": 0.20982121874999393
        },
        {
          "name": "A5",
          "midi": 81,
          "time": 125.99987399999955,
          "velocity": 0.8661417322834646,
          "duration": 0.10267846874999975
        },
        {
          "name": "A5",
          "midi": 81,
          "time": 126.10701674999954,
          "velocity": 0.8661417322834646,
          "duration": 0.3169639687500023
        },
        {
          "name": "G5",
          "midi": 79,
          "time": 127.71415799999954,
          "velocity": 0.8661417322834646,
          "duration": 0.357142500000009
        },
        {
          "name": "D6",
          "midi": 86,
          "time": 127.71415799999954,
          "velocity": 0.8661417322834646,
          "duration": 0.357142500000009
        },
        {
          "name": "G5",
          "midi": 79,
          "time": 129.21415649999955,
          "velocity": 0.8661417322834646,
          "duration": 0.20982121874999393
        },
        {
          "name": "C6",
          "midi": 84,
          "time": 129.21415649999955,
          "velocity": 0.8661417322834646,
          "duration": 0.20982121874999393
        },
        {
          "name": "G5",
          "midi": 79,
          "time": 129.42844199999954,
          "velocity": 0.8661417322834646,
          "duration": 0.10267846875001396
        },
        {
          "name": "A#5",
          "midi": 82,
          "time": 129.42844199999954,
          "velocity": 0.8661417322834646,
          "duration": 0.10267846875001396
        },
        {
          "name": "A5",
          "midi": 81,
          "time": 129.53558474999954,
          "velocity": 0.8661417322834646,
          "duration": 0.10267846875001396
        },
        {
          "name": "G5",
          "midi": 79,
          "time": 129.64272749999955,
          "velocity": 0.8661417322834646,
          "duration": 0.20982121874999393
        },
        {
          "name": "D#5",
          "midi": 75,
          "time": 131.57129699999953,
          "velocity": 0.8661417322834646,
          "duration": 0.357142500000009
        },
        {
          "name": "F#5",
          "midi": 78,
          "time": 131.57129699999953,
          "velocity": 0.8661417322834646,
          "duration": 0.357142500000009
        },
        {
          "name": "D#5",
          "midi": 75,
          "time": 132.85700999999955,
          "velocity": 0.8661417322834646,
          "duration": 0.357142500000009
        },
        {
          "name": "G5",
          "midi": 79,
          "time": 132.85700999999955,
          "velocity": 0.8661417322834646,
          "duration": 0.357142500000009
        },
        {
          "name": "A#4",
          "midi": 70,
          "time": 134.14272299999956,
          "velocity": 0.8661417322834646,
          "duration": 0.20982121874999393
        },
        {
          "name": "C5",
          "midi": 72,
          "time": 134.35700849999955,
          "velocity": 0.8661417322834646,
          "duration": 0.20982121874999393
        },
        {
          "name": "A#4",
          "midi": 70,
          "time": 134.57129399999954,
          "velocity": 0.8661417322834646,
          "duration": 0.10267846875001396
        },
        {
          "name": "A4",
          "midi": 69,
          "time": 134.67843674999955,
          "velocity": 0.8661417322834646,
          "duration": 0.10267846875001396
        },
        {
          "name": "G4",
          "midi": 67,
          "time": 134.78557949999956,
          "velocity": 0.8661417322834646,
          "duration": 0.20982121874999393
        },
        {
          "name": "A#4",
          "midi": 70,
          "time": 134.99986499999955,
          "velocity": 0.8661417322834646,
          "duration": 0.20982121874999393
        },
        {
          "name": "C5",
          "midi": 72,
          "time": 135.21415049999953,
          "velocity": 0.8661417322834646,
          "duration": 0.20982121874999393
        },
        {
          "name": "A#4",
          "midi": 70,
          "time": 135.42843599999952,
          "velocity": 0.8661417322834646,
          "duration": 0.10267846875001396
        },
        {
          "name": "A4",
          "midi": 69,
          "time": 135.53557874999953,
          "velocity": 0.8661417322834646,
          "duration": 0.10267846875001396
        },
        {
          "name": "G4",
          "midi": 67,
          "time": 135.64272149999954,
          "velocity": 0.8661417322834646,
          "duration": 0.20982121874999393
        },
        {
          "name": "A#4",
          "midi": 70,
          "time": 135.85700699999953,
          "velocity": 0.8661417322834646,
          "duration": 0.20982121874999393
        },
        {
          "name": "C5",
          "midi": 72,
          "time": 136.07129249999952,
          "velocity": 0.8661417322834646,
          "duration": 0.20982121874999393
        },
        {
          "name": "A#4",
          "midi": 70,
          "time": 136.2855779999995,
          "velocity": 0.8661417322834646,
          "duration": 0.10267846875001396
        },
        {
          "name": "A4",
          "midi": 69,
          "time": 136.3927207499995,
          "velocity": 0.8661417322834646,
          "duration": 0.10267846875001396
        },
        {
          "name": "G4",
          "midi": 67,
          "time": 136.49986349999952,
          "velocity": 0.8661417322834646,
          "duration": 0.20982121874999393
        },
        {
          "name": "A#4",
          "midi": 70,
          "time": 136.7141489999995,
          "velocity": 0.8661417322834646,
          "duration": 0.20982121874999393
        },
        {
          "name": "C5",
          "midi": 72,
          "time": 136.9284344999995,
          "velocity": 0.8661417322834646,
          "duration": 0.20982121874999393
        },
        {
          "name": "A#4",
          "midi": 70,
          "time": 137.14271999999949,
          "velocity": 0.8661417322834646,
          "duration": 0.10267846875001396
        },
        {
          "name": "A4",
          "midi": 69,
          "time": 137.2498627499995,
          "velocity": 0.8661417322834646,
          "duration": 0.10267846875001396
        },
        {
          "name": "G4",
          "midi": 67,
          "time": 137.3570054999995,
          "velocity": 0.8661417322834646,
          "duration": 0.20982121874999393
        },
        {
          "name": "A#4",
          "midi": 70,
          "time": 137.5712909999995,
          "velocity": 0.8661417322834646,
          "duration": 0.20982121874999393
        },
        {
          "name": "A#5",
          "midi": 82,
          "time": 137.5712909999995,
          "velocity": 0.8661417322834646,
          "duration": 0.20982121874999393
        },
        {
          "name": "C5",
          "midi": 72,
          "time": 137.78557649999948,
          "velocity": 0.8661417322834646,
          "duration": 0.20982121874999393
        },
        {
          "name": "C6",
          "midi": 84,
          "time": 137.78557649999948,
          "velocity": 0.8661417322834646,
          "duration": 0.20982121874999393
        },
        {
          "name": "A#4",
          "midi": 70,
          "time": 137.99986199999947,
          "velocity": 0.8661417322834646,
          "duration": 0.10267846875001396
        },
        {
          "name": "A#5",
          "midi": 82,
          "time": 137.99986199999947,
          "velocity": 0.8661417322834646,
          "duration": 0.10267846875001396
        },
        {
          "name": "A4",
          "midi": 69,
          "time": 138.10700474999948,
          "velocity": 0.8661417322834646,
          "duration": 0.10267846875001396
        },
        {
          "name": "A5",
          "midi": 81,
          "time": 138.10700474999948,
          "velocity": 0.8661417322834646,
          "duration": 0.10267846875001396
        },
        {
          "name": "G4",
          "midi": 67,
          "time": 138.21414749999948,
          "velocity": 0.8661417322834646,
          "duration": 0.20982121874999393
        },
        {
          "name": "G5",
          "midi": 79,
          "time": 138.21414749999948,
          "velocity": 0.8661417322834646,
          "duration": 0.20982121874999393
        },
        {
          "name": "A#4",
          "midi": 70,
          "time": 138.42843299999947,
          "velocity": 0.8661417322834646,
          "duration": 0.20982121874999393
        },
        {
          "name": "A#5",
          "midi": 82,
          "time": 138.42843299999947,
          "velocity": 0.8661417322834646,
          "duration": 0.20982121874999393
        },
        {
          "name": "C5",
          "midi": 72,
          "time": 138.64271849999946,
          "velocity": 0.8661417322834646,
          "duration": 0.20982121874999393
        },
        {
          "name": "C6",
          "midi": 84,
          "time": 138.64271849999946,
          "velocity": 0.8661417322834646,
          "duration": 0.20982121874999393
        },
        {
          "name": "A#4",
          "midi": 70,
          "time": 138.85700399999945,
          "velocity": 0.8661417322834646,
          "duration": 0.10267846875001396
        },
        {
          "name": "A#5",
          "midi": 82,
          "time": 138.85700399999945,
          "velocity": 0.8661417322834646,
          "duration": 0.10267846875001396
        },
        {
          "name": "A4",
          "midi": 69,
          "time": 138.96414674999946,
          "velocity": 0.8661417322834646,
          "duration": 0.10267846875001396
        },
        {
          "name": "A5",
          "midi": 81,
          "time": 138.96414674999946,
          "velocity": 0.8661417322834646,
          "duration": 0.10267846875001396
        },
        {
          "name": "G4",
          "midi": 67,
          "time": 139.07128949999947,
          "velocity": 0.8661417322834646,
          "duration": 0.20982121874999393
        },
        {
          "name": "G5",
          "midi": 79,
          "time": 139.07128949999947,
          "velocity": 0.8661417322834646,
          "duration": 0.20982121874999393
        },
        {
          "name": "A#4",
          "midi": 70,
          "time": 139.28557499999945,
          "velocity": 0.8661417322834646,
          "duration": 0.20982121874999393
        },
        {
          "name": "A#5",
          "midi": 82,
          "time": 139.28557499999945,
          "velocity": 0.8661417322834646,
          "duration": 0.20982121874999393
        },
        {
          "name": "C5",
          "midi": 72,
          "time": 139.49986049999944,
          "velocity": 0.8661417322834646,
          "duration": 0.20982121874999393
        },
        {
          "name": "C6",
          "midi": 84,
          "time": 139.49986049999944,
          "velocity": 0.8661417322834646,
          "duration": 0.20982121874999393
        },
        {
          "name": "A#4",
          "midi": 70,
          "time": 139.71414599999943,
          "velocity": 0.8661417322834646,
          "duration": 0.10267846875001396
        },
        {
          "name": "A#5",
          "midi": 82,
          "time": 139.71414599999943,
          "velocity": 0.8661417322834646,
          "duration": 0.10267846875001396
        },
        {
          "name": "A4",
          "midi": 69,
          "time": 139.82128874999944,
          "velocity": 0.8661417322834646,
          "duration": 0.10267846875001396
        },
        {
          "name": "A5",
          "midi": 81,
          "time": 139.82128874999944,
          "velocity": 0.8661417322834646,
          "duration": 0.10267846875001396
        },
        {
          "name": "G4",
          "midi": 67,
          "time": 139.92843149999945,
          "velocity": 0.8661417322834646,
          "duration": 0.20982121874999393
        },
        {
          "name": "G5",
          "midi": 79,
          "time": 139.92843149999945,
          "velocity": 0.8661417322834646,
          "duration": 0.20982121874999393
        },
        {
          "name": "A#4",
          "midi": 70,
          "time": 140.14271699999944,
          "velocity": 0.8661417322834646,
          "duration": 0.20982121874999393
        },
        {
          "name": "A#5",
          "midi": 82,
          "time": 140.14271699999944,
          "velocity": 0.8661417322834646,
          "duration": 0.20982121874999393
        },
        {
          "name": "C5",
          "midi": 72,
          "time": 140.35700249999942,
          "velocity": 0.8661417322834646,
          "duration": 0.20982121874999393
        },
        {
          "name": "C6",
          "midi": 84,
          "time": 140.35700249999942,
          "velocity": 0.8661417322834646,
          "duration": 0.20982121874999393
        },
        {
          "name": "A#4",
          "midi": 70,
          "time": 140.5712879999994,
          "velocity": 0.8661417322834646,
          "duration": 0.10267846875001396
        },
        {
          "name": "A#5",
          "midi": 82,
          "time": 140.5712879999994,
          "velocity": 0.8661417322834646,
          "duration": 0.10267846875001396
        },
        {
          "name": "A4",
          "midi": 69,
          "time": 140.67843074999942,
          "velocity": 0.8661417322834646,
          "duration": 0.10267846875001396
        },
        {
          "name": "A5",
          "midi": 81,
          "time": 140.67843074999942,
          "velocity": 0.8661417322834646,
          "duration": 0.10267846875001396
        },
        {
          "name": "G4",
          "midi": 67,
          "time": 140.78557349999943,
          "velocity": 0.8661417322834646,
          "duration": 0.20982121874999393
        },
        {
          "name": "G5",
          "midi": 79,
          "time": 140.78557349999943,
          "velocity": 0.8661417322834646,
          "duration": 0.20982121874999393
        },
        {
          "name": "B4",
          "midi": 71,
          "time": 161.99983799999941,
          "velocity": 0.8661417322834646,
          "duration": 0.20982121874999393
        },
        {
          "name": "D#5",
          "midi": 75,
          "time": 161.99983799999941,
          "velocity": 0.8661417322834646,
          "duration": 0.20982121874999393
        },
        {
          "name": "E5",
          "midi": 76,
          "time": 162.2141234999994,
          "velocity": 0.8661417322834646,
          "duration": 0.20982121874999393
        },
        {
          "name": "F#5",
          "midi": 78,
          "time": 162.4284089999994,
          "velocity": 0.8661417322834646,
          "duration": 0.357142500000009
        },
        {
          "name": "G5",
          "midi": 79,
          "time": 162.8569799999994,
          "velocity": 0.8661417322834646,
          "duration": 0.357142500000009
        },
        {
          "name": "A4",
          "midi": 69,
          "time": 163.2855509999994,
          "velocity": 0.8661417322834646,
          "duration": 0.357142500000009
        },
        {
          "name": "C5",
          "midi": 72,
          "time": 163.7141219999994,
          "velocity": 0.8661417322834646,
          "duration": 0.357142500000009
        },
        {
          "name": "A5",
          "midi": 81,
          "time": 163.7141219999994,
          "velocity": 0.8661417322834646,
          "duration": 0.357142500000009
        },
        {
          "name": "G5",
          "midi": 79,
          "time": 164.1426929999994,
          "velocity": 0.8661417322834646,
          "duration": 0.20982121874999393
        },
        {
          "name": "F#5",
          "midi": 78,
          "time": 164.3569784999994,
          "velocity": 0.8661417322834646,
          "duration": 0.20982121874999393
        },
        {
          "name": "E5",
          "midi": 76,
          "time": 164.5712639999994,
          "velocity": 0.8661417322834646,
          "duration": 0.357142500000009
        },
        {
          "name": "G4",
          "midi": 67,
          "time": 164.9998349999994,
          "velocity": 0.8661417322834646,
          "duration": 0.20982121874999393
        },
        {
          "name": "B4",
          "midi": 71,
          "time": 164.9998349999994,
          "velocity": 0.8661417322834646,
          "duration": 0.20982121874999393
        },
        {
          "name": "G4",
          "midi": 67,
          "time": 165.21412049999938,
          "velocity": 0.8661417322834646,
          "duration": 1.3928557499999954
        },
        {
          "name": "B4",
          "midi": 71,
          "time": 165.21412049999938,
          "velocity": 0.8661417322834646,
          "duration": 1.3928557499999954
        },
        {
          "name": "G4",
          "midi": 67,
          "time": 166.71411899999939,
          "velocity": 0.8661417322834646,
          "duration": 1.6026769687499893
        },
        {
          "name": "C5",
          "midi": 72,
          "time": 166.71411899999939,
          "velocity": 0.8661417322834646,
          "duration": 1.6026769687499893
        },
        {
          "name": "G4",
          "midi": 67,
          "time": 168.32126024999937,
          "velocity": 0.8661417322834646,
          "duration": 0.10267846875001396
        },
        {
          "name": "B4",
          "midi": 71,
          "time": 168.32126024999937,
          "velocity": 0.8661417322834646,
          "duration": 0.10267846875001396
        },
        {
          "name": "A4",
          "midi": 69,
          "time": 168.42840299999938,
          "velocity": 0.8661417322834646,
          "duration": 1.6071412500000122
        },
        {
          "name": "D5",
          "midi": 74,
          "time": 168.42840299999938,
          "velocity": 0.8661417322834646,
          "duration": 1.6071412500000122
        },
        {
          "name": "A4",
          "midi": 69,
          "time": 170.1426869999994,
          "velocity": 0.8661417322834646,
          "duration": 0.20982121874999393
        },
        {
          "name": "D5",
          "midi": 74,
          "time": 170.1426869999994,
          "velocity": 0.8661417322834646,
          "duration": 0.20982121874999393
        },
        {
          "name": "G4",
          "midi": 67,
          "time": 170.3569724999994,
          "velocity": 0.8661417322834646,
          "duration": 1.3928557499999954
        },
        {
          "name": "C5",
          "midi": 72,
          "time": 170.3569724999994,
          "velocity": 0.8661417322834646,
          "duration": 1.3928557499999954
        },
        {
          "name": "B4",
          "midi": 71,
          "time": 171.8569709999994,
          "velocity": 0.8661417322834646,
          "duration": 1.6026769687499893
        },
        {
          "name": "F#5",
          "midi": 78,
          "time": 171.8569709999994,
          "velocity": 0.8661417322834646,
          "duration": 1.6026769687499893
        },
        {
          "name": "B4",
          "midi": 71,
          "time": 173.46411224999937,
          "velocity": 0.8661417322834646,
          "duration": 0.10267846875001396
        },
        {
          "name": "F#5",
          "midi": 78,
          "time": 173.46411224999937,
          "velocity": 0.8661417322834646,
          "duration": 0.10267846875001396
        },
        {
          "name": "C5",
          "midi": 72,
          "time": 173.57125499999938,
          "velocity": 0.8661417322834646,
          "duration": 1.6071412500000122
        },
        {
          "name": "G5",
          "midi": 79,
          "time": 173.57125499999938,
          "velocity": 0.8661417322834646,
          "duration": 1.6071412500000122
        },
        {
          "name": "C5",
          "midi": 72,
          "time": 175.2855389999994,
          "velocity": 0.8661417322834646,
          "duration": 0.20982121874999393
        },
        {
          "name": "G5",
          "midi": 79,
          "time": 175.2855389999994,
          "velocity": 0.8661417322834646,
          "duration": 0.20982121874999393
        },
        {
          "name": "D5",
          "midi": 74,
          "time": 175.4998244999994,
          "velocity": 0.8661417322834646,
          "duration": 1.3928557499999954
        },
        {
          "name": "A5",
          "midi": 81,
          "time": 175.4998244999994,
          "velocity": 0.8661417322834646,
          "duration": 1.3928557499999954
        },
        {
          "name": "D#5",
          "midi": 75,
          "time": 176.9998229999994,
          "velocity": 0.8661417322834646,
          "duration": 1.6071412500000122
        },
        {
          "name": "F#5",
          "midi": 78,
          "time": 176.9998229999994,
          "velocity": 0.8661417322834646,
          "duration": 1.6071412500000122
        },
        {
          "name": "G5",
          "midi": 79,
          "time": 178.71410699999942,
          "velocity": 0.8661417322834646,
          "duration": 0.20982121874999393
        },
        {
          "name": "G5",
          "midi": 79,
          "time": 178.9283924999994,
          "velocity": 0.8661417322834646,
          "duration": 0.20982121874999393
        },
        {
          "name": "G5",
          "midi": 79,
          "time": 179.5712489999994,
          "velocity": 0.8661417322834646,
          "duration": 0.20982121874999393
        },
        {
          "name": "G5",
          "midi": 79,
          "time": 179.7855344999994,
          "velocity": 0.8661417322834646,
          "duration": 0.20982121874999393
        },
        {
          "name": "G5",
          "midi": 79,
          "time": 180.42839099999938,
          "velocity": 0.8661417322834646,
          "duration": 0.20982121874999393
        },
        {
          "name": "G5",
          "midi": 79,
          "time": 180.64267649999937,
          "velocity": 0.8661417322834646,
          "duration": 0.20982121874999393
        },
        {
          "name": "A5",
          "midi": 81,
          "time": 181.28553299999936,
          "velocity": 0.8661417322834646,
          "duration": 0.20982121874999393
        },
        {
          "name": "F#5",
          "midi": 78,
          "time": 181.49981849999935,
          "velocity": 0.8661417322834646,
          "duration": 0.20982121874999393
        },
        {
          "name": "G5",
          "midi": 79,
          "time": 182.14267499999934,
          "velocity": 0.8661417322834646,
          "duration": 0.20982121874999393
        },
        {
          "name": "G5",
          "midi": 79,
          "time": 182.35696049999933,
          "velocity": 0.8661417322834646,
          "duration": 0.20982121874999393
        },
        {
          "name": "G5",
          "midi": 79,
          "time": 182.99981699999933,
          "velocity": 0.8661417322834646,
          "duration": 0.20982121874999393
        },
        {
          "name": "G5",
          "midi": 79,
          "time": 183.2141024999993,
          "velocity": 0.8661417322834646,
          "duration": 0.20982121874999393
        },
        {
          "name": "G5",
          "midi": 79,
          "time": 183.8569589999993,
          "velocity": 0.8661417322834646,
          "duration": 0.20982121874999393
        },
        {
          "name": "G5",
          "midi": 79,
          "time": 184.0712444999993,
          "velocity": 0.8661417322834646,
          "duration": 0.20982121874999393
        },
        {
          "name": "A5",
          "midi": 81,
          "time": 184.7141009999993,
          "velocity": 0.8661417322834646,
          "duration": 0.20982121874999393
        },
        {
          "name": "F#5",
          "midi": 78,
          "time": 184.92838649999928,
          "velocity": 0.8661417322834646,
          "duration": 0.20982121874999393
        },
        {
          "name": "C6",
          "midi": 84,
          "time": 187.92838349999928,
          "velocity": 0.8661417322834646,
          "duration": 0.20982121874999393
        },
        {
          "name": "A#5",
          "midi": 82,
          "time": 188.14266899999927,
          "velocity": 0.8661417322834646,
          "duration": 0.10267846875001396
        },
        {
          "name": "A5",
          "midi": 81,
          "time": 188.24981174999928,
          "velocity": 0.8661417322834646,
          "duration": 0.10267846875001396
        },
        {
          "name": "G5",
          "midi": 79,
          "time": 188.3569544999993,
          "velocity": 0.8661417322834646,
          "duration": 0.20982121874999393
        },
        {
          "name": "C5",
          "midi": 72,
          "time": 191.3569514999993,
          "velocity": 0.8661417322834646,
          "duration": 0.20982121874999393
        },
        {
          "name": "G5",
          "midi": 79,
          "time": 191.3569514999993,
          "velocity": 0.8661417322834646,
          "duration": 0.20982121874999393
        },
        {
          "name": "C5",
          "midi": 72,
          "time": 191.5712369999993,
          "velocity": 0.8661417322834646,
          "duration": 0.357142500000009
        },
        {
          "name": "G5",
          "midi": 79,
          "time": 191.5712369999993,
          "velocity": 0.8661417322834646,
          "duration": 0.357142500000009
        },
        {
          "name": "G5",
          "midi": 79,
          "time": 194.78551949999928,
          "velocity": 0.8661417322834646,
          "duration": 0.20982121874999393
        },
        {
          "name": "C6",
          "midi": 84,
          "time": 194.78551949999928,
          "velocity": 0.8661417322834646,
          "duration": 0.20982121874999393
        },
        {
          "name": "G5",
          "midi": 79,
          "time": 194.99980499999927,
          "velocity": 0.8661417322834646,
          "duration": 0.10267846875001396
        },
        {
          "name": "A#5",
          "midi": 82,
          "time": 194.99980499999927,
          "velocity": 0.8661417322834646,
          "duration": 0.10267846875001396
        },
        {
          "name": "A5",
          "midi": 81,
          "time": 195.10694774999928,
          "velocity": 0.8661417322834646,
          "duration": 0.10267846875001396
        },
        {
          "name": "G5",
          "midi": 79,
          "time": 195.2140904999993,
          "velocity": 0.8661417322834646,
          "duration": 0.20982121874999393
        },
        {
          "name": "D#5",
          "midi": 75,
          "time": 198.8569439999993,
          "velocity": 0.8661417322834646,
          "duration": 0.10267846875001396
        },
        {
          "name": "F#5",
          "midi": 78,
          "time": 198.8569439999993,
          "velocity": 0.8661417322834646,
          "duration": 0.10267846875001396
        },
        {
          "name": "D#5",
          "midi": 75,
          "time": 198.9640867499993,
          "velocity": 0.8661417322834646,
          "duration": 0.10267846875001396
        },
        {
          "name": "F#5",
          "midi": 78,
          "time": 198.9640867499993,
          "velocity": 0.8661417322834646,
          "duration": 0.10267846875001396
        },
        {
          "name": "D#5",
          "midi": 75,
          "time": 199.0712294999993,
          "velocity": 0.8661417322834646,
          "duration": 0.20982121874999393
        },
        {
          "name": "F#5",
          "midi": 78,
          "time": 199.0712294999993,
          "velocity": 0.8661417322834646,
          "duration": 0.20982121874999393
        },
        {
          "name": "G5",
          "midi": 79,
          "time": 199.7140859999993,
          "velocity": 0.8661417322834646,
          "duration": 0.357142500000009
        },
        {
          "name": "G5",
          "midi": 79,
          "time": 200.5712279999993,
          "velocity": 0.8661417322834646,
          "duration": 0.357142500000009
        },
        {
          "name": "G5",
          "midi": 79,
          "time": 201.42836999999932,
          "velocity": 0.8661417322834646,
          "duration": 0.357142500000009
        },
        {
          "name": "A5",
          "midi": 81,
          "time": 202.28551199999933,
          "velocity": 0.8661417322834646,
          "duration": 0.10267846875001396
        },
        {
          "name": "G5",
          "midi": 79,
          "time": 202.39265474999934,
          "velocity": 0.8661417322834646,
          "duration": 0.10267846875001396
        },
        {
          "name": "F#5",
          "midi": 78,
          "time": 202.49979749999935,
          "velocity": 0.8661417322834646,
          "duration": 0.20982121874999393
        },
        {
          "name": "G5",
          "midi": 79,
          "time": 203.14265399999934,
          "velocity": 0.8661417322834646,
          "duration": 0.357142500000009
        },
        {
          "name": "G5",
          "midi": 79,
          "time": 203.99979599999935,
          "velocity": 0.8661417322834646,
          "duration": 0.357142500000009
        },
        {
          "name": "G5",
          "midi": 79,
          "time": 204.85693799999936,
          "velocity": 0.8661417322834646,
          "duration": 0.357142500000009
        },
        {
          "name": "A5",
          "midi": 81,
          "time": 205.71407999999937,
          "velocity": 0.8661417322834646,
          "duration": 0.10267846875001396
        },
        {
          "name": "G5",
          "midi": 79,
          "time": 205.82122274999938,
          "velocity": 0.8661417322834646,
          "duration": 0.10267846875001396
        },
        {
          "name": "F#5",
          "midi": 78,
          "time": 205.9283654999994,
          "velocity": 0.8661417322834646,
          "duration": 0.20982121874999393
        },
        {
          "name": "A#4",
          "midi": 70,
          "time": 206.14265099999938,
          "velocity": 0.8661417322834646,
          "duration": 0.20982121874999393
        },
        {
          "name": "C5",
          "midi": 72,
          "time": 206.35693649999936,
          "velocity": 0.8661417322834646,
          "duration": 0.20982121874999393
        },
        {
          "name": "A#4",
          "midi": 70,
          "time": 206.57122199999935,
          "velocity": 0.8661417322834646,
          "duration": 0.10267846875001396
        },
        {
          "name": "A4",
          "midi": 69,
          "time": 206.67836474999936,
          "velocity": 0.8661417322834646,
          "duration": 0.10267846875001396
        },
        {
          "name": "G4",
          "midi": 67,
          "time": 206.78550749999937,
          "velocity": 0.8661417322834646,
          "duration": 0.20982121874999393
        },
        {
          "name": "A#4",
          "midi": 70,
          "time": 206.99979299999936,
          "velocity": 0.8661417322834646,
          "duration": 0.20982121874999393
        },
        {
          "name": "C5",
          "midi": 72,
          "time": 207.21407849999935,
          "velocity": 0.8661417322834646,
          "duration": 0.20982121874999393
        },
        {
          "name": "A#4",
          "midi": 70,
          "time": 207.42836399999933,
          "velocity": 0.8661417322834646,
          "duration": 0.10267846875001396
        },
        {
          "name": "A4",
          "midi": 69,
          "time": 207.53550674999934,
          "velocity": 0.8661417322834646,
          "duration": 0.10267846875001396
        },
        {
          "name": "G4",
          "midi": 67,
          "time": 207.64264949999935,
          "velocity": 0.8661417322834646,
          "duration": 0.20982121874999393
        },
        {
          "name": "A#4",
          "midi": 70,
          "time": 207.85693499999934,
          "velocity": 0.8661417322834646,
          "duration": 0.20982121874999393
        },
        {
          "name": "C5",
          "midi": 72,
          "time": 208.07122049999933,
          "velocity": 0.8661417322834646,
          "duration": 0.20982121874999393
        },
        {
          "name": "A#4",
          "midi": 70,
          "time": 208.28550599999932,
          "velocity": 0.8661417322834646,
          "duration": 0.10267846875001396
        },
        {
          "name": "A4",
          "midi": 69,
          "time": 208.39264874999932,
          "velocity": 0.8661417322834646,
          "duration": 0.10267846875001396
        },
        {
          "name": "G4",
          "midi": 67,
          "time": 208.49979149999933,
          "velocity": 0.8661417322834646,
          "duration": 0.20982121874999393
        },
        {
          "name": "A#4",
          "midi": 70,
          "time": 208.71407699999932,
          "velocity": 0.8661417322834646,
          "duration": 0.20982121874999393
        },
        {
          "name": "C5",
          "midi": 72,
          "time": 208.9283624999993,
          "velocity": 0.8661417322834646,
          "duration": 0.20982121874999393
        },
        {
          "name": "A#4",
          "midi": 70,
          "time": 209.1426479999993,
          "velocity": 0.8661417322834646,
          "duration": 0.10267846875001396
        },
        {
          "name": "A4",
          "midi": 69,
          "time": 209.2497907499993,
          "velocity": 0.8661417322834646,
          "duration": 0.10267846875001396
        },
        {
          "name": "G4",
          "midi": 67,
          "time": 209.35693349999931,
          "velocity": 0.8661417322834646,
          "duration": 0.20982121874999393
        },
        {
          "name": "A#5",
          "midi": 82,
          "time": 209.5712189999993,
          "velocity": 0.8661417322834646,
          "duration": 0.20982121874999393
        },
        {
          "name": "C6",
          "midi": 84,
          "time": 209.7855044999993,
          "velocity": 0.8661417322834646,
          "duration": 0.20982121874999393
        },
        {
          "name": "A#5",
          "midi": 82,
          "time": 209.99978999999928,
          "velocity": 0.8661417322834646,
          "duration": 0.10267846875001396
        },
        {
          "name": "A5",
          "midi": 81,
          "time": 210.1069327499993,
          "velocity": 0.8661417322834646,
          "duration": 0.10267846875001396
        },
        {
          "name": "G5",
          "midi": 79,
          "time": 210.2140754999993,
          "velocity": 0.8661417322834646,
          "duration": 0.20982121874999393
        },
        {
          "name": "A#5",
          "midi": 82,
          "time": 210.42836099999928,
          "velocity": 0.8661417322834646,
          "duration": 0.20982121874999393
        },
        {
          "name": "C6",
          "midi": 84,
          "time": 210.64264649999927,
          "velocity": 0.8661417322834646,
          "duration": 0.20982121874999393
        },
        {
          "name": "A#5",
          "midi": 82,
          "time": 210.85693199999926,
          "velocity": 0.8661417322834646,
          "duration": 0.10267846875001396
        },
        {
          "name": "A5",
          "midi": 81,
          "time": 210.96407474999927,
          "velocity": 0.8661417322834646,
          "duration": 0.10267846875001396
        },
        {
          "name": "G5",
          "midi": 79,
          "time": 211.07121749999928,
          "velocity": 0.8661417322834646,
          "duration": 0.20982121874999393
        },
        {
          "name": "A#5",
          "midi": 82,
          "time": 211.28550299999927,
          "velocity": 0.8661417322834646,
          "duration": 0.20982121874999393
        },
        {
          "name": "C6",
          "midi": 84,
          "time": 211.49978849999926,
          "velocity": 0.8661417322834646,
          "duration": 0.20982121874999393
        },
        {
          "name": "A#5",
          "midi": 82,
          "time": 211.71407399999924,
          "velocity": 0.8661417322834646,
          "duration": 0.10267846875001396
        },
        {
          "name": "A5",
          "midi": 81,
          "time": 211.82121674999925,
          "velocity": 0.8661417322834646,
          "duration": 0.10267846875001396
        },
        {
          "name": "G5",
          "midi": 79,
          "time": 211.92835949999926,
          "velocity": 0.8661417322834646,
          "duration": 0.20982121874999393
        },
        {
          "name": "A#5",
          "midi": 82,
          "time": 212.14264499999925,
          "velocity": 0.8661417322834646,
          "duration": 0.20982121874999393
        },
        {
          "name": "C6",
          "midi": 84,
          "time": 212.35693049999924,
          "velocity": 0.8661417322834646,
          "duration": 0.20982121874999393
        },
        {
          "name": "A#5",
          "midi": 82,
          "time": 212.57121599999923,
          "velocity": 0.8661417322834646,
          "duration": 0.10267846875001396
        },
        {
          "name": "A5",
          "midi": 81,
          "time": 212.67835874999923,
          "velocity": 0.8661417322834646,
          "duration": 0.10267846875001396
        },
        {
          "name": "G5",
          "midi": 79,
          "time": 212.78550149999924,
          "velocity": 0.8661417322834646,
          "duration": 0.20982121874999393
        },
        {
          "name": "A#4",
          "midi": 70,
          "time": 212.99978699999923,
          "velocity": 0.8661417322834646,
          "duration": 1.178570250000007
        },
        {
          "name": "D#4",
          "midi": 63,
          "time": 222.42834899999923,
          "velocity": 0.8661417322834646,
          "duration": 0.357142500000009
        },
        {
          "name": "F#4",
          "midi": 66,
          "time": 222.42834899999923,
          "velocity": 0.8661417322834646,
          "duration": 0.357142500000009
        },
        {
          "name": "D#4",
          "midi": 63,
          "time": 222.85691999999923,
          "velocity": 0.8661417322834646,
          "duration": 0.357142500000009
        },
        {
          "name": "G4",
          "midi": 67,
          "time": 222.85691999999923,
          "velocity": 0.8661417322834646,
          "duration": 0.357142500000009
        },
        {
          "name": "A#4",
          "midi": 70,
          "time": 223.28549099999924,
          "velocity": 0.8661417322834646,
          "duration": 0.15624984375000395
        },
        {
          "name": "A#4",
          "midi": 70,
          "time": 223.44620512499924,
          "velocity": 0.8661417322834646,
          "duration": 0.15624984375000395
        },
        {
          "name": "A#4",
          "midi": 70,
          "time": 223.60691924999924,
          "velocity": 0.8661417322834646,
          "duration": 0.10267846875001396
        },
        {
          "name": "A#4",
          "midi": 70,
          "time": 223.71406199999925,
          "velocity": 0.8661417322834646,
          "duration": 0.15624984375000395
        },
        {
          "name": "A#4",
          "midi": 70,
          "time": 223.87477612499924,
          "velocity": 0.8661417322834646,
          "duration": 0.15624984375000395
        },
        {
          "name": "A#4",
          "midi": 70,
          "time": 224.03549024999924,
          "velocity": 0.8661417322834646,
          "duration": 0.10267846875001396
        },
        {
          "name": "A#4",
          "midi": 70,
          "time": 224.14263299999925,
          "velocity": 0.8661417322834646,
          "duration": 0.15624984375000395
        },
        {
          "name": "F#5",
          "midi": 78,
          "time": 224.14263299999925,
          "velocity": 0.8661417322834646,
          "duration": 0.15624984375000395
        },
        {
          "name": "A#4",
          "midi": 70,
          "time": 224.30334712499925,
          "velocity": 0.8661417322834646,
          "duration": 0.15624984375000395
        },
        {
          "name": "A#4",
          "midi": 70,
          "time": 224.46406124999925,
          "velocity": 0.8661417322834646,
          "duration": 0.10267846875001396
        },
        {
          "name": "A#4",
          "midi": 70,
          "time": 224.57120399999926,
          "velocity": 0.8661417322834646,
          "duration": 0.15624984375000395
        },
        {
          "name": "A#4",
          "midi": 70,
          "time": 224.73191812499925,
          "velocity": 0.8661417322834646,
          "duration": 0.15624984375000395
        },
        {
          "name": "A#4",
          "midi": 70,
          "time": 224.89263224999925,
          "velocity": 0.8661417322834646,
          "duration": 0.10267846875001396
        },
        {
          "name": "B4",
          "midi": 71,
          "time": 224.99977499999926,
          "velocity": 0.8661417322834646,
          "duration": 0.15624984375000395
        },
        {
          "name": "A#4",
          "midi": 70,
          "time": 225.16048912499926,
          "velocity": 0.8661417322834646,
          "duration": 0.15624984375000395
        },
        {
          "name": "A#4",
          "midi": 70,
          "time": 225.32120324999926,
          "velocity": 0.8661417322834646,
          "duration": 0.10267846875001396
        },
        {
          "name": "A#4",
          "midi": 70,
          "time": 225.42834599999927,
          "velocity": 0.8661417322834646,
          "duration": 0.15624984375000395
        },
        {
          "name": "A#4",
          "midi": 70,
          "time": 225.58906012499926,
          "velocity": 0.8661417322834646,
          "duration": 0.15624984375000395
        },
        {
          "name": "A#4",
          "midi": 70,
          "time": 225.74977424999926,
          "velocity": 0.8661417322834646,
          "duration": 0.10267846875001396
        },
        {
          "name": "A#4",
          "midi": 70,
          "time": 225.85691699999927,
          "velocity": 0.8661417322834646,
          "duration": 0.15624984375000395
        },
        {
          "name": "D#5",
          "midi": 75,
          "time": 225.85691699999927,
          "velocity": 0.8661417322834646,
          "duration": 0.15624984375000395
        },
        {
          "name": "A#4",
          "midi": 70,
          "time": 226.01763112499927,
          "velocity": 0.8661417322834646,
          "duration": 0.15624984375000395
        },
        {
          "name": "A#4",
          "midi": 70,
          "time": 226.17834524999927,
          "velocity": 0.8661417322834646,
          "duration": 0.10267846875001396
        },
        {
          "name": "G#5",
          "midi": 80,
          "time": 226.17834524999927,
          "velocity": 0.8661417322834646,
          "duration": 0.10267846875001396
        },
        {
          "name": "A#4",
          "midi": 70,
          "time": 226.28548799999928,
          "velocity": 0.8661417322834646,
          "duration": 0.15624984375000395
        },
        {
          "name": "A#4",
          "midi": 70,
          "time": 226.44620212499927,
          "velocity": 0.8661417322834646,
          "duration": 0.15624984375000395
        },
        {
          "name": "A#5",
          "midi": 82,
          "time": 226.44620212499927,
          "velocity": 0.8661417322834646,
          "duration": 0.15624984375000395
        },
        {
          "name": "A#4",
          "midi": 70,
          "time": 226.60691624999927,
          "velocity": 0.8661417322834646,
          "duration": 0.10267846875001396
        },
        {
          "name": "A#4",
          "midi": 70,
          "time": 230.5711979999993,
          "velocity": 0.8661417322834646,
          "duration": 0.20982121874999393
        },
        {
          "name": "C5",
          "midi": 72,
          "time": 230.7854834999993,
          "velocity": 0.8661417322834646,
          "duration": 0.20982121874999393
        },
        {
          "name": "A#4",
          "midi": 70,
          "time": 230.99976899999928,
          "velocity": 0.8661417322834646,
          "duration": 0.10267846875001396
        },
        {
          "name": "A4",
          "midi": 69,
          "time": 231.10691174999928,
          "velocity": 0.8661417322834646,
          "duration": 0.10267846875001396
        },
        {
          "name": "G4",
          "midi": 67,
          "time": 231.2140544999993,
          "velocity": 0.8661417322834646,
          "duration": 0.20982121874999393
        },
        {
          "name": "A#4",
          "midi": 70,
          "time": 231.42833999999928,
          "velocity": 0.8661417322834646,
          "duration": 0.20982121874999393
        },
        {
          "name": "C5",
          "midi": 72,
          "time": 231.64262549999927,
          "velocity": 0.8661417322834646,
          "duration": 0.20982121874999393
        },
        {
          "name": "G4",
          "midi": 67,
          "time": 252.42831899999925,
          "velocity": 0.8661417322834646,
          "duration": 0.10267846875001396
        },
        {
          "name": "D5",
          "midi": 74,
          "time": 252.42831899999925,
          "velocity": 0.8661417322834646,
          "duration": 0.10267846875001396
        },
        {
          "name": "G4",
          "midi": 67,
          "time": 252.53546174999926,
          "velocity": 0.8661417322834646,
          "duration": 0.10267846875001396
        },
        {
          "name": "D5",
          "midi": 74,
          "time": 252.53546174999926,
          "velocity": 0.8661417322834646,
          "duration": 0.10267846875001396
        },
        {
          "name": "G4",
          "midi": 67,
          "time": 252.64260449999927,
          "velocity": 0.8661417322834646,
          "duration": 0.20982121874999393
        },
        {
          "name": "D5",
          "midi": 74,
          "time": 252.64260449999927,
          "velocity": 0.8661417322834646,
          "duration": 0.20982121874999393
        },
        {
          "name": "G4",
          "midi": 67,
          "time": 253.28546099999926,
          "velocity": 0.8661417322834646,
          "duration": 0.10267846875001396
        },
        {
          "name": "D5",
          "midi": 74,
          "time": 253.28546099999926,
          "velocity": 0.8661417322834646,
          "duration": 0.10267846875001396
        },
        {
          "name": "G4",
          "midi": 67,
          "time": 253.39260374999927,
          "velocity": 0.8661417322834646,
          "duration": 0.10267846875001396
        },
        {
          "name": "D5",
          "midi": 74,
          "time": 253.39260374999927,
          "velocity": 0.8661417322834646,
          "duration": 0.10267846875001396
        },
        {
          "name": "G4",
          "midi": 67,
          "time": 253.49974649999928,
          "velocity": 0.8661417322834646,
          "duration": 0.20982121874999393
        },
        {
          "name": "D5",
          "midi": 74,
          "time": 253.49974649999928,
          "velocity": 0.8661417322834646,
          "duration": 0.20982121874999393
        },
        {
          "name": "D#5",
          "midi": 75,
          "time": 256.71402899999924,
          "velocity": 0.8661417322834646,
          "duration": 0.10267846875001396
        },
        {
          "name": "F#5",
          "midi": 78,
          "time": 256.71402899999924,
          "velocity": 0.8661417322834646,
          "duration": 0.10267846875001396
        },
        {
          "name": "D#5",
          "midi": 75,
          "time": 256.8211717499993,
          "velocity": 0.8661417322834646,
          "duration": 0.10267846875001396
        },
        {
          "name": "F#5",
          "midi": 78,
          "time": 256.8211717499993,
          "velocity": 0.8661417322834646,
          "duration": 0.10267846875001396
        },
        {
          "name": "D#5",
          "midi": 75,
          "time": 256.9283144999993,
          "velocity": 0.8661417322834646,
          "duration": 0.20982121874999393
        },
        {
          "name": "F#5",
          "midi": 78,
          "time": 256.9283144999993,
          "velocity": 0.8661417322834646,
          "duration": 0.20982121874999393
        },
        {
          "name": "G4",
          "midi": 67,
          "time": 257.9997419999993,
          "velocity": 0.8661417322834646,
          "duration": 0.357142500000009
        },
        {
          "name": "G5",
          "midi": 79,
          "time": 257.9997419999993,
          "velocity": 0.8661417322834646,
          "duration": 0.357142500000009
        },
        {
          "name": "G4",
          "midi": 67,
          "time": 258.8568839999993,
          "velocity": 0.8661417322834646,
          "duration": 0.357142500000009
        },
        {
          "name": "G5",
          "midi": 79,
          "time": 258.8568839999993,
          "velocity": 0.8661417322834646,
          "duration": 0.357142500000009
        },
        {
          "name": "G4",
          "midi": 67,
          "time": 259.7140259999993,
          "velocity": 0.8661417322834646,
          "duration": 0.357142500000009
        },
        {
          "name": "G5",
          "midi": 79,
          "time": 259.7140259999993,
          "velocity": 0.8661417322834646,
          "duration": 0.357142500000009
        },
        {
          "name": "A4",
          "midi": 69,
          "time": 260.5711679999993,
          "velocity": 0.8661417322834646,
          "duration": 0.10267846875001396
        },
        {
          "name": "A5",
          "midi": 81,
          "time": 260.5711679999993,
          "velocity": 0.8661417322834646,
          "duration": 0.10267846875001396
        },
        {
          "name": "G4",
          "midi": 67,
          "time": 260.67831074999935,
          "velocity": 0.8661417322834646,
          "duration": 0.10267846875001396
        },
        {
          "name": "G5",
          "midi": 79,
          "time": 260.67831074999935,
          "velocity": 0.8661417322834646,
          "duration": 0.10267846875001396
        },
        {
          "name": "F#4",
          "midi": 66,
          "time": 260.7854534999994,
          "velocity": 0.8661417322834646,
          "duration": 0.20982121874999393
        },
        {
          "name": "F#5",
          "midi": 78,
          "time": 260.7854534999994,
          "velocity": 0.8661417322834646,
          "duration": 0.20982121874999393
        },
        {
          "name": "G4",
          "midi": 67,
          "time": 261.4283099999994,
          "velocity": 0.8661417322834646,
          "duration": 0.357142500000009
        },
        {
          "name": "G5",
          "midi": 79,
          "time": 261.4283099999994,
          "velocity": 0.8661417322834646,
          "duration": 0.357142500000009
        },
        {
          "name": "G4",
          "midi": 67,
          "time": 262.2854519999994,
          "velocity": 0.8661417322834646,
          "duration": 0.357142500000009
        },
        {
          "name": "G5",
          "midi": 79,
          "time": 262.2854519999994,
          "velocity": 0.8661417322834646,
          "duration": 0.357142500000009
        },
        {
          "name": "G4",
          "midi": 67,
          "time": 263.1425939999994,
          "velocity": 0.8661417322834646,
          "duration": 0.357142500000009
        },
        {
          "name": "G5",
          "midi": 79,
          "time": 263.1425939999994,
          "velocity": 0.8661417322834646,
          "duration": 0.357142500000009
        },
        {
          "name": "A4",
          "midi": 69,
          "time": 263.9997359999994,
          "velocity": 0.8661417322834646,
          "duration": 0.10267846875001396
        },
        {
          "name": "A5",
          "midi": 81,
          "time": 263.9997359999994,
          "velocity": 0.8661417322834646,
          "duration": 0.10267846875001396
        },
        {
          "name": "G4",
          "midi": 67,
          "time": 264.10687874999945,
          "velocity": 0.8661417322834646,
          "duration": 0.10267846875001396
        },
        {
          "name": "G5",
          "midi": 79,
          "time": 264.10687874999945,
          "velocity": 0.8661417322834646,
          "duration": 0.10267846875001396
        },
        {
          "name": "F#4",
          "midi": 66,
          "time": 264.2140214999995,
          "velocity": 0.8661417322834646,
          "duration": 0.20982121874999393
        },
        {
          "name": "F#5",
          "midi": 78,
          "time": 264.2140214999995,
          "velocity": 0.8661417322834646,
          "duration": 0.20982121874999393
        },
        {
          "name": "A#3",
          "midi": 58,
          "time": 264.4283069999995,
          "velocity": 0.8661417322834646,
          "duration": 0.20982121874999393
        },
        {
          "name": "C4",
          "midi": 60,
          "time": 264.6425924999995,
          "velocity": 0.8661417322834646,
          "duration": 0.20982121874999393
        },
        {
          "name": "A#3",
          "midi": 58,
          "time": 264.85687799999954,
          "velocity": 0.8661417322834646,
          "duration": 0.10267846875001396
        },
        {
          "name": "A3",
          "midi": 57,
          "time": 264.9640207499996,
          "velocity": 0.8661417322834646,
          "duration": 0.10267846875001396
        },
        {
          "name": "G3",
          "midi": 55,
          "time": 265.0711634999996,
          "velocity": 0.8661417322834646,
          "duration": 0.20982121874999393
        },
        {
          "name": "A#3",
          "midi": 58,
          "time": 265.28544899999963,
          "velocity": 0.8661417322834646,
          "duration": 0.20982121874999393
        },
        {
          "name": "A#4",
          "midi": 70,
          "time": 265.28544899999963,
          "velocity": 0.8661417322834646,
          "duration": 0.20982121874999393
        },
        {
          "name": "C4",
          "midi": 60,
          "time": 265.49973449999965,
          "velocity": 0.8661417322834646,
          "duration": 0.20982121874999393
        },
        {
          "name": "C5",
          "midi": 72,
          "time": 265.49973449999965,
          "velocity": 0.8661417322834646,
          "duration": 0.20982121874999393
        },
        {
          "name": "A#3",
          "midi": 58,
          "time": 265.71401999999966,
          "velocity": 0.8661417322834646,
          "duration": 0.10267846875001396
        },
        {
          "name": "A#4",
          "midi": 70,
          "time": 265.71401999999966,
          "velocity": 0.8661417322834646,
          "duration": 0.10267846875001396
        },
        {
          "name": "A3",
          "midi": 57,
          "time": 265.8211627499997,
          "velocity": 0.8661417322834646,
          "duration": 0.10267846875001396
        },
        {
          "name": "A4",
          "midi": 69,
          "time": 265.8211627499997,
          "velocity": 0.8661417322834646,
          "duration": 0.10267846875001396
        },
        {
          "name": "G3",
          "midi": 55,
          "time": 265.92830549999974,
          "velocity": 0.8661417322834646,
          "duration": 0.20982121874999393
        },
        {
          "name": "G4",
          "midi": 67,
          "time": 265.92830549999974,
          "velocity": 0.8661417322834646,
          "duration": 0.20982121874999393
        },
        {
          "name": "A#3",
          "midi": 58,
          "time": 266.14259099999975,
          "velocity": 0.8661417322834646,
          "duration": 0.20982121874999393
        },
        {
          "name": "A#4",
          "midi": 70,
          "time": 266.14259099999975,
          "velocity": 0.8661417322834646,
          "duration": 0.20982121874999393
        },
        {
          "name": "C4",
          "midi": 60,
          "time": 266.35687649999977,
          "velocity": 0.8661417322834646,
          "duration": 0.20982121874999393
        },
        {
          "name": "C5",
          "midi": 72,
          "time": 266.35687649999977,
          "velocity": 0.8661417322834646,
          "duration": 0.20982121874999393
        },
        {
          "name": "A#3",
          "midi": 58,
          "time": 266.5711619999998,
          "velocity": 0.8661417322834646,
          "duration": 0.10267846875001396
        },
        {
          "name": "A#4",
          "midi": 70,
          "time": 266.5711619999998,
          "velocity": 0.8661417322834646,
          "duration": 0.10267846875001396
        },
        {
          "name": "A3",
          "midi": 57,
          "time": 266.6783047499998,
          "velocity": 0.8661417322834646,
          "duration": 0.10267846875001396
        },
        {
          "name": "A4",
          "midi": 69,
          "time": 266.6783047499998,
          "velocity": 0.8661417322834646,
          "duration": 0.10267846875001396
        },
        {
          "name": "G3",
          "midi": 55,
          "time": 266.78544749999986,
          "velocity": 0.8661417322834646,
          "duration": 0.20982121874999393
        },
        {
          "name": "G4",
          "midi": 67,
          "time": 266.78544749999986,
          "velocity": 0.8661417322834646,
          "duration": 0.20982121874999393
        },
        {
          "name": "A#4",
          "midi": 70,
          "time": 266.9997329999999,
          "velocity": 0.8661417322834646,
          "duration": 0.20982121874999393
        },
        {
          "name": "A#5",
          "midi": 82,
          "time": 266.9997329999999,
          "velocity": 0.8661417322834646,
          "duration": 0.20982121874999393
        },
        {
          "name": "C5",
          "midi": 72,
          "time": 267.2140184999999,
          "velocity": 0.8661417322834646,
          "duration": 0.20982121874999393
        },
        {
          "name": "C6",
          "midi": 84,
          "time": 267.2140184999999,
          "velocity": 0.8661417322834646,
          "duration": 0.20982121874999393
        },
        {
          "name": "A#4",
          "midi": 70,
          "time": 267.4283039999999,
          "velocity": 0.8661417322834646,
          "duration": 0.10267846875001396
        },
        {
          "name": "A#5",
          "midi": 82,
          "time": 267.4283039999999,
          "velocity": 0.8661417322834646,
          "duration": 0.10267846875001396
        },
        {
          "name": "A4",
          "midi": 69,
          "time": 267.53544674999995,
          "velocity": 0.8661417322834646,
          "duration": 0.10267846875001396
        },
        {
          "name": "A5",
          "midi": 81,
          "time": 267.53544674999995,
          "velocity": 0.8661417322834646,
          "duration": 0.10267846875001396
        },
        {
          "name": "G4",
          "midi": 67,
          "time": 267.6425895,
          "velocity": 0.8661417322834646,
          "duration": 0.20982121874999393
        },
        {
          "name": "G5",
          "midi": 79,
          "time": 267.6425895,
          "velocity": 0.8661417322834646,
          "duration": 0.20982121874999393
        },
        {
          "name": "C5",
          "midi": 72,
          "time": 267.856875,
          "velocity": 0.8661417322834646,
          "duration": 0.10267846875001396
        },
        {
          "name": "C6",
          "midi": 84,
          "time": 267.856875,
          "velocity": 0.8661417322834646,
          "duration": 0.10267846875001396
        },
        {
          "name": "A#4",
          "midi": 70,
          "time": 267.96401775000004,
          "velocity": 0.8661417322834646,
          "duration": 0.10267846875001396
        },
        {
          "name": "A#5",
          "midi": 82,
          "time": 267.96401775000004,
          "velocity": 0.8661417322834646,
          "duration": 0.10267846875001396
        },
        {
          "name": "A4",
          "midi": 69,
          "time": 268.0711605000001,
          "velocity": 0.8661417322834646,
          "duration": 0.20982121874999393
        },
        {
          "name": "A5",
          "midi": 81,
          "time": 268.0711605000001,
          "velocity": 0.8661417322834646,
          "duration": 0.20982121874999393
        },
        {
          "name": "A#4",
          "midi": 70,
          "time": 269.99973000000006,
          "velocity": 0.8661417322834646,
          "duration": 0.20982121874999393
        },
        {
          "name": "A#5",
          "midi": 82,
          "time": 269.99973000000006,
          "velocity": 0.8661417322834646,
          "duration": 0.20982121874999393
        },
        {
          "name": "C5",
          "midi": 72,
          "time": 270.2140155000001,
          "velocity": 0.8661417322834646,
          "duration": 0.20982121874999393
        },
        {
          "name": "C6",
          "midi": 84,
          "time": 270.2140155000001,
          "velocity": 0.8661417322834646,
          "duration": 0.20982121874999393
        },
        {
          "name": "A#4",
          "midi": 70,
          "time": 270.4283010000001,
          "velocity": 0.8661417322834646,
          "duration": 0.20982121874999393
        },
        {
          "name": "A#5",
          "midi": 82,
          "time": 270.4283010000001,
          "velocity": 0.8661417322834646,
          "duration": 0.20982121874999393
        },
        {
          "name": "C5",
          "midi": 72,
          "time": 270.6425865000001,
          "velocity": 0.8661417322834646,
          "duration": 0.20982121874999393
        },
        {
          "name": "C6",
          "midi": 84,
          "time": 270.6425865000001,
          "velocity": 0.8661417322834646,
          "duration": 0.20982121874999393
        },
        {
          "name": "A#4",
          "midi": 70,
          "time": 270.8568720000001,
          "velocity": 0.8661417322834646,
          "duration": 0.20982121874999393
        },
        {
          "name": "A#5",
          "midi": 82,
          "time": 270.8568720000001,
          "velocity": 0.8661417322834646,
          "duration": 0.20982121874999393
        },
        {
          "name": "C5",
          "midi": 72,
          "time": 271.07115750000014,
          "velocity": 0.8661417322834646,
          "duration": 0.20982121874999393
        },
        {
          "name": "C6",
          "midi": 84,
          "time": 271.07115750000014,
          "velocity": 0.8661417322834646,
          "duration": 0.20982121874999393
        },
        {
          "name": "A#4",
          "midi": 70,
          "time": 272.57115600000014,
          "velocity": 0.8661417322834646,
          "duration": 0.20982121874999393
        },
        {
          "name": "A#5",
          "midi": 82,
          "time": 272.57115600000014,
          "velocity": 0.8661417322834646,
          "duration": 0.20982121874999393
        },
        {
          "name": "C5",
          "midi": 72,
          "time": 272.78544150000016,
          "velocity": 0.8661417322834646,
          "duration": 0.20982121874999393
        },
        {
          "name": "C6",
          "midi": 84,
          "time": 272.78544150000016,
          "velocity": 0.8661417322834646,
          "duration": 0.20982121874999393
        },
        {
          "name": "A#4",
          "midi": 70,
          "time": 272.9997270000002,
          "velocity": 0.8661417322834646,
          "duration": 0.10267846875001396
        },
        {
          "name": "A#5",
          "midi": 82,
          "time": 272.9997270000002,
          "velocity": 0.8661417322834646,
          "duration": 0.10267846875001396
        },
        {
          "name": "A4",
          "midi": 69,
          "time": 273.1068697500002,
          "velocity": 0.8661417322834646,
          "duration": 0.10267846875001396
        },
        {
          "name": "A5",
          "midi": 81,
          "time": 273.1068697500002,
          "velocity": 0.8661417322834646,
          "duration": 0.10267846875001396
        },
        {
          "name": "G4",
          "midi": 67,
          "time": 273.21401250000025,
          "velocity": 0.8661417322834646,
          "duration": 0.20982121874999393
        },
        {
          "name": "G5",
          "midi": 79,
          "time": 273.21401250000025,
          "velocity": 0.8661417322834646,
          "duration": 0.20982121874999393
        }
      ],
      "controlChanges": {
        "10": [
          {
            "number": 10,
            "time": 0,
            "value": 0.5039370078740157
          }
        ]
      },
      "id": 9,
      "name": "The Midi Zone",
      "instrumentNumber": 56,
      "instrument": "trumpet",
      "instrumentFamily": "brass",
      "channelNumber": 6,
      "isPercussion": false
    },
    {
      "startTime": 67.28564700000001,
      "duration": 270.32115825000005,
      "length": 56,
      "notes": [
        {
          "name": "E2",
          "midi": 40,
          "time": 67.28564700000001,
          "velocity": 0.8661417322834646,
          "duration": 0.20982121874999393
        },
        {
          "name": "E2",
          "midi": 40,
          "time": 67.4999325,
          "velocity": 0.8661417322834646,
          "duration": 0.20982121874999393
        },
        {
          "name": "C3",
          "midi": 48,
          "time": 215.571213,
          "velocity": 0.8661417322834646,
          "duration": 0.049107093749995556
        },
        {
          "name": "C3",
          "midi": 48,
          "time": 215.624784375,
          "velocity": 0.8661417322834646,
          "duration": 0.049107093749995556
        },
        {
          "name": "C3",
          "midi": 48,
          "time": 215.67835574999998,
          "velocity": 0.8661417322834646,
          "duration": 0.049107093749995556
        },
        {
          "name": "C3",
          "midi": 48,
          "time": 215.73192712499997,
          "velocity": 0.8661417322834646,
          "duration": 0.049107093749995556
        },
        {
          "name": "C3",
          "midi": 48,
          "time": 215.78549849999996,
          "velocity": 0.8661417322834646,
          "duration": 0.049107093749995556
        },
        {
          "name": "C3",
          "midi": 48,
          "time": 215.83906987499995,
          "velocity": 0.8661417322834646,
          "duration": 0.049107093749995556
        },
        {
          "name": "C3",
          "midi": 48,
          "time": 215.89264124999994,
          "velocity": 0.8661417322834646,
          "duration": 0.049107093749995556
        },
        {
          "name": "C3",
          "midi": 48,
          "time": 215.94621262499993,
          "velocity": 0.8661417322834646,
          "duration": 0.049107093749995556
        },
        {
          "name": "C3",
          "midi": 48,
          "time": 215.99978399999992,
          "velocity": 0.8661417322834646,
          "duration": 0.049107093749995556
        },
        {
          "name": "C3",
          "midi": 48,
          "time": 216.0533553749999,
          "velocity": 0.8661417322834646,
          "duration": 0.049107093749995556
        },
        {
          "name": "C3",
          "midi": 48,
          "time": 216.1069267499999,
          "velocity": 0.8661417322834646,
          "duration": 0.049107093749995556
        },
        {
          "name": "C3",
          "midi": 48,
          "time": 216.1604981249999,
          "velocity": 0.8661417322834646,
          "duration": 0.049107093749995556
        },
        {
          "name": "C3",
          "midi": 48,
          "time": 216.21406949999988,
          "velocity": 0.8661417322834646,
          "duration": 0.049107093749995556
        },
        {
          "name": "C3",
          "midi": 48,
          "time": 216.26764087499987,
          "velocity": 0.8661417322834646,
          "duration": 0.049107093749995556
        },
        {
          "name": "C3",
          "midi": 48,
          "time": 216.32121224999986,
          "velocity": 0.8661417322834646,
          "duration": 0.049107093749995556
        },
        {
          "name": "C3",
          "midi": 48,
          "time": 216.37478362499985,
          "velocity": 0.8661417322834646,
          "duration": 0.049107093749995556
        },
        {
          "name": "C3",
          "midi": 48,
          "time": 216.42835499999984,
          "velocity": 0.8661417322834646,
          "duration": 0.049107093749995556
        },
        {
          "name": "C3",
          "midi": 48,
          "time": 216.48192637499983,
          "velocity": 0.8661417322834646,
          "duration": 0.049107093749995556
        },
        {
          "name": "C3",
          "midi": 48,
          "time": 216.53549774999982,
          "velocity": 0.8661417322834646,
          "duration": 0.049107093749995556
        },
        {
          "name": "C3",
          "midi": 48,
          "time": 216.5890691249998,
          "velocity": 0.8661417322834646,
          "duration": 0.049107093749995556
        },
        {
          "name": "C3",
          "midi": 48,
          "time": 216.6426404999998,
          "velocity": 0.8661417322834646,
          "duration": 0.049107093749995556
        },
        {
          "name": "C3",
          "midi": 48,
          "time": 216.6962118749998,
          "velocity": 0.8661417322834646,
          "duration": 0.049107093749995556
        },
        {
          "name": "G2",
          "midi": 43,
          "time": 216.74978324999978,
          "velocity": 0.8661417322834646,
          "duration": 1.285712999999987
        },
        {
          "name": "A2",
          "midi": 45,
          "time": 226.71405899999976,
          "velocity": 0.8661417322834646,
          "duration": 0.10267846875001396
        },
        {
          "name": "A2",
          "midi": 45,
          "time": 226.82120174999977,
          "velocity": 0.8661417322834646,
          "duration": 0.10267846875001396
        },
        {
          "name": "A2",
          "midi": 45,
          "time": 226.92834449999978,
          "velocity": 0.8661417322834646,
          "duration": 0.10267846875001396
        },
        {
          "name": "A2",
          "midi": 45,
          "time": 227.0354872499998,
          "velocity": 0.8661417322834646,
          "duration": 0.10267846875001396
        },
        {
          "name": "A2",
          "midi": 45,
          "time": 227.1426299999998,
          "velocity": 0.8661417322834646,
          "duration": 0.10267846875001396
        },
        {
          "name": "A2",
          "midi": 45,
          "time": 227.2497727499998,
          "velocity": 0.8661417322834646,
          "duration": 0.10267846875001396
        },
        {
          "name": "A2",
          "midi": 45,
          "time": 227.35691549999981,
          "velocity": 0.8661417322834646,
          "duration": 0.10267846875001396
        },
        {
          "name": "A2",
          "midi": 45,
          "time": 227.46405824999982,
          "velocity": 0.8661417322834646,
          "duration": 0.10267846875001396
        },
        {
          "name": "A2",
          "midi": 45,
          "time": 227.57120099999983,
          "velocity": 0.8661417322834646,
          "duration": 0.10267846875001396
        },
        {
          "name": "A2",
          "midi": 45,
          "time": 227.67834374999984,
          "velocity": 0.8661417322834646,
          "duration": 0.10267846875001396
        },
        {
          "name": "A2",
          "midi": 45,
          "time": 227.78548649999985,
          "velocity": 0.8661417322834646,
          "duration": 0.10267846875001396
        },
        {
          "name": "A2",
          "midi": 45,
          "time": 227.89262924999986,
          "velocity": 0.8661417322834646,
          "duration": 0.10267846875001396
        },
        {
          "name": "A2",
          "midi": 45,
          "time": 227.99977199999987,
          "velocity": 0.8661417322834646,
          "duration": 0.10267846875001396
        },
        {
          "name": "A2",
          "midi": 45,
          "time": 228.10691474999987,
          "velocity": 0.8661417322834646,
          "duration": 0.10267846875001396
        },
        {
          "name": "A2",
          "midi": 45,
          "time": 228.21405749999988,
          "velocity": 0.8661417322834646,
          "duration": 0.10267846875001396
        },
        {
          "name": "A2",
          "midi": 45,
          "time": 228.3212002499999,
          "velocity": 0.8661417322834646,
          "duration": 0.10267846875001396
        },
        {
          "name": "A2",
          "midi": 45,
          "time": 231.8569109999999,
          "velocity": 0.8661417322834646,
          "duration": 0.10267846875001396
        },
        {
          "name": "A2",
          "midi": 45,
          "time": 231.96405374999992,
          "velocity": 0.8661417322834646,
          "duration": 0.10267846875001396
        },
        {
          "name": "A2",
          "midi": 45,
          "time": 232.07119649999993,
          "velocity": 0.8661417322834646,
          "duration": 0.10267846875001396
        },
        {
          "name": "A2",
          "midi": 45,
          "time": 232.17833924999994,
          "velocity": 0.8661417322834646,
          "duration": 0.10267846875001396
        },
        {
          "name": "A2",
          "midi": 45,
          "time": 232.28548199999994,
          "velocity": 0.8661417322834646,
          "duration": 0.10267846875001396
        },
        {
          "name": "A2",
          "midi": 45,
          "time": 232.39262474999995,
          "velocity": 0.8661417322834646,
          "duration": 0.10267846875001396
        },
        {
          "name": "A2",
          "midi": 45,
          "time": 232.49976749999996,
          "velocity": 0.8661417322834646,
          "duration": 0.10267846875001396
        },
        {
          "name": "A2",
          "midi": 45,
          "time": 232.60691024999997,
          "velocity": 0.8661417322834646,
          "duration": 0.10267846875001396
        },
        {
          "name": "G3",
          "midi": 55,
          "time": 268.285446,
          "velocity": 0.8661417322834646,
          "duration": 0.20982121874999393
        },
        {
          "name": "D3",
          "midi": 50,
          "time": 268.4997315,
          "velocity": 0.8661417322834646,
          "duration": 0.20982121874999393
        },
        {
          "name": "G2",
          "midi": 43,
          "time": 268.714017,
          "velocity": 0.8661417322834646,
          "duration": 0.20982121874999393
        },
        {
          "name": "G3",
          "midi": 55,
          "time": 268.92830250000003,
          "velocity": 0.8661417322834646,
          "duration": 0.20982121874999393
        },
        {
          "name": "D3",
          "midi": 50,
          "time": 269.14258800000005,
          "velocity": 0.8661417322834646,
          "duration": 0.20982121874999393
        },
        {
          "name": "G2",
          "midi": 43,
          "time": 269.35687350000006,
          "velocity": 0.8661417322834646,
          "duration": 0.20982121874999393
        },
        {
          "name": "G3",
          "midi": 55,
          "time": 269.5711590000001,
          "velocity": 0.8661417322834646,
          "duration": 0.7499992499999735
        }
      ],
      "controlChanges": {
        "10": [
          {
            "number": 10,
            "time": 0,
            "value": 0.5039370078740157
          }
        ]
      },
      "id": 10,
      "name": "Timpani",
      "instrumentNumber": 47,
      "instrument": "timpani",
      "instrumentFamily": "strings",
      "channelNumber": 7,
      "isPercussion": false
    },
    {
      "startTime": 26.571402000000003,
      "duration": 154.7096667187498,
      "length": 125,
      "notes": [
        {
          "name": "E4",
          "midi": 64,
          "time": 26.571402000000003,
          "velocity": 0.8661417322834646,
          "duration": 0.20982121875000104
        },
        {
          "name": "F#4",
          "midi": 66,
          "time": 26.785687500000005,
          "velocity": 0.8661417322834646,
          "duration": 0.20982121875000104
        },
        {
          "name": "G4",
          "midi": 67,
          "time": 26.999973000000008,
          "velocity": 0.8661417322834646,
          "duration": 0.35714249999999836
        },
        {
          "name": "A4",
          "midi": 69,
          "time": 27.428544000000006,
          "velocity": 0.8661417322834646,
          "duration": 0.35714249999999836
        },
        {
          "name": "B3",
          "midi": 59,
          "time": 27.857115000000004,
          "velocity": 0.8661417322834646,
          "duration": 0.35714249999999836
        },
        {
          "name": "A4",
          "midi": 69,
          "time": 28.285686000000002,
          "velocity": 0.8661417322834646,
          "duration": 0.35714249999999836
        },
        {
          "name": "G4",
          "midi": 67,
          "time": 28.714257,
          "velocity": 0.8661417322834646,
          "duration": 0.20982121875000104
        },
        {
          "name": "F#4",
          "midi": 66,
          "time": 28.928542500000002,
          "velocity": 0.8661417322834646,
          "duration": 0.20982121875000104
        },
        {
          "name": "E4",
          "midi": 64,
          "time": 29.142828000000005,
          "velocity": 0.8661417322834646,
          "duration": 0.35714249999999836
        },
        {
          "name": "E4",
          "midi": 64,
          "time": 29.999970000000005,
          "velocity": 0.8661417322834646,
          "duration": 0.20982121875000104
        },
        {
          "name": "F#4",
          "midi": 66,
          "time": 30.214255500000007,
          "velocity": 0.8661417322834646,
          "duration": 0.20982121875000104
        },
        {
          "name": "G4",
          "midi": 67,
          "time": 30.42854100000001,
          "velocity": 0.8661417322834646,
          "duration": 0.35714249999999836
        },
        {
          "name": "A4",
          "midi": 69,
          "time": 30.857112000000008,
          "velocity": 0.8661417322834646,
          "duration": 0.35714249999999836
        },
        {
          "name": "B3",
          "midi": 59,
          "time": 31.285683000000006,
          "velocity": 0.8661417322834646,
          "duration": 0.35714249999999836
        },
        {
          "name": "A4",
          "midi": 69,
          "time": 31.714254000000004,
          "velocity": 0.8661417322834646,
          "duration": 0.3571425000000019
        },
        {
          "name": "G4",
          "midi": 67,
          "time": 32.14282500000001,
          "velocity": 0.8661417322834646,
          "duration": 0.20982121875000104
        },
        {
          "name": "F#4",
          "midi": 66,
          "time": 32.35711050000001,
          "velocity": 0.8661417322834646,
          "duration": 0.20982121875000104
        },
        {
          "name": "E4",
          "midi": 64,
          "time": 32.571396000000014,
          "velocity": 0.8661417322834646,
          "duration": 0.3571425000000019
        },
        {
          "name": "D#4",
          "midi": 63,
          "time": 33.42853800000002,
          "velocity": 0.8661417322834646,
          "duration": 0.20982121875000104
        },
        {
          "name": "E4",
          "midi": 64,
          "time": 33.64282350000002,
          "velocity": 0.8661417322834646,
          "duration": 0.20982121875000104
        },
        {
          "name": "F#4",
          "midi": 66,
          "time": 33.85710900000002,
          "velocity": 0.8661417322834646,
          "duration": 0.3571425000000019
        },
        {
          "name": "G4",
          "midi": 67,
          "time": 34.28568000000003,
          "velocity": 0.8661417322834646,
          "duration": 0.3571425000000019
        },
        {
          "name": "A3",
          "midi": 57,
          "time": 34.71425100000003,
          "velocity": 0.8661417322834646,
          "duration": 0.3571425000000019
        },
        {
          "name": "B4",
          "midi": 71,
          "time": 35.14282200000004,
          "velocity": 0.8661417322834646,
          "duration": 0.3571425000000019
        },
        {
          "name": "A4",
          "midi": 69,
          "time": 35.57139300000004,
          "velocity": 0.8661417322834646,
          "duration": 0.20982121875000104
        },
        {
          "name": "G4",
          "midi": 67,
          "time": 35.785678500000046,
          "velocity": 0.8661417322834646,
          "duration": 0.20982121875000104
        },
        {
          "name": "F#4",
          "midi": 66,
          "time": 35.99996400000005,
          "velocity": 0.8661417322834646,
          "duration": 0.3571425000000019
        },
        {
          "name": "D#4",
          "midi": 63,
          "time": 36.85710600000005,
          "velocity": 0.8661417322834646,
          "duration": 0.20982121875000104
        },
        {
          "name": "E4",
          "midi": 64,
          "time": 37.071391500000054,
          "velocity": 0.8661417322834646,
          "duration": 0.20982121875000104
        },
        {
          "name": "F#4",
          "midi": 66,
          "time": 37.28567700000006,
          "velocity": 0.8661417322834646,
          "duration": 0.3571425000000019
        },
        {
          "name": "G4",
          "midi": 67,
          "time": 37.71424800000006,
          "velocity": 0.8661417322834646,
          "duration": 0.3571425000000019
        },
        {
          "name": "A3",
          "midi": 57,
          "time": 38.14281900000007,
          "velocity": 0.8661417322834646,
          "duration": 0.3571425000000019
        },
        {
          "name": "G4",
          "midi": 67,
          "time": 38.57139000000007,
          "velocity": 0.8661417322834646,
          "duration": 0.3571425000000019
        },
        {
          "name": "F#4",
          "midi": 66,
          "time": 38.99996100000008,
          "velocity": 0.8661417322834646,
          "duration": 0.20982121875000104
        },
        {
          "name": "E4",
          "midi": 64,
          "time": 39.21424650000008,
          "velocity": 0.8661417322834646,
          "duration": 0.20982121875000104
        },
        {
          "name": "D#4",
          "midi": 63,
          "time": 39.42853200000008,
          "velocity": 0.8661417322834646,
          "duration": 3.7499962500000024
        },
        {
          "name": "G3",
          "midi": 55,
          "time": 140.99985900000007,
          "velocity": 0.8661417322834646,
          "duration": 0.20982121874999393
        },
        {
          "name": "A3",
          "midi": 57,
          "time": 141.21414450000006,
          "velocity": 0.8661417322834646,
          "duration": 0.20982121874999393
        },
        {
          "name": "G3",
          "midi": 55,
          "time": 141.42843000000005,
          "velocity": 0.8661417322834646,
          "duration": 0.10267846875001396
        },
        {
          "name": "F#3",
          "midi": 54,
          "time": 141.53557275000006,
          "velocity": 0.8661417322834646,
          "duration": 0.10267846875001396
        },
        {
          "name": "E3",
          "midi": 52,
          "time": 141.64271550000007,
          "velocity": 0.8661417322834646,
          "duration": 0.20982121874999393
        },
        {
          "name": "G3",
          "midi": 55,
          "time": 141.85700100000005,
          "velocity": 0.8661417322834646,
          "duration": 0.20982121874999393
        },
        {
          "name": "A3",
          "midi": 57,
          "time": 142.07128650000004,
          "velocity": 0.8661417322834646,
          "duration": 0.20982121874999393
        },
        {
          "name": "G3",
          "midi": 55,
          "time": 142.28557200000003,
          "velocity": 0.8661417322834646,
          "duration": 0.10267846875001396
        },
        {
          "name": "F#3",
          "midi": 54,
          "time": 142.39271475000004,
          "velocity": 0.8661417322834646,
          "duration": 0.10267846875001396
        },
        {
          "name": "E3",
          "midi": 52,
          "time": 142.49985750000005,
          "velocity": 0.8661417322834646,
          "duration": 0.20982121874999393
        },
        {
          "name": "G3",
          "midi": 55,
          "time": 142.71414300000004,
          "velocity": 0.8661417322834646,
          "duration": 0.20982121874999393
        },
        {
          "name": "A3",
          "midi": 57,
          "time": 142.92842850000002,
          "velocity": 0.8661417322834646,
          "duration": 0.20982121874999393
        },
        {
          "name": "G3",
          "midi": 55,
          "time": 143.142714,
          "velocity": 0.8661417322834646,
          "duration": 0.10267846875001396
        },
        {
          "name": "F#3",
          "midi": 54,
          "time": 143.24985675000002,
          "velocity": 0.8661417322834646,
          "duration": 0.10267846875001396
        },
        {
          "name": "E3",
          "midi": 52,
          "time": 143.35699950000003,
          "velocity": 0.8661417322834646,
          "duration": 0.20982121874999393
        },
        {
          "name": "G3",
          "midi": 55,
          "time": 143.57128500000002,
          "velocity": 0.8661417322834646,
          "duration": 0.20982121874999393
        },
        {
          "name": "A3",
          "midi": 57,
          "time": 143.7855705,
          "velocity": 0.8661417322834646,
          "duration": 0.20982121874999393
        },
        {
          "name": "G3",
          "midi": 55,
          "time": 143.999856,
          "velocity": 0.8661417322834646,
          "duration": 0.10267846875001396
        },
        {
          "name": "F#3",
          "midi": 54,
          "time": 144.10699875,
          "velocity": 0.8661417322834646,
          "duration": 0.10267846875001396
        },
        {
          "name": "E3",
          "midi": 52,
          "time": 144.2141415,
          "velocity": 0.8661417322834646,
          "duration": 0.20982121874999393
        },
        {
          "name": "G3",
          "midi": 55,
          "time": 144.428427,
          "velocity": 0.8661417322834646,
          "duration": 0.20982121874999393
        },
        {
          "name": "A3",
          "midi": 57,
          "time": 144.6427125,
          "velocity": 0.8661417322834646,
          "duration": 0.20982121874999393
        },
        {
          "name": "G3",
          "midi": 55,
          "time": 144.85699799999998,
          "velocity": 0.8661417322834646,
          "duration": 0.10267846875001396
        },
        {
          "name": "F#3",
          "midi": 54,
          "time": 144.96414074999998,
          "velocity": 0.8661417322834646,
          "duration": 0.10267846875001396
        },
        {
          "name": "E3",
          "midi": 52,
          "time": 145.0712835,
          "velocity": 0.8661417322834646,
          "duration": 0.20982121874999393
        },
        {
          "name": "G3",
          "midi": 55,
          "time": 145.28556899999998,
          "velocity": 0.8661417322834646,
          "duration": 0.20982121874999393
        },
        {
          "name": "A3",
          "midi": 57,
          "time": 145.49985449999997,
          "velocity": 0.8661417322834646,
          "duration": 0.20982121874999393
        },
        {
          "name": "G3",
          "midi": 55,
          "time": 145.71413999999996,
          "velocity": 0.8661417322834646,
          "duration": 0.10267846875001396
        },
        {
          "name": "F#3",
          "midi": 54,
          "time": 145.82128274999997,
          "velocity": 0.8661417322834646,
          "duration": 0.10267846875001396
        },
        {
          "name": "E3",
          "midi": 52,
          "time": 145.92842549999997,
          "velocity": 0.8661417322834646,
          "duration": 0.20982121874999393
        },
        {
          "name": "G3",
          "midi": 55,
          "time": 146.14271099999996,
          "velocity": 0.8661417322834646,
          "duration": 0.20982121874999393
        },
        {
          "name": "A3",
          "midi": 57,
          "time": 146.35699649999995,
          "velocity": 0.8661417322834646,
          "duration": 0.20982121874999393
        },
        {
          "name": "G3",
          "midi": 55,
          "time": 146.57128199999994,
          "velocity": 0.8661417322834646,
          "duration": 0.10267846875001396
        },
        {
          "name": "F#3",
          "midi": 54,
          "time": 146.67842474999995,
          "velocity": 0.8661417322834646,
          "duration": 0.10267846875001396
        },
        {
          "name": "E3",
          "midi": 52,
          "time": 146.78556749999996,
          "velocity": 0.8661417322834646,
          "duration": 0.20982121874999393
        },
        {
          "name": "G3",
          "midi": 55,
          "time": 146.99985299999994,
          "velocity": 0.8661417322834646,
          "duration": 0.20982121874999393
        },
        {
          "name": "A3",
          "midi": 57,
          "time": 147.21413849999993,
          "velocity": 0.8661417322834646,
          "duration": 0.20982121874999393
        },
        {
          "name": "G3",
          "midi": 55,
          "time": 147.42842399999992,
          "velocity": 0.8661417322834646,
          "duration": 0.10267846875001396
        },
        {
          "name": "F#3",
          "midi": 54,
          "time": 147.53556674999993,
          "velocity": 0.8661417322834646,
          "duration": 0.10267846875001396
        },
        {
          "name": "E3",
          "midi": 52,
          "time": 147.64270949999994,
          "velocity": 0.8661417322834646,
          "duration": 0.20982121874999393
        },
        {
          "name": "G3",
          "midi": 55,
          "time": 147.85699499999993,
          "velocity": 0.8661417322834646,
          "duration": 0.20982121874999393
        },
        {
          "name": "A3",
          "midi": 57,
          "time": 148.07128049999992,
          "velocity": 0.8661417322834646,
          "duration": 0.20982121874999393
        },
        {
          "name": "G3",
          "midi": 55,
          "time": 148.2855659999999,
          "velocity": 0.8661417322834646,
          "duration": 0.10267846875001396
        },
        {
          "name": "E4",
          "midi": 64,
          "time": 148.2855659999999,
          "velocity": 0.8661417322834646,
          "duration": 0.10267846875001396
        },
        {
          "name": "F#3",
          "midi": 54,
          "time": 148.3927087499999,
          "velocity": 0.8661417322834646,
          "duration": 0.10267846875001396
        },
        {
          "name": "E3",
          "midi": 52,
          "time": 148.49985149999992,
          "velocity": 0.8661417322834646,
          "duration": 0.20982121874999393
        },
        {
          "name": "F#4",
          "midi": 66,
          "time": 148.49985149999992,
          "velocity": 0.8661417322834646,
          "duration": 0.20982121874999393
        },
        {
          "name": "G3",
          "midi": 55,
          "time": 148.7141369999999,
          "velocity": 0.8661417322834646,
          "duration": 0.20982121874999393
        },
        {
          "name": "G4",
          "midi": 67,
          "time": 148.7141369999999,
          "velocity": 0.8661417322834646,
          "duration": 0.20982121874999393
        },
        {
          "name": "A3",
          "midi": 57,
          "time": 148.9284224999999,
          "velocity": 0.8661417322834646,
          "duration": 0.20982121874999393
        },
        {
          "name": "G3",
          "midi": 55,
          "time": 149.14270799999989,
          "velocity": 0.8661417322834646,
          "duration": 0.10267846875001396
        },
        {
          "name": "A4",
          "midi": 69,
          "time": 149.14270799999989,
          "velocity": 0.8661417322834646,
          "duration": 0.10267846875001396
        },
        {
          "name": "F#3",
          "midi": 54,
          "time": 149.2498507499999,
          "velocity": 0.8661417322834646,
          "duration": 0.10267846875001396
        },
        {
          "name": "E3",
          "midi": 52,
          "time": 149.3569934999999,
          "velocity": 0.8661417322834646,
          "duration": 0.20982121874999393
        },
        {
          "name": "G3",
          "midi": 55,
          "time": 149.5712789999999,
          "velocity": 0.8661417322834646,
          "duration": 0.20982121874999393
        },
        {
          "name": "C4",
          "midi": 60,
          "time": 149.5712789999999,
          "velocity": 0.8661417322834646,
          "duration": 0.20982121874999393
        },
        {
          "name": "A3",
          "midi": 57,
          "time": 149.78556449999988,
          "velocity": 0.8661417322834646,
          "duration": 0.20982121874999393
        },
        {
          "name": "G3",
          "midi": 55,
          "time": 149.99984999999987,
          "velocity": 0.8661417322834646,
          "duration": 0.10267846875001396
        },
        {
          "name": "A4",
          "midi": 69,
          "time": 149.99984999999987,
          "velocity": 0.8661417322834646,
          "duration": 0.10267846875001396
        },
        {
          "name": "F#3",
          "midi": 54,
          "time": 150.10699274999988,
          "velocity": 0.8661417322834646,
          "duration": 0.10267846875001396
        },
        {
          "name": "E3",
          "midi": 52,
          "time": 150.21413549999988,
          "velocity": 0.8661417322834646,
          "duration": 0.20982121874999393
        },
        {
          "name": "G3",
          "midi": 55,
          "time": 150.42842099999987,
          "velocity": 0.8661417322834646,
          "duration": 0.20982121874999393
        },
        {
          "name": "G4",
          "midi": 67,
          "time": 150.42842099999987,
          "velocity": 0.8661417322834646,
          "duration": 0.20982121874999393
        },
        {
          "name": "A3",
          "midi": 57,
          "time": 150.64270649999986,
          "velocity": 0.8661417322834646,
          "duration": 0.20982121874999393
        },
        {
          "name": "F#4",
          "midi": 66,
          "time": 150.64270649999986,
          "velocity": 0.8661417322834646,
          "duration": 0.20982121874999393
        },
        {
          "name": "G3",
          "midi": 55,
          "time": 150.85699199999985,
          "velocity": 0.8661417322834646,
          "duration": 0.10267846875001396
        },
        {
          "name": "E4",
          "midi": 64,
          "time": 150.85699199999985,
          "velocity": 0.8661417322834646,
          "duration": 0.10267846875001396
        },
        {
          "name": "F#3",
          "midi": 54,
          "time": 150.96413474999986,
          "velocity": 0.8661417322834646,
          "duration": 0.10267846875001396
        },
        {
          "name": "E3",
          "midi": 52,
          "time": 151.07127749999987,
          "velocity": 0.8661417322834646,
          "duration": 0.20982121874999393
        },
        {
          "name": "G3",
          "midi": 55,
          "time": 151.28556299999985,
          "velocity": 0.8661417322834646,
          "duration": 0.20982121874999393
        },
        {
          "name": "A3",
          "midi": 57,
          "time": 151.49984849999984,
          "velocity": 0.8661417322834646,
          "duration": 0.20982121874999393
        },
        {
          "name": "G3",
          "midi": 55,
          "time": 151.71413399999983,
          "velocity": 0.8661417322834646,
          "duration": 0.10267846875001396
        },
        {
          "name": "F#3",
          "midi": 54,
          "time": 151.82127674999984,
          "velocity": 0.8661417322834646,
          "duration": 0.10267846875001396
        },
        {
          "name": "E3",
          "midi": 52,
          "time": 151.92841949999985,
          "velocity": 0.8661417322834646,
          "duration": 0.20982121874999393
        },
        {
          "name": "G3",
          "midi": 55,
          "time": 152.14270499999984,
          "velocity": 0.8661417322834646,
          "duration": 0.20982121874999393
        },
        {
          "name": "A3",
          "midi": 57,
          "time": 152.35699049999982,
          "velocity": 0.8661417322834646,
          "duration": 0.20982121874999393
        },
        {
          "name": "G3",
          "midi": 55,
          "time": 152.5712759999998,
          "velocity": 0.8661417322834646,
          "duration": 0.10267846875001396
        },
        {
          "name": "F#3",
          "midi": 54,
          "time": 152.67841874999982,
          "velocity": 0.8661417322834646,
          "duration": 0.10267846875001396
        },
        {
          "name": "E3",
          "midi": 52,
          "time": 152.78556149999983,
          "velocity": 0.8661417322834646,
          "duration": 0.20982121874999393
        },
        {
          "name": "G3",
          "midi": 55,
          "time": 152.99984699999982,
          "velocity": 0.8661417322834646,
          "duration": 0.20982121874999393
        },
        {
          "name": "A3",
          "midi": 57,
          "time": 153.2141324999998,
          "velocity": 0.8661417322834646,
          "duration": 0.20982121874999393
        },
        {
          "name": "G3",
          "midi": 55,
          "time": 153.4284179999998,
          "velocity": 0.8661417322834646,
          "duration": 0.10267846875001396
        },
        {
          "name": "F#3",
          "midi": 54,
          "time": 153.5355607499998,
          "velocity": 0.8661417322834646,
          "duration": 0.10267846875001396
        },
        {
          "name": "E3",
          "midi": 52,
          "time": 153.6427034999998,
          "velocity": 0.8661417322834646,
          "duration": 0.20982121874999393
        },
        {
          "name": "G3",
          "midi": 55,
          "time": 153.8569889999998,
          "velocity": 0.8661417322834646,
          "duration": 0.20982121874999393
        },
        {
          "name": "A3",
          "midi": 57,
          "time": 154.0712744999998,
          "velocity": 0.8661417322834646,
          "duration": 0.20982121874999393
        },
        {
          "name": "G3",
          "midi": 55,
          "time": 154.28555999999978,
          "velocity": 0.8661417322834646,
          "duration": 0.10267846875001396
        },
        {
          "name": "F#3",
          "midi": 54,
          "time": 154.39270274999978,
          "velocity": 0.8661417322834646,
          "duration": 0.10267846875001396
        },
        {
          "name": "E3",
          "midi": 52,
          "time": 154.4998454999998,
          "velocity": 0.8661417322834646,
          "duration": 0.20982121874999393
        }
      ],
      "controlChanges": {
        "10": [
          {
            "number": 10,
            "time": 0,
            "value": 0.5039370078740157
          }
        ]
      },
      "id": 11,
      "name": "Clarinet",
      "instrumentNumber": 71,
      "instrument": "clarinet",
      "instrumentFamily": "reed",
      "channelNumber": 8,
      "isPercussion": false
    },
    {
      "startTime": 63.857079000000006,
      "duration": 273.42383371874996,
      "length": 95,
      "notes": [
        {
          "name": "A0",
          "midi": 21,
          "time": 63.857079000000006,
          "velocity": 0.8661417322834646,
          "duration": 0.20982121875000104
        },
        {
          "name": "A0",
          "midi": 21,
          "time": 64.0713645,
          "velocity": 0.8661417322834646,
          "duration": 0.20982121874999393
        },
        {
          "name": "A0",
          "midi": 21,
          "time": 64.28564999999999,
          "velocity": 0.8661417322834646,
          "duration": 0.20982121874999393
        },
        {
          "name": "A0",
          "midi": 21,
          "time": 64.49993549999998,
          "velocity": 0.8661417322834646,
          "duration": 0.20982121874999393
        },
        {
          "name": "A0",
          "midi": 21,
          "time": 64.71422099999997,
          "velocity": 0.8661417322834646,
          "duration": 0.20982121874999393
        },
        {
          "name": "A0",
          "midi": 21,
          "time": 64.92850649999995,
          "velocity": 0.8661417322834646,
          "duration": 0.20982121874999393
        },
        {
          "name": "A0",
          "midi": 21,
          "time": 65.14279199999994,
          "velocity": 0.8661417322834646,
          "duration": 0.20982121874999393
        },
        {
          "name": "A0",
          "midi": 21,
          "time": 65.35707749999993,
          "velocity": 0.8661417322834646,
          "duration": 0.20982121874999393
        },
        {
          "name": "A0",
          "midi": 21,
          "time": 65.57136299999992,
          "velocity": 0.8661417322834646,
          "duration": 0.20982121874999393
        },
        {
          "name": "A0",
          "midi": 21,
          "time": 65.78564849999991,
          "velocity": 0.8661417322834646,
          "duration": 0.20982121874999393
        },
        {
          "name": "A0",
          "midi": 21,
          "time": 65.9999339999999,
          "velocity": 0.8661417322834646,
          "duration": 0.20982121874999393
        },
        {
          "name": "A0",
          "midi": 21,
          "time": 66.21421949999988,
          "velocity": 0.8661417322834646,
          "duration": 0.20982121874999393
        },
        {
          "name": "A0",
          "midi": 21,
          "time": 66.42850499999987,
          "velocity": 0.8661417322834646,
          "duration": 0.20982121874999393
        },
        {
          "name": "A0",
          "midi": 21,
          "time": 66.64279049999986,
          "velocity": 0.8661417322834646,
          "duration": 0.20982121874999393
        },
        {
          "name": "A0",
          "midi": 21,
          "time": 66.85707599999985,
          "velocity": 0.8661417322834646,
          "duration": 0.20982121874999393
        },
        {
          "name": "A0",
          "midi": 21,
          "time": 67.07136149999984,
          "velocity": 0.8661417322834646,
          "duration": 0.20982121874999393
        },
        {
          "name": "A0",
          "midi": 21,
          "time": 67.28564699999983,
          "velocity": 0.8661417322834646,
          "duration": 0.20982121874999393
        },
        {
          "name": "A0",
          "midi": 21,
          "time": 67.49993249999982,
          "velocity": 0.8661417322834646,
          "duration": 0.20982121874999393
        },
        {
          "name": "A0",
          "midi": 21,
          "time": 67.7142179999998,
          "velocity": 0.8661417322834646,
          "duration": 0.20982121874999393
        },
        {
          "name": "A0",
          "midi": 21,
          "time": 67.92850349999979,
          "velocity": 0.8661417322834646,
          "duration": 0.20982121874999393
        },
        {
          "name": "A0",
          "midi": 21,
          "time": 68.14278899999978,
          "velocity": 0.8661417322834646,
          "duration": 0.20982121874999393
        },
        {
          "name": "A0",
          "midi": 21,
          "time": 68.35707449999977,
          "velocity": 0.8661417322834646,
          "duration": 0.20982121874999393
        },
        {
          "name": "A0",
          "midi": 21,
          "time": 68.57135999999976,
          "velocity": 0.8661417322834646,
          "duration": 0.20982121874999393
        },
        {
          "name": "A0",
          "midi": 21,
          "time": 68.78564549999975,
          "velocity": 0.8661417322834646,
          "duration": 0.20982121874999393
        },
        {
          "name": "A0",
          "midi": 21,
          "time": 68.99993099999973,
          "velocity": 0.8661417322834646,
          "duration": 0.20982121874999393
        },
        {
          "name": "A0",
          "midi": 21,
          "time": 69.21421649999972,
          "velocity": 0.8661417322834646,
          "duration": 0.20982121874999393
        },
        {
          "name": "A0",
          "midi": 21,
          "time": 69.42850199999971,
          "velocity": 0.8661417322834646,
          "duration": 0.20982121874999393
        },
        {
          "name": "A0",
          "midi": 21,
          "time": 69.6427874999997,
          "velocity": 0.8661417322834646,
          "duration": 0.20982121874999393
        },
        {
          "name": "A0",
          "midi": 21,
          "time": 69.85707299999969,
          "velocity": 0.8661417322834646,
          "duration": 0.20982121874999393
        },
        {
          "name": "A0",
          "midi": 21,
          "time": 70.07135849999968,
          "velocity": 0.8661417322834646,
          "duration": 0.20982121874999393
        },
        {
          "name": "A0",
          "midi": 21,
          "time": 70.28564399999966,
          "velocity": 0.8661417322834646,
          "duration": 0.20982121874999393
        },
        {
          "name": "A0",
          "midi": 21,
          "time": 70.49992949999965,
          "velocity": 0.8661417322834646,
          "duration": 0.20982121874999393
        },
        {
          "name": "D3",
          "midi": 50,
          "time": 226.92834449999964,
          "velocity": 0.8661417322834646,
          "duration": 0.10267846875001396
        },
        {
          "name": "C#4",
          "midi": 61,
          "time": 226.92834449999964,
          "velocity": 0.8661417322834646,
          "duration": 0.10267846875001396
        },
        {
          "name": "D3",
          "midi": 50,
          "time": 227.03548724999965,
          "velocity": 0.8661417322834646,
          "duration": 0.10267846875001396
        },
        {
          "name": "C#4",
          "midi": 61,
          "time": 227.03548724999965,
          "velocity": 0.8661417322834646,
          "duration": 0.10267846875001396
        },
        {
          "name": "D3",
          "midi": 50,
          "time": 227.14262999999966,
          "velocity": 0.8661417322834646,
          "duration": 0.20982121874999393
        },
        {
          "name": "C4",
          "midi": 60,
          "time": 227.14262999999966,
          "velocity": 0.8661417322834646,
          "duration": 0.20982121874999393
        },
        {
          "name": "D3",
          "midi": 50,
          "time": 227.35691549999964,
          "velocity": 0.8661417322834646,
          "duration": 0.20982121874999393
        },
        {
          "name": "C4",
          "midi": 60,
          "time": 227.35691549999964,
          "velocity": 0.8661417322834646,
          "duration": 0.20982121874999393
        },
        {
          "name": "D3",
          "midi": 50,
          "time": 227.78548649999965,
          "velocity": 0.8661417322834646,
          "duration": 0.10267846875001396
        },
        {
          "name": "C#4",
          "midi": 61,
          "time": 227.78548649999965,
          "velocity": 0.8661417322834646,
          "duration": 0.10267846875001396
        },
        {
          "name": "D3",
          "midi": 50,
          "time": 227.89262924999966,
          "velocity": 0.8661417322834646,
          "duration": 0.10267846875001396
        },
        {
          "name": "C#4",
          "midi": 61,
          "time": 227.89262924999966,
          "velocity": 0.8661417322834646,
          "duration": 0.10267846875001396
        },
        {
          "name": "D3",
          "midi": 50,
          "time": 227.99977199999967,
          "velocity": 0.8661417322834646,
          "duration": 0.20982121874999393
        },
        {
          "name": "C4",
          "midi": 60,
          "time": 227.99977199999967,
          "velocity": 0.8661417322834646,
          "duration": 0.20982121874999393
        },
        {
          "name": "D3",
          "midi": 50,
          "time": 228.21405749999965,
          "velocity": 0.8661417322834646,
          "duration": 0.20982121874999393
        },
        {
          "name": "C4",
          "midi": 60,
          "time": 228.21405749999965,
          "velocity": 0.8661417322834646,
          "duration": 0.20982121874999393
        },
        {
          "name": "C#3",
          "midi": 49,
          "time": 228.42834299999964,
          "velocity": 0.8661417322834646,
          "duration": 1.6071412500000122
        },
        {
          "name": "A3",
          "midi": 57,
          "time": 228.42834299999964,
          "velocity": 0.8661417322834646,
          "duration": 1.6071412500000122
        },
        {
          "name": "D3",
          "midi": 50,
          "time": 231.85691099999966,
          "velocity": 0.8661417322834646,
          "duration": 0.10267846875001396
        },
        {
          "name": "C#4",
          "midi": 61,
          "time": 231.85691099999966,
          "velocity": 0.8661417322834646,
          "duration": 0.10267846875001396
        },
        {
          "name": "D3",
          "midi": 50,
          "time": 231.96405374999966,
          "velocity": 0.8661417322834646,
          "duration": 0.10267846875001396
        },
        {
          "name": "C#4",
          "midi": 61,
          "time": 231.96405374999966,
          "velocity": 0.8661417322834646,
          "duration": 0.10267846875001396
        },
        {
          "name": "D3",
          "midi": 50,
          "time": 232.07119649999967,
          "velocity": 0.8661417322834646,
          "duration": 0.10267846875001396
        },
        {
          "name": "C#4",
          "midi": 61,
          "time": 232.07119649999967,
          "velocity": 0.8661417322834646,
          "duration": 0.10267846875001396
        },
        {
          "name": "D3",
          "midi": 50,
          "time": 232.17833924999968,
          "velocity": 0.8661417322834646,
          "duration": 0.10267846875001396
        },
        {
          "name": "C#4",
          "midi": 61,
          "time": 232.17833924999968,
          "velocity": 0.8661417322834646,
          "duration": 0.10267846875001396
        },
        {
          "name": "D3",
          "midi": 50,
          "time": 232.2854819999997,
          "velocity": 0.8661417322834646,
          "duration": 0.20982121874999393
        },
        {
          "name": "C#4",
          "midi": 61,
          "time": 232.2854819999997,
          "velocity": 0.8661417322834646,
          "duration": 0.20982121874999393
        },
        {
          "name": "D3",
          "midi": 50,
          "time": 232.49976749999968,
          "velocity": 0.8661417322834646,
          "duration": 0.10267846875001396
        },
        {
          "name": "C#4",
          "midi": 61,
          "time": 232.49976749999968,
          "velocity": 0.8661417322834646,
          "duration": 0.10267846875001396
        },
        {
          "name": "D3",
          "midi": 50,
          "time": 232.6069102499997,
          "velocity": 0.8661417322834646,
          "duration": 0.10267846875001396
        },
        {
          "name": "C#4",
          "midi": 61,
          "time": 232.6069102499997,
          "velocity": 0.8661417322834646,
          "duration": 0.10267846875001396
        },
        {
          "name": "C#3",
          "midi": 49,
          "time": 232.7140529999997,
          "velocity": 0.8661417322834646,
          "duration": 0.7499992500000019
        },
        {
          "name": "A3",
          "midi": 57,
          "time": 232.7140529999997,
          "velocity": 0.8661417322834646,
          "duration": 0.7499992500000019
        },
        {
          "name": "C#3",
          "midi": 49,
          "time": 233.5711949999997,
          "velocity": 0.8661417322834646,
          "duration": 0.20982121874999393
        },
        {
          "name": "A3",
          "midi": 57,
          "time": 233.5711949999997,
          "velocity": 0.8661417322834646,
          "duration": 0.20982121874999393
        },
        {
          "name": "C#3",
          "midi": 49,
          "time": 233.7854804999997,
          "velocity": 0.8661417322834646,
          "duration": 0.20982121874999393
        },
        {
          "name": "A3",
          "midi": 57,
          "time": 233.7854804999997,
          "velocity": 0.8661417322834646,
          "duration": 0.20982121874999393
        },
        {
          "name": "C#3",
          "midi": 49,
          "time": 269.5711589999997,
          "velocity": 0.8661417322834646,
          "duration": 1.6071412499999838
        },
        {
          "name": "A3",
          "midi": 57,
          "time": 269.5711589999997,
          "velocity": 0.8661417322834646,
          "duration": 1.6071412499999838
        },
        {
          "name": "D3",
          "midi": 50,
          "time": 271.28544299999965,
          "velocity": 0.8661417322834646,
          "duration": 0.10267846875001396
        },
        {
          "name": "C#4",
          "midi": 61,
          "time": 271.28544299999965,
          "velocity": 0.8661417322834646,
          "duration": 0.10267846875001396
        },
        {
          "name": "D3",
          "midi": 50,
          "time": 271.3925857499997,
          "velocity": 0.8661417322834646,
          "duration": 0.10267846875001396
        },
        {
          "name": "C#4",
          "midi": 61,
          "time": 271.3925857499997,
          "velocity": 0.8661417322834646,
          "duration": 0.10267846875001396
        },
        {
          "name": "D3",
          "midi": 50,
          "time": 271.4997284999997,
          "velocity": 0.8661417322834646,
          "duration": 0.10267846875001396
        },
        {
          "name": "C#4",
          "midi": 61,
          "time": 271.4997284999997,
          "velocity": 0.8661417322834646,
          "duration": 0.10267846875001396
        },
        {
          "name": "D3",
          "midi": 50,
          "time": 271.60687124999976,
          "velocity": 0.8661417322834646,
          "duration": 0.10267846875001396
        },
        {
          "name": "C#4",
          "midi": 61,
          "time": 271.60687124999976,
          "velocity": 0.8661417322834646,
          "duration": 0.10267846875001396
        },
        {
          "name": "D3",
          "midi": 50,
          "time": 271.7140139999998,
          "velocity": 0.8661417322834646,
          "duration": 0.10267846875001396
        },
        {
          "name": "C#4",
          "midi": 61,
          "time": 271.7140139999998,
          "velocity": 0.8661417322834646,
          "duration": 0.10267846875001396
        },
        {
          "name": "D3",
          "midi": 50,
          "time": 271.82115674999983,
          "velocity": 0.8661417322834646,
          "duration": 0.10267846875001396
        },
        {
          "name": "C#4",
          "midi": 61,
          "time": 271.82115674999983,
          "velocity": 0.8661417322834646,
          "duration": 0.10267846875001396
        },
        {
          "name": "D3",
          "midi": 50,
          "time": 271.92829949999987,
          "velocity": 0.8661417322834646,
          "duration": 0.10267846875001396
        },
        {
          "name": "C#4",
          "midi": 61,
          "time": 271.92829949999987,
          "velocity": 0.8661417322834646,
          "duration": 0.10267846875001396
        },
        {
          "name": "D3",
          "midi": 50,
          "time": 272.0354422499999,
          "velocity": 0.8661417322834646,
          "duration": 0.10267846875001396
        },
        {
          "name": "C#4",
          "midi": 61,
          "time": 272.0354422499999,
          "velocity": 0.8661417322834646,
          "duration": 0.10267846875001396
        },
        {
          "name": "C#3",
          "midi": 49,
          "time": 272.14258499999994,
          "velocity": 0.8661417322834646,
          "duration": 0.357142500000009
        },
        {
          "name": "A3",
          "midi": 57,
          "time": 272.14258499999994,
          "velocity": 0.8661417322834646,
          "duration": 0.357142500000009
        },
        {
          "name": "C4",
          "midi": 60,
          "time": 272.14258499999994,
          "velocity": 0.8661417322834646,
          "duration": 0.357142500000009
        },
        {
          "name": "C#3",
          "midi": 49,
          "time": 272.99972699999995,
          "velocity": 0.8661417322834646,
          "duration": 0.20982121874999393
        },
        {
          "name": "A3",
          "midi": 57,
          "time": 272.99972699999995,
          "velocity": 0.8661417322834646,
          "duration": 0.20982121874999393
        },
        {
          "name": "C#3",
          "midi": 49,
          "time": 273.21401249999997,
          "velocity": 0.8661417322834646,
          "duration": 0.20982121874999393
        },
        {
          "name": "A3",
          "midi": 57,
          "time": 273.21401249999997,
          "velocity": 0.8661417322834646,
          "duration": 0.20982121874999393
        }
      ],
      "controlChanges": {
        "10": [
          {
            "number": 10,
            "time": 0,
            "value": 0.5039370078740157
          }
        ]
      },
      "id": 12,
      "name": "feedback appreciated",
      "instrumentNumber": 0,
      "instrument": "standard kit",
      "instrumentFamily": "drums",
      "channelNumber": 9,
      "isPercussion": true
    },
    {
      "startTime": 49.285665,
      "duration": 185.92838549999973,
      "length": 44,
      "notes": [
        {
          "name": "B2",
          "midi": 47,
          "time": 49.285665,
          "velocity": 0.8661417322834646,
          "duration": 0.10267846874999975
        },
        {
          "name": "F#3",
          "midi": 54,
          "time": 49.39280775,
          "velocity": 0.8661417322834646,
          "duration": 0.10267846874999975
        },
        {
          "name": "B3",
          "midi": 59,
          "time": 49.499950500000004,
          "velocity": 0.8661417322834646,
          "duration": 0.10267846874999975
        },
        {
          "name": "D#4",
          "midi": 63,
          "time": 49.607093250000005,
          "velocity": 0.8661417322834646,
          "duration": 0.10267846874999975
        },
        {
          "name": "F#4",
          "midi": 66,
          "time": 49.71423600000001,
          "velocity": 0.8661417322834646,
          "duration": 0.10267846874999975
        },
        {
          "name": "A4",
          "midi": 69,
          "time": 49.82137875000001,
          "velocity": 0.8661417322834646,
          "duration": 0.10267846874999975
        },
        {
          "name": "B4",
          "midi": 71,
          "time": 49.92852150000001,
          "velocity": 0.8661417322834646,
          "duration": 0.10267846874999975
        },
        {
          "name": "D#5",
          "midi": 75,
          "time": 50.03566425000001,
          "velocity": 0.8661417322834646,
          "duration": 0.10267846874999975
        },
        {
          "name": "G5",
          "midi": 79,
          "time": 50.14280700000001,
          "velocity": 0.8661417322834646,
          "duration": 0.20982121875000104
        },
        {
          "name": "E6",
          "midi": 88,
          "time": 50.357092500000014,
          "velocity": 0.8661417322834646,
          "duration": 0.20982121875000104
        },
        {
          "name": "C3",
          "midi": 48,
          "time": 181.28553300000004,
          "velocity": 0.8661417322834646,
          "duration": 0.049107093749995556
        },
        {
          "name": "D#3",
          "midi": 51,
          "time": 181.33910437500003,
          "velocity": 0.8661417322834646,
          "duration": 0.049107093749995556
        },
        {
          "name": "G3",
          "midi": 55,
          "time": 181.39267575000002,
          "velocity": 0.8661417322834646,
          "duration": 0.049107093749995556
        },
        {
          "name": "C4",
          "midi": 60,
          "time": 181.446247125,
          "velocity": 0.8661417322834646,
          "duration": 0.049107093749995556
        },
        {
          "name": "G3",
          "midi": 55,
          "time": 181.4998185,
          "velocity": 0.8661417322834646,
          "duration": 0.049107093749995556
        },
        {
          "name": "C4",
          "midi": 60,
          "time": 181.553389875,
          "velocity": 0.8661417322834646,
          "duration": 0.049107093749995556
        },
        {
          "name": "D#4",
          "midi": 63,
          "time": 181.60696124999998,
          "velocity": 0.8661417322834646,
          "duration": 0.049107093749995556
        },
        {
          "name": "C4",
          "midi": 60,
          "time": 181.66053262499997,
          "velocity": 0.8661417322834646,
          "duration": 0.049107093749995556
        },
        {
          "name": "D#4",
          "midi": 63,
          "time": 181.71410399999996,
          "velocity": 0.8661417322834646,
          "duration": 0.049107093749995556
        },
        {
          "name": "G4",
          "midi": 67,
          "time": 181.76767537499995,
          "velocity": 0.8661417322834646,
          "duration": 0.049107093749995556
        },
        {
          "name": "D#4",
          "midi": 63,
          "time": 181.82124674999994,
          "velocity": 0.8661417322834646,
          "duration": 0.049107093749995556
        },
        {
          "name": "G4",
          "midi": 67,
          "time": 181.87481812499993,
          "velocity": 0.8661417322834646,
          "duration": 0.049107093749995556
        },
        {
          "name": "C5",
          "midi": 72,
          "time": 181.92838949999992,
          "velocity": 0.8661417322834646,
          "duration": 0.049107093749995556
        },
        {
          "name": "G4",
          "midi": 67,
          "time": 181.9819608749999,
          "velocity": 0.8661417322834646,
          "duration": 0.049107093749995556
        },
        {
          "name": "C5",
          "midi": 72,
          "time": 182.0355322499999,
          "velocity": 0.8661417322834646,
          "duration": 0.049107093749995556
        },
        {
          "name": "D#5",
          "midi": 75,
          "time": 182.0891036249999,
          "velocity": 0.8661417322834646,
          "duration": 0.049107093749995556
        },
        {
          "name": "G5",
          "midi": 79,
          "time": 182.14267499999988,
          "velocity": 0.8661417322834646,
          "duration": 0.357142500000009
        },
        {
          "name": "C3",
          "midi": 48,
          "time": 184.71410099999989,
          "velocity": 0.8661417322834646,
          "duration": 0.049107093749995556
        },
        {
          "name": "D#3",
          "midi": 51,
          "time": 184.76767237499988,
          "velocity": 0.8661417322834646,
          "duration": 0.049107093749995556
        },
        {
          "name": "G3",
          "midi": 55,
          "time": 184.82124374999987,
          "velocity": 0.8661417322834646,
          "duration": 0.049107093749995556
        },
        {
          "name": "C4",
          "midi": 60,
          "time": 184.87481512499986,
          "velocity": 0.8661417322834646,
          "duration": 0.049107093749995556
        },
        {
          "name": "G3",
          "midi": 55,
          "time": 184.92838649999985,
          "velocity": 0.8661417322834646,
          "duration": 0.049107093749995556
        },
        {
          "name": "C4",
          "midi": 60,
          "time": 184.98195787499984,
          "velocity": 0.8661417322834646,
          "duration": 0.049107093749995556
        },
        {
          "name": "D#4",
          "midi": 63,
          "time": 185.03552924999983,
          "velocity": 0.8661417322834646,
          "duration": 0.049107093749995556
        },
        {
          "name": "C4",
          "midi": 60,
          "time": 185.08910062499982,
          "velocity": 0.8661417322834646,
          "duration": 0.049107093749995556
        },
        {
          "name": "D#4",
          "midi": 63,
          "time": 185.1426719999998,
          "velocity": 0.8661417322834646,
          "duration": 0.049107093749995556
        },
        {
          "name": "G4",
          "midi": 67,
          "time": 185.1962433749998,
          "velocity": 0.8661417322834646,
          "duration": 0.049107093749995556
        },
        {
          "name": "D#4",
          "midi": 63,
          "time": 185.24981474999979,
          "velocity": 0.8661417322834646,
          "duration": 0.049107093749995556
        },
        {
          "name": "G4",
          "midi": 67,
          "time": 185.30338612499978,
          "velocity": 0.8661417322834646,
          "duration": 0.049107093749995556
        },
        {
          "name": "C5",
          "midi": 72,
          "time": 185.35695749999977,
          "velocity": 0.8661417322834646,
          "duration": 0.049107093749995556
        },
        {
          "name": "G4",
          "midi": 67,
          "time": 185.41052887499976,
          "velocity": 0.8661417322834646,
          "duration": 0.049107093749995556
        },
        {
          "name": "C5",
          "midi": 72,
          "time": 185.46410024999975,
          "velocity": 0.8661417322834646,
          "duration": 0.049107093749995556
        },
        {
          "name": "D#5",
          "midi": 75,
          "time": 185.51767162499974,
          "velocity": 0.8661417322834646,
          "duration": 0.049107093749995556
        },
        {
          "name": "G5",
          "midi": 79,
          "time": 185.57124299999973,
          "velocity": 0.8661417322834646,
          "duration": 0.357142500000009
        }
      ],
      "controlChanges": {
        "10": [
          {
            "number": 10,
            "time": 0,
            "value": 0.5039370078740157
          }
        ]
      },
      "id": 13,
      "name": "Harp",
      "instrumentNumber": 46,
      "instrumentFamily": "drums",
      "channelNumber": 10,
      "isPercussion": true
    },
    {
      "startTime": 63.857079000000006,
      "duration": 226.70959471874855,
      "length": 228,
      "notes": [
        {
          "name": "G5",
          "midi": 79,
          "time": 63.857079000000006,
          "velocity": 0.8661417322834646,
          "duration": 0.20982121875000104
        },
        {
          "name": "A5",
          "midi": 81,
          "time": 64.0713645,
          "velocity": 0.8661417322834646,
          "duration": 0.20982121874999393
        },
        {
          "name": "G5",
          "midi": 79,
          "time": 64.28564999999999,
          "velocity": 0.8661417322834646,
          "duration": 0.10267846874999975
        },
        {
          "name": "F#5",
          "midi": 78,
          "time": 64.39279274999998,
          "velocity": 0.8661417322834646,
          "duration": 0.10267846874999975
        },
        {
          "name": "E5",
          "midi": 76,
          "time": 64.49993549999998,
          "velocity": 0.8661417322834646,
          "duration": 0.20982121874999393
        },
        {
          "name": "G5",
          "midi": 79,
          "time": 64.71422099999997,
          "velocity": 0.8661417322834646,
          "duration": 0.20982121874999393
        },
        {
          "name": "A5",
          "midi": 81,
          "time": 64.92850649999995,
          "velocity": 0.8661417322834646,
          "duration": 0.20982121874999393
        },
        {
          "name": "G5",
          "midi": 79,
          "time": 65.14279199999994,
          "velocity": 0.8661417322834646,
          "duration": 0.10267846874999975
        },
        {
          "name": "F#5",
          "midi": 78,
          "time": 65.24993474999994,
          "velocity": 0.8661417322834646,
          "duration": 0.10267846874999975
        },
        {
          "name": "E5",
          "midi": 76,
          "time": 65.35707749999993,
          "velocity": 0.8661417322834646,
          "duration": 0.20982121874999393
        },
        {
          "name": "G5",
          "midi": 79,
          "time": 65.57136299999992,
          "velocity": 0.8661417322834646,
          "duration": 0.20982121874999393
        },
        {
          "name": "A5",
          "midi": 81,
          "time": 65.78564849999991,
          "velocity": 0.8661417322834646,
          "duration": 0.20982121874999393
        },
        {
          "name": "G5",
          "midi": 79,
          "time": 65.9999339999999,
          "velocity": 0.8661417322834646,
          "duration": 0.10267846874999975
        },
        {
          "name": "F#5",
          "midi": 78,
          "time": 66.10707674999989,
          "velocity": 0.8661417322834646,
          "duration": 0.10267846874999975
        },
        {
          "name": "E5",
          "midi": 76,
          "time": 66.21421949999988,
          "velocity": 0.8661417322834646,
          "duration": 0.20982121874999393
        },
        {
          "name": "G5",
          "midi": 79,
          "time": 66.42850499999987,
          "velocity": 0.8661417322834646,
          "duration": 0.20982121874999393
        },
        {
          "name": "A5",
          "midi": 81,
          "time": 66.64279049999986,
          "velocity": 0.8661417322834646,
          "duration": 0.20982121874999393
        },
        {
          "name": "F#5",
          "midi": 78,
          "time": 66.85707599999985,
          "velocity": 0.8661417322834646,
          "duration": 0.10267846874999975
        },
        {
          "name": "E5",
          "midi": 76,
          "time": 66.96421874999984,
          "velocity": 0.8661417322834646,
          "duration": 0.10267846874999975
        },
        {
          "name": "D#5",
          "midi": 75,
          "time": 67.07136149999984,
          "velocity": 0.8661417322834646,
          "duration": 0.20982121874999393
        },
        {
          "name": "G5",
          "midi": 79,
          "time": 67.28564699999983,
          "velocity": 0.8661417322834646,
          "duration": 0.20982121874999393
        },
        {
          "name": "A5",
          "midi": 81,
          "time": 67.49993249999982,
          "velocity": 0.8661417322834646,
          "duration": 0.20982121874999393
        },
        {
          "name": "G5",
          "midi": 79,
          "time": 67.7142179999998,
          "velocity": 0.8661417322834646,
          "duration": 0.10267846874999975
        },
        {
          "name": "F#5",
          "midi": 78,
          "time": 67.8213607499998,
          "velocity": 0.8661417322834646,
          "duration": 0.10267846874999975
        },
        {
          "name": "E5",
          "midi": 76,
          "time": 67.92850349999979,
          "velocity": 0.8661417322834646,
          "duration": 0.20982121874999393
        },
        {
          "name": "G5",
          "midi": 79,
          "time": 68.14278899999978,
          "velocity": 0.8661417322834646,
          "duration": 0.20982121874999393
        },
        {
          "name": "A5",
          "midi": 81,
          "time": 68.35707449999977,
          "velocity": 0.8661417322834646,
          "duration": 0.20982121874999393
        },
        {
          "name": "G5",
          "midi": 79,
          "time": 68.57135999999976,
          "velocity": 0.8661417322834646,
          "duration": 0.10267846874999975
        },
        {
          "name": "F#5",
          "midi": 78,
          "time": 68.67850274999975,
          "velocity": 0.8661417322834646,
          "duration": 0.10267846874999975
        },
        {
          "name": "E5",
          "midi": 76,
          "time": 68.78564549999975,
          "velocity": 0.8661417322834646,
          "duration": 0.20982121874999393
        },
        {
          "name": "G5",
          "midi": 79,
          "time": 68.99993099999973,
          "velocity": 0.8661417322834646,
          "duration": 0.20982121874999393
        },
        {
          "name": "A5",
          "midi": 81,
          "time": 69.21421649999972,
          "velocity": 0.8661417322834646,
          "duration": 0.20982121874999393
        },
        {
          "name": "G5",
          "midi": 79,
          "time": 69.42850199999971,
          "velocity": 0.8661417322834646,
          "duration": 0.10267846874999975
        },
        {
          "name": "F#5",
          "midi": 78,
          "time": 69.5356447499997,
          "velocity": 0.8661417322834646,
          "duration": 0.10267846874999975
        },
        {
          "name": "E5",
          "midi": 76,
          "time": 69.6427874999997,
          "velocity": 0.8661417322834646,
          "duration": 0.20982121874999393
        },
        {
          "name": "G5",
          "midi": 79,
          "time": 69.85707299999969,
          "velocity": 0.8661417322834646,
          "duration": 0.20982121874999393
        },
        {
          "name": "A5",
          "midi": 81,
          "time": 70.07135849999968,
          "velocity": 0.8661417322834646,
          "duration": 0.20982121874999393
        },
        {
          "name": "F#5",
          "midi": 78,
          "time": 70.28564399999966,
          "velocity": 0.8661417322834646,
          "duration": 0.10267846874999975
        },
        {
          "name": "E5",
          "midi": 76,
          "time": 70.39278674999966,
          "velocity": 0.8661417322834646,
          "duration": 0.10267846874999975
        },
        {
          "name": "D#5",
          "midi": 75,
          "time": 70.49992949999965,
          "velocity": 0.8661417322834646,
          "duration": 0.20982121874999393
        },
        {
          "name": "G5",
          "midi": 79,
          "time": 70.71421499999964,
          "velocity": 0.8661417322834646,
          "duration": 0.20982121874999393
        },
        {
          "name": "A5",
          "midi": 81,
          "time": 70.92850049999963,
          "velocity": 0.8661417322834646,
          "duration": 0.20982121874999393
        },
        {
          "name": "G5",
          "midi": 79,
          "time": 71.14278599999962,
          "velocity": 0.8661417322834646,
          "duration": 0.10267846874999975
        },
        {
          "name": "F#5",
          "midi": 78,
          "time": 71.24992874999961,
          "velocity": 0.8661417322834646,
          "duration": 0.10267846874999975
        },
        {
          "name": "E5",
          "midi": 76,
          "time": 71.3570714999996,
          "velocity": 0.8661417322834646,
          "duration": 0.20982121874999393
        },
        {
          "name": "G5",
          "midi": 79,
          "time": 71.5713569999996,
          "velocity": 0.8661417322834646,
          "duration": 0.20982121874999393
        },
        {
          "name": "A5",
          "midi": 81,
          "time": 71.78564249999958,
          "velocity": 0.8661417322834646,
          "duration": 0.20982121874999393
        },
        {
          "name": "G5",
          "midi": 79,
          "time": 71.99992799999957,
          "velocity": 0.8661417322834646,
          "duration": 0.10267846874999975
        },
        {
          "name": "F#5",
          "midi": 78,
          "time": 72.10707074999956,
          "velocity": 0.8661417322834646,
          "duration": 0.10267846874999975
        },
        {
          "name": "E5",
          "midi": 76,
          "time": 72.21421349999956,
          "velocity": 0.8661417322834646,
          "duration": 0.20982121874999393
        },
        {
          "name": "G5",
          "midi": 79,
          "time": 72.42849899999955,
          "velocity": 0.8661417322834646,
          "duration": 0.20982121874999393
        },
        {
          "name": "A5",
          "midi": 81,
          "time": 72.64278449999954,
          "velocity": 0.8661417322834646,
          "duration": 0.20982121874999393
        },
        {
          "name": "G5",
          "midi": 79,
          "time": 72.85706999999952,
          "velocity": 0.8661417322834646,
          "duration": 0.10267846874999975
        },
        {
          "name": "F#5",
          "midi": 78,
          "time": 72.96421274999952,
          "velocity": 0.8661417322834646,
          "duration": 0.10267846874999975
        },
        {
          "name": "E5",
          "midi": 76,
          "time": 73.07135549999951,
          "velocity": 0.8661417322834646,
          "duration": 0.20982121874999393
        },
        {
          "name": "G5",
          "midi": 79,
          "time": 73.2856409999995,
          "velocity": 0.8661417322834646,
          "duration": 0.20982121874999393
        },
        {
          "name": "A5",
          "midi": 81,
          "time": 73.49992649999949,
          "velocity": 0.8661417322834646,
          "duration": 0.20982121874999393
        },
        {
          "name": "G5",
          "midi": 79,
          "time": 73.71421199999948,
          "velocity": 0.8661417322834646,
          "duration": 0.10267846874999975
        },
        {
          "name": "F#5",
          "midi": 78,
          "time": 73.82135474999947,
          "velocity": 0.8661417322834646,
          "duration": 0.10267846874999975
        },
        {
          "name": "E5",
          "midi": 76,
          "time": 73.92849749999947,
          "velocity": 0.8661417322834646,
          "duration": 0.20982121874999393
        },
        {
          "name": "G5",
          "midi": 79,
          "time": 74.14278299999945,
          "velocity": 0.8661417322834646,
          "duration": 0.20982121874999393
        },
        {
          "name": "A5",
          "midi": 81,
          "time": 74.35706849999944,
          "velocity": 0.8661417322834646,
          "duration": 0.20982121874999393
        },
        {
          "name": "G5",
          "midi": 79,
          "time": 74.57135399999943,
          "velocity": 0.8661417322834646,
          "duration": 0.10267846874999975
        },
        {
          "name": "F#5",
          "midi": 78,
          "time": 74.67849674999943,
          "velocity": 0.8661417322834646,
          "duration": 0.10267846874999975
        },
        {
          "name": "E5",
          "midi": 76,
          "time": 74.78563949999942,
          "velocity": 0.8661417322834646,
          "duration": 0.20982121874999393
        },
        {
          "name": "G5",
          "midi": 79,
          "time": 74.99992499999941,
          "velocity": 0.8661417322834646,
          "duration": 0.20982121874999393
        },
        {
          "name": "A5",
          "midi": 81,
          "time": 75.2142104999994,
          "velocity": 0.8661417322834646,
          "duration": 0.20982121874999393
        },
        {
          "name": "G5",
          "midi": 79,
          "time": 75.42849599999938,
          "velocity": 0.8661417322834646,
          "duration": 0.10267846874999975
        },
        {
          "name": "F#5",
          "midi": 78,
          "time": 75.53563874999938,
          "velocity": 0.8661417322834646,
          "duration": 0.10267846874999975
        },
        {
          "name": "E5",
          "midi": 76,
          "time": 75.64278149999937,
          "velocity": 0.8661417322834646,
          "duration": 0.20982121874999393
        },
        {
          "name": "G5",
          "midi": 79,
          "time": 75.85706699999936,
          "velocity": 0.8661417322834646,
          "duration": 0.20982121874999393
        },
        {
          "name": "A5",
          "midi": 81,
          "time": 76.07135249999935,
          "velocity": 0.8661417322834646,
          "duration": 0.20982121874999393
        },
        {
          "name": "G5",
          "midi": 79,
          "time": 76.28563799999934,
          "velocity": 0.8661417322834646,
          "duration": 0.10267846874999975
        },
        {
          "name": "F#5",
          "midi": 78,
          "time": 76.39278074999933,
          "velocity": 0.8661417322834646,
          "duration": 0.10267846874999975
        },
        {
          "name": "E5",
          "midi": 76,
          "time": 76.49992349999933,
          "velocity": 0.8661417322834646,
          "duration": 0.20982121874999393
        },
        {
          "name": "G5",
          "midi": 79,
          "time": 76.71420899999931,
          "velocity": 0.8661417322834646,
          "duration": 0.20982121874999393
        },
        {
          "name": "A5",
          "midi": 81,
          "time": 76.9284944999993,
          "velocity": 0.8661417322834646,
          "duration": 0.20982121874999393
        },
        {
          "name": "G5",
          "midi": 79,
          "time": 77.14277999999929,
          "velocity": 0.8661417322834646,
          "duration": 0.10267846874999975
        },
        {
          "name": "F#5",
          "midi": 78,
          "time": 77.24992274999929,
          "velocity": 0.8661417322834646,
          "duration": 0.10267846874999975
        },
        {
          "name": "E5",
          "midi": 76,
          "time": 77.35706549999928,
          "velocity": 0.8661417322834646,
          "duration": 0.20982121874999393
        },
        {
          "name": "G5",
          "midi": 79,
          "time": 77.57135099999927,
          "velocity": 0.8661417322834646,
          "duration": 0.20982121874999393
        },
        {
          "name": "A5",
          "midi": 81,
          "time": 77.78563649999926,
          "velocity": 0.8661417322834646,
          "duration": 0.20982121874999393
        },
        {
          "name": "G5",
          "midi": 79,
          "time": 77.99992199999924,
          "velocity": 0.8661417322834646,
          "duration": 0.10267846874999975
        },
        {
          "name": "F#5",
          "midi": 78,
          "time": 78.10706474999924,
          "velocity": 0.8661417322834646,
          "duration": 0.10267846874999975
        },
        {
          "name": "E5",
          "midi": 76,
          "time": 78.21420749999923,
          "velocity": 0.8661417322834646,
          "duration": 0.20982121874999393
        },
        {
          "name": "G5",
          "midi": 79,
          "time": 78.42849299999922,
          "velocity": 0.8661417322834646,
          "duration": 0.20982121874999393
        },
        {
          "name": "A5",
          "midi": 81,
          "time": 78.64277849999921,
          "velocity": 0.8661417322834646,
          "duration": 0.20982121874999393
        },
        {
          "name": "G5",
          "midi": 79,
          "time": 78.8570639999992,
          "velocity": 0.8661417322834646,
          "duration": 0.10267846874999975
        },
        {
          "name": "F#5",
          "midi": 78,
          "time": 78.96420674999919,
          "velocity": 0.8661417322834646,
          "duration": 0.10267846874999975
        },
        {
          "name": "E5",
          "midi": 76,
          "time": 79.07134949999919,
          "velocity": 0.8661417322834646,
          "duration": 0.20982121874999393
        },
        {
          "name": "G5",
          "midi": 79,
          "time": 79.28563499999917,
          "velocity": 0.8661417322834646,
          "duration": 0.20982121874999393
        },
        {
          "name": "A5",
          "midi": 81,
          "time": 79.49992049999916,
          "velocity": 0.8661417322834646,
          "duration": 0.20982121874999393
        },
        {
          "name": "G5",
          "midi": 79,
          "time": 79.71420599999915,
          "velocity": 0.8661417322834646,
          "duration": 0.10267846874999975
        },
        {
          "name": "F#5",
          "midi": 78,
          "time": 79.82134874999915,
          "velocity": 0.8661417322834646,
          "duration": 0.10267846874999975
        },
        {
          "name": "E5",
          "midi": 76,
          "time": 79.92849149999914,
          "velocity": 0.8661417322834646,
          "duration": 0.20982121874999393
        },
        {
          "name": "G5",
          "midi": 79,
          "time": 80.14277699999913,
          "velocity": 0.8661417322834646,
          "duration": 0.20982121874999393
        },
        {
          "name": "A5",
          "midi": 81,
          "time": 80.35706249999912,
          "velocity": 0.8661417322834646,
          "duration": 0.20982121874999393
        },
        {
          "name": "G5",
          "midi": 79,
          "time": 80.5713479999991,
          "velocity": 0.8661417322834646,
          "duration": 0.10267846874999975
        },
        {
          "name": "F#5",
          "midi": 78,
          "time": 80.6784907499991,
          "velocity": 0.8661417322834646,
          "duration": 0.10267846874999975
        },
        {
          "name": "E5",
          "midi": 76,
          "time": 80.7856334999991,
          "velocity": 0.8661417322834646,
          "duration": 0.20982121874999393
        },
        {
          "name": "G5",
          "midi": 79,
          "time": 80.99991899999908,
          "velocity": 0.8661417322834646,
          "duration": 0.20982121874999393
        },
        {
          "name": "A5",
          "midi": 81,
          "time": 81.21420449999907,
          "velocity": 0.8661417322834646,
          "duration": 0.20982121874999393
        },
        {
          "name": "G5",
          "midi": 79,
          "time": 81.42848999999906,
          "velocity": 0.8661417322834646,
          "duration": 0.10267846874999975
        },
        {
          "name": "F#5",
          "midi": 78,
          "time": 81.53563274999905,
          "velocity": 0.8661417322834646,
          "duration": 0.10267846874999975
        },
        {
          "name": "E5",
          "midi": 76,
          "time": 81.64277549999905,
          "velocity": 0.8661417322834646,
          "duration": 0.20982121874999393
        },
        {
          "name": "G5",
          "midi": 79,
          "time": 81.85706099999904,
          "velocity": 0.8661417322834646,
          "duration": 0.20982121874999393
        },
        {
          "name": "A5",
          "midi": 81,
          "time": 82.07134649999902,
          "velocity": 0.8661417322834646,
          "duration": 0.20982121874999393
        },
        {
          "name": "G5",
          "midi": 79,
          "time": 82.28563199999901,
          "velocity": 0.8661417322834646,
          "duration": 0.10267846874999975
        },
        {
          "name": "F#5",
          "midi": 78,
          "time": 82.392774749999,
          "velocity": 0.8661417322834646,
          "duration": 0.10267846874999975
        },
        {
          "name": "E5",
          "midi": 76,
          "time": 82.499917499999,
          "velocity": 0.8661417322834646,
          "duration": 0.20982121874999393
        },
        {
          "name": "G5",
          "midi": 79,
          "time": 82.71420299999899,
          "velocity": 0.8661417322834646,
          "duration": 0.20982121874999393
        },
        {
          "name": "A5",
          "midi": 81,
          "time": 82.92848849999898,
          "velocity": 0.8661417322834646,
          "duration": 0.20982121874999393
        },
        {
          "name": "G5",
          "midi": 79,
          "time": 83.14277399999897,
          "velocity": 0.8661417322834646,
          "duration": 0.10267846874999975
        },
        {
          "name": "F#5",
          "midi": 78,
          "time": 83.24991674999896,
          "velocity": 0.8661417322834646,
          "duration": 0.10267846874999975
        },
        {
          "name": "E5",
          "midi": 76,
          "time": 83.35705949999895,
          "velocity": 0.8661417322834646,
          "duration": 0.20982121874999393
        },
        {
          "name": "G5",
          "midi": 79,
          "time": 83.57134499999894,
          "velocity": 0.8661417322834646,
          "duration": 0.20982121874999393
        },
        {
          "name": "A5",
          "midi": 81,
          "time": 83.78563049999893,
          "velocity": 0.8661417322834646,
          "duration": 0.20982121874999393
        },
        {
          "name": "G5",
          "midi": 79,
          "time": 83.99991599999892,
          "velocity": 0.8661417322834646,
          "duration": 0.10267846874999975
        },
        {
          "name": "F#5",
          "midi": 78,
          "time": 84.10705874999891,
          "velocity": 0.8661417322834646,
          "duration": 0.10267846874999975
        },
        {
          "name": "E5",
          "midi": 76,
          "time": 84.21420149999891,
          "velocity": 0.8661417322834646,
          "duration": 0.20982121874999393
        },
        {
          "name": "G6",
          "midi": 91,
          "time": 113.5713149999989,
          "velocity": 0.8661417322834646,
          "duration": 0.20982121874999393
        },
        {
          "name": "A6",
          "midi": 93,
          "time": 113.78560049999889,
          "velocity": 0.8661417322834646,
          "duration": 0.20982121874999393
        },
        {
          "name": "G6",
          "midi": 91,
          "time": 113.99988599999888,
          "velocity": 0.8661417322834646,
          "duration": 0.10267846874999975
        },
        {
          "name": "F#6",
          "midi": 90,
          "time": 114.10702874999888,
          "velocity": 0.8661417322834646,
          "duration": 0.10267846874999975
        },
        {
          "name": "E6",
          "midi": 88,
          "time": 114.21417149999887,
          "velocity": 0.8661417322834646,
          "duration": 0.20982121874999393
        },
        {
          "name": "G6",
          "midi": 91,
          "time": 114.42845699999886,
          "velocity": 0.8661417322834646,
          "duration": 0.20982121874999393
        },
        {
          "name": "A6",
          "midi": 93,
          "time": 114.64274249999885,
          "velocity": 0.8661417322834646,
          "duration": 0.20982121874999393
        },
        {
          "name": "G6",
          "midi": 91,
          "time": 114.85702799999883,
          "velocity": 0.8661417322834646,
          "duration": 0.10267846874999975
        },
        {
          "name": "F#6",
          "midi": 90,
          "time": 114.96417074999883,
          "velocity": 0.8661417322834646,
          "duration": 0.10267846874999975
        },
        {
          "name": "E6",
          "midi": 88,
          "time": 115.07131349999882,
          "velocity": 0.8661417322834646,
          "duration": 0.20982121874999393
        },
        {
          "name": "G6",
          "midi": 91,
          "time": 115.28559899999881,
          "velocity": 0.8661417322834646,
          "duration": 0.20982121874999393
        },
        {
          "name": "A6",
          "midi": 93,
          "time": 115.4998844999988,
          "velocity": 0.8661417322834646,
          "duration": 0.20982121874999393
        },
        {
          "name": "G6",
          "midi": 91,
          "time": 115.71416999999879,
          "velocity": 0.8661417322834646,
          "duration": 0.10267846874999975
        },
        {
          "name": "F#6",
          "midi": 90,
          "time": 115.82131274999878,
          "velocity": 0.8661417322834646,
          "duration": 0.10267846874999975
        },
        {
          "name": "E6",
          "midi": 88,
          "time": 115.92845549999878,
          "velocity": 0.8661417322834646,
          "duration": 0.20982121874999393
        },
        {
          "name": "G6",
          "midi": 91,
          "time": 116.14274099999876,
          "velocity": 0.8661417322834646,
          "duration": 0.20982121874999393
        },
        {
          "name": "A6",
          "midi": 93,
          "time": 116.35702649999875,
          "velocity": 0.8661417322834646,
          "duration": 0.20982121874999393
        },
        {
          "name": "G6",
          "midi": 91,
          "time": 116.57131199999874,
          "velocity": 0.8661417322834646,
          "duration": 0.10267846874999975
        },
        {
          "name": "F#6",
          "midi": 90,
          "time": 116.67845474999874,
          "velocity": 0.8661417322834646,
          "duration": 0.10267846874999975
        },
        {
          "name": "E6",
          "midi": 88,
          "time": 116.78559749999873,
          "velocity": 0.8661417322834646,
          "duration": 0.20982121874999393
        },
        {
          "name": "G6",
          "midi": 91,
          "time": 116.99988299999872,
          "velocity": 0.8661417322834646,
          "duration": 0.20982121874999393
        },
        {
          "name": "A6",
          "midi": 93,
          "time": 117.2141684999987,
          "velocity": 0.8661417322834646,
          "duration": 0.20982121874999393
        },
        {
          "name": "G6",
          "midi": 91,
          "time": 117.4284539999987,
          "velocity": 0.8661417322834646,
          "duration": 0.10267846874999975
        },
        {
          "name": "F#6",
          "midi": 90,
          "time": 117.53559674999869,
          "velocity": 0.8661417322834646,
          "duration": 0.10267846874999975
        },
        {
          "name": "E6",
          "midi": 88,
          "time": 117.64273949999868,
          "velocity": 0.8661417322834646,
          "duration": 0.20982121874999393
        },
        {
          "name": "G6",
          "midi": 91,
          "time": 117.85702499999867,
          "velocity": 0.8661417322834646,
          "duration": 0.20982121874999393
        },
        {
          "name": "A6",
          "midi": 93,
          "time": 118.07131049999866,
          "velocity": 0.8661417322834646,
          "duration": 0.20982121874999393
        },
        {
          "name": "G6",
          "midi": 91,
          "time": 118.28559599999865,
          "velocity": 0.8661417322834646,
          "duration": 0.10267846874999975
        },
        {
          "name": "F#6",
          "midi": 90,
          "time": 118.39273874999864,
          "velocity": 0.8661417322834646,
          "duration": 0.10267846874999975
        },
        {
          "name": "E6",
          "midi": 88,
          "time": 118.49988149999864,
          "velocity": 0.8661417322834646,
          "duration": 0.20982121874999393
        },
        {
          "name": "G6",
          "midi": 91,
          "time": 118.71416699999862,
          "velocity": 0.8661417322834646,
          "duration": 0.20982121874999393
        },
        {
          "name": "A6",
          "midi": 93,
          "time": 118.92845249999861,
          "velocity": 0.8661417322834646,
          "duration": 0.20982121874999393
        },
        {
          "name": "G6",
          "midi": 91,
          "time": 119.1427379999986,
          "velocity": 0.8661417322834646,
          "duration": 0.10267846874999975
        },
        {
          "name": "F#6",
          "midi": 90,
          "time": 119.2498807499986,
          "velocity": 0.8661417322834646,
          "duration": 0.10267846874999975
        },
        {
          "name": "E6",
          "midi": 88,
          "time": 119.35702349999859,
          "velocity": 0.8661417322834646,
          "duration": 0.20982121874999393
        },
        {
          "name": "G6",
          "midi": 91,
          "time": 119.57130899999858,
          "velocity": 0.8661417322834646,
          "duration": 0.20982121874999393
        },
        {
          "name": "A6",
          "midi": 93,
          "time": 119.78559449999857,
          "velocity": 0.8661417322834646,
          "duration": 0.20982121874999393
        },
        {
          "name": "G6",
          "midi": 91,
          "time": 119.99987999999856,
          "velocity": 0.8661417322834646,
          "duration": 0.10267846874999975
        },
        {
          "name": "F#6",
          "midi": 90,
          "time": 120.10702274999855,
          "velocity": 0.8661417322834646,
          "duration": 0.10267846874999975
        },
        {
          "name": "E6",
          "midi": 88,
          "time": 120.21416549999854,
          "velocity": 0.8661417322834646,
          "duration": 0.20982121874999393
        },
        {
          "name": "E6",
          "midi": 88,
          "time": 164.57126399999854,
          "velocity": 0.8661417322834646,
          "duration": 0.20982121874999393
        },
        {
          "name": "A6",
          "midi": 93,
          "time": 164.78554949999852,
          "velocity": 0.8661417322834646,
          "duration": 0.049107093749995556
        },
        {
          "name": "B6",
          "midi": 95,
          "time": 164.8391208749985,
          "velocity": 0.8661417322834646,
          "duration": 0.049107093749995556
        },
        {
          "name": "C7",
          "midi": 96,
          "time": 164.8926922499985,
          "velocity": 0.8661417322834646,
          "duration": 0.049107093749995556
        },
        {
          "name": "D7",
          "midi": 98,
          "time": 164.9462636249985,
          "velocity": 0.8661417322834646,
          "duration": 0.049107093749995556
        },
        {
          "name": "E7",
          "midi": 100,
          "time": 164.99983499999848,
          "velocity": 0.8661417322834646,
          "duration": 0.357142500000009
        },
        {
          "name": "E5",
          "midi": 76,
          "time": 165.4284059999985,
          "velocity": 0.8661417322834646,
          "duration": 0.20982121874999393
        },
        {
          "name": "E6",
          "midi": 88,
          "time": 165.4284059999985,
          "velocity": 0.8661417322834646,
          "duration": 0.20982121874999393
        },
        {
          "name": "F#5",
          "midi": 78,
          "time": 165.64269149999848,
          "velocity": 0.8661417322834646,
          "duration": 0.20982121874999393
        },
        {
          "name": "F#6",
          "midi": 90,
          "time": 165.64269149999848,
          "velocity": 0.8661417322834646,
          "duration": 0.20982121874999393
        },
        {
          "name": "G5",
          "midi": 79,
          "time": 165.85697699999847,
          "velocity": 0.8661417322834646,
          "duration": 0.357142500000009
        },
        {
          "name": "G6",
          "midi": 91,
          "time": 165.85697699999847,
          "velocity": 0.8661417322834646,
          "duration": 0.357142500000009
        },
        {
          "name": "A5",
          "midi": 81,
          "time": 166.28554799999847,
          "velocity": 0.8661417322834646,
          "duration": 0.357142500000009
        },
        {
          "name": "A6",
          "midi": 93,
          "time": 166.28554799999847,
          "velocity": 0.8661417322834646,
          "duration": 0.357142500000009
        },
        {
          "name": "A5",
          "midi": 81,
          "time": 167.14268999999848,
          "velocity": 0.8661417322834646,
          "duration": 0.357142500000009
        },
        {
          "name": "A6",
          "midi": 93,
          "time": 167.14268999999848,
          "velocity": 0.8661417322834646,
          "duration": 0.357142500000009
        },
        {
          "name": "G5",
          "midi": 79,
          "time": 167.5712609999985,
          "velocity": 0.8661417322834646,
          "duration": 0.20982121874999393
        },
        {
          "name": "G6",
          "midi": 91,
          "time": 167.5712609999985,
          "velocity": 0.8661417322834646,
          "duration": 0.20982121874999393
        },
        {
          "name": "F#5",
          "midi": 78,
          "time": 167.78554649999847,
          "velocity": 0.8661417322834646,
          "duration": 0.20982121874999393
        },
        {
          "name": "F#6",
          "midi": 90,
          "time": 167.78554649999847,
          "velocity": 0.8661417322834646,
          "duration": 0.20982121874999393
        },
        {
          "name": "E5",
          "midi": 76,
          "time": 167.99983199999846,
          "velocity": 0.8661417322834646,
          "duration": 0.357142500000009
        },
        {
          "name": "E6",
          "midi": 88,
          "time": 167.99983199999846,
          "velocity": 0.8661417322834646,
          "duration": 0.357142500000009
        },
        {
          "name": "G5",
          "midi": 79,
          "time": 168.85697399999847,
          "velocity": 0.8661417322834646,
          "duration": 0.20982121874999393
        },
        {
          "name": "G6",
          "midi": 91,
          "time": 168.85697399999847,
          "velocity": 0.8661417322834646,
          "duration": 0.20982121874999393
        },
        {
          "name": "A5",
          "midi": 81,
          "time": 169.07125949999846,
          "velocity": 0.8661417322834646,
          "duration": 0.20982121874999393
        },
        {
          "name": "A6",
          "midi": 93,
          "time": 169.07125949999846,
          "velocity": 0.8661417322834646,
          "duration": 0.20982121874999393
        },
        {
          "name": "G5",
          "midi": 79,
          "time": 169.28554499999845,
          "velocity": 0.8661417322834646,
          "duration": 0.10267846875001396
        },
        {
          "name": "G6",
          "midi": 91,
          "time": 169.28554499999845,
          "velocity": 0.8661417322834646,
          "duration": 0.10267846875001396
        },
        {
          "name": "F#5",
          "midi": 78,
          "time": 169.39268774999846,
          "velocity": 0.8661417322834646,
          "duration": 0.10267846875001396
        },
        {
          "name": "F#6",
          "midi": 90,
          "time": 169.39268774999846,
          "velocity": 0.8661417322834646,
          "duration": 0.10267846875001396
        },
        {
          "name": "E5",
          "midi": 76,
          "time": 169.49983049999847,
          "velocity": 0.8661417322834646,
          "duration": 0.20982121874999393
        },
        {
          "name": "E6",
          "midi": 88,
          "time": 169.49983049999847,
          "velocity": 0.8661417322834646,
          "duration": 0.20982121874999393
        },
        {
          "name": "A5",
          "midi": 81,
          "time": 169.92840149999847,
          "velocity": 0.8661417322834646,
          "duration": 0.10267846875001396
        },
        {
          "name": "A6",
          "midi": 93,
          "time": 169.92840149999847,
          "velocity": 0.8661417322834646,
          "duration": 0.10267846875001396
        },
        {
          "name": "G5",
          "midi": 79,
          "time": 170.03554424999848,
          "velocity": 0.8661417322834646,
          "duration": 0.10267846875001396
        },
        {
          "name": "G6",
          "midi": 91,
          "time": 170.03554424999848,
          "velocity": 0.8661417322834646,
          "duration": 0.10267846875001396
        },
        {
          "name": "F#5",
          "midi": 78,
          "time": 170.1426869999985,
          "velocity": 0.8661417322834646,
          "duration": 0.357142500000009
        },
        {
          "name": "F#6",
          "midi": 90,
          "time": 170.1426869999985,
          "velocity": 0.8661417322834646,
          "duration": 0.357142500000009
        },
        {
          "name": "A5",
          "midi": 81,
          "time": 170.7855434999985,
          "velocity": 0.8661417322834646,
          "duration": 0.20982121874999393
        },
        {
          "name": "A6",
          "midi": 93,
          "time": 170.7855434999985,
          "velocity": 0.8661417322834646,
          "duration": 0.20982121874999393
        },
        {
          "name": "G5",
          "midi": 79,
          "time": 170.9998289999985,
          "velocity": 0.8661417322834646,
          "duration": 0.10267846875001396
        },
        {
          "name": "G6",
          "midi": 91,
          "time": 170.9998289999985,
          "velocity": 0.8661417322834646,
          "duration": 0.10267846875001396
        },
        {
          "name": "F#5",
          "midi": 78,
          "time": 171.1069717499985,
          "velocity": 0.8661417322834646,
          "duration": 0.10267846875001396
        },
        {
          "name": "F#6",
          "midi": 90,
          "time": 171.1069717499985,
          "velocity": 0.8661417322834646,
          "duration": 0.10267846875001396
        },
        {
          "name": "E5",
          "midi": 76,
          "time": 171.21411449999852,
          "velocity": 0.8661417322834646,
          "duration": 0.20982121874999393
        },
        {
          "name": "E6",
          "midi": 88,
          "time": 171.21411449999852,
          "velocity": 0.8661417322834646,
          "duration": 0.20982121874999393
        },
        {
          "name": "F#5",
          "midi": 78,
          "time": 172.28554199999851,
          "velocity": 0.8661417322834646,
          "duration": 0.20982121874999393
        },
        {
          "name": "F#6",
          "midi": 90,
          "time": 172.28554199999851,
          "velocity": 0.8661417322834646,
          "duration": 0.20982121874999393
        },
        {
          "name": "G5",
          "midi": 79,
          "time": 172.4998274999985,
          "velocity": 0.8661417322834646,
          "duration": 0.20982121874999393
        },
        {
          "name": "G6",
          "midi": 91,
          "time": 172.4998274999985,
          "velocity": 0.8661417322834646,
          "duration": 0.20982121874999393
        },
        {
          "name": "A5",
          "midi": 81,
          "time": 172.7141129999985,
          "velocity": 0.8661417322834646,
          "duration": 0.357142500000009
        },
        {
          "name": "A6",
          "midi": 93,
          "time": 172.7141129999985,
          "velocity": 0.8661417322834646,
          "duration": 0.357142500000009
        },
        {
          "name": "B5",
          "midi": 83,
          "time": 173.1426839999985,
          "velocity": 0.8661417322834646,
          "duration": 0.357142500000009
        },
        {
          "name": "B6",
          "midi": 95,
          "time": 173.1426839999985,
          "velocity": 0.8661417322834646,
          "duration": 0.357142500000009
        },
        {
          "name": "F#6",
          "midi": 90,
          "time": 173.9998259999985,
          "velocity": 0.8661417322834646,
          "duration": 0.10267846875001396
        },
        {
          "name": "F#7",
          "midi": 102,
          "time": 173.9998259999985,
          "velocity": 0.8661417322834646,
          "duration": 0.10267846875001396
        },
        {
          "name": "E6",
          "midi": 88,
          "time": 174.10696874999852,
          "velocity": 0.8661417322834646,
          "duration": 0.10267846875001396
        },
        {
          "name": "E7",
          "midi": 100,
          "time": 174.10696874999852,
          "velocity": 0.8661417322834646,
          "duration": 0.10267846875001396
        },
        {
          "name": "D#6",
          "midi": 87,
          "time": 174.21411149999852,
          "velocity": 0.8661417322834646,
          "duration": 0.20982121874999393
        },
        {
          "name": "D#7",
          "midi": 99,
          "time": 174.21411149999852,
          "velocity": 0.8661417322834646,
          "duration": 0.20982121874999393
        },
        {
          "name": "D6",
          "midi": 86,
          "time": 176.1426809999985,
          "velocity": 0.8661417322834646,
          "duration": 0.10267846875001396
        },
        {
          "name": "D7",
          "midi": 98,
          "time": 176.1426809999985,
          "velocity": 0.8661417322834646,
          "duration": 0.10267846875001396
        },
        {
          "name": "E6",
          "midi": 88,
          "time": 176.2498237499985,
          "velocity": 0.8661417322834646,
          "duration": 0.10267846875001396
        },
        {
          "name": "E7",
          "midi": 100,
          "time": 176.2498237499985,
          "velocity": 0.8661417322834646,
          "duration": 0.10267846875001396
        },
        {
          "name": "F6",
          "midi": 89,
          "time": 176.35696649999852,
          "velocity": 0.8661417322834646,
          "duration": 0.20982121874999393
        },
        {
          "name": "F7",
          "midi": 101,
          "time": 176.35696649999852,
          "velocity": 0.8661417322834646,
          "duration": 0.20982121874999393
        },
        {
          "name": "A7",
          "midi": 105,
          "time": 226.17834524999853,
          "velocity": 0.8661417322834646,
          "duration": 0.10267846875001396
        },
        {
          "name": "A#7",
          "midi": 106,
          "time": 226.44620212499854,
          "velocity": 0.8661417322834646,
          "duration": 0.26339259375001234
        }
      ],
      "controlChanges": {
        "10": [
          {
            "number": 10,
            "time": 0,
            "value": 0.5039370078740157
          }
        ]
      },
      "id": 14,
      "name": "Flute",
      "instrumentNumber": 73,
      "instrument": "flute",
      "instrumentFamily": "pipe",
      "channelNumber": 11,
      "isPercussion": false
    },
    {
      "startTime": 0,
      "duration": 0,
      "length": 0,
      "notes": [],
      "controlChanges": {
        "10": [
          {
            "number": 10,
            "time": 0,
            "value": 0.5039370078740157
          }
        ]
      },
      "id": 15,
      "name": "Choir",
      "instrumentNumber": 52,
      "instrument": "choir aahs",
      "instrumentFamily": "ensemble",
      "channelNumber": 0,
      "isPercussion": false
    },
    {
      "startTime": 0,
      "duration": 0,
      "length": 0,
      "notes": [],
      "controlChanges": {},
      "id": 16
    },
    {
      "startTime": 0,
      "duration": 0,
      "length": 0,
      "notes": [],
      "controlChanges": {},
      "id": 17
    },
    {
      "startTime": 0,
      "duration": 0,
      "length": 0,
      "notes": [],
      "controlChanges": {},
      "id": 18
    },
    {
      "startTime": 0,
      "duration": 0,
      "length": 0,
      "notes": [],
      "controlChanges": {},
      "id": 19
    },
    {
      "startTime": 0,
      "duration": 0,
      "length": 0,
      "notes": [],
      "controlChanges": {},
      "id": 20
    },
    {
      "startTime": 0,
      "duration": 0,
      "length": 0,
      "notes": [],
      "controlChanges": {},
      "id": 21
    },
    {
      "startTime": 0,
      "duration": 0,
      "length": 0,
      "notes": [],
      "controlChanges": {},
      "id": 22
    }
  ]
}
